<?xml version="1.0"?>
<svg width="100" height="100" xmlns="http://www.w3.org/2000/svg" xmlns:svg="http://www.w3.org/2000/svg" version="1.1" xml:space="preserve">

 <g class="layer">
  <title>Layer 1</title>
  <path d="m62.07,99.29c-0.28,-0.27 -2.39,-1.89 -2.48,-1.89c-0.04,0 -0.34,-0.22 -0.69,-0.5c-0.85,-0.68 -1.69,-1.33 -3.39,-2.59c-0.78,-0.59 -1.66,-1.27 -1.95,-1.51c-0.29,-0.25 -0.68,-0.53 -0.87,-0.62c-0.19,-0.1 -0.34,-0.22 -0.34,-0.27c0,-0.05 -0.16,-0.19 -0.34,-0.31c-0.63,-0.4 -0.75,-0.48 -1.68,-1.18c-0.51,-0.38 -1.17,-0.86 -1.46,-1.06c-0.56,-0.38 -1.18,-0.84 -1.52,-1.12c-0.11,-0.09 -0.44,-0.32 -0.74,-0.52c-0.68,-0.44 -3.07,-2.2 -3.51,-2.58c-0.18,-0.15 -0.53,-0.4 -0.78,-0.54c-0.25,-0.15 -0.82,-0.55 -1.26,-0.91c-0.44,-0.35 -1.45,-1.12 -2.24,-1.7c-0.78,-0.58 -1.55,-1.18 -1.69,-1.32c-0.26,-0.26 -1.43,-1.08 -2.18,-1.53c-0.2,-0.12 -0.42,-0.3 -0.5,-0.38c-0.12,-0.15 -0.71,-0.6 -2.93,-2.25c-0.39,-0.29 -1.04,-0.8 -1.44,-1.12c-0.4,-0.32 -0.81,-0.64 -0.9,-0.69c-0.1,-0.06 -0.34,-0.24 -0.53,-0.42c-0.2,-0.18 -0.71,-0.6 -1.15,-0.95c-0.72,-0.58 -1.15,-0.94 -3.12,-2.7c-0.36,-0.32 -0.86,-0.75 -1.12,-0.95c-0.48,-0.38 -1.28,-1.07 -1.37,-1.17c-0.03,-0.03 -0.39,-0.33 -0.8,-0.65c-0.41,-0.32 -1,-0.84 -1.32,-1.14c-0.32,-0.3 -0.88,-0.79 -1.24,-1.09c-0.36,-0.3 -0.66,-0.6 -0.66,-0.66c0,-0.13 0.82,-0.76 1.06,-0.82c0.08,-0.02 0.24,-0.12 0.35,-0.22c0.12,-0.1 0.4,-0.31 0.64,-0.47c0.41,-0.28 1.56,-1.18 2.02,-1.59c0.12,-0.1 0.36,-0.26 0.53,-0.35c0.31,-0.16 0.82,-0.62 2.64,-2.42c1.11,-1.1 1.14,-1.13 1.46,-1.73c0.13,-0.25 0.47,-0.79 0.74,-1.2c0.27,-0.42 0.53,-0.9 0.56,-1.08c0.04,-0.18 0.11,-0.34 0.16,-0.34c0.05,0 0.09,-0.06 0.09,-0.15c0,-0.08 0.04,-0.16 0.08,-0.18c0.16,-0.08 0.55,-0.72 0.55,-0.93c0,-0.12 0.04,-0.22 0.08,-0.22c0.04,0 0.14,-0.18 0.21,-0.4c0.11,-0.36 0.1,-0.44 -0.2,-0.95c-0.36,-0.64 -1,-1.2 -1.72,-1.51c-1.52,-0.67 -4.18,-3.04 -4.56,-4.06c-0.11,-0.29 -0.32,-0.72 -0.48,-0.95c-0.15,-0.23 -0.36,-0.71 -0.46,-1.06c-0.23,-0.79 -0.73,-2.32 -1.2,-3.7c-0.38,-1.11 -0.51,-1.56 -0.65,-2.17c-0.04,-0.2 -0.21,-0.7 -0.36,-1.1c-0.16,-0.4 -0.28,-0.84 -0.28,-0.97c0,-0.13 -0.07,-0.3 -0.16,-0.37c-0.09,-0.07 -0.16,-0.24 -0.16,-0.38c0,-0.14 -0.04,-0.28 -0.1,-0.31c-0.06,-0.04 -0.11,-0.29 -0.11,-0.56c0,-0.28 -0.05,-0.56 -0.12,-0.62c-0.29,-0.3 -0.14,-4.44 0.23,-6.11c0.06,-0.29 0.13,-0.65 0.15,-0.8c0.02,-0.14 0.12,-0.48 0.21,-0.74c0.1,-0.26 0.22,-0.61 0.27,-0.78c0.06,-0.17 0.17,-0.39 0.26,-0.48c0.22,-0.24 0.48,-1.02 0.48,-1.43c0,-0.19 0.03,-0.38 0.07,-0.42c0.04,-0.04 0.08,-0.13 0.1,-0.2c0.05,-0.32 0.38,-2.09 0.48,-2.67c0.07,-0.35 0.19,-0.77 0.27,-0.93c0.08,-0.16 0.12,-0.34 0.09,-0.39c-0.03,-0.05 -0.02,-0.21 0.04,-0.34c0.05,-0.13 0.15,-0.44 0.22,-0.67c0.07,-0.23 0.19,-0.56 0.26,-0.74c0.08,-0.18 0.19,-0.53 0.26,-0.79c0.07,-0.26 0.27,-0.67 0.44,-0.92c0.17,-0.24 0.31,-0.52 0.31,-0.62c0,-0.19 0.41,-0.92 0.55,-0.98c0.04,-0.02 0.08,-0.12 0.08,-0.22c0,-0.11 0.07,-0.25 0.16,-0.32c0.09,-0.07 0.16,-0.2 0.16,-0.28c0,-0.08 0.04,-0.15 0.09,-0.15c0.05,0 0.16,-0.13 0.24,-0.29c0.16,-0.32 1.07,-1.45 1.41,-1.75c0.12,-0.1 0.26,-0.28 0.32,-0.38c0.18,-0.3 1.27,-1.61 1.63,-1.95c0.18,-0.17 0.33,-0.37 0.33,-0.44c0,-0.08 0.09,-0.18 0.2,-0.24c0.1,-0.06 0.38,-0.28 0.61,-0.51c0.96,-0.93 2.81,-2.46 2.97,-2.46c0.05,0 0.34,-0.22 0.64,-0.48c0.3,-0.26 0.58,-0.48 0.63,-0.48c0.04,0 0.2,-0.11 0.35,-0.25c0.6,-0.56 4.11,-2.1 5.08,-2.23c0.14,-0.02 0.5,-0.11 0.79,-0.19c0.8,-0.24 1.55,-0.42 1.91,-0.46c1.04,-0.11 1.49,-0.18 1.64,-0.23c0.08,-0.03 0.42,-0.07 0.74,-0.09c3.47,-0.21 4.62,-0.26 6.03,-0.27c0.9,0 1.92,0.04 2.27,0.12c0.35,0.07 0.9,0.18 1.22,0.24c0.32,0.06 0.82,0.16 1.11,0.22c0.85,0.18 3,0.91 3.84,1.3c0.42,0.2 0.82,0.36 0.87,0.36c0.06,0 0.1,0.04 0.1,0.09c0,0.05 0.21,0.19 0.47,0.32c0.5,0.25 1.23,0.86 2.17,1.81c0.44,0.44 0.62,0.72 0.72,1.12c0.08,0.29 0.19,0.64 0.25,0.79c0.06,0.14 0.12,0.41 0.14,0.58c0.04,0.45 0.27,1.45 0.37,1.65c0.05,0.1 0.12,0.36 0.16,0.58c0.12,0.61 0.68,1.62 1.08,1.93c0.93,0.72 2.45,2.48 2.45,2.83c0,0.08 0.08,0.2 0.18,0.28c0.1,0.08 0.33,0.42 0.5,0.77c0.17,0.35 0.34,0.66 0.38,0.69c0.08,0.06 0.54,0.96 0.76,1.48c0.28,0.64 0.32,0.79 0.3,0.93c-0.01,0.08 0.02,0.2 0.08,0.26c0.32,0.39 1.07,2.79 1.08,3.43c0,0.36 0.09,0.63 0.32,0.98c0.17,0.26 0.39,0.6 0.5,0.76c0.1,0.16 0.29,0.34 0.42,0.4c0.14,0.06 0.28,0.2 0.32,0.3c0.04,0.1 0.16,0.28 0.27,0.4c0.78,0.83 0.67,1.88 -0.3,2.79c-0.6,0.56 -0.67,0.77 -0.41,1.11c0.21,0.28 0.2,1.21 -0.02,1.45c-0.09,0.1 -0.17,0.32 -0.17,0.48c0,0.16 -0.07,0.37 -0.15,0.47c-0.13,0.15 -0.13,0.18 0,0.23c0.08,0.03 0.22,0.19 0.31,0.36c0.08,0.16 0.37,0.68 0.64,1.15c0.26,0.46 0.51,0.96 0.56,1.11c0.04,0.15 0.26,0.48 0.49,0.75c0.22,0.27 0.41,0.54 0.41,0.61c0,0.07 0.04,0.12 0.1,0.12c0.11,0 0.35,0.59 0.38,0.92c0.01,0.12 0.07,0.29 0.13,0.37c0.07,0.08 0.16,0.4 0.2,0.7c0.06,0.49 0.04,0.63 -0.23,1.15c-0.17,0.32 -0.44,0.7 -0.6,0.83c-0.34,0.3 -0.36,0.46 -0.08,0.82c0.12,0.15 0.21,0.32 0.21,0.37c0,0.06 0.09,0.22 0.2,0.36c0.27,0.34 1.51,2.73 1.87,3.58c0.16,0.38 0.36,0.97 0.44,1.31c0.15,0.58 0.14,0.63 -0.04,0.82c-0.66,0.68 -0.66,0.56 -0.04,1.18c0.56,0.57 0.73,0.86 0.8,1.37c0.05,0.4 0.31,0.86 0.7,1.25c0.32,0.33 0.33,0.35 0.14,0.49c-0.11,0.08 -0.24,0.15 -0.28,0.15c-0.05,0 -0.09,0.09 -0.09,0.21c0,0.12 0.42,0.64 0.96,1.2c0.88,0.92 0.94,1.02 0.79,1.17c-0.1,0.1 -0.26,0.17 -0.37,0.17c-0.11,0 -0.43,0.23 -0.71,0.5c-0.28,0.28 -0.64,0.56 -0.8,0.64c-0.27,0.12 -0.29,0.16 -0.22,0.52c0.04,0.22 0.11,0.47 0.15,0.56c0.04,0.09 0.11,0.36 0.15,0.62c0.04,0.25 0.11,0.54 0.16,0.63c0.05,0.1 0.15,0.4 0.22,0.66c0.26,0.94 0.96,2.12 1.47,2.49c0.26,0.19 0.59,0.45 0.73,0.57c0.14,0.12 0.31,0.22 0.38,0.22c0.07,0 0.41,0.3 0.76,0.67c0.83,0.89 1.07,1.58 1.08,3.14c0,1.11 0.09,1.69 0.4,2.71c0.11,0.36 0.14,0.71 0.09,1.06c-0.05,0.37 -0.02,0.64 0.1,0.92c0.26,0.63 -0.02,0.83 -0.47,0.34c-0.34,-0.36 -0.43,-0.25 -0.26,0.3c0.08,0.26 0.12,0.49 0.08,0.52c-0.03,0.03 0.05,0.38 0.17,0.76c0.26,0.81 0.2,0.94 -0.39,0.84c-0.19,-0.03 -0.34,-0.04 -0.34,-0.03c0,0.02 0.14,0.7 0.3,1.51c0.16,0.82 0.29,1.64 0.27,1.83c-0.02,0.28 0,0.32 0.12,0.23c0.13,-0.11 0.39,-1.11 0.52,-2.01c0.09,-0.61 0.26,-0.76 0.66,-0.62c0.38,0.13 0.4,0.21 0.37,1.65c-0.02,0.92 -0.51,3.21 -0.74,3.44c-0.07,0.07 -0.13,0.2 -0.13,0.27c0,0.2 -0.3,0.76 -0.6,1.12c-0.14,0.16 -0.25,0.39 -0.25,0.5c0,0.11 -0.06,0.24 -0.13,0.28c-0.07,0.05 -0.23,0.27 -0.34,0.49c-0.12,0.22 -0.45,0.65 -0.74,0.96c-0.29,0.31 -0.67,0.74 -0.85,0.97c-0.39,0.52 -0.71,0.82 -1.48,1.43c-0.34,0.26 -0.9,0.72 -1.25,1.03c-0.36,0.3 -0.69,0.56 -0.74,0.56c-0.08,0 -1.24,0.94 -1.49,1.22c-0.06,0.06 -0.34,0.28 -0.64,0.5c-0.29,0.21 -0.72,0.58 -0.95,0.82c-0.23,0.24 -0.53,0.48 -0.66,0.53c-0.13,0.05 -0.32,0.22 -0.42,0.38c-0.1,0.16 -1,1.11 -1.99,2.1c-2.35,2.37 -3.66,3.78 -3.88,4.19c-0.1,0.18 -0.28,0.4 -0.4,0.48c-0.12,0.08 -0.57,0.6 -1,1.13c-1.37,1.73 -1.81,2.02 -2.29,1.54z" fill="#ff0000" id="path19402" stroke-width="0.26"/>
  <path d="m73.61,87.25c0,-0.04 -0.21,-0.4 -0.47,-0.8c-0.81,-1.28 -0.91,-1.43 -0.91,-1.55c0,-0.06 -0.08,-0.28 -0.17,-0.5c-0.09,-0.21 -0.24,-0.55 -0.32,-0.74c-0.13,-0.3 -0.19,-0.34 -0.39,-0.28c-0.13,0.04 -0.42,0.1 -0.63,0.13c-0.48,0.06 -0.58,0.19 -0.36,0.44c0.1,0.1 0.17,0.23 0.17,0.28c0,0.18 0.44,1 0.54,1c0.05,0 0.1,0.11 0.1,0.24c0,0.62 1.91,2.24 2.3,1.95c0.07,-0.06 0.13,-0.13 0.13,-0.17zm-7.47,-1.99c-0.45,-0.72 -1.12,-1.4 -1.36,-1.4c-0.26,0 -0.34,0.14 -0.16,0.26c0.06,0.04 0.18,0.23 0.28,0.44c0.18,0.39 0.92,0.98 1.24,0.99c0.18,0 0.18,-0.01 0,-0.29zm2.19,-1.32c0.26,-0.31 0.26,-0.43 0,-0.36c-0.12,0.03 -0.4,0 -0.63,-0.05c-0.26,-0.07 -0.48,-0.07 -0.59,-0.01c-0.15,0.08 -0.11,0.14 0.28,0.38c0.57,0.34 0.69,0.35 0.94,0.04zm-5.98,-0.62c0.14,-0.14 -0.13,-0.3 -0.56,-0.32c-0.37,-0.02 -0.42,-0.02 -0.66,-0.12c-0.09,-0.04 -0.44,-0.14 -0.8,-0.24c-0.35,-0.09 -0.78,-0.24 -0.96,-0.32c-0.2,-0.09 -0.77,-0.15 -1.53,-0.16c-1.4,-0.02 -2.53,-0.24 -3.06,-0.59c-0.2,-0.14 -0.42,-0.25 -0.48,-0.25c-0.14,0 -0.98,-0.89 -1.32,-1.4c-0.14,-0.22 -0.3,-0.4 -0.34,-0.4c-0.14,0 -0.98,-0.62 -1.26,-0.92c-0.28,-0.3 -0.48,-0.63 -0.77,-1.32c-0.09,-0.21 -0.3,-0.47 -0.45,-0.57c-0.61,-0.4 -1.22,-1.07 -1.48,-1.61c-0.15,-0.31 -0.37,-0.63 -0.5,-0.72c-0.3,-0.19 -1.12,-0.38 -1.18,-0.27c-0.05,0.08 1.18,1.27 1.32,1.27c0.04,0 0.16,0.21 0.26,0.48c0.11,0.26 0.24,0.48 0.29,0.48c0.05,0 0.38,0.28 0.72,0.63c0.42,0.41 0.64,0.71 0.64,0.88c0,0.14 0.13,0.41 0.3,0.62c0.16,0.2 0.36,0.48 0.43,0.6c0.07,0.13 0.31,0.34 0.54,0.45c0.23,0.12 0.5,0.34 0.6,0.5c0.1,0.16 0.35,0.46 0.56,0.68c0.21,0.22 0.47,0.49 0.59,0.62c0.32,0.34 1.21,1 1.76,1.3c0.68,0.37 1.09,0.43 2.12,0.3c0.92,-0.12 1.17,-0.09 2.89,0.39c0.77,0.21 2.11,0.22 2.33,0.01zm12.64,-1.18c0.62,-0.3 1.07,-0.61 1.43,-0.99c0.47,-0.48 0.6,-0.56 1.08,-0.63c0.51,-0.07 0.57,-0.1 0.84,-0.56c0.16,-0.27 0.41,-0.72 0.54,-0.99c0.24,-0.49 0.25,-0.5 0.73,-0.5c0.96,0 1.13,-0.58 0.46,-1.58c-0.08,-0.12 -0.21,-0.07 -0.68,0.28c-0.32,0.24 -0.63,0.58 -0.71,0.76c-0.16,0.37 -0.43,0.5 -0.74,0.33c-0.27,-0.14 -0.38,-0.08 -0.48,0.29c-0.04,0.16 -0.21,0.52 -0.38,0.8c-0.17,0.28 -0.31,0.55 -0.31,0.61c0,0.06 -0.04,0.1 -0.09,0.1c-0.05,0 -0.23,0.21 -0.42,0.47c-0.41,0.58 -0.74,0.75 -1.59,0.84c-0.8,0.08 -1.32,0.33 -1.88,0.92l-0.42,0.44l0.84,-0.07c0.68,-0.06 1.02,-0.16 1.75,-0.51zm-13.43,-3.13c0,-0.48 -0.04,-0.56 -0.49,-1.02c-0.64,-0.65 -0.86,-0.5 -0.32,0.21c0.21,0.27 0.38,0.61 0.38,0.74c0,0.22 0.24,0.58 0.38,0.58c0.02,0 0.05,-0.24 0.05,-0.52zm-13.67,-0.38c-1.18,-0.63 -3.03,-1.28 -4.73,-1.68c-1.07,-0.25 -1.49,-0.41 -1.77,-0.69c-0.2,-0.2 -1.62,-2.3 -1.62,-2.39c0,-0.08 -1.39,-2.03 -2.06,-2.89c-0.46,-0.6 -1.04,-1.35 -1.29,-1.68c-0.49,-0.67 -0.48,-0.66 -2.15,-2.66c-0.65,-0.79 -1.4,-1.66 -1.65,-1.94c-0.67,-0.73 -1.62,-2.01 -1.62,-2.19c0,-0.08 -0.17,-0.31 -0.38,-0.52c-0.2,-0.21 -0.51,-0.54 -0.67,-0.74c-0.29,-0.36 -0.32,-0.36 -1.03,-0.34c-0.4,0.02 -0.77,0.06 -0.82,0.11c-0.05,0.05 0.09,0.27 0.3,0.5c0.21,0.22 0.51,0.62 0.66,0.88c0.16,0.26 0.41,0.6 0.57,0.76c0.16,0.16 0.42,0.5 0.57,0.77c0.16,0.27 0.32,0.48 0.38,0.48c0.08,0 0.41,0.44 0.79,1.05c0.16,0.27 0.72,0.99 0.98,1.28c0.13,0.14 0.24,0.31 0.24,0.37c0,0.06 0.18,0.3 0.41,0.53c0.22,0.23 0.53,0.62 0.68,0.85c0.16,0.23 0.4,0.59 0.55,0.79c0.15,0.2 0.38,0.55 0.53,0.77c0.14,0.22 0.31,0.4 0.37,0.4c0.06,0 0.1,0.06 0.1,0.14c0,0.08 0.14,0.28 0.32,0.44c0.17,0.17 0.32,0.36 0.32,0.42c0,0.06 0.26,0.43 0.57,0.82c0.32,0.39 0.65,0.85 0.74,1.02c0.08,0.17 0.36,0.57 0.62,0.88c0.25,0.31 0.58,0.76 0.74,1c0.99,1.49 1.37,2.04 1.61,2.28c0.15,0.15 0.27,0.35 0.27,0.44c0,0.09 0.11,0.28 0.24,0.42c0.21,0.23 0.37,0.28 1.24,0.34c0.55,0.04 1.68,0.09 2.51,0.11c0.83,0.02 1.53,0.05 1.55,0.07c0.02,0.02 0.58,0.05 1.24,0.07l1.2,0.03l-0.51,-0.27zm9.65,-0.26c0,-0.09 -0.11,-0.37 -0.56,-1.37c-0.33,-0.73 -1.61,-2.1 -1.79,-1.92c-0.08,0.08 -0.06,0.22 0.08,0.48c0.11,0.2 0.17,0.4 0.13,0.44c-0.04,0.04 0.02,0.2 0.12,0.35c0.11,0.15 0.22,0.4 0.26,0.55c0.04,0.16 0.38,0.55 0.82,0.92c0.74,0.64 0.95,0.76 0.95,0.54zm-3.23,-1.24c-0.12,-0.68 -1.04,-2.14 -1.24,-1.95c-0.06,0.06 -0.03,0.2 0.08,0.37c0.1,0.15 0.17,0.3 0.17,0.33c-0.03,0.25 0.16,0.74 0.32,0.84c0.11,0.07 0.2,0.2 0.2,0.3c0,0.14 0.36,0.51 0.5,0.51c0.02,0 0,-0.18 -0.04,-0.4zm15.89,-0.01c0.19,-0.16 0.38,-0.39 0.41,-0.52c0.04,-0.12 0.14,-0.26 0.22,-0.29c0.08,-0.03 0.15,-0.16 0.15,-0.28c0,-0.12 0.1,-0.32 0.21,-0.44c0.12,-0.13 0.21,-0.32 0.21,-0.43c0,-0.19 -0.02,-0.19 -0.32,0.03c-0.18,0.12 -0.32,0.27 -0.32,0.32c0,0.05 -0.16,0.26 -0.37,0.47c-0.2,0.21 -0.37,0.43 -0.37,0.48c0,0.06 -0.07,0.1 -0.16,0.1c-0.09,0 -0.2,0.11 -0.26,0.25c-0.05,0.14 -0.14,0.29 -0.21,0.32c-0.06,0.04 -0.11,0.14 -0.11,0.24c0,0.23 0.48,0.1 0.92,-0.26zm6.83,-2.38c0.16,-0.25 0.36,-0.76 0.46,-1.14c0.19,-0.77 0.44,-1.37 0.57,-1.37c0.17,0 0.32,0.28 0.37,0.68c0.1,0.8 0.4,0.76 0.64,-0.08c0.28,-0.98 0.35,-1.69 0.16,-1.75c-0.06,-0.02 -0.11,-0.09 -0.11,-0.16c0,-0.13 -0.52,-0.93 -0.69,-1.05c-0.22,-0.16 -0.36,-0.07 -0.35,0.24c0.01,0.5 -0.18,0.62 -0.51,0.31c-0.28,-0.26 -0.89,-1.11 -0.89,-1.24c0,-0.04 -0.06,-0.14 -0.14,-0.23c-0.08,-0.09 -0.2,-0.37 -0.27,-0.62c-0.07,-0.25 -0.18,-0.44 -0.24,-0.42c-0.15,0.05 -0.4,0.9 -0.33,1.09c0.03,0.08 -0.07,0.37 -0.22,0.64c-0.15,0.27 -0.27,0.53 -0.27,0.58c0,0.05 -0.22,0.32 -0.48,0.58l-0.48,0.49l0.06,0.86c0.03,0.47 0.05,1.01 0.05,1.2c0,0.19 0.04,0.34 0.1,0.34c0.14,0 0.42,-0.65 0.42,-0.99c0,-0.37 0.38,-0.44 0.6,-0.11c0.13,0.2 0.2,0.23 0.31,0.14c0.08,-0.06 0.13,-0.2 0.13,-0.29c-0.02,-0.22 0.42,-1.18 0.53,-1.18c0.21,0 0.31,0.2 0.33,0.64c0.01,0.26 0.03,0.58 0.05,0.71c0.02,0.12 0,0.51 -0.05,0.84c-0.13,0.93 -0.17,1.73 -0.1,1.73c0.04,0 0.2,-0.2 0.35,-0.46zm-11.07,-2.27c-0.07,-0.07 -0.67,0.49 -0.81,0.76c-0.06,0.11 -0.08,0.32 -0.04,0.46c0.06,0.25 0.1,0.22 0.49,-0.45c0.23,-0.39 0.4,-0.74 0.36,-0.77zm-20.92,0.8c-0.04,-0.18 0.5,-0.5 0.93,-0.55c0.23,-0.03 0.44,-0.06 0.45,-0.07c0.02,-0.01 0.07,-0.02 0.12,-0.03c0.06,-0.01 0.13,-0.05 0.18,-0.09c0.04,-0.04 0.19,-0.08 0.32,-0.08c0.13,0 0.29,-0.07 0.36,-0.16c0.07,-0.09 0.19,-0.16 0.26,-0.16c0.08,0 0.19,-0.07 0.26,-0.15c0.1,-0.12 0.02,-0.22 -0.48,-0.54c-0.6,-0.38 -0.9,-0.42 -0.9,-0.11c0,0.21 -0.32,0.21 -0.59,0.01c-0.3,-0.22 -0.46,-0.2 -0.53,0.1c-0.14,0.54 -0.6,0.6 -0.73,0.08c-0.04,-0.15 -0.16,-0.39 -0.26,-0.52l-0.19,-0.24l-0.05,0.45c-0.03,0.25 0.02,0.61 0.1,0.81c0.08,0.2 0.14,0.65 0.14,1.01c0,0.36 0.03,0.69 0.07,0.73c0.09,0.09 0.56,-0.34 0.53,-0.48zm24.26,0c0.31,-0.31 0.58,-1.04 0.48,-1.31c-0.09,-0.23 -0.42,-0.18 -0.59,0.09c-0.08,0.13 -0.31,0.52 -0.5,0.87c-0.2,0.34 -0.44,0.68 -0.54,0.76c-0.15,0.11 -0.08,0.11 0.33,0.02c0.31,-0.07 0.64,-0.24 0.82,-0.42zm3.31,-2.66c0.1,-0.2 0.17,-0.51 0.17,-0.69c0,-0.18 0.15,-0.57 0.33,-0.87c0.33,-0.54 0.34,-0.54 0.76,-0.48c0.36,0.06 0.4,0.05 0.29,-0.09c-0.09,-0.11 -0.1,-0.22 -0.02,-0.35c0.07,-0.12 0.07,-0.26 0.01,-0.35c-0.06,-0.08 -0.1,-0.35 -0.1,-0.58c0,-0.24 -0.03,-0.46 -0.07,-0.5c-0.04,-0.04 -0.08,-0.26 -0.11,-0.5c-0.04,-0.4 -0.02,-0.43 0.28,-0.49c0.53,-0.11 0.48,-0.31 -0.54,-2.42c-0.62,-1.28 -0.61,-1.48 0.06,-1.39c0.26,0.04 0.48,0.05 0.48,0.03c0,-0.1 -0.34,-0.71 -0.43,-0.76c-0.06,-0.04 -0.1,-0.15 -0.1,-0.26c0,-0.1 -0.08,-0.25 -0.17,-0.33c-0.53,-0.44 -0.83,-1.64 -0.82,-3.25c0,-0.71 -0.02,-1.3 -0.06,-1.29c-0.19,0.01 -0.45,0.33 -0.64,0.77c-0.12,0.28 -0.28,0.49 -0.38,0.49c-0.16,0 -0.4,-0.44 -0.35,-0.67c0.05,-0.26 -0.15,-0.81 -0.29,-0.81c-0.08,0 -0.15,0.01 -0.15,0.03c0,0.02 -0.1,0.32 -0.22,0.66c-0.44,1.25 -0.51,1.65 -0.48,2.9c0.02,0.82 0.09,1.34 0.21,1.61c0.11,0.26 0.16,0.64 0.15,1.16c-0.02,0.74 0.16,1.57 0.34,1.57c0.15,0 0.23,-0.29 0.36,-1.33c0.08,-0.64 0.7,-1.14 0.78,-0.62c0.12,0.88 0.5,2.4 0.7,2.78c0.09,0.18 0.17,0.44 0.17,0.59c0,0.15 0.05,0.3 0.11,0.33c0.17,0.11 0.12,0.46 -0.08,0.5c-0.1,0.02 -0.41,-0.08 -0.68,-0.23c-0.27,-0.15 -0.53,-0.24 -0.57,-0.2c-0.13,0.13 -0.12,0.88 0.02,1.3c0.18,0.54 0.18,0.88 0,1.23c-0.08,0.16 -0.18,0.54 -0.22,0.85c-0.12,0.95 -0.13,0.97 -0.6,0.9c-0.23,-0.03 -0.41,-0.03 -0.41,0c0,0.03 0.27,0.31 0.61,0.63c0.33,0.31 0.68,0.64 0.76,0.72c0.13,0.13 0.19,0.12 0.44,-0.05c0.16,-0.11 0.36,-0.37 0.46,-0.56zm-14.74,-0.63c0,-1.01 -0.7,-2.57 -1.05,-2.35c-0.17,0.1 -0.1,1.42 0.09,1.85c0.28,0.61 0.69,1.16 0.87,1.16c0.05,0 0.09,-0.3 0.09,-0.67zm8.45,-0.89c0,-0.08 0.04,-0.13 0.08,-0.13c0.1,0 0.45,-0.96 0.45,-1.25c0,-0.12 -0.06,-0.24 -0.15,-0.27c-0.28,-0.1 -1.08,1.81 -0.93,2.24c0.06,0.16 0.54,-0.36 0.55,-0.59zm-19.5,-0.72c-0.03,-0.08 -0.1,-0.15 -0.16,-0.15c-0.16,0 -0.14,0.67 0.02,0.83c0.1,0.11 0.14,0.07 0.16,-0.2c0.02,-0.18 0.01,-0.4 -0.02,-0.48zm22.79,0.29c0,-0.1 0.07,-0.36 0.14,-0.58c0.15,-0.42 0.08,-0.88 -0.31,-2.19c-0.16,-0.53 -0.14,-1.22 0.05,-2.15c0.08,-0.4 0.09,-0.66 0.03,-0.72c-0.16,-0.16 -0.54,0.14 -0.61,0.5c-0.04,0.18 -0.11,0.37 -0.16,0.44c-0.05,0.06 -0.14,0.42 -0.18,0.8c-0.08,0.54 -0.06,0.82 0.1,1.39c0.11,0.39 0.24,0.8 0.29,0.9c0.14,0.26 0.33,1.14 0.33,1.49c0,0.16 0.03,0.33 0.07,0.36c0.1,0.1 0.25,-0.02 0.26,-0.22zm-25.81,-0.5c0,-0.1 -0.35,-0.62 -0.71,-1.05c-0.22,-0.26 -0.35,-0.53 -0.35,-0.73c0,-0.55 -0.4,-1.24 -0.84,-1.41c-1.36,-0.56 -1.81,-0.88 -1.81,-1.32c0,-0.1 -0.06,-0.2 -0.13,-0.22c-0.07,-0.02 -0.15,-0.31 -0.18,-0.66c-0.06,-0.64 -0.13,-0.73 -0.65,-0.84c-0.2,-0.04 -0.3,-0.16 -0.4,-0.46c-0.07,-0.22 -0.22,-0.5 -0.34,-0.6c-0.12,-0.11 -0.21,-0.33 -0.21,-0.49c0,-0.16 -0.08,-0.38 -0.19,-0.48c-0.28,-0.28 -0.87,-1.06 -0.87,-1.15c0,-0.08 -1.03,-1.3 -1.44,-1.71c-0.31,-0.3 -0.42,-0.13 -0.2,0.31c0.09,0.18 0.16,0.39 0.16,0.46c0,0.07 0.07,0.18 0.15,0.25c0.08,0.07 0.18,0.29 0.22,0.49c0.07,0.38 0.58,1.38 0.92,1.83c0.11,0.14 0.2,0.31 0.2,0.38c0,0.15 1.36,2.21 1.49,2.26c0.05,0.02 0.1,0.09 0.1,0.15c0,0.06 0.16,0.32 0.37,0.57c0.2,0.25 0.37,0.48 0.37,0.51c0,0.03 0.22,0.3 0.5,0.6c0.28,0.3 0.58,0.66 0.67,0.8c0.28,0.43 1.64,1.66 2.46,2.23c0.48,0.33 0.7,0.42 0.7,0.3zm35.27,-0.18c0.1,-0.28 0.2,-1.43 0.19,-2.15c-0.01,-1.06 -0.32,-1.57 -1.93,-3.24c-0.73,-0.75 -1.48,-1.55 -1.68,-1.79c-0.58,-0.69 -0.61,-0.48 -0.17,1.28c0.2,0.8 0.33,1.51 0.47,2.73c0.13,1.04 0.36,1.59 0.59,1.39c0.08,-0.07 0.15,-0.22 0.15,-0.32c0,-0.15 0.08,-0.2 0.31,-0.2c0.38,0 0.69,0.44 0.92,1.34c0.11,0.42 0.25,0.69 0.44,0.85c0.32,0.26 0.64,0.31 0.71,0.11zm-13.8,-0.9c0,-0.11 0.04,-0.24 0.1,-0.3c0.05,-0.06 0.11,-0.26 0.13,-0.46c0.06,-0.64 -0.21,-0.5 -0.6,0.32c-0.4,0.84 -0.44,1 -0.24,1.08c0.18,0.06 0.61,-0.39 0.61,-0.64zm-16.17,-0.13c0.11,-0.56 0.15,-0.64 0.37,-0.64c0.18,0 0.33,0.12 0.52,0.42c0.15,0.23 0.31,0.42 0.36,0.42c0.18,0 0.65,-2.12 0.65,-2.93c0,-0.5 -0.14,-1.27 -0.24,-1.37c-0.15,-0.15 -0.48,0.25 -0.53,0.66c-0.1,0.7 -0.49,1.42 -0.77,1.42c-0.13,0 -0.26,-0.04 -0.29,-0.09c-0.07,-0.12 -0.26,-1.78 -0.34,-2.95c-0.03,-0.51 -0.08,-1 -0.11,-1.11c-0.08,-0.3 0.16,-0.9 0.7,-1.71c0.51,-0.77 1.17,-2.08 1.17,-2.32c0,-0.19 0.41,-0.7 0.57,-0.7c0.07,0 0.41,0.55 0.75,1.22c0.6,1.18 1,1.67 1.02,1.24c0.05,-1.38 0.26,-2.49 0.58,-3.12c0.08,-0.16 0.13,-0.29 0.1,-0.29c-0.03,0 0.04,-0.22 0.15,-0.48c0.11,-0.26 0.17,-0.48 0.14,-0.48c-0.04,0 -0.28,0.1 -0.54,0.23c-0.71,0.35 -0.82,0.23 -0.79,-0.9l0.02,-0.9l-0.3,0.17c-0.54,0.31 -0.65,0.16 -0.65,-0.98c0,-0.94 -0.1,-1.42 -0.3,-1.42c-0.23,0 -0.42,0.66 -0.49,1.69c-0.04,0.61 -0.11,1.15 -0.16,1.2c-0.27,0.27 -0.72,-0.37 -0.84,-1.19c-0.06,-0.42 -0.1,-0.49 -0.34,-0.52c-0.43,-0.05 -0.97,0.39 -1.1,0.9c-0.06,0.24 -0.23,0.53 -0.37,0.65c-0.2,0.16 -0.26,0.32 -0.29,0.72c-0.09,1.77 -0.13,1.94 -0.38,1.94c-0.07,0 -0.26,-0.14 -0.43,-0.32c-0.16,-0.18 -0.33,-0.32 -0.38,-0.32c-0.13,0 -0.75,0.82 -0.75,0.98c0,0.08 -0.19,0.36 -0.42,0.62c-0.23,0.25 -0.42,0.49 -0.42,0.52c0,0.04 0.1,0.44 0.22,0.9c0.12,0.46 0.26,1.26 0.3,1.79c0.13,1.41 0.11,1.36 0.8,2.12c0.12,0.13 0.32,0.26 0.44,0.3c0.34,0.11 1.33,1.08 1.28,1.24c-0.02,0.08 -0.2,0.16 -0.38,0.18c-0.39,0.04 -0.41,0.11 -0.12,0.47c0.12,0.15 0.21,0.36 0.21,0.46c0,0.11 0.19,0.69 0.42,1.3c0.23,0.61 0.42,1.16 0.42,1.22c0,0.13 0.22,0.37 0.34,0.37c0.04,0 0.13,-0.29 0.2,-0.64zm3.27,-0.16c0,-0.08 0.07,-0.36 0.16,-0.61c0.22,-0.64 0.26,-1.55 0.11,-1.98l-0.14,-0.37l-0.16,0.37c-0.24,0.57 -0.37,1.7 -0.26,2.33c0.02,0.14 0.05,0.3 0.06,0.34c0.03,0.15 0.23,0.08 0.23,-0.08zm-7.36,-1.03c0.14,-0.7 0.15,-0.77 0.16,-0.85c0.02,-0.17 0.44,-0.07 0.82,0.18c0.49,0.33 0.66,0.22 0.46,-0.28c-0.08,-0.2 -0.24,-0.5 -0.36,-0.67c-0.25,-0.37 -1.28,-1.61 -1.55,-1.87c-0.33,-0.32 -0.45,-0.9 -0.36,-1.71c0.12,-1.05 0.1,-1.8 -0.05,-2.07c-0.11,-0.2 -0.18,-0.22 -0.54,-0.16c-0.51,0.08 -0.73,-0.06 -0.73,-0.5c0,-0.66 -0.6,-0.41 -0.87,0.36c-0.11,0.32 -0.29,0.36 -0.61,0.16c-0.29,-0.18 -0.36,-0.05 -0.38,0.6c-0.01,0.31 -0.07,0.64 -0.15,0.73c-0.09,0.11 -0.11,0.27 -0.06,0.46c0.04,0.16 0.1,0.41 0.11,0.56c0.02,0.14 0.12,0.52 0.22,0.84c0.19,0.63 0.49,0.97 1.75,2.01c0.39,0.32 0.74,0.69 0.77,0.82c0.04,0.13 0.23,0.46 0.44,0.73c0.2,0.27 0.44,0.62 0.53,0.8c0.19,0.36 0.31,0.32 0.4,-0.15zm35.07,-2.27c0,-0.18 -0.54,-1.1 -0.65,-1.1c-0.12,0 0.04,0.56 0.25,0.92c0.22,0.38 0.4,0.45 0.4,0.17zm-19.31,-1.06c0.04,-0.34 0.1,-0.76 0.12,-0.93c0.11,-0.71 0.13,-1.33 0.04,-1.38c-0.17,-0.1 -0.52,0.17 -0.52,0.41c0,0.13 -0.07,0.33 -0.15,0.45c-0.12,0.17 -0.12,0.36 -0.02,1.06c0.19,1.3 0.4,1.46 0.52,0.4zm-3.77,-1.41c-0.01,-0.52 -0.06,-0.95 -0.1,-0.95c-0.14,0 -0.28,0.73 -0.22,1.19c0.07,0.59 0.11,0.72 0.24,0.72c0.07,0 0.1,-0.35 0.08,-0.95zm11.01,0.08c0.07,-0.25 0.14,-0.93 0.16,-1.51c0.03,-0.97 0.27,-1.99 0.51,-2.17c0.1,-0.07 0.46,-0.92 0.56,-1.32c0.26,-0.97 0.04,-1.17 -0.48,-0.45c-0.18,0.25 -0.4,0.54 -0.49,0.66c-0.26,0.31 -0.67,1.28 -0.74,1.72c-0.03,0.22 -0.11,0.5 -0.17,0.61c-0.14,0.27 -0.1,1.89 0.06,2.38c0.26,0.76 0.41,0.78 0.6,0.08zm-9.26,-0.74c0.03,-0.19 0.02,-0.42 -0.03,-0.5c-0.07,-0.12 -0.11,-0.1 -0.2,0.14c-0.13,0.34 -0.14,0.54 -0.04,0.64c0.14,0.14 0.23,0.06 0.28,-0.27zm-3.4,-0.11c0.01,-0.19 0.03,-0.77 0.05,-1.3c0.02,-0.52 0.06,-1.25 0.1,-1.61c0.06,-0.58 0.05,-0.66 -0.1,-0.66c-0.19,0 -0.5,0.59 -0.42,0.8c0.03,0.07 -0.04,0.28 -0.15,0.48c-0.26,0.47 -0.22,1.29 0.1,2.05c0.27,0.66 0.4,0.73 0.42,0.23zm-15.85,-2.77c-0.01,-0.57 -0.08,-1.1 -0.14,-1.18c-0.18,-0.22 -0.02,-0.36 0.38,-0.36c0.33,0 0.5,-0.14 0.27,-0.23c-0.18,-0.07 -1.2,-1.51 -1.46,-2.07c-0.27,-0.57 -0.42,-0.74 -0.53,-0.63c-0.07,0.07 0.17,1.02 0.3,1.19c0.08,0.11 0.06,0.84 -0.06,2.42c-0.04,0.48 0,0.59 0.39,1.16c0.76,1.11 0.88,1.06 0.84,-0.31zm35.19,0.63c0,-0.09 -0.04,-0.16 -0.09,-0.16c-0.06,0 -0.15,-0.13 -0.21,-0.29c-0.3,-0.77 -0.66,-0.84 -0.57,-0.1c0.04,0.3 0.12,0.44 0.33,0.55c0.36,0.2 0.54,0.2 0.54,0l0,0zm-17.08,-0.73c0.15,-0.14 0.27,-0.32 0.27,-0.4c0,-0.08 0.05,-0.2 0.12,-0.27c0.12,-0.12 0.22,-0.87 0.12,-0.87c-0.11,0 -0.58,0.55 -0.66,0.78c-0.12,0.32 -0.24,1.02 -0.18,1.02c0.03,0 0.18,-0.12 0.32,-0.25zm3.6,-1.58c0.4,-0.57 0.51,-0.79 0.85,-1.79c0.24,-0.72 0.27,-0.93 0.21,-1.64c-0.04,-0.45 -0.06,-1.16 -0.06,-1.57c0,-0.54 -0.04,-0.79 -0.15,-0.88c-0.13,-0.1 -0.17,-0.09 -0.22,0.07c-0.03,0.11 -0.09,0.27 -0.12,0.36c-0.06,0.14 -0.16,0.79 -0.28,1.8c-0.12,0.99 -0.18,1.29 -0.28,1.49c-0.07,0.12 -0.19,0.46 -0.28,0.76c-0.09,0.3 -0.22,0.64 -0.3,0.76c-0.17,0.26 -0.19,0.9 -0.04,1.08c0.15,0.18 0.31,0.08 0.67,-0.42zm-24.3,-1c-0.03,-0.6 -0.13,-1.2 -0.22,-1.43c-0.19,-0.44 -0.23,-1.3 -0.07,-1.4c0.06,-0.04 0.11,-0.14 0.11,-0.24c0,-0.21 0.41,-0.66 0.59,-0.66c0.07,0 0.45,-0.27 0.84,-0.61c0.7,-0.6 0.7,-0.61 0.64,-1.05c-0.04,-0.24 -0.21,-0.76 -0.38,-1.16c-0.37,-0.86 -0.39,-1.24 -0.1,-1.67c0.36,-0.54 0.28,-0.72 -0.36,-0.94c-0.32,-0.11 -0.68,-0.3 -0.82,-0.42c-0.38,-0.34 -1.27,-0.87 -1.59,-0.93c-0.21,-0.04 -0.35,0.02 -0.54,0.22c-0.37,0.4 -0.8,1.2 -0.88,1.67c-0.09,0.49 -0.6,1.33 -0.96,1.59c-0.29,0.21 -0.46,0.76 -0.46,1.51c0,0.29 -0.09,0.62 -0.22,0.83c-0.18,0.3 -0.2,0.4 -0.09,0.72c0.06,0.2 0.22,0.42 0.35,0.48c0.12,0.06 0.32,0.24 0.44,0.41c0.12,0.17 0.57,0.73 1.02,1.24c0.44,0.52 0.84,1.04 0.88,1.16c0.04,0.13 0.23,0.36 0.43,0.52c0.2,0.16 0.5,0.5 0.68,0.74c0.21,0.29 0.41,0.45 0.55,0.45c0.22,0 0.22,-0.03 0.17,-1.03zm7.4,0.75c0.1,-0.16 0.51,-0.61 0.9,-1c0.57,-0.58 0.72,-0.8 0.78,-1.14c0.08,-0.47 0.02,-0.51 -0.44,-0.3c-0.52,0.24 -0.54,-0.12 -0.13,-1.77c0.18,-0.72 0.2,-1.04 0.14,-2.17l-0.07,-1.32l-0.39,-0.34c-0.58,-0.5 -0.69,-0.51 -1.11,-0.08c-0.77,0.77 -0.94,0.48 -1.09,-1.86c-0.06,-0.9 -0.11,-1.14 -0.26,-1.24c-0.15,-0.1 -0.26,-0.04 -0.6,0.28c-0.22,0.22 -0.54,0.49 -0.71,0.62c-0.28,0.21 -0.3,0.27 -0.3,1.02c0,0.48 -0.06,0.9 -0.15,1.08c-0.19,0.37 -0.19,0.76 -0.01,1.29c0.21,0.59 0.31,1.38 0.19,1.46c-0.06,0.04 -0.08,0.31 -0.04,0.63c0.04,0.37 0.01,0.65 -0.08,0.82c-0.08,0.14 -0.13,0.29 -0.12,0.34c0.05,0.19 -0.5,0.07 -0.56,-0.12c-0.04,-0.11 -0.16,-0.22 -0.27,-0.26c-0.26,-0.07 -0.37,0.28 -0.28,0.94c0.05,0.35 0.19,0.63 0.54,1.06c0.26,0.32 0.48,0.62 0.48,0.66c0,0.1 0.64,0.47 0.7,0.4c0.03,-0.03 0.07,-0.36 0.1,-0.72c0.05,-0.88 0.24,-1.63 0.44,-1.8c0.13,-0.11 0.2,-0.09 0.35,0.12c0.2,0.26 0.25,0.46 0.42,1.43c0.12,0.74 0.25,1.1 0.57,1.59c0.53,0.81 0.68,0.87 0.99,0.4zm23.59,-1.15c0.38,-0.27 0.82,-1.48 0.7,-1.93c-0.07,-0.28 -0.36,-0.32 -0.36,-0.04c0,0.1 -0.04,0.24 -0.09,0.29c-0.05,0.05 -0.18,0.36 -0.29,0.68c-0.11,0.32 -0.26,0.66 -0.33,0.75c-0.31,0.38 -0.06,0.55 0.36,0.26zm-8.26,-0.93c0.21,-0.25 0.44,-0.68 0.62,-1.19c0.04,-0.12 0.07,-0.57 0.06,-1c-0.01,-0.44 0.04,-0.96 0.1,-1.16c0.06,-0.2 0.14,-0.54 0.16,-0.74c0.03,-0.2 0.1,-0.54 0.17,-0.74c0.07,-0.2 0.11,-0.5 0.1,-0.66c-0.01,-0.16 0.03,-0.29 0.09,-0.29c0.08,0 0.08,-0.06 0,-0.22c-0.1,-0.18 -0.14,-0.2 -0.27,-0.09c-0.29,0.24 -0.69,1.21 -0.79,1.89c-0.05,0.38 -0.14,0.88 -0.2,1.11c-0.06,0.23 -0.13,0.57 -0.17,0.74c-0.04,0.18 -0.11,0.42 -0.16,0.53c-0.22,0.5 -0.41,1.31 -0.45,1.87l-0.04,0.6l0.27,-0.2c0.15,-0.11 0.38,-0.32 0.5,-0.46zm12.44,-0.37c0.18,-0.36 0.15,-1.13 -0.06,-1.61l-0.16,-0.37l-0.16,0.38c-0.13,0.3 -0.15,0.52 -0.08,1.03c0.13,0.93 0.23,1.05 0.46,0.58zm-14.68,-0.99c0.16,-0.46 0.22,-1.26 0.1,-1.26c-0.14,0 -0.78,0.76 -0.83,0.99c-0.15,0.63 -0.24,1.3 -0.19,1.38c0.1,0.16 0.76,-0.63 0.92,-1.11zm7.42,0.84c0.81,-0.71 1.46,-2.03 1.6,-3.26c0.07,-0.66 0.05,-0.93 -0.15,-1.68c-0.13,-0.5 -0.29,-1.14 -0.36,-1.43c-0.24,-1.07 -0.5,-0.96 -0.51,0.21c0,0.35 0.04,0.8 0.1,1c0.06,0.2 0.12,0.83 0.12,1.39c0.01,0.79 -0.03,1.08 -0.16,1.29c-0.1,0.15 -0.17,0.33 -0.17,0.42c0,0.08 -0.12,0.37 -0.27,0.64c-0.14,0.27 -0.26,0.54 -0.26,0.6c0,0.06 -0.09,0.29 -0.2,0.52c-0.17,0.35 -0.18,0.53 -0.05,0.53c0.02,0 0.16,-0.11 0.31,-0.24zm-9.88,-0.78c0.31,-0.21 0.65,-0.46 0.76,-0.56c0.18,-0.18 0.5,-1.53 0.42,-1.78c-0.14,-0.41 -0.63,0.14 -0.94,1.04c-0.12,0.34 -0.36,0.74 -0.59,0.97c-0.37,0.38 -0.52,0.72 -0.3,0.72c0.05,0 0.35,-0.18 0.66,-0.38zm-7.41,-1.2c0.11,-0.23 0.15,-0.42 0.09,-0.42c-0.06,0 -0.1,-0.16 -0.1,-0.34c0,-0.19 -0.09,-0.49 -0.21,-0.66l-0.21,-0.32l-0.01,0.48c-0.02,0.8 0.02,1.63 0.08,1.72c0.08,0.12 0.14,0.04 0.36,-0.45zm16.92,-0.82c0,-0.04 0.04,-0.29 0.1,-0.54c0.06,-0.32 0.03,-0.87 -0.11,-1.8c-0.11,-0.74 -0.2,-1.51 -0.2,-1.73c0,-0.7 -0.41,-0.44 -0.72,0.45c-0.14,0.42 -0.1,1.56 0.07,1.88c0.06,0.12 0.12,0.3 0.12,0.4c0,0.42 0.72,1.72 0.74,1.34zm-11.18,-0.84c0.1,-0.33 0.17,-0.62 0.14,-0.64c-0.08,-0.08 -0.81,0.26 -0.81,0.37c0,0.18 0.32,0.86 0.4,0.86c0.04,0 0.16,-0.27 0.27,-0.6zm-2.89,-0.36c0,-0.05 0.12,-0.2 0.26,-0.33c0.23,-0.22 0.26,-0.34 0.26,-1c0,-0.56 -0.04,-0.79 -0.16,-0.89c-0.14,-0.12 -0.18,-0.11 -0.27,0.01c-0.26,0.39 -0.3,0.55 -0.37,1.46c-0.06,0.88 -0.06,0.97 0.1,0.9c0.1,-0.04 0.18,-0.1 0.18,-0.15zm-1.62,-0.82c-0.08,-0.88 -0.57,-2.15 -0.83,-2.14c-0.08,0 -0.22,0.18 -0.32,0.39l-0.18,0.39l0.43,0.83c0.42,0.82 0.79,1.35 0.91,1.35c0.03,0 0.03,-0.37 -0.01,-0.82zm10.15,-2.36c0.06,0 0.18,-0.19 0.28,-0.42c0.09,-0.23 0.25,-0.45 0.36,-0.48c0.43,-0.13 0.73,-0.33 0.84,-0.57c0.07,-0.14 0.16,-0.28 0.21,-0.32c0.18,-0.13 0.56,-0.74 0.63,-1.01c0.04,-0.15 0.13,-0.31 0.2,-0.35c0.07,-0.04 0.26,-0.28 0.41,-0.52c0.15,-0.24 0.32,-0.47 0.37,-0.5c0.06,-0.04 0.28,-0.42 0.5,-0.86c0.27,-0.54 0.51,-0.87 0.74,-1.01l0.34,-0.21l-0.05,-0.8c-0.05,-0.84 0.01,-1.07 0.48,-1.69c0.4,-0.53 0.54,-0.64 1.12,-0.94c0.49,-0.25 0.64,-0.28 1.17,-0.22c0.5,0.06 0.64,0.12 0.82,0.37c0.12,0.17 0.24,0.46 0.27,0.66l0.06,0.36l-0.71,0.06c-0.98,0.08 -1.26,0.3 -1.3,1.01l-0.03,0.54l0.55,0.28c0.7,0.36 0.96,0.3 1.61,-0.39c0.61,-0.63 0.98,-0.73 1.73,-0.46c0.28,0.1 0.57,0.24 0.64,0.29c0.07,0.06 0.53,0.12 1.02,0.16c0.84,0.05 0.89,0.04 1.06,-0.19c0.42,-0.6 0.29,-1.36 -0.38,-2.21c-0.16,-0.2 -0.52,-0.82 -0.8,-1.37c-0.6,-1.16 -0.77,-1.47 -0.94,-1.66c-0.07,-0.08 -0.16,-0.24 -0.2,-0.36c-0.04,-0.12 -0.23,-0.44 -0.43,-0.7c-0.2,-0.26 -0.36,-0.52 -0.36,-0.58c0,-0.06 -0.14,-0.27 -0.32,-0.47c-0.18,-0.2 -0.32,-0.42 -0.32,-0.5c0,-0.08 -0.07,-0.29 -0.16,-0.47c-0.09,-0.18 -0.16,-0.44 -0.14,-0.57c0.01,-0.13 -0.02,-0.44 -0.06,-0.69l-0.08,-0.45l-0.81,0c-0.68,0 -0.84,0.04 -0.99,0.21c-0.1,0.12 -0.33,0.22 -0.53,0.23c-0.19,0.01 -0.54,0.03 -0.77,0.04c-0.48,0.03 -1.12,0.28 -1.31,0.51c-0.11,0.14 -0.08,0.18 0.24,0.32c0.67,0.28 0.72,0.85 0.14,1.59c-0.26,0.34 -0.33,0.52 -0.33,0.97c-0.01,0.55 -0.02,0.56 -0.84,1.35c-0.45,0.44 -0.89,0.8 -0.97,0.8c-0.08,0 -0.16,0.04 -0.18,0.08c-0.04,0.08 -1.17,1.14 -1.71,1.58c-0.31,0.26 -0.81,0.32 -0.81,0.1c0,-0.07 0.26,-0.37 0.58,-0.66c0.32,-0.29 0.58,-0.58 0.58,-0.64c0,-0.06 0.09,-0.22 0.21,-0.36c0.12,-0.13 0.31,-0.44 0.43,-0.69c0.26,-0.55 0.2,-0.94 -0.2,-1.19c-0.15,-0.1 -0.32,-0.24 -0.36,-0.31c-0.05,-0.08 -0.18,-0.14 -0.29,-0.14c-0.11,0 -0.23,-0.06 -0.28,-0.12c-0.07,-0.12 0.09,-0.29 0.59,-0.62c0.24,-0.16 0.24,-0.17 0.07,-0.52c-0.1,-0.19 -0.18,-0.46 -0.18,-0.59c0,-0.31 -0.19,-0.37 -0.6,-0.17c-0.22,0.1 -0.39,0.3 -0.49,0.56c-0.14,0.37 -0.2,0.4 -0.78,0.52c-0.78,0.16 -0.94,0.24 -0.96,0.49c-0.01,0.11 -0.02,0.26 -0.02,0.32c-0.01,0.08 -0.33,0.14 -0.83,0.18c-0.45,0.04 -1.14,0.17 -1.54,0.29c-0.62,0.2 -0.74,0.21 -0.87,0.08c-0.08,-0.08 -0.12,-0.2 -0.08,-0.26c0.13,-0.2 0.74,-0.58 0.92,-0.58c0.13,0 0.38,-0.37 0.38,-0.58c0,-0.02 -0.31,-0.05 -0.69,-0.08c-0.76,-0.05 -1.02,-0.19 -0.8,-0.45c0.08,-0.1 0.23,-0.14 0.38,-0.1c0.13,0.04 0.35,0 0.49,-0.08c0.34,-0.19 0.96,-0.4 1.16,-0.41c0.1,0 0.28,-0.09 0.42,-0.19c0.14,-0.11 0.42,-0.26 0.62,-0.34c0.53,-0.21 1.53,-0.82 1.75,-1.06c0.1,-0.12 0.25,-0.21 0.34,-0.21c0.08,0 0.35,-0.13 0.59,-0.3c0.24,-0.16 0.66,-0.36 0.92,-0.44c0.68,-0.21 0.7,-0.22 0.32,-0.38c-0.4,-0.17 -1.12,-0.19 -1.22,-0.04c-0.04,0.06 -0.29,0.23 -0.56,0.38c-0.58,0.31 -1.15,0.69 -1.45,0.96c-0.56,0.5 -1.11,0.79 -1.69,0.88c-1.31,0.22 -2.15,0.06 -1.99,-0.36c0.04,-0.09 0.11,-0.17 0.16,-0.17c0.05,0 0.5,-0.4 0.99,-0.88c0.86,-0.86 1.75,-1.44 2.22,-1.45c0.12,0 0.33,-0.1 0.47,-0.21l0.26,-0.21l-0.28,-0.3c-0.36,-0.38 -0.37,-0.65 -0.01,-0.65c0.15,0 0.38,-0.06 0.5,-0.12c0.13,-0.07 0.54,-0.13 0.92,-0.14c0.38,-0.01 0.76,-0.05 0.85,-0.08c0.46,-0.16 0.64,-0.15 0.78,0.04c0.1,0.14 0.36,0.24 0.79,0.31c0.87,0.14 1.05,0.22 1.97,0.84c0.93,0.63 0.87,0.68 1.16,-0.93c0.16,-0.9 0.16,-1 0.01,-1.17c-0.55,-0.61 0.5,-0.88 1.16,-0.3c0.26,0.22 0.3,0.36 0.62,2.09c0.12,0.66 0.22,0.72 1.19,0.81c0.62,0.06 0.66,0.05 0.83,-0.22c0.1,-0.16 0.24,-0.28 0.32,-0.28c0.19,0 0.27,-0.41 0.16,-0.85c-0.05,-0.2 -0.26,-0.7 -0.47,-1.1c-0.21,-0.41 -0.38,-0.84 -0.38,-0.96c0,-0.12 -0.04,-0.47 -0.1,-0.78c-0.06,-0.31 -0.08,-0.63 -0.05,-0.72c0.03,-0.08 -0.01,-0.26 -0.1,-0.39c-0.14,-0.21 -0.22,-0.53 -0.34,-1.36c-0.02,-0.15 -0.28,-0.72 -0.56,-1.27c-0.58,-1.12 -0.61,-1.17 -1.45,-2.42c-1.03,-1.55 -1.28,-1.88 -1.84,-2.47c-0.3,-0.32 -0.55,-0.62 -0.55,-0.67c0,-0.18 -0.94,-0.78 -1.55,-0.98c-0.33,-0.11 -0.66,-0.26 -0.74,-0.33c-0.11,-0.08 -0.22,-0.09 -0.39,-0.01c-0.27,0.12 -0.84,-0.03 -1.26,-0.33c-0.13,-0.1 -0.34,-0.25 -0.48,-0.34c-0.22,-0.16 -0.24,-0.16 -0.3,0.1c-0.04,0.17 -0.14,0.28 -0.27,0.28c-0.18,0 -0.77,-0.55 -0.98,-0.91c-0.14,-0.25 -0.38,-0.17 -0.41,0.14c-0.05,0.4 -0.32,0.42 -0.7,0.04c-0.18,-0.18 -0.62,-0.46 -0.99,-0.65c-0.37,-0.18 -0.76,-0.37 -0.86,-0.43c-0.22,-0.12 -0.5,-0.13 -0.5,-0.02c0,0.04 0.07,0.18 0.16,0.31c0.14,0.19 0.14,0.24 0.01,0.34c-0.11,0.09 -0.24,0.07 -0.55,-0.11c-0.22,-0.12 -0.46,-0.27 -0.53,-0.32c-0.06,-0.06 -0.38,-0.17 -0.69,-0.26c-0.31,-0.1 -0.62,-0.22 -0.69,-0.27c-0.08,-0.06 -0.15,-0.06 -0.18,0c-0.04,0.06 0.12,0.26 0.34,0.46c0.4,0.37 0.48,0.72 0.15,0.72c-0.1,0 -0.37,-0.09 -0.6,-0.19c-0.6,-0.27 -0.93,-0.34 -1.11,-0.23c-0.13,0.08 -0.13,0.14 -0.01,0.36c0.27,0.51 0.14,0.56 -1.19,0.51c-1.84,-0.07 -2.39,0.11 -1.69,0.56c0.34,0.22 0.19,0.37 -0.37,0.37c-0.2,0 -0.48,0.09 -0.64,0.2c-0.15,0.11 -0.53,0.28 -0.84,0.38c-0.31,0.1 -0.62,0.25 -0.7,0.32c-0.08,0.08 -0.27,0.18 -0.42,0.22c-0.16,0.04 -0.31,0.11 -0.34,0.16c-0.03,0.05 -0.38,0.3 -0.76,0.56c-0.75,0.49 -1.11,0.79 -1.45,1.24c-0.12,0.15 -0.32,0.33 -0.45,0.4c-0.13,0.07 -0.24,0.18 -0.24,0.25c0,0.07 -0.24,0.36 -0.53,0.65c-0.54,0.53 -0.63,0.69 -0.4,0.71c0.07,0 0.2,0.02 0.29,0.02c0.17,0.02 0.19,0.3 0.05,0.65c-0.08,0.2 -0.08,0.2 0.13,0.02c0.12,-0.1 0.24,-0.18 0.27,-0.18c0.09,0 0.71,-0.53 1.22,-1.03c0.25,-0.25 0.48,-0.45 0.52,-0.45c0.09,0 0.46,-0.43 0.46,-0.53c0,-0.13 0.92,-0.63 1.16,-0.63c0.33,0 0.28,0.32 -0.13,0.8c-0.19,0.23 -0.38,0.5 -0.42,0.61c-0.04,0.1 -0.16,0.22 -0.26,0.24c-0.17,0.04 -0.48,0.45 -0.67,0.88c-0.08,0.18 -0.86,0.89 -1.52,1.38c-1.5,1.12 -2.25,2.12 -0.98,1.29c0.25,-0.16 0.58,-0.35 0.74,-0.42c0.16,-0.07 0.32,-0.2 0.36,-0.29c0.04,-0.09 0.1,-0.16 0.15,-0.16c0.05,0 0.23,-0.14 0.4,-0.32c0.32,-0.32 0.65,-0.42 0.65,-0.2c0,0.06 -0.28,0.51 -0.62,0.98c-0.66,0.92 -1.14,1.76 -0.99,1.76c0.05,0 0.57,-0.68 1.16,-1.51c0.59,-0.83 1.2,-1.64 1.37,-1.8c0.26,-0.25 0.33,-0.27 0.49,-0.16c0.18,0.13 0.17,0.17 -0.1,0.77c-0.16,0.35 -0.3,0.7 -0.31,0.79c-0.13,0.74 -0.57,1.55 -1.19,2.21c-0.23,0.24 -0.08,0.24 0.36,0c0.57,-0.31 0.82,-0.22 0.74,0.28c-0.03,0.2 -0.01,0.4 0.04,0.43c0.06,0.04 0.42,-0.27 0.8,-0.68c0.51,-0.55 0.74,-0.72 0.83,-0.64c0.1,0.08 0.07,0.25 -0.12,0.72c-0.14,0.33 -0.25,0.68 -0.25,0.78c0,0.1 -0.08,0.24 -0.17,0.31c-0.09,0.08 -0.32,0.36 -0.5,0.62c-0.18,0.26 -0.46,0.62 -0.62,0.8c-0.16,0.17 -0.3,0.34 -0.3,0.38c0,0.04 -0.14,0.24 -0.32,0.46c-0.5,0.64 -0.39,0.8 0.18,0.26c0.19,-0.17 0.37,-0.32 0.41,-0.32c0.04,0 0.15,-0.1 0.26,-0.24c0.16,-0.2 0.22,-0.21 0.36,-0.09c0.14,0.12 0.18,0.12 0.21,0c0.02,-0.08 0.09,-0.32 0.16,-0.52c0.06,-0.21 0.12,-0.48 0.12,-0.6c0,-0.12 0.04,-0.25 0.1,-0.29c0.06,-0.03 0.13,-0.2 0.17,-0.38c0.04,-0.17 0.11,-0.32 0.17,-0.32c0.05,0 0.1,-0.06 0.1,-0.14c0,-0.22 0.4,-0.53 0.59,-0.45c0.13,0.05 0.16,0.14 0.11,0.34c-0.04,0.15 -0.09,0.72 -0.12,1.26c-0.03,0.55 -0.1,1.12 -0.16,1.27c-0.1,0.27 -0.1,0.28 0.2,0.22c0.45,-0.1 0.54,0.24 0.19,0.71c-0.36,0.48 -0.44,0.81 -0.24,0.89c0.22,0.08 0.21,0.3 -0.02,0.64c-0.18,0.27 -0.22,0.4 -0.27,0.83c-0.02,0.22 0.08,0.24 0.69,0.11c0.39,-0.08 0.51,0.19 0.2,0.48c-0.12,0.12 -0.23,0.27 -0.23,0.34c0,0.07 -0.09,0.3 -0.2,0.5c-0.11,0.2 -0.2,0.53 -0.2,0.72c-0.01,0.44 -0.24,1.39 -0.37,1.57c-0.06,0.08 -0.05,0.19 0.04,0.3c0.12,0.14 0.23,0.9 0.21,1.42c-0.02,0.64 0.02,1.12 0.11,1.23c0.06,0.07 0.09,0.38 0.08,0.7c-0.02,0.67 0.22,1.26 0.64,1.57c0.19,0.13 0.38,0.44 0.53,0.87c0.26,0.74 0.29,0.82 0.67,1.74c0.15,0.36 0.3,0.84 0.35,1.06c0.08,0.43 0.29,0.66 0.61,0.66c0.16,0 0.18,-0.05 0.14,-0.24c-0.03,-0.13 -0.14,-0.6 -0.23,-1.03c-0.09,-0.44 -0.24,-0.92 -0.32,-1.07c-0.08,-0.16 -0.16,-0.34 -0.16,-0.41c0,-0.07 -0.16,-0.5 -0.36,-0.96c-0.32,-0.73 -0.34,-0.84 -0.18,-0.84c0.19,0 1.39,1.04 1.38,1.2c0,0.05 0.11,0.22 0.25,0.39c0.14,0.16 0.4,0.71 0.58,1.21c0.35,0.98 0.39,1.49 0.23,3.01c-0.04,0.44 -0.06,0.82 -0.04,0.84c0.02,0.02 0.18,0 0.34,-0.07c0.37,-0.14 0.53,-0.02 0.53,0.4c0,0.43 0.12,0.44 0.63,0.03c0.25,-0.2 0.55,-0.36 0.66,-0.36c0.19,0 0.2,0.06 0.17,0.76c-0.04,0.96 0.08,1.02 0.72,0.36c0.65,-0.68 0.82,-0.63 0.86,0.29c0.03,0.61 0.06,0.71 0.21,0.68c0.13,-0.02 0.2,-0.2 0.27,-0.62c0.05,-0.32 0.11,-0.69 0.14,-0.83c0.07,-0.34 0.68,-0.88 0.94,-0.84c0.19,0.03 0.21,0.1 0.18,0.66c-0.02,0.35 -0.1,0.8 -0.18,0.99c-0.08,0.2 -0.15,0.4 -0.15,0.46c0,0.17 0.44,-0.2 0.65,-0.55c0.28,-0.46 0.54,-0.38 0.65,0.19c0.11,0.58 0.34,0.67 0.66,0.27c0.14,-0.17 0.25,-0.37 0.25,-0.44c0,-0.08 0.1,-0.13 0.24,-0.11c0.18,0.03 0.25,0.13 0.31,0.46c0.04,0.23 0.13,0.56 0.2,0.74l0.12,0.32l0.29,-0.34c0.16,-0.19 0.34,-0.34 0.4,-0.34zm-12.33,-0.72c0.14,-0.22 0.3,-0.42 0.35,-0.46c0.08,-0.06 0.25,-0.74 0.33,-1.35c0.03,-0.25 -0.26,-0.65 -0.47,-0.65c-0.17,0 -0.33,0.41 -0.38,1.01c-0.03,0.32 -0.12,0.74 -0.2,0.94c-0.08,0.2 -0.12,0.38 -0.08,0.42c0.03,0.04 -0.02,0.14 -0.11,0.24c-0.1,0.09 -0.15,0.21 -0.12,0.26c0.11,0.18 0.44,-0.02 0.69,-0.4zm24.01,-0.74c0,-0.67 -0.12,-0.87 -0.51,-0.87c-0.21,0 -0.24,0.04 -0.19,0.24c0.04,0.13 0.06,0.31 0.07,0.4c0,0.22 0.39,0.85 0.53,0.85c0.06,0 0.11,-0.27 0.11,-0.62zm-29.94,-0.64c0.3,-0.28 0.54,-0.59 0.54,-0.7c0,-0.1 -0.21,-0.51 -0.48,-0.9c-0.26,-0.4 -0.48,-0.84 -0.48,-0.99c0,-0.16 -0.05,-0.31 -0.1,-0.35c-0.06,-0.04 -0.11,-0.2 -0.11,-0.38c0,-0.17 -0.09,-0.5 -0.21,-0.72c-0.22,-0.43 -1,-1.17 -1.24,-1.17c-0.28,0 -0.38,0.53 -0.26,1.37c0.17,1.24 -0.08,1.45 -1.1,0.92c-0.69,-0.37 -2.81,-2.97 -2.97,-3.66c-0.04,-0.15 -0.12,-0.34 -0.18,-0.43c-0.06,-0.08 -0.32,-0.7 -0.56,-1.37l-0.45,-1.23l0.26,-0.46c0.14,-0.26 0.26,-0.58 0.26,-0.72c0,-0.14 0.04,-0.25 0.1,-0.25c0.05,0 0.12,-0.08 0.16,-0.18c0.03,-0.1 0.25,-0.4 0.48,-0.65c0.37,-0.41 0.45,-0.46 0.74,-0.4c0.18,0.04 0.65,0.25 1.04,0.48c1.04,0.61 1.36,0.7 1.87,0.52c0.52,-0.19 0.57,-0.32 0.23,-0.63c-0.64,-0.59 -1.01,-0.82 -1.31,-0.82c-0.29,0 -0.96,-0.3 -1.26,-0.56c-0.29,-0.25 -0.89,-0.26 -1.65,-0.04c-0.56,0.17 -0.64,0.23 -0.97,0.79c-0.2,0.33 -0.41,0.84 -0.48,1.13c-0.2,0.9 -0.33,1.63 -0.33,1.93c0,0.41 0.52,1.62 1.15,2.67c0.3,0.49 0.78,1.4 1.08,2.01c0.3,0.61 0.58,1.2 0.64,1.3c0.05,0.1 0.1,0.24 0.1,0.32c0,0.08 0.22,0.5 0.48,0.95c0.47,0.81 0.49,0.82 1.4,1.26c0.51,0.24 1.18,0.6 1.49,0.81c0.52,0.34 1.19,0.64 1.46,0.65c0.07,0 0.36,-0.22 0.66,-0.5zm31,0.24c0,-0.56 -0.55,-1.41 -0.92,-1.41c-0.19,0 -0.17,0.26 0.03,0.42c0.09,0.08 0.28,0.39 0.43,0.7c0.29,0.62 0.46,0.72 0.46,0.29zm1.59,-0.21c0,-0.39 -0.17,-0.66 -0.53,-0.84c-0.32,-0.16 -0.51,-0.07 -0.36,0.18c0.16,0.27 0.73,0.92 0.81,0.92c0.04,0 0.08,-0.12 0.08,-0.27zm-29.47,-0.34c0.06,-0.32 -0.15,-0.91 -0.43,-1.23c-0.18,-0.2 -0.18,-0.19 -0.24,0.1c-0.1,0.5 0.3,1.61 0.53,1.46c0.05,-0.03 0.11,-0.18 0.14,-0.34zm20.84,-0.6c0.08,0.03 0.21,0.2 0.28,0.37c0.16,0.39 0.2,0.35 0.48,-0.47c0.17,-0.51 0.26,-0.66 0.45,-0.69c0.15,-0.02 0.24,0.02 0.24,0.12c0,0.17 0.4,0.71 0.52,0.71c0.11,0 0.51,-1.1 0.6,-1.65c0.04,-0.28 0.03,-0.46 -0.05,-0.51c-0.23,-0.15 -1.35,-0.09 -1.7,0.08c-0.19,0.1 -0.41,0.17 -0.48,0.17c-0.07,0 -0.16,0.1 -0.18,0.21c-0.03,0.12 -0.18,0.26 -0.33,0.32c-0.16,0.06 -0.31,0.19 -0.34,0.29c-0.03,0.1 -0.23,0.52 -0.44,0.94c-0.24,0.48 -0.36,0.82 -0.31,0.94c0.06,0.16 0.15,0.11 0.6,-0.35c0.32,-0.32 0.59,-0.52 0.68,-0.48zm-19.28,-0.12c-0.02,-0.29 -0.08,-0.58 -0.14,-0.66c-0.08,-0.09 -0.07,-0.23 0.02,-0.45c0.1,-0.26 0.19,-0.32 0.47,-0.32c0.54,0 0.73,-0.29 0.64,-0.99c-0.04,-0.32 -0.14,-0.66 -0.22,-0.77c-0.08,-0.11 -0.15,-0.3 -0.15,-0.44c-0.01,-0.34 -0.32,-0.44 -0.51,-0.15c-0.21,0.32 -0.28,0.29 -0.57,-0.22c-0.22,-0.41 -0.25,-0.58 -0.25,-1.93c0,-1.4 -0.06,-1.81 -0.26,-1.69c-0.13,0.08 -0.36,1.01 -0.37,1.48c-0.01,0.6 -0.26,0.55 -0.6,-0.1c-0.24,-0.45 -0.27,-0.65 -0.25,-1.27c0.04,-0.94 0.14,-1.49 0.38,-1.95c0.1,-0.2 0.22,-0.48 0.26,-0.62c0.07,-0.24 0.07,-0.24 -0.18,-0.08c-0.3,0.2 -0.72,0.9 -0.72,1.22c0,0.12 -0.11,0.46 -0.26,0.73c-0.16,0.32 -0.22,0.56 -0.16,0.65c0.05,0.08 0.07,0.19 0.04,0.24c-0.15,0.24 -0.02,1.28 0.26,2.14c0.17,0.52 0.37,1.37 0.45,1.88c0.08,0.51 0.2,0.98 0.28,1.04c0.08,0.07 0.14,0.16 0.14,0.21c0,0.05 0.16,0.31 0.37,0.58c0.2,0.27 0.37,0.54 0.37,0.61c0,0.07 0.1,0.24 0.21,0.39c0.11,0.14 0.21,0.32 0.21,0.4c0,0.22 0.34,0.67 0.46,0.63c0.06,-0.02 0.1,-0.26 0.08,-0.56zm-3.15,-1.66c-0.08,-0.4 -0.51,-1.03 -0.72,-1.03c-0.1,0 -0.14,0.16 -0.12,0.57c0.01,0.44 0.08,0.65 0.32,0.96l0.3,0.39l0.14,-0.28c0.08,-0.16 0.12,-0.42 0.08,-0.62zm27.65,-0.73c0.25,-0.1 0.34,-0.2 0.32,-0.35c-0.03,-0.19 -0.1,-0.21 -0.72,-0.18c-0.38,0.02 -0.74,0.08 -0.81,0.14c-0.13,0.11 -0.07,0.53 0.09,0.64c0.11,0.08 0.59,-0.03 1.12,-0.24zm-33.1,-2.65c0,-0.42 -0.05,-0.82 -0.1,-0.88c-0.08,-0.1 -0.11,-0.62 -0.08,-1.35c0,-0.11 0.08,-0.34 0.17,-0.52c0.16,-0.32 0.16,-0.32 -0.3,-0.76c-0.49,-0.47 -1.11,-0.84 -1.18,-0.71c-0.1,0.17 -0.05,1.04 0.08,1.35c0.08,0.18 0.18,0.73 0.22,1.21c0.04,0.48 0.14,1 0.22,1.16c0.08,0.15 0.15,0.33 0.15,0.39c0,0.2 0.54,0.9 0.69,0.9c0.11,0 0.14,-0.17 0.14,-0.77zm3.72,0.37c-0.08,-0.58 0.4,-0.73 0.76,-0.24c0.25,0.34 0.58,0.44 0.47,0.14c-0.43,-1.11 -0.39,-3.83 0.06,-4.72c0.05,-0.1 0.09,-0.26 0.09,-0.34c0,-0.09 0.12,-0.4 0.26,-0.69c0.28,-0.55 0.32,-0.74 0.17,-0.74c-0.1,0 -0.57,1.02 -0.76,1.67c-0.2,0.67 -0.79,1.2 -0.99,0.88c-0.04,-0.06 -0.08,-0.39 -0.1,-0.74c-0.02,-0.35 -0.08,-0.63 -0.13,-0.62c-0.23,0.04 -0.35,0.13 -0.35,0.26c0,0.08 -0.04,0.15 -0.09,0.15c-0.05,0 -0.21,0.11 -0.36,0.25c-0.15,0.14 -0.44,0.36 -0.66,0.49c-0.32,0.2 -0.38,0.29 -0.32,0.47c0.24,0.8 0.28,1.09 0.16,1.45c-0.12,0.36 -0.1,0.41 0.26,0.92c0.21,0.3 0.38,0.59 0.38,0.65c0,0.06 0.04,0.11 0.1,0.11c0.05,0 0.28,0.19 0.5,0.42c0.43,0.46 0.59,0.53 0.56,0.24zm-19.2,-3.7c0.07,-0.26 0,-1.47 -0.14,-2.67c-0.18,-1.41 -0.2,-1.48 -0.39,-1.48c-0.14,0 -0.16,0.08 -0.11,0.44c0.04,0.24 0.02,0.7 -0.03,1.01c-0.06,0.36 -0.05,0.76 0.01,1.07c0.06,0.28 0.15,0.71 0.2,0.97c0.11,0.59 0.21,0.85 0.32,0.85c0.05,0 0.11,-0.08 0.14,-0.18zm2.86,-0.11c0.23,-0.44 0.25,-1.47 0.04,-1.67c-0.22,-0.22 -0.43,-0.08 -0.35,0.24c0.04,0.14 0.01,0.36 -0.06,0.49c-0.12,0.23 -0.14,0.96 -0.03,1.15c0.1,0.17 0.25,0.1 0.4,-0.2zm15.9,-4.9c0.25,-0.12 0.45,-0.26 0.45,-0.31c0,-0.22 -1.32,0.01 -1.91,0.33l-0.26,0.14l0.26,0.06c0.39,0.1 0.96,0 1.46,-0.23zm-2.44,-1.1c0.42,-0.09 0.94,-0.28 1.14,-0.42c0.21,-0.14 0.42,-0.26 0.46,-0.26c0.04,0 0.24,-0.14 0.44,-0.32c0.52,-0.47 0.31,-0.61 -0.5,-0.33c-0.34,0.12 -0.7,0.22 -0.79,0.22c-0.09,0 -0.25,0.1 -0.35,0.21c-0.1,0.12 -0.27,0.22 -0.36,0.22c-0.09,0 -0.31,0.1 -0.49,0.21c-0.17,0.11 -0.47,0.27 -0.65,0.36c-0.18,0.09 -0.37,0.21 -0.41,0.27c-0.08,0.12 0.23,0.09 1.5,-0.18zm-3.34,-0.2c0.2,-0.09 0.67,-0.44 1.04,-0.79c0.52,-0.47 0.66,-0.66 0.57,-0.75c-0.09,-0.09 -0.18,-0.06 -0.37,0.13c-0.14,0.14 -0.52,0.42 -0.84,0.64c-0.72,0.48 -1.17,0.93 -0.93,0.93c0.09,0 0.32,-0.07 0.52,-0.16zm-1.98,-2.95c0.4,-0.44 1.2,-1.2 1.77,-1.68c0.93,-0.78 1.23,-1.14 0.95,-1.14c-0.05,0 -0.45,0.23 -0.88,0.52c-0.44,0.28 -0.88,0.55 -1,0.58c-0.23,0.07 -1.73,1.47 -1.73,1.61c0,0.1 -0.83,1.32 -1.01,1.47c-0.17,0.15 -0.68,1.07 -0.68,1.23c0,0.14 1.24,-1.11 2.58,-2.58zm1.69,0.64c1.02,-1.06 1.26,-1.35 1.2,-1.41c-0.16,-0.16 -1.48,0.89 -2.03,1.62l-0.27,0.35l0.29,0c0.21,0 0.43,-0.15 0.82,-0.56zm-7.68,-3.49c0.75,-1.1 0.89,-1.29 0.96,-1.34c0.04,-0.03 0.37,-0.49 0.73,-1.02c0.78,-1.15 1.05,-1.89 0.48,-1.34c-0.1,0.1 -0.35,0.3 -0.55,0.45c-0.68,0.5 -1.57,1.4 -1.7,1.73c-0.08,0.18 -0.18,0.36 -0.22,0.39c-0.12,0.08 -0.28,1.13 -0.22,1.38c0.08,0.3 0.2,0.24 0.53,-0.25zm5.91,0.29c0.03,-0.08 0.1,-0.13 0.15,-0.1c0.1,0.06 0.28,-0.12 0.94,-0.92c0.2,-0.24 0.6,-0.66 0.89,-0.93c0.71,-0.66 0.91,-0.88 0.91,-0.98c0,-0.04 0.2,-0.22 0.45,-0.4c0.79,-0.56 2.51,-2.3 2.51,-2.55c0,-0.14 -0.18,-0.14 -0.26,0c-0.04,0.06 -0.23,0.17 -0.42,0.26c-0.35,0.14 -1.12,0.69 -1.87,1.32c-0.21,0.18 -0.42,0.32 -0.48,0.32c-0.05,0 -0.28,0.22 -0.52,0.48c-0.23,0.26 -0.65,0.7 -0.92,0.99c-0.28,0.28 -0.5,0.57 -0.5,0.64c0,0.06 -0.04,0.12 -0.08,0.12c-0.04,0 -0.16,0.13 -0.26,0.29c-0.1,0.16 -0.31,0.44 -0.48,0.61c-0.36,0.37 -0.54,1 -0.28,1c0.08,0 0.18,-0.07 0.22,-0.16zm2.15,-5c0.2,-0.15 0.7,-0.6 1.11,-0.98c1.07,-1.01 1.6,-1.47 1.71,-1.47c0.06,0 0.3,-0.14 0.54,-0.32c0.24,-0.17 0.46,-0.32 0.5,-0.32c0.04,0 0.34,-0.22 0.67,-0.48c0.34,-0.26 0.66,-0.48 0.73,-0.48c0.06,0 0.18,-0.09 0.26,-0.19c0.08,-0.11 0.24,-0.25 0.35,-0.32c0.18,-0.11 0.13,-0.12 -0.29,-0.06c-0.48,0.06 -0.5,0.06 -0.5,-0.21c0,-0.33 -0.18,-0.35 -0.74,-0.06c-0.23,0.12 -0.47,0.21 -0.53,0.21c-0.22,0 -2.27,1.08 -3.05,1.6c-0.43,0.28 -0.82,0.52 -0.86,0.52c-0.12,0 -0.96,0.92 -0.96,1.05c0,0.17 0.2,0.23 0.4,0.12c0.14,-0.08 0.26,-0.07 0.39,0.03c0.18,0.13 0.18,0.16 -0.06,0.55c-0.14,0.22 -0.26,0.46 -0.26,0.52c0,0.06 -0.13,0.24 -0.29,0.4c-0.16,0.16 -0.29,0.33 -0.29,0.39c0,0.14 0.73,-0.18 1.16,-0.51zm-8.21,0.3c0.13,0 0.92,-1 0.92,-1.17c0,-0.05 0.05,-0.1 0.1,-0.1c0.06,0 0.11,-0.04 0.11,-0.1c0,-0.06 0.24,-0.46 0.53,-0.89c0.29,-0.43 0.53,-0.83 0.53,-0.89c0,-0.06 0.11,-0.24 0.25,-0.4c0.14,-0.16 0.27,-0.38 0.31,-0.47c0.16,-0.43 1.07,-1.71 1.25,-1.76c0.11,-0.03 0.2,-0.12 0.2,-0.2c0,-0.32 1.97,-1.97 2.81,-2.37c0.24,-0.11 0.5,-0.28 0.57,-0.37c0.08,-0.09 0.24,-0.16 0.38,-0.16c0.13,0 0.35,-0.08 0.49,-0.19c0.14,-0.11 0.66,-0.4 1.15,-0.65c0.49,-0.25 0.96,-0.52 1.03,-0.6c0.08,-0.08 0.23,-0.16 0.34,-0.2c0.11,-0.04 0.23,-0.14 0.26,-0.22c0.03,-0.08 0.13,-0.15 0.22,-0.15c0.24,0 0.88,-0.46 0.94,-0.66c0.03,-0.1 0.16,-0.22 0.3,-0.28c0.14,-0.05 0.32,-0.17 0.39,-0.26c0.08,-0.09 0.22,-0.17 0.33,-0.17c0.1,0 0.24,-0.07 0.31,-0.15c0.07,-0.08 0.37,-0.28 0.66,-0.44c0.3,-0.16 0.62,-0.32 0.71,-0.37c0.09,-0.05 0.44,-0.21 0.77,-0.36c0.33,-0.15 0.63,-0.32 0.67,-0.38c0.04,-0.06 0.14,-0.1 0.22,-0.1c0.08,0 0.74,-0.25 1.45,-0.55l1.3,-0.55l2.55,0l2.54,0l1.16,0.52c0.64,0.29 1.32,0.63 1.52,0.77c0.2,0.13 0.41,0.24 0.45,0.24c0.05,0 0.26,0.11 0.48,0.25c0.22,0.14 0.51,0.28 0.66,0.33c0.14,0.04 0.34,0.14 0.42,0.21c0.3,0.25 1.06,0.62 1.12,0.56c0.04,-0.04 -0.06,-0.23 -0.21,-0.43c-0.28,-0.36 -0.27,-0.5 0.03,-0.5c0.2,0 2.27,0.78 2.67,1c0.66,0.37 0.7,0.02 0.06,-0.51c-0.25,-0.2 -0.64,-0.48 -0.87,-0.6c-0.23,-0.13 -0.51,-0.32 -0.63,-0.42c-0.12,-0.1 -0.33,-0.23 -0.48,-0.27c-0.15,-0.04 -0.62,-0.26 -1.06,-0.47c-0.94,-0.47 -2.47,-0.82 -4.37,-1.01c-1.73,-0.17 -3.15,-0.24 -3.45,-0.16c-0.38,0.09 -1,0.19 -3.05,0.48c-0.66,0.1 -1.28,0.21 -1.37,0.26c-0.21,0.1 -0.66,0.3 -1.7,0.76c-0.44,0.19 -0.91,0.44 -1.05,0.54c-0.14,0.1 -0.32,0.19 -0.4,0.19c-0.09,0 -0.28,0.09 -0.44,0.21c-0.16,0.11 -0.43,0.24 -0.6,0.28c-0.17,0.04 -0.4,0.14 -0.52,0.21c-0.12,0.07 -0.88,0.33 -1.69,0.57c-1.43,0.43 -1.49,0.46 -1.97,0.97c-0.27,0.29 -0.51,0.56 -0.53,0.6c-0.02,0.04 -0.19,0.18 -0.38,0.32c-0.19,0.13 -0.33,0.27 -0.32,0.31c0.01,0.04 -0.32,0.43 -0.74,0.86c-0.81,0.83 -0.85,0.85 -1.74,0.58c-0.27,-0.08 -0.01,-0.64 0.41,-0.9c0.19,-0.12 0.34,-0.26 0.34,-0.32c0,-0.06 0.05,-0.08 0.11,-0.04c0.06,0.04 0.1,0.02 0.1,-0.03c0,-0.1 1.1,-1.25 1.79,-1.87c0.33,-0.3 0.5,-0.42 1.58,-1.14c0.43,-0.29 0.56,-0.5 0.3,-0.5c-0.32,0 -1.45,0.42 -1.96,0.72c-0.31,0.18 -0.6,0.33 -0.65,0.33c-0.05,0 -0.39,0.29 -0.76,0.64c-0.37,0.35 -0.7,0.64 -0.73,0.64c-0.15,0 -1.06,0.71 -1.06,0.82c0,0.07 -0.12,0.18 -0.26,0.23c-0.14,0.06 -0.44,0.26 -0.66,0.45c-0.22,0.19 -0.58,0.48 -0.79,0.64c-0.57,0.42 -0.98,0.82 -1.21,1.18c-0.11,0.18 -0.3,0.4 -0.43,0.5c-0.13,0.1 -0.32,0.41 -0.42,0.69c-0.1,0.28 -0.28,0.63 -0.38,0.78c-0.11,0.16 -0.19,0.33 -0.19,0.4c0,0.06 -0.26,0.39 -0.57,0.72c-1.45,1.55 -1.46,1.56 -1.6,2.59c-0.06,0.4 -0.04,0.5 0.08,0.5c0.29,0 1.45,-1.47 1.45,-1.84c0,-0.08 0.04,-0.17 0.08,-0.19c0.04,-0.02 0.2,-0.26 0.34,-0.55c0.29,-0.56 0.34,-0.65 0.77,-1.31c0.16,-0.24 0.29,-0.5 0.29,-0.56c0,-0.06 0.19,-0.35 0.42,-0.65c0.23,-0.3 0.42,-0.6 0.42,-0.68c0,-0.08 0.16,-0.3 0.34,-0.5c0.27,-0.28 0.49,-0.39 1.01,-0.5c0.37,-0.08 0.69,-0.18 0.72,-0.24c0.07,-0.11 0.49,0 0.59,0.16c0.04,0.06 -0.24,0.46 -0.61,0.87c-0.37,0.42 -0.68,0.81 -0.68,0.87c0,0.06 -0.08,0.17 -0.18,0.25c-0.24,0.18 -0.77,0.89 -0.77,1.03c0,0.06 -0.04,0.11 -0.1,0.11c-0.05,0 -0.22,0.25 -0.38,0.56c-0.16,0.31 -0.41,0.7 -0.55,0.87c-0.14,0.17 -0.3,0.42 -0.35,0.56c-0.05,0.14 -0.26,0.51 -0.46,0.83c-0.2,0.32 -0.44,0.73 -0.54,0.92c-0.09,0.19 -0.28,0.55 -0.42,0.8c-0.14,0.25 -0.24,0.5 -0.2,0.55c0.04,0.06 0.01,0.1 -0.06,0.1c-0.07,0 -0.08,0.06 -0.04,0.12c0.06,0.1 0.09,0.1 0.12,0c0.02,-0.07 0.1,-0.12 0.16,-0.12zm4.39,-2.87c0.27,-0.13 0.53,-0.29 0.57,-0.36c0.04,-0.07 0.2,-0.16 0.34,-0.2c0.14,-0.04 0.31,-0.16 0.37,-0.28c0.06,-0.12 0.17,-0.21 0.24,-0.21c0.07,0 0.37,-0.22 0.67,-0.5c1.07,-1 1.87,-1.67 2.11,-1.77c0.14,-0.06 0.48,-0.34 0.77,-0.64c0.64,-0.64 1.89,-1.63 2.07,-1.63c0.07,0 0.22,-0.1 0.32,-0.21c0.1,-0.12 0.26,-0.21 0.33,-0.21c0.08,0 0.3,-0.11 0.5,-0.24c0.57,-0.38 1.34,-0.86 1.68,-1.05c0.17,-0.1 0.4,-0.25 0.5,-0.34c0.1,-0.1 0.22,-0.17 0.27,-0.17c0.04,0 0.15,-0.07 0.23,-0.16c0.09,-0.08 0.36,-0.2 0.6,-0.26c0.24,-0.06 0.7,-0.24 1.02,-0.39c0.75,-0.36 0.94,-0.43 1.32,-0.51c0.3,-0.07 0.31,-0.08 0.11,-0.22c-0.22,-0.16 -0.77,-0.11 -1.17,0.1c-0.12,0.06 -0.28,0.12 -0.37,0.14c-0.34,0.06 -1.08,0.26 -1.25,0.35c-0.1,0.05 -0.47,0.18 -0.82,0.28c-0.35,0.11 -0.71,0.25 -0.79,0.31c-0.09,0.07 -0.39,0.21 -0.67,0.32c-0.28,0.11 -0.65,0.34 -0.84,0.5c-0.18,0.16 -0.62,0.44 -0.98,0.61c-0.35,0.17 -0.69,0.38 -0.75,0.46c-0.12,0.15 -1.08,0.91 -1.16,0.91c-0.07,0 -1.16,0.68 -1.22,0.76c-0.03,0.04 -0.35,0.24 -0.72,0.44c-0.6,0.34 -1.82,1.33 -2.39,1.94c-0.77,0.82 -2.07,2.44 -2.07,2.59c0,0.1 0.56,-0.07 1.15,-0.35zm16.92,-7.12c0.16,-0.08 0.41,-0.18 0.57,-0.21c0.35,-0.08 0.38,-0.22 0.05,-0.31c-0.31,-0.09 -1.87,0.04 -2.13,0.17c-0.25,0.13 -0.1,0.29 0.37,0.4c0.55,0.13 0.83,0.12 1.13,-0.05zm6.09,-1.1c0.11,-0.18 -0.9,-0.88 -1.63,-1.12c-0.41,-0.13 -0.74,-0.21 -0.74,-0.16c0,0.12 0.65,0.58 1.42,0.98c0.77,0.41 0.86,0.44 0.95,0.3zm-5.46,-2.55c0.84,-0.16 0.75,-0.33 -0.21,-0.4c-0.59,-0.04 -1.83,0.1 -1.96,0.23c-0.26,0.26 1.16,0.37 2.17,0.18z" fill="#ffffff" id="path19404" stroke-width="0.26"/>
 </g>
</svg>