<?xml version="1.0"?>
<svg width="100" height="100" xmlns="http://www.w3.org/2000/svg" xmlns:svg="http://www.w3.org/2000/svg" version="1.1" xml:space="preserve">

 <g class="layer">
  <title>Layer 1</title>
  <path d="m55.31,99.23c-0.34,-0.29 -1.38,-0.94 -3.54,-2.22c-1.43,-0.84 -1.94,-1.16 -2.66,-1.63c-0.2,-0.13 -0.55,-0.31 -0.76,-0.4c-0.21,-0.09 -0.92,-0.7 -1.59,-1.36c-1.33,-1.32 -2.65,-2.51 -3.33,-2.99c-0.24,-0.17 -0.53,-0.4 -0.65,-0.5c-0.4,-0.36 -0.9,-0.75 -2.37,-1.85c-0.8,-0.6 -1.75,-1.32 -2.1,-1.59c-1.39,-1.06 -3.22,-2.34 -4.64,-3.24c-0.33,-0.21 -0.96,-0.63 -1.41,-0.93c-0.45,-0.31 -1.14,-0.74 -1.54,-0.96c-0.39,-0.22 -0.81,-0.48 -0.92,-0.59c-0.11,-0.1 -0.3,-0.22 -0.42,-0.26c-0.12,-0.04 -0.46,-0.23 -0.76,-0.41c-0.3,-0.19 -1,-0.59 -1.55,-0.88c-0.55,-0.29 -1.7,-0.9 -2.55,-1.37c-0.85,-0.46 -1.66,-0.9 -1.81,-0.97c-0.14,-0.07 -0.7,-0.37 -1.23,-0.65c-0.53,-0.29 -1.12,-0.55 -1.31,-0.59c-0.24,-0.06 -0.46,-0.25 -0.78,-0.66c-0.39,-0.51 -0.45,-0.67 -0.47,-1.19c-0.01,-0.33 -0.06,-0.98 -0.09,-1.45l-0.07,-0.86l0.43,-0.29c0.24,-0.16 0.48,-0.29 0.53,-0.29c0.06,0 0.26,-0.14 0.45,-0.31c0.2,-0.17 0.64,-0.51 1,-0.74c0.79,-0.53 2.58,-1.93 3.23,-2.52c0.27,-0.24 0.56,-0.48 0.66,-0.53c0.18,-0.1 1.31,-1.08 2.07,-1.8c0.25,-0.23 0.57,-0.52 0.71,-0.64c0.14,-0.12 0.34,-0.35 0.44,-0.53c0.1,-0.18 0.37,-0.58 0.6,-0.9c0.23,-0.32 0.42,-0.71 0.42,-0.86c0,-0.29 -0.26,-1.19 -0.44,-1.52c-0.06,-0.11 -0.12,-0.44 -0.15,-0.73c-0.15,-2.04 -0.31,-3.56 -0.44,-4.39c-0.09,-0.53 -0.18,-1.15 -0.22,-1.38c-0.03,-0.23 -0.15,-0.71 -0.26,-1.05c-0.11,-0.35 -0.2,-0.76 -0.2,-0.92c0,-0.45 -0.67,-1.64 -1.35,-2.41c-0.16,-0.18 -0.42,-0.49 -0.57,-0.68c-0.14,-0.18 -0.37,-0.44 -0.49,-0.57c-0.12,-0.12 -0.38,-0.44 -0.58,-0.7c-0.2,-0.27 -0.42,-0.53 -0.49,-0.59c-0.19,-0.16 -2.23,-2.95 -3.04,-4.15c-0.16,-0.23 -0.43,-0.63 -0.61,-0.88c-0.4,-0.56 -0.86,-1.57 -1.11,-2.42c-0.1,-0.35 -0.27,-0.85 -0.38,-1.11c-0.18,-0.44 -0.37,-1.94 -0.48,-3.76c-0.05,-0.8 0.13,-2.21 0.39,-3.02c0.06,-0.19 0.09,-0.45 0.06,-0.56c-0.03,-0.11 0.01,-0.24 0.09,-0.29c0.08,-0.04 0.22,-0.46 0.31,-0.93c0.1,-0.47 0.27,-1.26 0.38,-1.75c0.31,-1.33 0.6,-2.81 0.75,-3.77c0.16,-1.09 0.46,-2.25 0.72,-2.84c0.11,-0.25 0.25,-0.58 0.29,-0.72c0.1,-0.33 1.45,-2.32 1.99,-2.93c0.22,-0.25 0.4,-0.5 0.4,-0.56c0,-0.06 0.14,-0.25 0.32,-0.41c0.17,-0.16 0.32,-0.38 0.32,-0.47c0,-0.1 0.06,-0.2 0.14,-0.23c0.08,-0.03 0.35,-0.33 0.61,-0.68c0.26,-0.34 0.62,-0.77 0.79,-0.95c0.18,-0.18 0.55,-0.59 0.82,-0.9c0.27,-0.32 0.65,-0.75 0.85,-0.96c0.2,-0.21 0.64,-0.74 0.99,-1.19c0.35,-0.45 0.68,-0.82 0.72,-0.82c0.04,0 0.08,-0.06 0.08,-0.14c0,-0.08 0.14,-0.24 0.3,-0.37c0.17,-0.12 0.53,-0.52 0.81,-0.89c0.48,-0.64 1.45,-1.6 1.86,-1.84c0.11,-0.06 0.46,-0.31 0.79,-0.56c0.33,-0.25 0.64,-0.45 0.7,-0.45c0.06,0 0.18,-0.07 0.27,-0.16c0.09,-0.09 0.42,-0.3 0.73,-0.46c0.31,-0.16 0.65,-0.35 0.78,-0.42c0.29,-0.17 2.15,-1.02 2.6,-1.19c0.2,-0.08 0.5,-0.23 0.65,-0.33c0.15,-0.11 0.32,-0.2 0.36,-0.2c0.04,0 0.68,-0.23 1.42,-0.52c0.74,-0.29 1.63,-0.6 1.98,-0.7c0.35,-0.1 0.78,-0.24 0.96,-0.32c0.31,-0.13 0.83,-0.26 2.65,-0.65c0.47,-0.1 1.14,-0.25 1.49,-0.33c0.35,-0.08 0.78,-0.17 0.96,-0.19c0.18,-0.02 0.53,-0.07 0.78,-0.11c0.25,-0.04 0.94,-0.08 1.51,-0.11c0.58,-0.02 1.49,-0.11 2.03,-0.19c1.4,-0.2 2.7,-0.1 5.98,0.51c1.64,0.31 4.46,0.93 4.57,1.02c0.06,0.04 0.27,0.11 0.48,0.16c0.47,0.1 1.2,0.39 2.29,0.91c0.47,0.23 1.09,0.47 1.38,0.53c0.76,0.18 1.28,0.47 1.82,1.01c0.26,0.26 0.51,0.47 0.56,0.47c0.05,0 0.24,0.15 0.42,0.35c0.18,0.19 0.48,0.47 0.66,0.61c0.78,0.63 2.54,2.56 2.54,2.79c0,0.09 0.07,0.22 0.15,0.29c0.08,0.07 0.26,0.35 0.39,0.62c0.13,0.27 0.28,0.56 0.34,0.63c0.06,0.07 0.12,0.31 0.14,0.51c0.02,0.21 0.1,0.44 0.18,0.5c0.15,0.12 0.43,1.47 0.41,2.03c0,0.17 0.07,0.42 0.16,0.55c0.1,0.16 0.14,0.39 0.12,0.6c-0.05,0.34 0.12,0.99 0.42,1.63c0.1,0.21 0.13,0.46 0.08,0.7c-0.07,0.4 0.2,1.08 0.62,1.55c0.12,0.13 0.31,0.41 0.43,0.61c0.86,1.43 1.8,2.67 2.73,3.6c0.99,1 1.05,1.08 1.05,1.5c0,0.39 -0.06,0.51 -0.65,1.11c-0.35,0.36 -0.68,0.66 -0.72,0.66c-0.11,0 -0.5,0.73 -0.59,1.11c-0.04,0.18 -0.09,0.49 -0.1,0.69c-0.01,0.2 -0.08,0.48 -0.15,0.62c-0.12,0.21 -0.1,0.3 0.09,0.63l0.23,0.38l-0.22,0.28c-0.41,0.51 -0.68,1.12 -0.72,1.58c-0.04,0.62 0.23,1.02 1.84,2.84c0.57,0.64 0.51,0.58 1.13,1.13c1.02,0.9 1.43,2.29 0.96,3.29c-0.12,0.26 -0.26,0.63 -0.3,0.82c-0.04,0.19 -0.22,0.55 -0.41,0.8c-0.18,0.25 -0.43,0.67 -0.53,0.94l-0.19,0.5l0.39,0.77c0.46,0.91 0.81,2.07 0.85,2.81c0.06,1.04 -0.41,2.62 -1.05,3.58c-0.14,0.2 -0.2,0.54 -0.23,1.13c-0.04,1.05 -0.13,1.48 -0.39,1.85c-0.11,0.16 -0.18,0.33 -0.15,0.38c0.03,0.04 -0.04,0.34 -0.14,0.66c-0.13,0.39 -0.16,0.7 -0.11,0.93c0.04,0.19 0.06,0.43 0.03,0.53c-0.03,0.12 0.14,0.38 0.49,0.73c0.29,0.3 0.54,0.57 0.54,0.6c0,0.03 0.19,0.37 0.43,0.76c0.39,0.64 0.59,1.33 0.61,2.03c0.02,0.9 0.17,2.23 0.31,2.71c0.15,0.55 0.02,2.37 -0.21,2.84c-0.14,0.28 -0.49,0.42 -1.22,0.5c-0.3,0.03 -0.7,0.13 -0.88,0.23c-0.18,0.09 -0.46,0.17 -0.62,0.18c-0.48,0.02 -1.98,-0.15 -2.15,-0.24c-0.09,-0.05 -0.52,-0.02 -0.96,0.06c-0.44,0.08 -0.9,0.17 -1.03,0.19c-0.13,0.02 -0.32,0.11 -0.41,0.19c-0.13,0.1 -0.65,0.16 -1.84,0.2c-1.52,0.05 -1.7,0.08 -2.1,0.32c-0.24,0.14 -0.57,0.42 -0.72,0.61l-0.29,0.34l0.17,0.59c0.21,0.71 0.82,1.34 3.35,3.47c0.37,0.31 0.9,0.81 1.17,1.1c1.54,1.68 2.38,2.39 3.21,2.72c1.09,0.43 1.99,0.51 4.46,0.43c1.25,-0.05 2.31,-0.06 2.36,-0.04c0.17,0.1 0.06,0.25 -0.33,0.45c-0.23,0.12 -0.44,0.28 -0.47,0.36c-0.03,0.08 -0.31,0.27 -0.63,0.42c-0.31,0.15 -0.8,0.49 -1.08,0.77c-0.29,0.27 -0.78,0.66 -1.09,0.86c-0.31,0.2 -0.57,0.4 -0.57,0.44c0,0.04 -0.18,0.2 -0.4,0.34c-0.22,0.15 -0.44,0.33 -0.48,0.4c-0.05,0.07 -0.31,0.26 -0.59,0.42c-0.58,0.34 -1.85,1.29 -2.7,2.03c-0.32,0.28 -0.86,0.7 -1.21,0.93c-0.34,0.23 -0.82,0.62 -1.05,0.86c-0.24,0.24 -0.74,0.67 -1.12,0.96c-0.38,0.29 -0.77,0.6 -0.86,0.7c-0.09,0.09 -0.32,0.26 -0.51,0.37c-0.18,0.11 -0.33,0.23 -0.33,0.28c0,0.04 -0.2,0.21 -0.45,0.36c-0.25,0.15 -0.86,0.66 -1.35,1.13c-1.21,1.13 -1.3,1.21 -2.34,2.02c-0.49,0.39 -1.24,1.02 -1.65,1.41c-0.41,0.39 -1.22,1.12 -1.8,1.63c-1.33,1.16 -2.08,1.89 -2.08,2.02c0,0.05 -0.2,0.23 -0.43,0.39c-0.24,0.16 -0.48,0.39 -0.54,0.5c-0.06,0.11 -0.22,0.24 -0.36,0.3c-0.14,0.05 -0.34,0.22 -0.44,0.38c-0.1,0.16 -0.94,1.04 -1.86,1.97c-1.84,1.86 -2,1.94 -2.61,1.43z" fill="#ff0000" id="path19408" stroke-width="0.26"/>
  <path d="m61.67,86.6c0.07,-0.13 0.27,-0.42 0.44,-0.64c0.25,-0.33 0.29,-0.43 0.18,-0.55c-0.23,-0.28 -0.51,-0.18 -0.72,0.24c-0.35,0.72 -0.26,1.64 0.1,0.96zm-13.39,-1.6c0.18,-0.19 0.47,-0.57 0.64,-0.85c0.18,-0.28 0.35,-0.5 0.4,-0.5c0.04,0 0.3,-0.33 0.57,-0.72c0.27,-0.39 0.64,-0.86 0.82,-1.03c0.18,-0.17 0.33,-0.37 0.33,-0.44c0,-0.07 0.12,-0.2 0.26,-0.3c0.14,-0.09 0.47,-0.36 0.72,-0.59c0.25,-0.23 0.49,-0.43 0.53,-0.43c0.04,0 0.16,-0.1 0.27,-0.21c0.2,-0.22 1.16,-0.74 1.35,-0.75c0.06,0 0.25,-0.07 0.41,-0.16c0.46,-0.24 1.31,-0.45 2.1,-0.52c0.7,-0.06 1.3,0.08 2.21,0.51c0.51,0.24 2.55,2.26 2.55,2.52c0,0.1 0.07,0.24 0.16,0.31c0.08,0.07 0.21,0.32 0.27,0.55c0.07,0.24 0.17,0.4 0.24,0.38c0.21,-0.07 1.01,-1.17 1.15,-1.57c0.07,-0.2 0.16,-0.42 0.22,-0.47c0.05,-0.05 0.09,-0.18 0.09,-0.29c0,-0.1 0.14,-0.49 0.32,-0.87c0.17,-0.38 0.32,-0.73 0.32,-0.78c0,-0.05 0.09,-0.26 0.2,-0.46c0.11,-0.2 0.26,-0.56 0.33,-0.8c0.07,-0.23 0.2,-0.57 0.28,-0.76c0.57,-1.27 0.86,-2.7 0.54,-2.7c-0.07,0 -0.42,0.24 -0.77,0.54c-0.35,0.29 -0.83,0.66 -1.06,0.82c-0.23,0.16 -0.63,0.47 -0.88,0.69c-0.25,0.22 -0.49,0.4 -0.55,0.4c-0.06,0 -0.41,0.18 -0.78,0.41c-0.37,0.23 -0.83,0.44 -1.04,0.48c-0.96,0.18 -6.2,-0.03 -7.5,-0.3c-2.37,-0.49 -3.75,-0.89 -5.23,-1.5c-0.48,-0.2 -0.92,-0.37 -0.97,-0.37c-0.06,0 -0.55,-0.2 -1.1,-0.46c-0.55,-0.25 -1.17,-0.51 -1.37,-0.58c-0.2,-0.07 -0.77,-0.36 -1.27,-0.65c-0.49,-0.29 -0.91,-0.53 -0.93,-0.53c-0.05,0 -1.69,-1.24 -2.17,-1.64c-0.21,-0.18 -0.57,-0.47 -0.78,-0.64c-0.6,-0.49 -1.32,-1.11 -1.92,-1.68c-0.53,-0.49 -0.79,-0.62 -0.79,-0.39c0,0.06 0.09,0.24 0.21,0.39c0.12,0.15 0.21,0.35 0.21,0.44c0,0.09 0.22,0.5 0.49,0.9c0.27,0.41 0.45,0.8 0.42,0.89c-0.03,0.09 0.01,0.24 0.09,0.33c0.08,0.09 0.3,0.46 0.49,0.81c0.31,0.58 1.14,1.75 1.43,2.02c0.06,0.06 0.32,0.42 0.57,0.8c0.25,0.38 0.69,0.92 0.98,1.21c0.29,0.28 0.53,0.55 0.54,0.58c0,0.04 0.26,0.33 0.58,0.65c0.32,0.32 0.58,0.63 0.58,0.68c0,0.05 0.16,0.28 0.35,0.51c0.62,0.73 0.93,1.13 0.93,1.19c0,0.04 0.25,0.44 0.56,0.9c0.31,0.46 0.65,1 0.77,1.2c0.11,0.2 0.43,0.68 0.7,1.06c0.51,0.72 1.06,1.62 1.19,1.94c0.12,0.28 0.38,0.23 0.74,-0.16zm10.74,-9.89c1.03,-0.21 2.04,-0.47 2.23,-0.56c0.62,-0.31 3.68,-3.38 4.24,-4.24c0.08,-0.14 0.33,-0.5 0.55,-0.82c0.41,-0.6 0.66,-1.15 0.57,-1.24c-0.07,-0.07 -1.02,0.44 -1.66,0.89c-0.43,0.31 -1.47,0.88 -1.9,1.05c-0.09,0.04 -0.34,0.17 -0.55,0.3c-0.94,0.57 -1.62,0.93 -1.76,0.93c-0.08,0 -0.32,0.1 -0.53,0.21c-0.53,0.29 -0.99,0.28 -1.06,-0.01c-0.08,-0.33 -0.42,-0.41 -1.58,-0.35c-0.95,0.05 -1.1,0.03 -1.53,-0.2c-0.37,-0.19 -0.48,-0.31 -0.48,-0.51c0,-0.24 0.05,-0.27 0.48,-0.3c0.26,-0.02 0.52,-0.08 0.58,-0.13c0.06,-0.06 0.18,-0.1 0.27,-0.1c0.09,0 0.52,-0.17 0.94,-0.38c0.42,-0.21 1.03,-0.45 1.35,-0.53c0.76,-0.2 1.23,-0.44 1.29,-0.67c0.06,-0.25 0.62,-0.52 1.25,-0.6c0.8,-0.1 2.2,-0.81 3.09,-1.56c0.43,-0.37 0.92,-0.77 1.08,-0.9c0.19,-0.15 0.26,-0.27 0.19,-0.33c-0.06,-0.06 -0.94,-0.16 -1.96,-0.23c-2.7,-0.18 -4.01,-0.5 -5.46,-1.34c-0.88,-0.51 -1.12,-0.59 -2.39,-0.84c-1.4,-0.28 -3.8,-1.13 -5.24,-1.86c-0.32,-0.16 -0.78,-0.36 -1.01,-0.43c-0.23,-0.08 -0.61,-0.22 -0.85,-0.32c-0.23,-0.1 -0.99,-0.41 -1.69,-0.68c-3.25,-1.28 -5.79,-2.81 -7.5,-4.51c-1.07,-1.07 -1.15,-1.12 -1.77,-1.25c-0.36,-0.08 -1.07,-0.33 -1.58,-0.57c-1.15,-0.53 -2.43,-0.88 -3.04,-0.84c-0.41,0.03 -0.47,0.07 -0.5,0.3c-0.02,0.15 -0.1,0.42 -0.18,0.6c-0.08,0.18 -0.16,0.41 -0.16,0.5c0,0.09 -0.04,0.19 -0.1,0.23c-0.06,0.04 -0.1,0.18 -0.1,0.32c0,0.34 -0.27,0.59 -0.63,0.59c-0.39,0 -0.44,0.07 -0.31,0.41c0.06,0.15 0.13,0.71 0.14,1.24c0.02,0.53 0.06,1.1 0.08,1.28c0.03,0.17 0.08,0.56 0.12,0.85c0.04,0.29 0.14,0.61 0.22,0.7c0.08,0.09 0.15,0.25 0.15,0.35c0,0.37 0.96,1.9 1.36,2.16c1.1,0.71 4.33,3.95 4.92,4.92c0.31,0.51 1.14,1.48 1.75,2.05c1.21,1.13 1.5,1.37 1.8,1.53c0.18,0.09 0.58,0.31 0.9,0.49c1.37,0.77 2.89,1.58 3.93,2.11c0.56,0.29 1.38,0.61 1.91,0.75c0.67,0.18 2.05,0.65 2.18,0.75c0.2,0.14 2.66,0.96 3.28,1.09c1.12,0.23 2.59,0.14 4.66,-0.28zm7,-14.16c0.68,-0.11 1.36,-0.15 1.74,-0.12c0.78,0.08 1.45,-0.02 1.45,-0.22c0,-0.08 -0.07,-0.14 -0.15,-0.14c-0.16,0 -0.49,-0.28 -0.49,-0.42c0,-0.05 0.13,-0.14 0.29,-0.2c0.37,-0.13 1.19,-0.84 1.19,-1.02c0,-0.19 1.13,-1.34 1.33,-1.34c0.08,0 0.2,-0.09 0.27,-0.2c0.06,-0.11 0.23,-0.23 0.39,-0.27c0.37,-0.1 2.17,-0.95 2.17,-1.03c0.01,-0.31 -1.14,-0.06 -1.95,0.41c-0.22,0.13 -0.45,0.24 -0.5,0.24c-0.06,0 -0.1,0.04 -0.1,0.1c0,0.05 -0.26,0.22 -0.57,0.38c-0.48,0.24 -0.72,0.29 -1.38,0.29c-0.71,0 -0.85,-0.03 -1.18,-0.29c-0.21,-0.16 -0.36,-0.34 -0.34,-0.4c0.02,-0.06 0.23,-0.18 0.46,-0.26c0.23,-0.08 0.55,-0.21 0.7,-0.3c0.16,-0.09 0.35,-0.16 0.43,-0.16c0.2,0 1.61,-0.94 1.73,-1.15c0.05,-0.1 0.24,-0.32 0.41,-0.49c0.28,-0.28 0.35,-0.3 0.89,-0.25c0.49,0.05 0.62,0.03 0.79,-0.14c0.49,-0.49 0.08,-1.15 -0.91,-1.45c-0.42,-0.13 -0.65,-0.26 -0.68,-0.38c-0.02,-0.1 0.02,-0.18 0.09,-0.18c0.07,0 0.25,-0.09 0.41,-0.2c0.17,-0.12 0.63,-0.24 1.19,-0.31c0.5,-0.06 1.14,-0.16 1.43,-0.23c0.29,-0.06 0.95,-0.13 1.46,-0.17c1.02,-0.07 1.11,-0.15 0.67,-0.62c-0.23,-0.25 -0.34,-0.28 -0.97,-0.28c-0.39,0 -1,-0.07 -1.35,-0.16c-0.55,-0.14 -0.78,-0.15 -1.6,-0.04c-1.03,0.14 -1.8,0.45 -3.22,1.31c-0.43,0.27 -0.84,0.48 -0.9,0.48c-0.06,0 -0.11,0.04 -0.11,0.08c0,0.08 -0.43,0.25 -1.12,0.45c-0.17,0.05 -0.49,0.15 -0.69,0.23c-0.2,0.07 -0.43,0.14 -0.5,0.16c-0.07,0.02 -0.2,0.19 -0.28,0.39c-0.17,0.41 -0.81,0.93 -1.14,0.93c-0.12,0 -0.44,-0.2 -0.7,-0.45c-0.46,-0.44 -0.47,-0.46 -0.35,-0.84c0.1,-0.32 0.09,-0.43 -0.02,-0.57c-0.08,-0.1 -0.15,-0.23 -0.17,-0.3c-0.01,-0.06 -0.08,-0.39 -0.15,-0.71c-0.1,-0.48 -0.09,-0.68 0.03,-1.04c0.17,-0.51 1.07,-1.5 1.67,-1.84c0.24,-0.13 0.53,-0.45 0.74,-0.77c0.33,-0.55 1.34,-1.67 1.5,-1.67c0.12,0 0.33,0.28 0.26,0.35c-0.03,0.04 -0.03,0.12 0.01,0.18c0.12,0.19 0.53,-0.1 1.05,-0.75c0.27,-0.33 0.63,-0.65 0.81,-0.71c0.32,-0.11 1.39,-1.11 1.39,-1.29c0,-0.18 -0.25,-0.25 -0.99,-0.23c-0.41,0 -0.8,-0.03 -0.86,-0.08c-0.06,-0.05 -0.33,-0.15 -0.59,-0.22c-0.36,-0.09 -0.62,-0.28 -1.03,-0.71l-0.55,-0.58l-0.13,0.46c-0.2,0.72 -0.54,1.1 -1.11,1.24c-0.27,0.07 -0.74,0.24 -1.04,0.39c-0.3,0.14 -0.63,0.26 -0.75,0.26c-0.11,0 -0.41,0.14 -0.68,0.32c-0.26,0.17 -0.52,0.32 -0.57,0.32c-0.05,0 -0.25,0.14 -0.43,0.33c-0.45,0.44 -0.8,0.4 -0.76,-0.08c0.02,-0.19 0.12,-0.5 0.24,-0.69c0.12,-0.19 0.21,-0.43 0.21,-0.52c0,-0.1 0.15,-0.29 0.33,-0.43c0.18,-0.14 0.46,-0.36 0.63,-0.49c0.16,-0.13 0.57,-0.34 0.9,-0.47c0.33,-0.13 0.65,-0.31 0.7,-0.42c0.06,-0.1 0.16,-0.25 0.24,-0.33c0.14,-0.15 0.82,-1.14 0.82,-1.2c0,-0.02 0.2,-0.25 0.45,-0.5c0.25,-0.26 0.52,-0.65 0.6,-0.89c0.21,-0.61 0.39,-0.87 0.84,-1.15c0.25,-0.16 0.49,-0.45 0.65,-0.77c0.45,-0.92 0.74,-1.32 0.96,-1.32c0.12,0 0.26,-0.09 0.32,-0.21c0.09,-0.16 0.23,-0.21 0.57,-0.21c0.33,0 0.48,-0.06 0.58,-0.22c0.09,-0.14 0.25,-0.22 0.48,-0.22c0.19,0 0.68,-0.01 1.08,-0.02c0.74,-0.02 0.74,-0.02 0.72,0.25c-0.02,0.15 -0.15,0.44 -0.3,0.65c-0.25,0.36 -0.31,0.39 -0.93,0.44c-0.73,0.06 -1.3,0.31 -1.6,0.68c-0.11,0.14 -0.26,0.25 -0.33,0.25c-0.36,0 -0.49,0.64 -0.47,2.45c0.01,0.94 0.5,1.56 1.34,1.67c0.4,0.05 0.44,0.03 0.64,-0.3c0.12,-0.2 0.24,-0.48 0.28,-0.63c0.08,-0.35 0.55,-0.77 1.08,-0.98c0.39,-0.15 0.53,-0.15 1.6,0.03c1.11,0.18 1.19,0.22 1.51,0.58c0.18,0.21 0.44,0.6 0.57,0.87l0.23,0.48l0.49,-0.07c0.27,-0.04 0.7,-0.16 0.94,-0.29c0.65,-0.31 1.58,-1.25 1.85,-1.86c0.13,-0.29 0.3,-0.65 0.37,-0.8c0.2,-0.37 0.13,-1.84 -0.09,-2.07c-0.09,-0.09 -0.19,-0.16 -0.23,-0.16c-0.04,0 -0.17,-0.1 -0.3,-0.23c-0.13,-0.12 -0.4,-0.35 -0.61,-0.5c-1.05,-0.79 -2.89,-2.64 -3.44,-3.45c-0.32,-0.48 -0.95,-1.24 -1.4,-1.69l-0.82,-0.82l-0.04,-0.73c-0.02,-0.4 -0.1,-0.96 -0.18,-1.25c-0.12,-0.49 -0.16,-0.54 -0.5,-0.6c-0.2,-0.04 -0.68,-0.13 -1.04,-0.2c-0.37,-0.07 -0.69,-0.11 -0.72,-0.08c-0.02,0.02 0.05,0.29 0.16,0.6c0.3,0.78 0.28,0.87 -0.17,0.87c-0.35,0 -0.38,0.02 -0.31,0.24c0.2,0.63 0.18,0.87 -0.16,1.38c-0.19,0.29 -0.45,0.53 -0.59,0.57c-0.14,0.04 -0.26,0.1 -0.26,0.13c0,0.04 -0.04,0.13 -0.09,0.21c-0.08,0.12 -0.14,0.11 -0.38,-0.04c-0.28,-0.18 -0.29,-0.18 -0.65,0.16c-0.2,0.2 -0.4,0.32 -0.44,0.28c-0.04,-0.04 -0.18,0.03 -0.32,0.15c-0.31,0.29 -0.57,0.2 -0.57,-0.2c0,-0.45 -0.59,-1.74 -0.9,-1.97c-0.41,-0.3 -0.72,-0.2 -0.95,0.29c-0.23,0.49 -0.36,0.61 -0.62,0.54c-0.13,-0.03 -0.19,0.02 -0.19,0.16c0,0.11 0.05,0.2 0.11,0.2c0.25,0 1.07,0.45 1.03,0.57c-0.02,0.07 -0.22,0.14 -0.43,0.16c-0.29,0.02 -0.39,0.08 -0.39,0.22c0,0.1 -0.11,0.25 -0.25,0.32c-0.27,0.14 -1.14,1.76 -1.14,2.12c0,0.12 -0.16,0.4 -0.37,0.61l-0.37,0.4l-0.86,-0.03c-0.47,-0.02 -1.11,0.03 -1.43,0.1c-0.42,0.09 -0.66,0.1 -0.9,0.02c-0.26,-0.09 -0.4,-0.08 -0.65,0.04c-0.49,0.24 -1.06,0.31 -1.11,0.13c-0.02,-0.08 -0.1,-0.31 -0.17,-0.52c-0.28,-0.79 -0.31,-1.15 -0.1,-1.34c0.17,-0.15 0.36,-0.17 1.3,-0.12c0.72,0.04 1.14,0.02 1.22,-0.05c0.06,-0.06 0.29,-0.14 0.5,-0.16c0.22,-0.02 0.45,-0.06 0.51,-0.07c0.06,-0.01 0.14,0.09 0.16,0.23c0.03,0.22 0.08,0.24 0.37,0.18c0.4,-0.08 0.4,-0.08 0.5,-0.51c0.09,-0.4 -0.1,-0.87 -0.41,-1.04c-0.23,-0.12 -1.13,-0.13 -1.43,-0.02c-0.11,0.04 -0.51,0.02 -0.9,-0.04c-1.13,-0.19 -2.08,-0.05 -3.12,0.45c-0.67,0.32 -1.06,0.44 -1.59,0.48c-0.49,0.04 -0.84,0.14 -1.18,0.33c-0.27,0.15 -0.57,0.28 -0.7,0.28c-0.18,0 -1.25,-0.43 -1.84,-0.74c-0.27,-0.14 -0.18,-0.37 0.15,-0.43c0.17,-0.03 0.33,-0.11 0.35,-0.17c0.02,-0.06 -0.18,-0.34 -0.45,-0.61c-0.45,-0.45 -0.49,-0.53 -0.44,-0.87c0.06,-0.33 0.03,-0.39 -0.23,-0.48c-0.16,-0.06 -0.47,-0.23 -0.68,-0.38c-0.5,-0.34 -0.38,-0.56 0.29,-0.56c0.27,0 0.51,-0.06 0.59,-0.16c0.07,-0.09 0.25,-0.16 0.38,-0.16c0.29,0 1.21,-0.59 1.3,-0.84c0.04,-0.1 0.18,-0.37 0.33,-0.6c0.15,-0.23 0.26,-0.54 0.25,-0.69c-0.01,-0.14 0.04,-0.53 0.12,-0.85c0.12,-0.5 0.18,-0.59 0.4,-0.61c0.68,-0.07 1.37,-0.27 1.52,-0.43c0.1,-0.11 0.18,-0.44 0.2,-0.82l0.04,-0.63l1.48,-0.01c0.91,0 1.64,-0.06 1.89,-0.15c0.81,-0.27 2.13,0.04 2.66,0.62c0.18,0.2 0.23,0.21 0.5,0.06c0.48,-0.25 1.02,-0.19 1.79,0.2c0.91,0.47 1.94,0.78 2.59,0.79c0.53,0.01 1.28,0.29 1.74,0.65c0.49,0.39 1.74,0.18 1.74,-0.29c0,-0.1 0.08,-0.31 0.18,-0.45c0.14,-0.2 0.18,-0.47 0.18,-1.16c0,-0.9 0,-0.9 0.31,-1.01c0.4,-0.14 0.61,0.11 0.81,0.96c0.08,0.35 0.18,0.67 0.23,0.73c0.05,0.05 0.09,0.3 0.09,0.55c0,0.64 0.08,0.79 0.44,0.79c0.24,0 0.31,-0.05 0.31,-0.22c0,-0.3 0.29,-0.38 0.64,-0.17c0.66,0.39 1.01,0.08 0.89,-0.81c-0.05,-0.39 -0.02,-0.47 0.17,-0.59c0.29,-0.18 0.44,-0.06 0.73,0.55c0.29,0.61 0.46,0.73 1.22,0.83c1.12,0.14 1.67,0.02 2.19,-0.46c0.42,-0.39 0.45,-0.45 0.38,-0.8c-0.12,-0.63 -0.53,-1.33 -1.21,-2.03c-0.35,-0.36 -0.66,-0.73 -0.7,-0.82c-0.03,-0.08 -0.23,-0.23 -0.43,-0.31c-0.59,-0.25 -0.99,-1.19 -1.17,-2.76c-0.08,-0.69 -0.12,-1.35 -0.09,-1.46c0.03,-0.11 0,-0.26 -0.05,-0.33c-0.1,-0.12 -0.3,-1 -0.26,-1.16c0.02,-0.11 -0.26,-1.35 -0.49,-2.11c-0.25,-0.85 -0.58,-1.51 -1.02,-2.07c-0.18,-0.23 -0.43,-0.57 -0.53,-0.74c-0.37,-0.58 -1.37,-1.56 -2.36,-2.29c-0.53,-0.4 -1.05,-0.86 -1.15,-1.02c-0.13,-0.23 -0.35,-0.36 -0.84,-0.51c-0.36,-0.11 -0.82,-0.29 -1.02,-0.39c-1.12,-0.57 -2.55,-1.18 -3.42,-1.47c-0.54,-0.18 -1.14,-0.4 -1.32,-0.48c-0.53,-0.24 -2.78,-0.79 -3.24,-0.79c-0.24,0 -0.51,-0.04 -0.61,-0.1c-0.28,-0.14 -3.58,-0.24 -4.21,-0.12c-0.5,0.1 -1.56,0.21 -2.56,0.28c-0.23,0.02 -0.49,0.06 -0.58,0.09c-0.16,0.06 -1.35,0.28 -2.93,0.55c-1.32,0.23 -2.09,0.4 -2.55,0.59c-0.2,0.08 -0.44,0.14 -1.12,0.26c-0.42,0.08 -0.85,0.23 -1.51,0.52c-0.34,0.15 -0.73,0.28 -0.87,0.28c-0.14,0 -0.27,0.04 -0.29,0.08c-0.07,0.15 -1.11,0.74 -1.45,0.82c-0.18,0.04 -0.57,0.24 -0.87,0.44c-0.29,0.2 -0.55,0.36 -0.58,0.36c-0.11,0 -1.23,0.78 -1.23,0.86c0,0.04 -0.14,0.14 -0.33,0.21c-0.18,0.07 -0.49,0.29 -0.7,0.49c-0.2,0.2 -0.41,0.36 -0.46,0.36c-0.16,0 -2.04,1.94 -2.25,2.34c-0.3,0.54 -0.51,0.86 -1.05,1.56c-0.27,0.34 -0.55,0.77 -0.63,0.94c-0.08,0.18 -0.24,0.42 -0.35,0.55c-0.11,0.12 -0.18,0.34 -0.16,0.48l0.04,0.25l0.24,-0.27c0.65,-0.71 1.08,-1.23 1.08,-1.32c0,-0.06 0.18,-0.34 0.41,-0.64c0.23,-0.3 0.5,-0.7 0.61,-0.89c0.11,-0.19 0.23,-0.35 0.27,-0.35c0.04,0 0.26,-0.25 0.48,-0.56c0.23,-0.31 0.43,-0.58 0.46,-0.61c0.03,-0.03 0.22,-0.24 0.42,-0.47c0.43,-0.51 1.8,-1.54 2.04,-1.54c0.09,0 0.26,-0.1 0.36,-0.22c0.31,-0.34 0.8,-0.55 0.97,-0.41c0.19,0.16 0.02,0.4 -0.64,0.91c-0.27,0.21 -0.49,0.43 -0.49,0.49c0,0.1 -0.63,0.82 -1.19,1.36c-1.06,1.04 -2.6,3.49 -2.34,3.75c0.08,0.08 0.15,0.03 0.24,-0.17c0.07,-0.16 0.17,-0.28 0.22,-0.28c0.05,0 0.09,-0.04 0.09,-0.1c0,-0.05 0.18,-0.28 0.4,-0.51c0.22,-0.23 0.52,-0.57 0.66,-0.77c0.15,-0.19 0.37,-0.47 0.51,-0.61c0.13,-0.14 0.24,-0.3 0.24,-0.35c0,-0.04 0.49,-0.59 1.1,-1.2c0.79,-0.8 1.19,-1.14 1.43,-1.19c0.25,-0.05 0.37,-0.16 0.49,-0.43c0.15,-0.36 0.64,-0.61 0.82,-0.42c0.04,0.05 0.1,0.42 0.14,0.83c0.03,0.41 0.1,0.97 0.16,1.25c0.08,0.41 0.05,0.63 -0.11,1.14l-0.2,0.63l0.23,0.33c0.37,0.52 0.61,1.46 0.49,1.94c-0.11,0.47 0.02,0.84 0.44,1.19l0.26,0.22l-0.27,0.39c-0.14,0.21 -0.34,0.46 -0.43,0.55c-0.09,0.09 -0.33,0.44 -0.54,0.78c-0.29,0.47 -0.39,0.78 -0.44,1.35c-0.12,1.27 -0.14,1.34 -0.27,1.5c-0.07,0.08 -0.14,0.43 -0.16,0.76c-0.02,0.44 -0.14,0.84 -0.41,1.43c-0.21,0.45 -0.39,0.86 -0.39,0.91c0,0.04 -0.14,0.25 -0.31,0.45c-0.17,0.2 -0.32,0.41 -0.32,0.47c0,0.05 -0.1,0.2 -0.21,0.32c-0.61,0.67 -0.59,1.82 0.09,3.56c0.24,0.61 0.46,1.27 0.5,1.46c0.04,0.2 0.11,0.39 0.16,0.42c0.06,0.03 0.05,0.14 -0.01,0.25c-0.06,0.1 -0.18,0.43 -0.27,0.71c-0.09,0.29 -0.21,0.61 -0.26,0.73c-0.05,0.12 -0.12,0.59 -0.15,1.06c-0.04,0.47 -0.13,0.95 -0.22,1.08c-0.09,0.14 -0.16,0.37 -0.16,0.51c0,0.15 -0.04,0.27 -0.1,0.27c-0.06,0 -0.11,0.08 -0.11,0.18c0,0.24 -0.35,1.29 -0.57,1.7c-0.23,0.43 -0.09,1.33 0.28,1.92c0.16,0.25 0.29,0.57 0.29,0.72c0,0.15 0.08,0.39 0.17,0.53c0.31,0.47 0.15,0.59 -0.75,0.51c-0.93,-0.08 -0.91,-0.1 -0.63,0.97c0.09,0.35 0.21,0.88 0.27,1.17c0.06,0.29 0.19,0.7 0.29,0.9c0.1,0.2 0.17,0.46 0.14,0.56c-0.02,0.1 0.03,0.29 0.12,0.42c0.47,0.68 -0.16,1.74 -1.29,2.2c-0.58,0.23 -2.13,0.11 -2.77,-0.23c-0.29,-0.15 -0.81,-0.36 -1.16,-0.46c-0.62,-0.18 -0.94,-0.38 -1.61,-1c-0.19,-0.18 -0.39,-0.33 -0.44,-0.33c-0.16,0 -0.23,0.35 -0.12,0.68c0.06,0.18 0.13,0.55 0.17,0.83c0.04,0.27 0.11,0.53 0.17,0.56c0.06,0.04 0.2,0.25 0.31,0.47c0.28,0.55 1.2,1.41 1.86,1.74c0.29,0.15 1.21,0.49 2.03,0.74c1.83,0.58 3.52,1.19 3.89,1.4c0.66,0.37 1.42,0.14 2.16,-0.67c1.08,-1.18 1.22,-1.26 1.64,-0.9c0.12,0.1 0.28,0.41 0.35,0.68c0.11,0.43 0.1,0.58 -0.1,1.22c-0.13,0.4 -0.26,0.9 -0.3,1.1c-0.04,0.2 -0.14,0.41 -0.21,0.46c-0.12,0.07 -0.12,0.13 0,0.37c0.08,0.16 0.15,0.5 0.16,0.77c0.02,0.43 0.07,0.53 0.55,0.99c0.29,0.29 0.53,0.55 0.53,0.6c0,0.04 0.18,0.11 0.4,0.15c0.23,0.04 0.68,0.26 1.04,0.52c0.45,0.33 0.86,0.51 1.43,0.65c0.77,0.19 1.95,0.64 3.25,1.23c0.35,0.16 0.8,0.33 1,0.37c0.2,0.04 0.68,0.21 1.05,0.39c0.38,0.17 0.84,0.33 1.02,0.35c0.18,0.02 0.45,0.1 0.59,0.16c0.45,0.19 1.53,0.43 2.22,0.49c0.6,0.06 2.47,0.59 2.72,0.78c0.16,0.12 1.09,0.39 1.81,0.52c0.35,0.06 0.74,0.14 0.85,0.17c0.48,0.11 4.31,-0.03 5.37,-0.2zm10.74,-0.46c0,-0.14 -0.58,-0.53 -0.89,-0.61c-0.15,-0.04 -0.31,-0.11 -0.34,-0.16c-0.03,-0.05 -0.18,-0.1 -0.32,-0.1c-0.23,0 -0.25,0.02 -0.14,0.22c0.2,0.39 1.7,0.96 1.7,0.65zm0.43,-1.47c0,-0.25 -1.2,-0.89 -1.66,-0.89c-0.44,0 -0.28,0.2 0.46,0.57c0.67,0.33 1.2,0.47 1.2,0.31zm1.17,-1.26c0,-0.09 -0.04,-0.16 -0.09,-0.16c-0.05,0 -0.3,-0.16 -0.56,-0.36c-0.47,-0.36 -1.22,-0.65 -1.31,-0.49c-0.08,0.12 0.7,0.82 1.11,1c0.49,0.21 0.85,0.22 0.85,0.02zm-1.51,-4.84c0.32,0 0.35,-0.02 0.23,-0.16c-0.17,-0.2 -0.73,-0.45 -1.13,-0.49c-0.35,-0.04 -0.78,0.28 -0.78,0.58c0,0.19 0.06,0.2 0.65,0.14c0.36,-0.04 0.82,-0.07 1.02,-0.07zm-7.8,-3.1c0.49,-0.14 1.16,-0.6 1.54,-1.06l0.25,-0.3l-0.3,0c-0.16,0 -0.39,0.07 -0.51,0.16c-0.12,0.08 -0.3,0.15 -0.42,0.15c-0.12,0 -0.44,0.19 -0.72,0.43c-0.28,0.24 -0.55,0.43 -0.62,0.43c-0.12,0 -0.15,0.14 -0.04,0.25c0.1,0.1 0.32,0.09 0.82,-0.05l0,0zm5.41,-1.42c0.28,-0.04 0.88,-0.02 1.33,0.05c0.77,0.11 0.9,0.1 2.1,-0.18c1.44,-0.35 1.56,-0.47 0.79,-0.84c-0.4,-0.19 -0.75,-0.25 -1.85,-0.29c-1.63,-0.06 -1.92,0.01 -2.76,0.74c-0.64,0.55 -0.75,0.75 -0.36,0.65c0.13,-0.03 0.47,-0.09 0.75,-0.13zm2.82,-3.13c-0.53,-0.44 -0.69,-0.48 -1.15,-0.27c-0.78,0.35 -0.74,0.45 0.18,0.53c0.45,0.04 0.9,0.08 0.99,0.09c0.26,0.04 0.25,-0.13 -0.02,-0.35zm-48.62,-0.67c-0.02,-0.25 -0.14,-0.93 -0.27,-1.51c-0.35,-1.63 -0.29,-3.27 0.16,-4.36c0.07,-0.18 0.19,-0.49 0.26,-0.71c0.23,-0.73 1.31,-1.49 2.29,-1.61c1.11,-0.14 2.15,0.18 3.23,1c0.6,0.45 0.92,0.5 1.11,0.18c0.1,-0.15 0.05,-0.31 -0.2,-0.78c-0.28,-0.51 -0.41,-0.62 -0.9,-0.84c-0.72,-0.31 -1.74,-0.61 -3.11,-0.91c-1.42,-0.31 -1.83,-0.25 -2.53,0.41c-0.61,0.57 -0.7,0.74 -0.83,1.69c-0.05,0.38 -0.16,0.77 -0.25,0.86c-0.08,0.1 -0.21,0.43 -0.28,0.74c-0.07,0.31 -0.18,0.59 -0.23,0.62c-0.05,0.04 -0.07,0.16 -0.03,0.27c0.04,0.12 0.02,0.27 -0.04,0.35c-0.17,0.2 -0.16,1.44 0.02,2.09c0.25,0.92 1.4,3.13 1.57,3.02c0.05,-0.03 0.07,-0.26 0.05,-0.51zm6.73,0.29c0.37,-0.19 0.39,-0.23 0.22,-0.65c-0.37,-0.93 -0.5,-2.03 -0.31,-2.66c0.1,-0.34 -0.07,-0.89 -0.31,-1.04c-0.17,-0.1 -1.19,0.5 -1.37,0.81c-0.1,0.17 -0.21,0.31 -0.25,0.31c-0.22,0 0.09,1.84 0.38,2.26c0.37,0.53 0.67,0.8 0.94,0.87c0.16,0.04 0.29,0.12 0.29,0.17c0,0.14 0.02,0.14 0.41,-0.06zm-4.16,-2.81c0.18,0 0.31,-0.16 0.6,-0.77c0.2,-0.43 0.54,-0.96 0.75,-1.19c0.21,-0.23 0.38,-0.46 0.38,-0.5c0,-0.29 -0.42,-0.84 -0.94,-1.23c-0.59,-0.43 -0.61,-0.44 -0.82,-0.25c-0.12,0.11 -0.32,0.23 -0.45,0.27c-0.14,0.04 -0.27,0.19 -0.31,0.36c-0.04,0.16 -0.19,0.44 -0.33,0.63c-0.18,0.24 -0.24,0.42 -0.2,0.6c0.04,0.14 -0.01,0.4 -0.1,0.58c-0.2,0.4 -0.27,1.07 -0.14,1.31c0.11,0.21 0.44,0.3 0.94,0.24c0.2,-0.02 0.48,-0.04 0.61,-0.04zm44.13,-0.18c0.32,-0.08 0.3,-0.23 -0.06,-0.37c-0.35,-0.14 -1.32,0.04 -1.52,0.29c-0.11,0.13 -0.02,0.15 0.6,0.15c0.4,0 0.84,-0.03 0.97,-0.07zm-39.32,-10.35c0.41,-0.83 0.44,-1.07 0.13,-1.07c-0.19,0 -0.2,0.03 -0.73,1.06c-0.27,0.53 -0.32,0.72 -0.23,0.88c0.16,0.29 0.35,0.09 0.83,-0.87zm19.74,-0.79c1.06,-0.6 1.26,-0.7 1.39,-0.7c0.08,0 0.14,-0.05 0.14,-0.1c0,-0.16 0.86,-0.68 1.44,-0.88c0.29,-0.1 0.79,-0.21 1.11,-0.25c0.32,-0.04 0.81,-0.16 1.08,-0.27c0.27,-0.11 0.69,-0.23 0.93,-0.27c0.25,-0.04 0.44,-0.13 0.44,-0.2c0,-0.27 -0.6,-0.78 -1.07,-0.9c-0.26,-0.07 -0.71,-0.24 -1,-0.38c-0.29,-0.14 -0.59,-0.25 -0.65,-0.25c-0.06,0 -0.25,-0.07 -0.42,-0.16c-0.41,-0.21 -1.03,-0.1 -1.6,0.3c-0.25,0.18 -0.46,0.36 -0.46,0.41c0,0.05 -0.06,0.09 -0.13,0.09c-0.07,0 -0.49,0.34 -0.92,0.75c-0.44,0.41 -0.93,0.83 -1.09,0.92c-0.36,0.21 -0.37,0.3 -0.06,0.46c0.13,0.07 0.25,0.14 0.27,0.15c0.06,0.05 -0.11,0.37 -0.2,0.37c-0.06,0 -0.34,0.16 -0.64,0.37c-0.3,0.2 -0.59,0.37 -0.64,0.37c-0.2,0 -0.01,0.26 0.24,0.33c0.45,0.11 1.54,0.02 1.86,-0.16zm-20.37,-1.13c0.49,-0.59 0.53,-0.94 0.07,-0.74c-0.28,0.13 -0.59,0.6 -0.67,1c-0.07,0.4 0.1,0.32 0.59,-0.27zm-1.58,-0.14c0.38,-0.6 0.48,-1.01 0.26,-1.1c-0.23,-0.09 -0.53,0.25 -0.7,0.77c-0.14,0.43 -0.1,0.78 0.07,0.78c0.05,0 0.21,-0.2 0.37,-0.45zm43.45,-1.06c0.2,-0.25 0.28,-1.04 0.11,-1.15c-0.14,-0.09 -0.73,-0.05 -1.19,0.08c-0.21,0.06 -0.25,0.49 -0.08,0.93c0.09,0.24 0.16,0.27 0.57,0.27c0.26,0 0.52,-0.06 0.58,-0.14zm-44.51,-0.31c0.98,-1.32 1.45,-3.15 0.53,-2.09c-0.68,0.79 -1.1,1.67 -1.02,2.11c0.08,0.41 0.16,0.4 0.48,-0.02zm5.44,-7.1c0.28,-0.58 0.34,-1.06 0.14,-1.06c-0.09,0 -0.26,0.13 -0.37,0.29c-0.29,0.43 -0.68,1.4 -0.61,1.52c0.1,0.16 0.62,-0.32 0.83,-0.75zm-3.27,-1.78c0.21,-0.22 0.49,-0.57 0.63,-0.79c0.14,-0.21 0.3,-0.42 0.36,-0.45c0.19,-0.12 0.98,-1.55 0.91,-1.66c-0.24,-0.39 -1.33,0.55 -1.86,1.6c-0.17,0.35 -0.29,0.63 -0.26,0.63c0.03,0 -0.01,0.11 -0.1,0.24c-0.15,0.22 -0.24,0.83 -0.11,0.83c0.03,0 0.23,-0.18 0.44,-0.4zm1.39,-4.83c0.36,-0.35 0.44,-0.51 0.24,-0.51c-0.15,0 -0.74,0.59 -0.74,0.74c0,0.19 0.13,0.13 0.5,-0.23z" fill="#ffffff" id="path19410" stroke-width="0.26"/>
 </g>
</svg>