<?xml version="1.0"?>
<svg width="100" height="100" xmlns="http://www.w3.org/2000/svg" xmlns:svg="http://www.w3.org/2000/svg" version="1.1" xml:space="preserve">

 <g class="layer">
  <title>Layer 1</title>
  <path d="m70.89,99.26c-2.76,-0.53 -5.14,-1.52 -6.98,-2.9c-1.22,-0.91 -1.43,-1.08 -2.44,-1.95c-0.55,-0.48 -1.04,-0.87 -1.09,-0.87c-0.05,0 -0.51,-0.36 -1.02,-0.81c-1.03,-0.89 -2.66,-2.07 -3.79,-2.75c-0.41,-0.24 -1.62,-1.07 -2.69,-1.83c-2.29,-1.64 -4.06,-2.83 -4.84,-3.29c-0.32,-0.18 -0.67,-0.42 -0.8,-0.54c-0.13,-0.12 -0.29,-0.21 -0.35,-0.21c-0.07,0 -0.23,-0.1 -0.37,-0.23c-0.14,-0.12 -0.49,-0.36 -0.79,-0.52c-0.29,-0.16 -0.9,-0.52 -1.34,-0.79c-0.44,-0.27 -0.84,-0.49 -0.88,-0.49c-0.04,0 -0.22,-0.1 -0.39,-0.23c-0.5,-0.35 -3.33,-1.81 -3.52,-1.81c-0.09,0 -0.31,-0.11 -0.47,-0.24c-0.28,-0.22 -3.76,-1.67 -4.01,-1.67c-0.06,0 -0.43,-0.15 -0.81,-0.34c-0.39,-0.19 -1.32,-0.57 -2.08,-0.85c-0.75,-0.28 -1.91,-0.71 -2.57,-0.96c-0.66,-0.24 -1.92,-0.71 -2.79,-1.03c-1.18,-0.43 -1.62,-0.65 -1.69,-0.83c-0.06,-0.16 0,-0.63 0.18,-1.31c0.15,-0.59 0.27,-1.15 0.27,-1.24c0,-0.28 0.28,-1.24 0.41,-1.4c0.08,-0.09 0.07,-0.17 -0.01,-0.22c-0.08,-0.05 -0.05,-0.23 0.1,-0.52c0.12,-0.24 0.37,-0.92 0.55,-1.51c0.18,-0.59 0.39,-1.24 0.48,-1.44c0.29,-0.68 0.56,-1.44 0.61,-1.69c0.03,-0.14 0.26,-0.64 0.52,-1.1c0.56,-0.98 0.6,-1.41 0.18,-1.9c-0.16,-0.19 -0.3,-0.39 -0.3,-0.44c0,-0.04 -0.15,-0.27 -0.33,-0.51c-0.8,-1.05 -2.42,-4.13 -2.74,-5.2c-0.09,-0.32 -0.28,-0.75 -0.4,-0.96c-0.13,-0.21 -0.36,-0.78 -0.52,-1.26c-0.17,-0.48 -0.38,-0.98 -0.49,-1.09c-0.11,-0.12 -0.46,-0.73 -0.79,-1.37c-0.36,-0.7 -0.77,-1.31 -1.04,-1.54c-0.98,-0.85 -2.01,-2.06 -2.53,-2.95c-0.39,-0.67 -0.73,-1.36 -0.73,-1.46c0,-0.06 -0.16,-0.43 -0.36,-0.83c-0.2,-0.4 -0.36,-0.82 -0.36,-0.94c0,-0.12 -0.05,-0.25 -0.12,-0.29c-0.07,-0.04 -0.12,-0.18 -0.12,-0.31c0,-0.13 -0.05,-0.33 -0.12,-0.44c-0.06,-0.11 -0.2,-0.58 -0.31,-1.04c-0.1,-0.46 -0.23,-1.03 -0.29,-1.26c-0.25,-1.03 -0.4,-1.78 -0.48,-2.33c-0.05,-0.33 -0.15,-1.03 -0.23,-1.55c-0.08,-0.52 -0.19,-1.01 -0.25,-1.08c-0.06,-0.07 -0.08,-0.16 -0.05,-0.19c0.03,-0.03 -0.02,-0.62 -0.12,-1.31c-0.2,-1.4 -0.18,-3.63 0.05,-5.37c0.08,-0.63 0.14,-1.26 0.14,-1.41c0,-0.15 0.09,-0.47 0.21,-0.71c0.12,-0.24 0.31,-0.82 0.42,-1.28c0.11,-0.46 0.25,-1 0.31,-1.2c0.06,-0.2 0.14,-0.57 0.19,-0.84c0.05,-0.26 0.22,-0.83 0.37,-1.26c0.16,-0.43 0.34,-0.97 0.41,-1.2c0.07,-0.23 0.19,-0.59 0.29,-0.79c0.09,-0.21 0.17,-0.44 0.17,-0.51c0,-0.14 0.32,-0.86 1.15,-2.6c0.29,-0.6 0.52,-1.15 0.52,-1.23c0,-0.08 0.05,-0.2 0.12,-0.28c0.47,-0.56 0.6,-0.74 0.66,-0.97c0.04,-0.14 0.17,-0.36 0.29,-0.49c0.12,-0.13 0.39,-0.56 0.6,-0.96c0.21,-0.39 0.57,-0.94 0.79,-1.22c0.22,-0.27 0.41,-0.53 0.41,-0.58c0,-0.09 0.29,-0.4 2.68,-2.83c0.89,-0.9 1.66,-1.64 1.7,-1.64c0.05,0 0.22,-0.13 0.39,-0.28c0.17,-0.16 0.8,-0.54 1.41,-0.85c0.61,-0.31 1.13,-0.61 1.16,-0.65c0.05,-0.09 0.86,-0.42 2.58,-1.08c0.56,-0.21 1.12,-0.44 1.26,-0.52c0.13,-0.07 0.34,-0.18 0.47,-0.25c0.13,-0.06 0.32,-0.16 0.42,-0.22c1.77,-1 2.8,-1.32 4.3,-1.34c1.34,-0.01 4.17,0.32 5.33,0.63c0.26,0.07 0.9,0.21 1.43,0.31c3.3,0.64 4.07,0.87 5.44,1.6c0.96,0.51 2.18,1.32 2.31,1.54c0.05,0.09 0.16,0.16 0.24,0.16c0.09,0 0.33,0.13 0.53,0.28c0.23,0.18 0.63,0.31 1.03,0.36c0.35,0.04 1.17,0.27 1.82,0.5c0.65,0.23 1.39,0.47 1.65,0.53c0.27,0.06 0.7,0.21 0.96,0.34c0.52,0.24 0.54,0.26 2.87,1.27c0.85,0.37 1.64,0.75 1.73,0.83c0.09,0.08 0.26,0.19 0.36,0.23c0.1,0.04 0.33,0.17 0.5,0.28c0.84,0.55 1.8,1.11 1.89,1.11c0.06,0 0.55,0.3 1.1,0.67c1.21,0.82 2.98,2.42 3.93,3.56c1.2,1.45 1.32,1.61 1.55,2.1c0.13,0.26 0.28,0.51 0.35,0.55c0.06,0.04 0.25,0.35 0.42,0.7c0.16,0.34 0.43,0.78 0.6,0.98c0.16,0.19 0.3,0.4 0.3,0.46c0,0.05 0.16,0.3 0.35,0.54c0.19,0.24 0.39,0.6 0.44,0.8c0.05,0.19 0.23,0.65 0.42,1.02c0.36,0.72 0.63,1.44 1.21,3.22c0.2,0.62 0.43,1.22 0.5,1.31c0.46,0.62 1.06,2.4 1.19,3.52c0.14,1.17 0.38,2.16 0.69,2.77c0.35,0.7 0.32,1.14 -0.15,2.07c-0.32,0.63 -0.34,1.54 -0.05,2.23c0.17,0.39 0.84,1.33 1.2,1.66c0.32,0.29 1.38,1.73 1.66,2.26c0.17,0.32 0.31,0.77 0.32,1.01c0,0.23 0.05,0.54 0.11,0.67c0.05,0.13 0.05,0.29 0,0.36c-0.05,0.07 -0.13,0.26 -0.16,0.42c-0.18,0.83 -0.33,1.29 -0.53,1.69c-0.19,0.38 -0.22,0.65 -0.19,1.9c0.02,0.8 0,1.51 -0.04,1.59c-0.1,0.16 -0.09,0.13 -0.19,1.33c-0.04,0.53 -0.13,1.15 -0.2,1.38c-0.14,0.44 -0.45,2.33 -0.54,3.22c-0.05,0.56 -0.12,0.87 -0.28,1.26c-0.19,0.47 -0.5,1.94 -0.47,2.18c0.02,0.13 -0.03,0.32 -0.11,0.42c-0.09,0.1 -0.18,0.39 -0.2,0.65c-0.03,0.25 -0.1,0.73 -0.18,1.06c-0.07,0.33 -0.1,0.71 -0.07,0.85c0.04,0.16 0,0.28 -0.12,0.33c-0.09,0.04 -0.18,0.19 -0.18,0.35c0,0.15 -0.05,0.33 -0.12,0.39c-0.12,0.12 0.08,0.83 0.4,1.47c0.23,0.46 0.31,1.6 0.18,2.44c-0.07,0.41 -0.14,0.93 -0.16,1.15c-0.02,0.23 -0.09,0.43 -0.17,0.46c-0.07,0.02 -0.13,0.12 -0.13,0.21c0,0.09 -0.32,0.58 -0.7,1.1c-0.52,0.69 -0.95,1.1 -1.64,1.57c-1.87,1.27 -1.96,1.33 -1.96,1.65c0,0.16 -0.14,0.49 -0.3,0.74c-0.16,0.24 -0.3,0.51 -0.3,0.6c0,0.09 -0.19,0.44 -0.42,0.79c-0.23,0.35 -0.42,0.67 -0.42,0.71c0,0.05 -0.16,0.22 -0.36,0.39c-0.19,0.17 -0.36,0.37 -0.36,0.44c0,0.08 -0.27,0.42 -0.6,0.77c-0.33,0.34 -0.6,0.72 -0.6,0.83c0,0.11 -0.16,0.42 -0.36,0.68c-0.19,0.26 -0.35,0.56 -0.35,0.66c0,0.11 -0.07,0.26 -0.14,0.34c-0.09,0.09 -0.15,0.5 -0.15,1.01c-0.01,1.17 0.36,1.92 1.45,2.95c0.45,0.43 0.96,1.01 1.15,1.3c0.19,0.28 0.45,0.64 0.6,0.8c0.14,0.16 0.48,0.65 0.75,1.08c0.26,0.43 0.7,1.06 0.98,1.4c0.28,0.33 0.51,0.65 0.51,0.7c0,0.09 0.2,0.39 1.2,1.78c0.26,0.36 0.63,0.88 0.82,1.14c0.19,0.27 0.44,0.78 0.56,1.14c0.12,0.37 0.39,0.83 0.63,1.09c0.4,0.41 0.42,0.47 0.27,0.74c-0.09,0.16 -0.24,0.33 -0.35,0.37c-0.38,0.15 -2.12,0.05 -2.51,-0.14c-0.76,-0.38 -2.12,0.12 -2.41,0.89c-0.06,0.17 -0.14,0.44 -0.16,0.61c-0.12,0.86 -0.79,2.34 -1.32,2.91c-0.49,0.53 -0.75,0.55 -2.63,0.18z" fill="#ff0000" id="path19420" stroke-width="0.26"/>
  <path d="m64.54,78.48c-0.05,-0.05 -0.54,-0.26 -1.08,-0.45c-0.54,-0.2 -1.36,-0.56 -1.83,-0.79c-0.47,-0.23 -1.13,-0.53 -1.47,-0.66c-0.35,-0.14 -0.89,-0.37 -1.22,-0.53c-0.81,-0.39 -2.45,-1.14 -2.5,-1.14c-0.02,0 -0.7,-0.37 -1.52,-0.82c-2.03,-1.12 -2.29,-1.27 -2.84,-1.62c-0.26,-0.17 -0.74,-0.43 -1.05,-0.59c-0.32,-0.16 -0.89,-0.46 -1.26,-0.66c-1.64,-0.92 -0.33,0.57 1.39,1.57c0.26,0.15 0.83,0.46 1.26,0.69c0.43,0.23 0.95,0.51 1.14,0.62c0.63,0.36 3.2,1.61 3.89,1.9c0.36,0.15 0.79,0.37 0.96,0.47c0.16,0.11 0.81,0.43 1.43,0.71c0.63,0.28 1.38,0.61 1.68,0.75c0.29,0.14 0.72,0.33 0.95,0.43c0.67,0.3 2.35,0.41 2.07,0.13zm-8.2,-8.22c0.14,-0.43 -2.16,-2.05 -2.92,-2.05c-0.54,0 -1.88,-0.84 -2.73,-1.71c-0.46,-0.47 -1.06,-1.06 -1.33,-1.31c-0.52,-0.48 -0.66,-0.94 -0.55,-1.73c0.1,-0.73 0.33,-0.69 2.93,0.51c0.51,0.23 1.01,0.42 1.1,0.42c0.09,0 0.59,0.16 1.1,0.35c1.5,0.56 4,0.97 6.37,1.03c2.16,0.06 3.04,-0.16 3.85,-0.96c0.6,-0.59 0.67,-0.69 0.98,-1.32c0.13,-0.26 0.33,-0.58 0.44,-0.71c0.11,-0.13 0.29,-0.48 0.39,-0.78c0.1,-0.3 0.27,-0.77 0.37,-1.04c0.1,-0.28 0.21,-0.68 0.24,-0.89c0.04,-0.22 0.12,-0.66 0.19,-0.99c0.07,-0.33 0.18,-0.92 0.24,-1.31c0.06,-0.4 0.19,-1.09 0.27,-1.55c0.12,-0.66 0.12,-0.92 0.01,-1.25c-0.21,-0.61 -0.54,-0.71 -1.1,-0.32c-0.27,0.19 -0.66,0.33 -0.93,0.35c-0.42,0.03 -0.47,0 -0.53,-0.32c-0.04,-0.19 -0.04,-0.91 0,-1.59l0.06,-1.25l0.97,-0.92c0.9,-0.86 1.02,-1.03 1.81,-2.66c0.47,-0.95 0.89,-1.87 0.93,-2.03c0.14,-0.46 0.71,-1.24 1.31,-1.76c0.3,-0.26 0.54,-0.55 0.54,-0.64c0,-0.09 0.16,-0.5 0.35,-0.89c0.19,-0.4 0.41,-0.87 0.47,-1.04c0.07,-0.18 0.18,-0.32 0.24,-0.32c0.06,0 0.19,-0.19 0.29,-0.41c0.18,-0.42 0.8,-0.83 1.09,-0.71c0.09,0.04 0.26,0.3 0.37,0.59c0.19,0.48 0.19,0.56 0.01,1.01c-0.11,0.27 -0.19,0.63 -0.19,0.82c0,0.18 -0.06,0.39 -0.13,0.46c-0.07,0.07 -0.14,0.52 -0.17,1.01l-0.04,0.88l0.51,0.51c0.32,0.32 0.62,0.51 0.8,0.51c0.36,0 1.15,-0.27 1.33,-0.46c0.08,-0.08 0.2,-0.14 0.27,-0.14c0.07,0 0.29,-0.17 0.48,-0.37c0.59,-0.62 0.85,-0.7 2.46,-0.71c2.16,-0.02 2.66,-0.33 2.81,-1.73c0.09,-0.83 -0.14,-1.49 -0.98,-2.81c-0.61,-0.96 -2.42,-2.89 -4.4,-4.7c-0.61,-0.55 -1.07,-1.07 -1.11,-1.25c-0.04,-0.17 -0.12,-0.37 -0.17,-0.43c-0.19,-0.25 -0.38,-1.23 -0.42,-2.14c-0.02,-0.62 -0.09,-0.98 -0.19,-1.05c-0.26,-0.17 -1.6,0.05 -1.48,0.24c0.03,0.05 -0.13,0.32 -0.35,0.59c-0.48,0.56 -0.66,1.5 -0.42,2.22c0.13,0.38 0.11,0.48 -0.18,0.97c-0.18,0.3 -0.45,0.64 -0.61,0.75c-0.15,0.11 -0.58,0.43 -0.94,0.7c-0.69,0.52 -1.89,1.05 -2.1,0.92c-0.06,-0.04 -0.28,0 -0.47,0.08c-0.48,0.2 -1.69,-0.05 -2.04,-0.42c-0.32,-0.33 -0.39,-0.75 -0.18,-1c0.09,-0.11 0.19,-0.29 0.23,-0.4c0.04,-0.12 0.2,-0.27 0.35,-0.33c0.15,-0.07 0.41,-0.2 0.57,-0.3c0.19,-0.11 0.56,-0.17 0.96,-0.15c0.7,0.03 1.4,-0.17 1.96,-0.54l0.35,-0.23l-0.25,-0.21c-0.14,-0.11 -0.79,-0.37 -1.43,-0.58c-1.09,-0.35 -1.23,-0.37 -1.94,-0.25c-0.42,0.07 -0.81,0.18 -0.88,0.24c-0.07,0.07 -0.35,0.12 -0.62,0.12c-0.52,0 -0.82,0.21 -1.28,0.88c-0.32,0.47 -0.51,0.43 -2.39,-0.53c-0.11,-0.06 -0.37,-0.11 -0.56,-0.11c-0.37,0 -1.04,-0.5 -1.11,-0.82c-0.06,-0.31 1.08,-0.47 2.17,-0.32c0.89,0.13 0.98,0.12 1.21,-0.08c0.34,-0.32 0.3,-0.42 -0.24,-0.69c-0.26,-0.14 -0.48,-0.32 -0.48,-0.4c0,-0.17 0.69,-0.52 1.19,-0.61c0.16,-0.03 0.42,-0.19 0.6,-0.35c0.2,-0.19 0.55,-0.33 1.03,-0.41c0.39,-0.06 1.08,-0.25 1.52,-0.42c0.66,-0.24 0.98,-0.29 1.73,-0.26c0.51,0.02 1.13,0.08 1.37,0.12c0.48,0.09 0.52,0.05 0.33,-0.3c-0.28,-0.53 -0.89,-0.77 -3.65,-1.42c-0.6,-0.14 -1.1,-0.05 -1.8,0.33c-0.13,0.06 -0.42,0.2 -0.65,0.29c-0.23,0.1 -0.72,0.32 -1.09,0.49c-0.54,0.25 -0.74,0.29 -0.98,0.19c-0.31,-0.12 -0.33,-0.33 -0.05,-0.69c0.06,-0.08 0.08,-0.2 0.03,-0.27c-0.09,-0.15 -0.46,0.01 -0.85,0.37c-0.27,0.24 -0.94,0.33 -1.12,0.14c-0.07,-0.07 0.05,-0.33 0.31,-0.7c0.41,-0.57 0.74,-0.78 1.51,-0.95c0.23,-0.05 0.36,-0.19 0.47,-0.51c0.08,-0.24 0.38,-0.75 0.67,-1.13c0.63,-0.83 0.95,-0.9 1.54,-0.34c0.37,0.36 0.37,0.36 0.66,0.14c0.71,-0.55 1.21,-0.78 1.31,-0.63c0.08,0.13 0.27,0.13 1.03,0c1.06,-0.17 1.92,-0.09 2.33,0.22c0.15,0.11 0.42,0.28 0.6,0.37c0.18,0.09 0.55,0.37 0.84,0.63c0.5,0.46 0.53,0.47 1.17,0.4c0.6,-0.07 0.7,-0.05 1.1,0.26c0.57,0.43 0.61,0.55 0.44,1.3c-0.16,0.71 -0.06,1.64 0.19,1.85c0.26,0.21 0.71,0.05 1.17,-0.42c0.47,-0.48 0.74,-0.53 0.84,-0.15c0.04,0.15 0.14,0.36 0.23,0.47c0.14,0.19 0.19,0.19 0.65,-0.04c0.59,-0.29 0.69,-0.52 0.44,-1.1c-0.1,-0.24 -0.18,-0.53 -0.18,-0.65c0,-0.12 -0.07,-0.35 -0.16,-0.53c-0.09,-0.17 -0.26,-0.59 -0.37,-0.93c-0.11,-0.33 -0.25,-0.64 -0.31,-0.68c-0.06,-0.04 -0.11,-0.19 -0.11,-0.34c0,-0.15 -0.08,-0.43 -0.17,-0.62c-0.5,-1.01 -1.03,-2.25 -1.03,-2.41c0,-0.1 -0.28,-0.62 -0.63,-1.15c-0.69,-1.05 -0.82,-1.26 -1.12,-1.8c-0.11,-0.19 -0.3,-0.43 -0.42,-0.52c-0.12,-0.09 -0.22,-0.21 -0.22,-0.28c0,-0.26 -1.72,-2.25 -2.48,-2.86c-0.44,-0.36 -1.02,-0.84 -1.28,-1.08c-0.46,-0.4 -0.91,-0.71 -1.44,-1.01c-0.13,-0.07 -0.62,-0.38 -1.09,-0.68c-1.12,-0.73 -2.72,-1.48 -4.05,-1.91c-0.59,-0.19 -1.13,-0.34 -1.21,-0.34c-0.07,0 -0.19,-0.07 -0.27,-0.16c-0.12,-0.14 -0.52,-0.27 -2.17,-0.69c-0.29,-0.08 -1.02,-0.18 -1.61,-0.23c-0.59,-0.05 -1.55,-0.15 -2.12,-0.22c-0.98,-0.12 -1.1,-0.11 -2.03,0.18c-0.98,0.31 -1.17,0.38 -2.29,0.88c-0.41,0.19 -0.7,0.24 -1.02,0.19c-0.27,-0.05 -0.77,0.02 -1.33,0.17c-0.49,0.13 -1.03,0.24 -1.19,0.24c-0.43,0 -1.56,0.28 -1.56,0.38c0,0.05 0.44,0.38 0.98,0.74c1.32,0.87 2.49,1.74 3.3,2.46c0.92,0.81 1.36,1.15 1.59,1.23c0.11,0.04 0.32,0.31 0.47,0.59c0.14,0.28 0.41,0.7 0.59,0.93c0.46,0.59 0.82,1.79 0.91,3.05c0.05,0.59 0.13,1.15 0.2,1.23c0.17,0.22 0.15,1.93 -0.04,2.44c-0.14,0.38 -0.13,0.59 0.06,1.58c0.2,1.02 0.21,1.24 0.07,2.07c-0.21,1.26 -0.43,1.62 -0.94,1.56c-0.37,-0.05 -0.41,-0.01 -0.7,0.59c-0.35,0.72 -0.51,0.77 -1.25,0.39c-0.52,-0.27 -0.71,-0.23 -0.71,0.14c0,0.27 -0.52,1.43 -0.85,1.92c-0.12,0.17 -0.64,0.63 -1.15,1.01c-0.51,0.38 -0.97,0.77 -1.03,0.86c-0.05,0.09 -0.2,0.27 -0.33,0.39c-0.23,0.23 -0.53,1.4 -0.65,2.53c-0.04,0.37 -0.12,0.71 -0.19,0.75c-0.06,0.04 -0.11,0.17 -0.11,0.29c0,0.12 -0.07,0.27 -0.16,0.32c-0.23,0.14 -0.58,0.96 -0.55,1.26c0.05,0.41 -0.32,0.99 -0.73,1.16c-0.33,0.14 -0.45,0.13 -0.99,-0.1c-0.34,-0.14 -0.68,-0.26 -0.74,-0.25c-0.06,0 -0.29,0.18 -0.5,0.39c-0.21,0.21 -0.89,0.68 -1.51,1.04c-1.18,0.69 -1.27,0.8 -1.33,1.73c-0.01,0.2 -0.13,0.63 -0.27,0.96c-0.6,1.47 -0.6,1.26 -0.08,1.96c0.26,0.34 0.78,0.95 1.16,1.34c0.87,0.9 1.04,0.84 1.04,-0.39c0,-0.74 0.05,-0.91 0.45,-1.59c0.69,-1.18 0.98,-1.03 0.88,0.45c-0.02,0.33 0.06,0.59 0.33,1.01c0.47,0.71 0.52,1.17 0.17,1.98c-0.19,0.43 -0.19,0.47 0.05,0.79c0.16,0.22 0.3,0.7 0.4,1.34c0.09,0.55 0.24,1.22 0.35,1.48c0.17,0.4 0.18,0.61 0.08,1.26c-0.13,0.86 -0.28,1.08 -0.88,1.37l-0.42,0.2l0.08,0.96c0.04,0.53 0.11,1.02 0.15,1.09c0.16,0.26 0.31,1.23 0.45,2.95c0.11,1.35 0.29,1.87 0.93,2.59c0.33,0.37 0.9,0.93 1.27,1.23c0.37,0.3 0.75,0.65 0.85,0.78c0.09,0.13 0.55,0.62 1.02,1.08c0.46,0.47 1.09,1.17 1.4,1.57c0.55,0.72 0.58,0.74 1.73,1.11c0.65,0.21 1.39,0.48 1.65,0.6c1.05,0.47 1.95,0.82 2.69,1.02c0.43,0.12 0.91,0.26 1.08,0.31c0.42,0.14 0.87,0.08 0.93,-0.11zm18.26,-3.42c0.13,-0.09 0.32,-0.18 0.42,-0.18c0.21,0 1.08,-0.75 1.08,-0.93c0,-0.06 0.09,-0.29 0.19,-0.5c0.17,-0.35 0.17,-0.48 0,-1.47c-0.1,-0.6 -0.24,-1.15 -0.31,-1.22c-0.2,-0.19 -0.15,-0.29 0.25,-0.5c0.27,-0.14 0.53,-0.17 0.93,-0.12c0.47,0.06 0.6,0.04 0.82,-0.17c0.56,-0.53 0.25,-0.99 -0.61,-0.91c-0.78,0.07 -0.91,0 -0.91,-0.52c0,-0.36 -0.06,-0.47 -0.36,-0.64c-0.28,-0.16 -0.36,-0.28 -0.36,-0.6c0,-0.22 -0.05,-0.57 -0.11,-0.79c-0.19,-0.66 -0.11,-0.72 1.11,-0.71c0.61,0 1.25,-0.06 1.44,-0.14c0.29,-0.12 0.32,-0.16 0.19,-0.33c-0.13,-0.16 -0.32,-0.18 -1.08,-0.11c-0.56,0.05 -1.11,0.03 -1.4,-0.05c-0.5,-0.14 -0.73,-0.34 -0.52,-0.47c0.06,-0.04 0.16,-0.2 0.2,-0.35c0.12,-0.37 0.56,-0.53 1.56,-0.57c0.94,-0.04 1.61,-0.15 1.61,-0.28c0,-0.05 -0.3,-0.23 -0.66,-0.41c-0.66,-0.33 -1.76,-0.45 -1.9,-0.22c-0.04,0.06 -0.32,0.14 -0.64,0.19c-0.89,0.13 -2.67,0.68 -3.16,0.98c-0.34,0.21 -0.45,0.36 -0.48,0.66c-0.05,0.45 -0.26,0.53 -1.51,0.62l-0.79,0.05l-0.13,0.67c-0.08,0.37 -0.11,0.7 -0.09,0.72c0.07,0.07 -0.41,1.52 -0.82,2.47c-0.19,0.43 -0.37,0.97 -0.39,1.2c-0.11,0.82 -0.54,1.84 -1.07,2.53c-0.2,0.26 -0.3,0.5 -0.24,0.56c0.27,0.26 2.63,0.93 4.47,1.25c0.63,0.11 1.35,0.25 1.61,0.3c0.78,0.16 1.43,0.14 1.68,-0.05zm-32.9,-0.93c0.08,-0.22 -0.84,-1.2 -1.47,-1.55c-0.29,-0.17 -0.83,-0.4 -1.19,-0.52c-1.18,-0.37 -1.68,-0.65 -2.34,-1.32c-0.75,-0.75 -1.23,-1.65 -1.54,-2.86c-0.44,-1.75 -1.04,-3.16 -1.37,-3.25c-0.28,-0.08 -1.21,-1.52 -1.21,-1.89c0,-0.08 -0.2,-0.39 -0.44,-0.7c-0.59,-0.75 -0.88,-0.72 -1.07,0.1c-0.08,0.33 -0.23,0.92 -0.35,1.31c-0.23,0.78 -0.27,2.73 -0.06,2.99c0.06,0.08 0.14,0.67 0.16,1.33c0.04,0.89 0.11,1.32 0.3,1.72c0.38,0.8 0.85,1.27 1.43,1.43c0.28,0.08 0.76,0.25 1.07,0.38c0.62,0.27 2.4,0.91 4.63,1.67c0.79,0.27 1.57,0.56 1.73,0.65c0.32,0.17 1.45,0.63 1.57,0.65c0.04,0.01 0.1,-0.05 0.14,-0.14zm-1.35,-12c0.23,-0.05 0.41,-0.17 0.45,-0.3c0.03,-0.12 0.1,-0.22 0.15,-0.22c0.16,0 0.38,-1.1 0.25,-1.23c-0.09,-0.09 -0.08,-0.17 0.01,-0.28c0.09,-0.11 0.09,-0.21 0.01,-0.31c-0.06,-0.08 -0.19,-0.41 -0.28,-0.73c-0.09,-0.32 -0.28,-0.71 -0.43,-0.87c-0.25,-0.27 -0.28,-0.28 -0.54,-0.11c-0.44,0.29 -2.17,0.37 -2.95,0.14c-0.36,-0.11 -1.02,-0.19 -1.48,-0.19c-0.79,0 -0.85,-0.02 -1.21,-0.4c-0.34,-0.36 -0.75,-0.91 -1.3,-1.74c-0.11,-0.17 -0.29,-0.61 -0.4,-0.97c-0.11,-0.36 -0.28,-0.76 -0.36,-0.89c-0.23,-0.34 -0.84,-1.99 -0.94,-2.48c-0.06,-0.3 0,-0.6 0.18,-1.06c0.14,-0.35 0.28,-0.92 0.3,-1.26c0.02,-0.34 0.13,-0.8 0.23,-1.02c0.19,-0.39 1.22,-1.53 1.38,-1.53c0.05,0 0.24,-0.15 0.44,-0.33c0.54,-0.51 2.01,-1.22 2.52,-1.22c0.38,0 0.54,0.1 1.26,0.84c0.99,1.01 1.31,1.25 1.82,1.34c0.33,0.06 0.43,0.02 0.69,-0.29c0.39,-0.46 0.39,-0.79 0,-1.37c-0.8,-1.2 -1.35,-1.59 -2.4,-1.67c-1.06,-0.09 -2.65,0.33 -4.1,1.09c-0.3,0.15 -0.81,0.42 -1.13,0.6c-0.68,0.36 -1.55,1.15 -1.81,1.64c-0.1,0.19 -0.2,0.7 -0.24,1.14c-0.03,0.44 -0.09,0.88 -0.13,0.98c-0.04,0.1 -0.05,0.23 -0.04,0.3c0.02,0.07 0.03,0.68 0.03,1.36c0,0.74 0.06,1.44 0.16,1.73c0.09,0.27 0.25,0.94 0.36,1.5c0.1,0.56 0.25,1.28 0.33,1.61c0.13,0.61 0.42,1.12 0.62,1.13c0.06,0 0.25,0.13 0.42,0.29c0.17,0.16 0.64,0.55 1.04,0.87c0.41,0.32 1.26,1.02 1.91,1.56c0.64,0.54 1.23,0.99 1.31,0.99c0.08,0 0.17,0.04 0.19,0.09c0.09,0.23 1.19,0.85 1.9,1.08c0.84,0.27 1.19,0.3 1.79,0.18zm30.25,-0.64c0.42,-0.33 0.87,-0.6 1.01,-0.6c0.14,0 0.37,0.13 0.53,0.29c0.32,0.34 0.47,0.38 0.47,0.12c0,-0.25 0.56,-0.58 0.85,-0.5c0.14,0.04 0.61,-0.09 1.07,-0.28c1.08,-0.46 1.84,-0.47 2.63,-0.04c0.67,0.37 0.98,0.33 1.54,-0.18c0.53,-0.5 0.48,-0.7 -0.27,-1.03c-0.65,-0.28 -0.79,-0.46 -0.79,-0.96c0,-0.16 -0.26,-0.59 -0.61,-1l-0.61,-0.73l-0.8,0c-0.94,0 -2.34,-0.33 -3.27,-0.77c-0.36,-0.17 -0.7,-0.31 -0.77,-0.31c-0.17,0 -0.27,0.3 -0.27,0.8c0,0.23 -0.17,0.83 -0.37,1.33c-0.2,0.51 -0.43,1.08 -0.51,1.28c-0.16,0.42 -0.5,0.94 -0.9,1.33c-0.28,0.28 -0.28,0.31 -0.13,0.97c0.18,0.78 0.22,0.87 0.35,0.87c0.05,0 0.44,-0.27 0.86,-0.6zm9.91,-3.95c0,-0.33 -0.05,-0.71 -0.12,-0.83c-0.09,-0.18 -0.06,-0.27 0.18,-0.46c0.34,-0.27 0.39,-0.5 0.11,-0.5c-0.1,0 -0.24,0.16 -0.31,0.36c-0.07,0.19 -0.16,0.36 -0.21,0.36c-0.17,0 -0.34,0.56 -0.28,0.9c0.07,0.36 0.35,0.77 0.53,0.77c0.06,0 0.1,-0.28 0.1,-0.61zm-43.29,-0.96c0.28,-0.09 0.37,-0.2 0.37,-0.41c0,-0.15 -0.05,-0.32 -0.13,-0.36c-0.07,-0.05 -0.1,-0.14 -0.08,-0.22c0.02,-0.08 -0.04,-0.2 -0.13,-0.27c-0.14,-0.1 -0.35,-0.02 -0.94,0.36c-0.42,0.27 -0.74,0.54 -0.72,0.61c0.11,0.36 0.97,0.51 1.62,0.28zm-2.58,-1.81c0.25,-0.38 0.59,-1.47 0.56,-1.79c-0.01,-0.15 -0.01,-0.3 0,-0.33c0.01,-0.04 0.05,-0.22 0.08,-0.42c0.04,-0.24 0.33,-0.64 0.9,-1.22c0.81,-0.82 0.85,-0.89 0.9,-1.51c0.05,-0.6 0.03,-0.67 -0.26,-0.86c-0.27,-0.18 -0.39,-0.19 -0.84,-0.07c-0.64,0.16 -1.02,0.05 -1.31,-0.4c-0.26,-0.4 -0.51,-0.24 -0.62,0.4c-0.04,0.24 -0.12,0.54 -0.18,0.67c-0.28,0.63 -0.49,1.35 -0.48,1.65c0.01,0.19 -0.04,0.44 -0.11,0.57c-0.1,0.18 -0.05,0.38 0.22,0.92c0.19,0.38 0.41,1.09 0.49,1.59c0.21,1.21 0.3,1.32 0.64,0.8zm44.01,-12.07c0.33,-0.47 0.24,-0.69 -0.28,-0.69c-0.83,0 -1.57,0.14 -1.57,0.3c0,0.29 0.64,0.65 1.16,0.65c0.38,0 0.54,-0.06 0.69,-0.26zm-1.19,-1.48c0.16,-0.1 0.43,-0.21 0.6,-0.23c0.38,-0.04 0.57,-0.22 0.6,-0.56c0.02,-0.3 -0.56,-0.7 -1.03,-0.7c-0.6,0 -1.43,0.88 -1.43,1.51c0,0.23 0.89,0.22 1.26,-0.02zm-7.97,-2.45c0.47,-0.16 0.48,-0.35 0.03,-0.68c-0.42,-0.31 -0.92,-0.33 -1.74,-0.07c-0.33,0.1 -0.68,0.2 -0.77,0.22c-0.33,0.06 -0.25,0.29 0.14,0.41c0.84,0.27 1.79,0.32 2.34,0.13zm-23.48,-1.03c0.55,-0.44 0.2,-2.84 -0.41,-2.84c-0.11,0 -0.16,0.11 -0.14,0.3c0.01,0.16 0.03,0.85 0.04,1.52c0.01,1.29 0.06,1.38 0.52,1.02zm-2.51,-1.29c0.05,-0.2 0.09,-0.71 0.09,-1.13c0.01,-0.78 -0.16,-1.28 -0.8,-2.35c-0.31,-0.52 -0.59,-0.52 -0.47,0c0.19,0.84 0.31,1.63 0.41,2.75c0.11,1.26 0.29,1.69 0.55,1.32c0.08,-0.12 0.19,-0.37 0.23,-0.57l0,0zm5.2,-3.49c0.23,-1.83 -0.07,-3.28 -0.79,-3.85c-0.45,-0.36 -0.53,-0.13 -0.26,0.75c0.33,1.1 0.5,2.07 0.52,3.08c0.04,1.53 0.34,1.55 0.53,0.02zm-2.13,-1.2c0.02,-0.68 -0.02,-0.89 -0.26,-1.35c-0.33,-0.61 -0.94,-1.3 -0.94,-1.06c0,0.23 0.71,1.8 0.87,1.91c0.06,0.04 0.08,0.14 0.03,0.22c-0.11,0.18 0.02,0.72 0.18,0.72c0.07,0 0.13,-0.2 0.13,-0.45zm4.46,-2.71c-0.04,-0.09 -0.02,-0.19 0.04,-0.23c0.16,-0.1 0.07,-0.87 -0.15,-1.21c-0.19,-0.29 -0.61,-0.51 -0.73,-0.38c-0.04,0.04 0.05,0.29 0.19,0.58c0.14,0.28 0.3,0.75 0.37,1.03c0.07,0.28 0.18,0.48 0.23,0.44c0.06,-0.04 0.08,-0.14 0.05,-0.23zm-5.9,-0.43c0,-0.22 -0.38,-0.71 -0.55,-0.71c-0.13,0 -0.1,0.11 0.1,0.42c0.27,0.42 0.45,0.53 0.45,0.29zm2.8,-13.06c0.21,-0.15 0.2,-0.18 -0.13,-0.4c-0.42,-0.29 -0.94,-0.5 -1.38,-0.55c-0.37,-0.04 -0.46,0.15 -0.14,0.33c0.12,0.06 0.39,0.27 0.61,0.45c0.43,0.37 0.71,0.41 1.03,0.17zm2.35,-1.04c0.38,0 0.26,-0.31 -0.26,-0.65c-0.58,-0.38 -1.86,-0.88 -2.48,-0.97c-0.24,-0.03 -0.52,-0.07 -0.62,-0.09c-0.32,-0.05 -1.55,0.17 -1.55,0.26c0,0.05 0.2,0.13 0.45,0.16c1.12,0.17 2.81,0.71 3.45,1.11c0.26,0.16 0.54,0.26 0.63,0.23c0.09,-0.03 0.26,-0.06 0.39,-0.06z" fill="#ffffff" id="path19422" stroke-width="0.26"/>
 </g>
</svg>