<?xml version="1.0"?>
<svg width="100" height="100" xmlns="http://www.w3.org/2000/svg" xmlns:svg="http://www.w3.org/2000/svg" version="1.1" xml:space="preserve">

 <g class="layer">
  <title>Layer 1</title>
  <path d="m62.01,99.6c-1.17,-0.18 -2.77,-0.75 -3.52,-1.25c-0.27,-0.18 -0.57,-0.33 -0.66,-0.33c-0.09,0 -0.63,-0.31 -1.19,-0.7c-0.56,-0.39 -1.39,-0.92 -1.85,-1.19c-0.46,-0.27 -2,-1.2 -3.42,-2.08c-1.42,-0.87 -2.61,-1.59 -2.65,-1.59c-0.03,0 -0.7,-0.42 -1.47,-0.93c-0.77,-0.51 -1.68,-1.09 -2.01,-1.28c-1.06,-0.61 -2.04,-1.24 -2.27,-1.45c-0.12,-0.11 -0.68,-0.5 -1.25,-0.87c-0.56,-0.37 -1.09,-0.73 -1.17,-0.79c-0.18,-0.15 -0.95,-0.68 -1.75,-1.19c-0.34,-0.21 -0.89,-0.57 -1.22,-0.81c-0.34,-0.23 -0.77,-0.47 -0.97,-0.55c-0.19,-0.08 -0.44,-0.24 -0.55,-0.35c-0.1,-0.12 -0.23,-0.21 -0.28,-0.21c-0.1,0 -0.69,-0.37 -1.49,-0.94c-0.5,-0.36 -2.48,-1.67 -4.4,-2.92c-0.4,-0.26 -0.78,-0.47 -0.84,-0.47c-0.06,0 -0.28,-0.15 -0.49,-0.33c-0.21,-0.18 -0.42,-0.33 -0.47,-0.33c-0.05,0 -0.5,-0.27 -1,-0.6c-0.5,-0.33 -1.08,-0.69 -1.3,-0.81c-0.21,-0.12 -0.58,-0.37 -0.81,-0.56c-0.23,-0.19 -0.72,-0.51 -1.08,-0.7c-0.36,-0.19 -0.68,-0.4 -0.72,-0.45c-0.03,-0.05 -0.32,-0.23 -0.64,-0.38c-0.32,-0.16 -0.93,-0.51 -1.36,-0.78c-0.43,-0.27 -1.25,-0.76 -1.83,-1.07c-0.99,-0.54 -1.21,-0.7 -1.22,-0.89c0,-0.1 0.56,-0.36 1.16,-0.54c0.24,-0.07 0.51,-0.19 0.6,-0.25c0.08,-0.07 0.28,-0.14 0.44,-0.16c0.16,-0.02 0.96,-0.37 1.79,-0.76c1.31,-0.63 2.02,-0.98 3.99,-1.97c0.42,-0.21 1.92,-1.16 2.02,-1.28c0.03,-0.04 0.23,-0.2 0.46,-0.37c0.22,-0.16 0.43,-0.42 0.47,-0.56c0.03,-0.14 0.19,-0.32 0.34,-0.39c0.15,-0.07 0.35,-0.3 0.44,-0.52c0.09,-0.22 0.21,-0.39 0.26,-0.39c0.24,0 0.52,-1.41 0.54,-2.81c0.02,-1.3 0.05,-1.65 0.22,-2.21c0.04,-0.13 -0.18,-0.44 -0.7,-0.96c-0.63,-0.64 -0.97,-0.87 -2.09,-1.42c-0.74,-0.36 -1.56,-0.75 -1.83,-0.87c-0.27,-0.11 -0.68,-0.3 -0.91,-0.42c-0.23,-0.11 -0.47,-0.21 -0.53,-0.21c-0.06,0 -0.37,-0.16 -0.69,-0.37c-0.32,-0.21 -0.93,-0.57 -1.36,-0.83c-1.02,-0.58 -2.35,-1.82 -2.47,-2.28c-0.08,-0.29 -0.23,-0.42 -1.09,-0.85c-0.55,-0.28 -1.22,-0.6 -1.49,-0.71c-0.27,-0.11 -0.55,-0.3 -0.63,-0.42c-0.08,-0.12 -0.21,-0.21 -0.28,-0.21c-0.21,0 -1.1,-0.75 -1.61,-1.37c-0.61,-0.73 -0.84,-1.18 -1.01,-2.02c-0.08,-0.37 -0.18,-0.76 -0.23,-0.89c-0.09,-0.23 -0.38,-1.39 -0.5,-2.05c-0.13,-0.65 -0.16,-4.02 -0.04,-4.47c0.06,-0.23 0.16,-0.93 0.22,-1.55c0.15,-1.57 0.18,-1.76 0.32,-1.9c0.06,-0.07 0.12,-0.38 0.12,-0.7c0,-0.32 0.05,-0.61 0.11,-0.65c0.06,-0.04 0.11,-0.19 0.11,-0.33c0,-0.14 0.05,-0.28 0.12,-0.3c0.07,-0.02 0.14,-0.2 0.15,-0.4c0.02,-0.2 0.06,-0.39 0.1,-0.43c0.04,-0.04 0.07,-0.21 0.07,-0.39c0,-0.18 0.05,-0.31 0.12,-0.31c0.07,0 0.1,-0.07 0.06,-0.16c-0.03,-0.09 0.09,-0.36 0.27,-0.61c0.18,-0.25 0.32,-0.5 0.32,-0.55c0,-0.05 0.08,-0.13 0.17,-0.16c0.09,-0.03 0.17,-0.14 0.17,-0.23c0,-0.09 0.3,-0.48 0.68,-0.86c0.82,-0.84 1.88,-2.21 1.88,-2.43c0,-0.09 0.08,-0.27 0.17,-0.4c0.14,-0.2 0.26,-0.76 0.29,-1.47c0,-0.09 0.07,-0.24 0.15,-0.33c0.08,-0.09 0.17,-0.42 0.21,-0.72c0.14,-1.19 0.15,-1.23 0.57,-2.09c0.09,-0.17 0.16,-0.41 0.16,-0.52c0,-0.11 0.1,-0.44 0.22,-0.72c0.12,-0.29 0.22,-0.59 0.22,-0.68c0,-0.14 0.38,-1 1.09,-2.48c0.1,-0.21 0.17,-0.44 0.15,-0.53c-0.02,-0.08 0.02,-0.15 0.08,-0.15c0.06,0 0.11,-0.09 0.11,-0.21c0,-0.12 0.08,-0.27 0.17,-0.35c0.09,-0.08 0.25,-0.32 0.36,-0.54c0.1,-0.22 0.24,-0.46 0.3,-0.54c0.34,-0.4 0.39,-0.48 0.39,-0.62c0,-0.08 0.18,-0.33 0.42,-0.54c0.69,-0.64 2.17,-2.31 2.49,-2.79c0.16,-0.25 0.58,-0.73 0.91,-1.07c0.34,-0.34 0.62,-0.67 0.62,-0.73c0,-0.07 0.1,-0.21 0.22,-0.32c0.12,-0.11 0.22,-0.27 0.22,-0.35c0,-0.08 0.05,-0.15 0.11,-0.15c0.06,0 0.23,-0.18 0.37,-0.42c0.37,-0.59 0.87,-1.14 1.04,-1.14c0.08,0 0.2,-0.13 0.27,-0.28c0.07,-0.15 0.2,-0.28 0.29,-0.28c0.08,0 0.49,-0.29 0.9,-0.65c0.41,-0.36 0.86,-0.73 1.02,-0.82c0.16,-0.1 0.61,-0.47 1.01,-0.83c0.41,-0.36 0.91,-0.8 1.11,-0.98c0.21,-0.18 0.56,-0.42 0.79,-0.52c0.23,-0.1 0.53,-0.3 0.67,-0.43c0.14,-0.13 0.45,-0.33 0.7,-0.44c0.24,-0.11 0.55,-0.3 0.68,-0.42c0.13,-0.12 0.35,-0.26 0.5,-0.31c0.15,-0.05 0.29,-0.12 0.32,-0.16c0.07,-0.1 1.51,-0.97 2.14,-1.3c0.26,-0.13 0.6,-0.25 0.76,-0.25c0.16,0 0.5,-0.08 0.76,-0.17c0.29,-0.1 0.88,-0.17 1.54,-0.17c0.59,0 1.27,-0.05 1.51,-0.1c0.26,-0.06 1.2,-0.06 2.27,-0.01c1.01,0.05 3.68,0.12 5.94,0.14c3.82,0.04 4.17,0.06 4.98,0.29c0.99,0.28 1.77,0.7 2.03,1.08c0.1,0.15 0.23,0.26 0.31,0.26c0.08,0 0.26,0.09 0.41,0.2c0.29,0.23 1.17,0.57 1.45,0.57c0.42,0 1.91,0.59 2.45,0.96c0.84,0.59 1.57,1.35 1.95,2.04c0.96,1.75 1.85,3.71 1.75,3.86c-0.06,0.1 0.99,1.86 1.61,2.68c0.11,0.15 0.32,0.49 0.45,0.75c0.13,0.26 0.28,0.47 0.32,0.47c0.04,0 0.14,0.15 0.22,0.33c0.08,0.18 0.18,0.33 0.23,0.33c0.05,0 0.1,0.07 0.1,0.15c0,0.08 0.13,0.39 0.29,0.7c0.34,0.64 0.5,1.17 0.78,2.6c0.13,0.68 0.29,1.17 0.45,1.4c0.14,0.18 0.49,0.78 0.76,1.33c0.28,0.55 0.6,1.09 0.7,1.21c0.11,0.12 0.26,0.38 0.34,0.57c0.08,0.19 0.23,0.44 0.35,0.55c0.11,0.1 0.21,0.27 0.21,0.38c0,0.1 0.1,0.28 0.22,0.39c0.12,0.11 0.22,0.24 0.22,0.29c0,0.05 0.15,0.34 0.33,0.65c0.18,0.31 0.34,0.63 0.34,0.72c0,0.08 0.14,0.32 0.31,0.52c0.27,0.32 0.48,0.66 0.8,1.33c0.05,0.1 0.08,0.42 0.05,0.72c-0.02,0.29 0.02,0.6 0.07,0.67c0.15,0.19 -0.39,0.88 -0.81,1.02c-0.18,0.06 -0.33,0.16 -0.33,0.23c0,0.06 -0.12,0.12 -0.26,0.12c-0.19,0 -0.3,0.09 -0.4,0.34c-0.25,0.6 -0.9,0.84 -1.46,0.54c-0.34,-0.18 -0.37,-0.05 -0.12,0.48c0.49,1.02 0.7,1.54 0.7,1.77c0,0.23 1.04,2.15 1.23,2.27c0.08,0.05 0.36,0.62 0.82,1.66c0.41,0.92 0.52,2.13 0.34,3.83l-0.06,0.61l0.86,0.84c0.97,0.94 1.69,2.18 1.69,2.9c0,0.26 0.06,0.42 0.18,0.47c0.13,0.05 0.16,0.15 0.11,0.35c-0.04,0.16 -0.03,0.34 0.01,0.42c0.05,0.08 0.1,0.21 0.12,0.3c0.03,0.19 0.05,1.45 0.03,1.61c-0.01,0.06 -0.01,0.2 0,0.31c0.01,0.11 -0.03,0.2 -0.1,0.2c-0.07,0 -0.09,0.05 -0.03,0.14c0.05,0.08 0.09,0.56 0.1,1.08c0.03,2.04 0.11,2.4 0.65,3.09c0.26,0.35 0.57,0.81 0.68,1.02c0.1,0.21 0.3,0.49 0.43,0.62c0.63,0.64 1.1,1.38 1.22,1.93c0.04,0.2 0.21,0.35 0.63,0.54c1.02,0.46 1.72,1.51 1.8,2.7c0.03,0.41 0.11,0.85 0.18,0.98c0.1,0.2 0.1,0.28 -0.04,0.42c-0.13,0.13 -0.14,0.21 -0.04,0.38c0.1,0.16 0.1,0.23 -0.02,0.31c-0.09,0.05 -0.12,0.18 -0.08,0.32c0.04,0.13 0.01,0.33 -0.07,0.46c-0.11,0.18 -0.11,0.26 0,0.36c0.18,0.18 0.17,0.48 -0.03,0.64c-0.09,0.07 -0.13,0.21 -0.1,0.29c0.03,0.09 -0.03,0.26 -0.14,0.39c-0.14,0.15 -0.21,0.44 -0.24,0.9c-0.02,0.37 -0.09,0.77 -0.15,0.89c-0.07,0.12 -0.09,0.39 -0.05,0.59c0.04,0.21 0.02,0.48 -0.05,0.61c-0.1,0.18 -0.1,0.3 0.01,0.49c0.08,0.14 0.11,0.51 0.09,0.84c-0.03,0.41 0,0.63 0.1,0.71c0.16,0.13 0.29,2.36 0.14,2.55c-0.05,0.06 -0.12,0.34 -0.16,0.61c-0.16,1.11 -0.21,1.33 -0.3,1.33c-0.05,0 -0.1,0.15 -0.1,0.32c0,0.18 -0.05,0.36 -0.11,0.4c-0.06,0.04 -0.11,0.16 -0.11,0.27c0,0.11 -0.12,0.35 -0.26,0.52c-0.14,0.17 -0.36,0.49 -0.47,0.7c-0.2,0.37 -0.73,1.04 -1.32,1.67c-0.23,0.25 -0.51,0.68 -0.51,0.81c0,0.03 0.39,0.3 0.86,0.6c0.94,0.61 2.32,1.82 2.48,2.18c0.05,0.13 0.21,0.41 0.34,0.62c0.69,1.15 0.82,1.49 0.8,2.17c-0.02,0.5 -0.07,0.7 -0.23,0.84c-0.16,0.13 -0.18,0.21 -0.1,0.35c0.09,0.14 0.03,0.29 -0.26,0.66c-0.5,0.66 -1.43,1.54 -1.75,1.66c-0.14,0.05 -0.26,0.17 -0.26,0.26c0,0.08 -0.14,0.24 -0.31,0.35c-0.17,0.11 -0.61,0.47 -0.98,0.79c-0.37,0.33 -0.73,0.6 -0.79,0.6c-0.06,0 -0.2,0.1 -0.3,0.21c-0.11,0.12 -0.37,0.29 -0.57,0.39c-0.21,0.1 -0.38,0.22 -0.38,0.27c0,0.09 -1.48,1.23 -1.59,1.23c-0.03,0 -0.18,0.11 -0.32,0.25c-0.73,0.69 -1.12,1.01 -1.64,1.36c-0.31,0.21 -0.6,0.39 -0.62,0.39c-0.05,0 -0.44,0.29 -0.98,0.69c-0.06,0.05 -0.29,0.21 -0.5,0.35c-0.21,0.14 -0.87,0.59 -1.46,0.99c-0.64,0.44 -1.19,0.73 -1.36,0.73c-0.18,0 -0.29,0.06 -0.29,0.16c0,0.09 -0.16,0.25 -0.36,0.35c-0.2,0.1 -0.5,0.3 -0.68,0.45c-0.17,0.14 -0.38,0.26 -0.45,0.26c-0.08,0 -0.23,0.1 -0.34,0.22c-0.11,0.12 -0.26,0.22 -0.33,0.22c-0.07,0 -0.3,0.13 -0.5,0.28c-0.21,0.15 -0.55,0.31 -0.77,0.35c-0.22,0.04 -0.5,0.14 -0.62,0.21c-0.12,0.08 -0.47,0.18 -0.78,0.22c-0.3,0.05 -0.71,0.15 -0.91,0.23c-0.53,0.22 -2.17,0.26 -3.37,0.07z" fill="#ff0000" id="path19396" stroke-width="0.26"/>
  <path d="m65.9,91.24c0,-0.06 -0.05,-0.11 -0.1,-0.11c-0.13,0 -0.95,-0.65 -1.71,-1.37c-0.31,-0.29 -0.68,-0.59 -0.81,-0.66c-0.49,-0.28 -1.45,-0.95 -2.04,-1.42c-0.33,-0.27 -0.73,-0.57 -0.89,-0.65c-0.59,-0.34 -1.37,-0.84 -1.65,-1.06c-0.25,-0.19 -1.47,-0.96 -2.11,-1.33c-0.1,-0.06 -0.39,-0.27 -0.63,-0.46c-0.24,-0.19 -0.86,-0.58 -1.38,-0.88c-0.52,-0.29 -1.18,-0.73 -1.46,-0.96c-0.29,-0.23 -0.57,-0.42 -0.63,-0.42c-0.06,0 -0.48,-0.25 -0.94,-0.56c-0.46,-0.31 -0.86,-0.55 -0.91,-0.55c-0.04,0 -0.25,-0.15 -0.46,-0.33c-0.21,-0.18 -0.44,-0.34 -0.5,-0.34c-0.07,0 -0.38,-0.21 -0.69,-0.48c-0.31,-0.26 -0.65,-0.51 -0.76,-0.55c-0.22,-0.08 -1.45,-0.9 -1.73,-1.15c-0.1,-0.09 -0.76,-0.56 -1.46,-1.05c-0.7,-0.49 -1.43,-1.03 -1.61,-1.21c-0.41,-0.39 -0.93,-0.52 -1.38,-0.33c-0.18,0.08 -0.33,0.17 -0.33,0.21c0,0.04 0.21,0.31 0.47,0.6c0.49,0.55 1,0.89 2.39,1.56c1.06,0.51 2.91,1.79 5.19,3.57c0.24,0.19 0.57,0.4 0.72,0.46c0.15,0.07 0.55,0.34 0.87,0.6c0.61,0.5 1.21,0.9 1.67,1.1c0.14,0.06 0.49,0.27 0.77,0.47c0.28,0.19 0.73,0.47 1.01,0.62c0.51,0.27 0.81,0.49 1.54,1.11c0.23,0.2 0.48,0.36 0.55,0.36c0.06,0 0.43,0.3 0.8,0.67c0.38,0.37 0.74,0.67 0.81,0.67c0.07,0 0.28,0.13 0.47,0.29c0.4,0.33 2.37,1.6 2.48,1.6c0.04,0 0.18,0.1 0.31,0.21c0.13,0.12 0.5,0.35 0.84,0.51c0.34,0.17 0.7,0.38 0.8,0.47c0.26,0.22 1.97,0.91 2.28,0.91c0.14,0 0.25,-0.04 0.25,-0.1zm-18.31,-3.17c-0.02,-0.18 -2.14,-2.29 -3.02,-3c-0.74,-0.6 -4.54,-4.33 -5.38,-5.27c-0.18,-0.21 -0.85,-0.86 -1.48,-1.44c-1.07,-0.99 -1.78,-1.7 -4.29,-4.27c-1.77,-1.81 -2.34,-2.44 -2.66,-2.92c-0.17,-0.26 -0.36,-0.47 -0.41,-0.47c-0.15,0 -0.87,0.82 -0.87,0.99c0,0.09 -0.08,0.24 -0.17,0.34c-0.15,0.16 -0.14,0.2 0.12,0.34c0.16,0.08 0.36,0.31 0.45,0.5c0.09,0.19 0.55,0.69 1.02,1.12c0.47,0.42 1.07,0.98 1.35,1.23c0.27,0.26 0.54,0.47 0.59,0.47c0.05,0 0.09,0.06 0.09,0.14c0,0.08 0.1,0.2 0.22,0.28c0.2,0.12 1.12,1.28 1.12,1.4c0,0.03 0.32,0.38 0.72,0.79c0.39,0.4 0.72,0.75 0.72,0.78c0,0.08 0.82,0.99 1.15,1.28c0.18,0.16 0.45,0.4 0.61,0.55c0.16,0.14 0.5,0.36 0.75,0.47c0.25,0.12 0.52,0.34 0.6,0.5c0.08,0.15 0.43,0.42 0.77,0.58c0.87,0.42 1.45,0.94 2.17,1.94c0.48,0.67 0.95,1.02 2.45,1.81c0.54,0.28 1.25,0.72 1.59,0.97c0.73,0.55 1.59,1.07 1.72,1.03c0.05,-0.01 0.09,-0.07 0.08,-0.13zm3.81,-2.08c-0.05,-0.08 -0.29,-0.39 -0.54,-0.69c-0.25,-0.31 -0.55,-0.68 -0.67,-0.83c-0.13,-0.15 -0.35,-0.4 -0.5,-0.56c-0.16,-0.16 -0.41,-0.46 -0.57,-0.67c-0.16,-0.21 -0.44,-0.53 -0.61,-0.72c-0.17,-0.19 -0.41,-0.46 -0.52,-0.6l-0.21,-0.26l-0.15,0.27c-0.08,0.15 -0.15,0.48 -0.16,0.75c0,0.57 0.3,0.91 1.38,1.51c0.38,0.21 1.07,0.74 1.54,1.16c0.78,0.72 1.2,0.98 1,0.64zm31.44,-2.23c-0.73,-1.3 -1.69,-2.4 -2.27,-2.6c-0.43,-0.15 -1.36,-0.11 -1.85,0.08c-0.26,0.1 -0.29,0.15 -0.21,0.47c0.12,0.56 0.37,0.8 1.26,1.2c0.46,0.21 1.38,0.66 2.06,1.01c0.67,0.34 1.26,0.6 1.31,0.57c0.05,-0.03 -0.09,-0.36 -0.3,-0.74zm-6.45,0.49c0.04,-0.12 0.19,-0.39 0.34,-0.62c0.15,-0.22 0.3,-0.62 0.33,-0.87c0.03,-0.26 0.07,-0.57 0.08,-0.69c0.04,-0.31 -0.36,-0.34 -0.82,-0.06l-0.37,0.23l0.04,1.03c0.02,0.57 0.06,1.07 0.09,1.11c0.09,0.15 0.24,0.09 0.31,-0.13zm-10.54,-1.02c0.21,-0.06 0.55,-0.06 0.89,0.01c0.31,0.06 0.81,0.12 1.11,0.13c0.56,0.03 1.67,-0.19 1.9,-0.37c0.16,-0.12 1.4,-0.4 2.14,-0.47c0.33,-0.03 0.85,-0.18 1.17,-0.32l0.57,-0.26l-0.67,-0.31c-0.55,-0.26 -0.79,-0.31 -1.38,-0.29c-0.4,0.01 -0.87,0.07 -1.06,0.12c-0.18,0.05 -0.78,0.18 -1.33,0.28c-0.55,0.1 -1.28,0.23 -1.61,0.31c-0.34,0.07 -1.41,0.13 -2.39,0.14c-1.76,0.01 -1.78,0 -2.44,-0.33c-0.57,-0.29 -0.81,-0.34 -1.72,-0.37c-1.17,-0.05 -1.67,-0.26 -1.67,-0.73c0,-0.23 -0.09,-0.27 -0.86,-0.44c-0.47,-0.1 -1.18,-0.23 -1.58,-0.3c-2.02,-0.34 -3.95,-0.99 -4.99,-1.67c-0.16,-0.1 -0.6,-0.39 -0.98,-0.65c-0.39,-0.25 -0.83,-0.51 -0.99,-0.57c-0.29,-0.11 -2.26,-0.26 -2.26,-0.17c0,0.12 1.42,0.97 2.08,1.23c0.26,0.1 0.56,0.27 0.67,0.38c1.37,1.26 3.88,2.35 5.76,2.49c1.18,0.08 2.17,0.41 3.05,0.99c0.16,0.11 0.8,0.27 1.44,0.37c0.63,0.1 1.32,0.26 1.54,0.37c0.22,0.11 0.72,0.26 1.12,0.33c0.39,0.07 0.97,0.17 1.28,0.22c0.31,0.05 0.63,0.08 0.72,0.05c0.09,-0.03 0.32,-0.1 0.5,-0.16zm10.54,-4.58c0.28,-0.33 0.51,-0.65 0.51,-0.73c0,-0.08 0.17,-0.5 0.37,-0.94c0.24,-0.52 0.38,-0.99 0.39,-1.34c0.01,-0.3 0.09,-0.6 0.17,-0.67c0.08,-0.07 0.29,-0.32 0.47,-0.56c0.18,-0.25 0.42,-0.55 0.54,-0.67c0.35,-0.36 0.84,-0.97 0.84,-1.07c0,-0.05 0.14,-0.16 0.32,-0.25c0.29,-0.15 0.34,-0.15 0.55,0.05c0.18,0.17 0.22,0.3 0.17,0.63c-0.1,0.69 -0.36,1.62 -0.48,1.74c-0.06,0.06 -0.11,0.19 -0.11,0.28c0,0.1 -0.13,0.42 -0.27,0.73c-0.38,0.76 -0.36,0.94 0.05,0.55c0.18,-0.18 0.34,-0.37 0.34,-0.44c0,-0.07 0.19,-0.37 0.42,-0.68c0.23,-0.31 0.56,-0.9 0.74,-1.33c0.46,-1.1 0.72,-1.7 0.98,-2.27c0.19,-0.41 0.23,-0.65 0.19,-1.39c-0.02,-0.49 -0.04,-1.1 -0.03,-1.34c0.02,-1.27 0.07,-2.12 0.15,-2.22c0.04,-0.06 0.11,-0.61 0.16,-1.22c0.04,-0.61 0.13,-1.49 0.18,-1.94c0.06,-0.46 0.1,-0.93 0.11,-1.05c0,-0.13 0.08,-0.49 0.17,-0.81c0.12,-0.41 0.15,-0.81 0.1,-1.38c-0.04,-0.44 -0.08,-1.01 -0.09,-1.25c-0.02,-0.38 -0.06,-0.45 -0.33,-0.52c-0.34,-0.09 -0.49,0.09 -0.35,0.43c0.05,0.11 0.09,0.39 0.1,0.63c0.03,0.49 -0.14,0.61 -0.56,0.42c-0.16,-0.07 -0.32,-0.1 -0.37,-0.07c-0.08,0.05 0.06,0.55 0.31,1.05c0.08,0.16 0.08,0.44 0.04,1.42c-0.01,0.22 -0.07,0.36 -0.17,0.36c-0.16,0 -0.51,-0.62 -0.52,-0.91c0,-0.08 -0.13,-0.35 -0.28,-0.6c-0.15,-0.24 -0.33,-0.55 -0.4,-0.69c-0.07,-0.14 -0.17,-0.25 -0.21,-0.25c-0.12,0 -0.55,-0.71 -0.66,-1.11c-0.08,-0.28 0.05,-1.74 0.16,-1.87c0.06,-0.06 0.61,0.23 0.61,0.33c0,0.19 0.31,0.08 0.47,-0.16c0.26,-0.39 -0.01,-1.71 -0.44,-2.17c-0.08,-0.08 -0.19,-0.25 -0.26,-0.36c-0.06,-0.13 -0.23,-0.21 -0.39,-0.21c-0.23,0 -0.27,0.05 -0.26,0.36c0.05,1.93 -0.24,2.35 -1.08,1.57c-0.16,-0.15 -0.33,-0.27 -0.37,-0.27c-0.12,0 -0.34,0.67 -0.26,0.79c0.04,0.05 0,0.18 -0.07,0.26c-0.08,0.09 -0.1,0.24 -0.06,0.34c0.04,0.11 -0.03,0.29 -0.18,0.44c-0.24,0.26 -0.24,0.27 -0.06,0.84c0.1,0.32 0.15,0.7 0.12,0.84c-0.04,0.15 -0.02,0.25 0.06,0.25c0.07,0 0.13,0.18 0.13,0.42c0,0.53 0.45,1.82 0.82,2.35c0.16,0.23 0.29,0.5 0.29,0.61c0,0.17 -0.07,0.18 -0.5,0.12c-0.3,-0.05 -0.5,-0.03 -0.5,0.03c0,0.1 0.7,1.34 1.03,1.83c0.07,0.1 0.1,0.22 0.05,0.26c-0.12,0.12 -0.63,-0.05 -0.87,-0.29c-0.12,-0.13 -0.29,-0.21 -0.38,-0.19c-0.13,0.03 -0.13,0.08 0,0.31c0.09,0.15 0.19,0.35 0.23,0.44c0.04,0.09 0.15,0.31 0.24,0.48c0.11,0.2 0.14,0.44 0.1,0.68c-0.04,0.21 -0.02,0.4 0.05,0.44c0.17,0.1 0.14,0.39 -0.05,0.46c-0.11,0.04 -0.5,-0.28 -1.17,-0.97c-0.55,-0.57 -0.99,-1.07 -0.99,-1.12c0,-0.04 -0.13,-0.23 -0.29,-0.42c-0.27,-0.33 -0.29,-0.42 -0.28,-1.48c0,-0.79 0.08,-1.4 0.24,-2.02c0.16,-0.6 0.25,-1.3 0.27,-2.13c0.02,-0.68 0.06,-1.29 0.1,-1.35c0.04,-0.06 0,-0.18 -0.08,-0.26c-0.08,-0.08 -0.13,-0.2 -0.11,-0.27c0.06,-0.17 -0.26,-0.42 -0.46,-0.34c-0.1,0.04 -0.18,0.3 -0.23,0.7c-0.04,0.36 -0.12,0.73 -0.18,0.84c-0.06,0.1 -0.1,0.37 -0.1,0.6c0,0.32 -0.11,0.53 -0.55,1.04c-0.31,0.35 -0.56,0.7 -0.56,0.77c0,0.07 -0.04,0.12 -0.1,0.12c-0.18,0 -0.76,0.6 -1.07,1.1c-0.26,0.43 -0.29,0.55 -0.2,0.94c0.09,0.44 0.11,0.45 0.5,0.42c0.6,-0.05 0.86,0.13 0.86,0.59c0,0.21 0.05,0.52 0.12,0.68c0.09,0.23 0.08,0.38 -0.02,0.56c-0.08,0.16 -0.1,0.31 -0.03,0.39c0.06,0.08 0.1,0.44 0.1,0.81c0,0.89 -0.52,2 -0.95,2l-0.27,0l0,-1.25c0,-1.36 -0.06,-1.51 -0.57,-1.46c-0.29,0.03 -0.33,0.1 -0.45,0.63c-0.13,0.6 -0.62,1.46 -0.82,1.46c-0.06,0 -0.11,0.09 -0.11,0.2c0,0.25 -0.21,0.47 -0.44,0.47c-0.1,0 -0.28,0.19 -0.4,0.42c-0.23,0.45 -0.55,0.55 -0.75,0.23c-0.09,-0.15 -0.07,-0.24 0.1,-0.44c0.27,-0.3 0.49,-0.8 0.49,-1.09c0,-0.11 0.05,-0.22 0.11,-0.24c0.19,-0.06 0.16,-1.05 -0.04,-1.36c-0.24,-0.37 -0.23,-0.58 0.05,-0.77l0.23,-0.16l-0.29,-0.47c-0.33,-0.52 -0.3,-0.78 0.1,-0.78c0.15,0 0.31,-0.05 0.34,-0.1c0.08,-0.13 -0.29,-0.34 -0.63,-0.34c-0.28,0 -1.42,-0.71 -1.42,-0.89c0,-0.13 -0.66,-0.31 -0.86,-0.24c-0.08,0.03 -0.26,0.29 -0.42,0.58c-0.4,0.79 -0.97,0.85 -1.26,0.13c-0.16,-0.38 -0.06,-0.64 0.49,-1.36c0.46,-0.6 0.67,-0.98 0.58,-1.07c-0.13,-0.12 -0.51,0.18 -0.66,0.51c-0.12,0.29 -0.2,0.34 -0.48,0.31l-0.34,-0.03l0.03,-0.67c0.03,-0.75 -0.12,-1.14 -0.32,-0.81c-0.06,0.1 -0.21,0.19 -0.33,0.19c-0.12,0 -0.25,0.08 -0.29,0.17c-0.03,0.09 -0.12,0.17 -0.19,0.17c-0.19,0 -0.85,0.63 -0.85,0.81c0,0.08 -0.29,0.45 -0.64,0.81l-0.64,0.66l-0.02,0.91c-0.02,0.83 -0.16,1.38 -0.49,1.92c-0.06,0.09 -0.15,0.28 -0.21,0.42c-0.06,0.14 -0.17,0.25 -0.25,0.25c-0.08,0 -0.06,0.05 0.05,0.12c0.13,0.08 0.19,0.25 0.19,0.51c0,0.52 -0.31,1.62 -0.51,1.77c-0.09,0.07 -0.13,0.21 -0.09,0.31c0.04,0.1 -0.01,0.27 -0.11,0.39c-0.16,0.18 -0.17,0.21 -0.02,0.34c0.1,0.08 0.17,0.23 0.17,0.35c0,0.12 0.05,0.21 0.12,0.21c0.17,0 0.76,-0.65 0.76,-0.84c0,-0.09 0.05,-0.16 0.11,-0.16c0.06,0 0.11,-0.1 0.11,-0.21c0,-0.27 0.16,-0.38 0.44,-0.29c0.18,0.06 0.2,0.14 0.15,0.48c-0.03,0.23 -0.13,0.49 -0.21,0.59c-0.08,0.09 -0.13,0.29 -0.1,0.44c0.03,0.16 -0.03,0.36 -0.16,0.5c-0.11,0.13 -0.3,0.49 -0.41,0.81c-0.15,0.43 -0.44,0.83 -1.07,1.5c-0.47,0.5 -0.86,0.97 -0.86,1.04c0,0.07 -0.13,0.36 -0.27,0.64c-0.36,0.67 -0.37,0.88 -0.11,1.7c0.24,0.77 0.38,0.89 0.38,0.31c0,-0.89 0.43,-1.25 0.7,-0.59c0.08,0.2 0.23,0.43 0.33,0.51c0.1,0.08 0.18,0.2 0.18,0.25c0,0.26 0.91,0.87 1.3,0.87c0.18,0 0.2,-0.12 0.2,-1.21c0.01,-1.64 0.23,-1.91 0.95,-1.17c1.12,1.16 1.52,1.41 1.83,1.15c0.09,-0.07 0.16,-0.22 0.16,-0.33c0,-0.11 0.09,-0.22 0.21,-0.25c0.23,-0.06 1.04,0.26 1.17,0.46c0.16,0.27 1.06,-0.06 1.06,-0.39c0,-0.21 0.55,-0.68 0.75,-0.63c0.29,0.08 0.94,1.41 1,2.05c0.05,0.53 0.07,0.55 0.4,0.55c0.3,0 0.4,-0.08 0.7,-0.58l0.35,-0.57l-0.32,-0.29c-0.58,-0.51 -1.44,-1.59 -1.74,-2.18c-0.25,-0.49 -0.27,-0.62 -0.16,-0.76c0.13,-0.16 0.18,-0.16 0.47,0.02c0.18,0.1 0.35,0.28 0.38,0.38c0.09,0.3 0.7,0.76 0.99,0.76c0.34,0 0.42,-0.16 0.47,-0.83c0.03,-0.3 0.13,-0.71 0.23,-0.91c0.8,-1.58 0.81,-1.59 1.07,-1.59c0.14,0 0.31,0.06 0.37,0.14c0.11,0.15 0.33,1.09 0.42,1.84c0.03,0.27 0.08,0.52 0.11,0.57c0.03,0.05 0,0.13 -0.05,0.16c-0.2,0.12 -0.13,0.27 0.23,0.45c0.33,0.17 0.34,0.21 0.28,0.67c-0.04,0.27 -0.13,0.58 -0.2,0.7c-0.19,0.3 0,0.5 0.64,0.68c0.53,0.15 0.72,0.37 0.5,0.58c-0.07,0.07 -0.13,0.2 -0.13,0.29c0,0.23 0.55,0.79 0.79,0.79c0.1,0 0.42,-0.26 0.7,-0.59zm-20.92,-4.31c0,-0.1 0.06,-0.23 0.14,-0.28c0.18,-0.12 0.38,-0.53 0.53,-1.13c0.21,-0.84 0.61,-1.6 1.09,-2.09c0.25,-0.26 0.46,-0.56 0.46,-0.68c0,-0.11 0.12,-0.32 0.28,-0.46c0.15,-0.14 0.28,-0.37 0.28,-0.51c0,-0.33 0.42,-1.04 0.62,-1.04c0.23,0 1.24,-1.61 1.82,-2.89c0.13,-0.28 0.28,-0.59 0.34,-0.69c0.06,-0.11 0.11,-0.31 0.11,-0.46c0,-0.66 0.55,-1.5 1.8,-2.76c0.47,-0.47 0.86,-0.91 0.86,-0.96c0,-0.05 0.21,-0.35 0.46,-0.67c0.47,-0.57 0.71,-0.68 0.97,-0.43c0.16,0.16 0.34,-0.04 0.35,-0.42c0.01,-0.12 0.03,-0.38 0.06,-0.58c0.04,-0.31 0.02,-0.36 -0.21,-0.36c-0.32,0 -0.75,-0.32 -0.55,-0.41c0.15,-0.06 0.19,-0.37 0.05,-0.37c-0.29,0 -0.58,0.16 -0.64,0.34c-0.04,0.11 -0.1,0.2 -0.14,0.2c-0.24,-0.03 -0.38,0.06 -0.64,0.46c-0.16,0.24 -0.39,0.47 -0.5,0.51c-0.11,0.03 -0.29,0.21 -0.38,0.39c-0.26,0.51 -1.36,0.97 -1.55,0.66c-0.13,-0.21 -0.42,-0.13 -0.36,0.11c0.03,0.12 0,0.26 -0.07,0.31c-0.07,0.05 -0.23,0.27 -0.35,0.5c-0.12,0.23 -0.26,0.42 -0.31,0.42c-0.05,0 -0.28,0.21 -0.51,0.46c-0.45,0.49 -0.84,0.55 -0.86,0.15c-0.03,-0.5 -0.03,-0.51 -0.32,-0.31c-0.21,0.15 -0.26,0.26 -0.22,0.46c0.05,0.18 0,0.31 -0.16,0.42c-0.13,0.09 -0.23,0.23 -0.23,0.31c0,0.23 -0.46,0.61 -0.74,0.61c-0.14,0 -0.26,-0.02 -0.26,-0.05c0,-0.03 -0.03,-0.13 -0.07,-0.22c-0.04,-0.11 0,-0.18 0.11,-0.18c0.2,0 0.24,-0.17 0.07,-0.28c-0.06,-0.04 -0.11,-0.33 -0.11,-0.65c0,-0.89 -0.33,-1.1 -0.77,-0.5c-0.18,0.25 -0.26,0.48 -0.24,0.79c0.01,0.24 -0.04,0.51 -0.1,0.59c-0.07,0.08 -0.09,0.25 -0.05,0.37c0.04,0.13 0.03,0.23 -0.03,0.23c-0.06,0 -0.14,0.25 -0.18,0.55c-0.08,0.57 -0.26,0.78 -0.71,0.78c-0.13,0 -0.27,0.08 -0.32,0.18c-0.11,0.2 -0.05,0.68 0.1,0.78c0.18,0.11 0.1,0.24 -0.16,0.31c-0.24,0.06 -0.26,0.12 -0.24,0.63c0.02,0.39 -0.02,0.58 -0.13,0.62c-0.2,0.08 -0.19,0.25 0.02,0.48c0.13,0.15 0.15,0.25 0.05,0.5c-0.07,0.17 -0.2,0.37 -0.29,0.44c-0.1,0.07 -0.18,0.3 -0.19,0.51c-0.02,0.35 0.01,0.39 0.33,0.42c0.48,0.05 0.57,0.49 0.2,0.99c-0.16,0.21 -0.22,0.38 -0.16,0.42c0.16,0.1 0.14,0.21 -0.11,0.5c-0.12,0.14 -0.22,0.37 -0.22,0.52c0,0.15 -0.08,0.29 -0.17,0.33c-0.09,0.03 -0.16,0.11 -0.16,0.18c0,0.06 -0.25,0.39 -0.56,0.72c-0.31,0.34 -0.53,0.65 -0.5,0.7c0.03,0.05 0.31,0.11 0.64,0.14c0.6,0.05 1.02,0.22 1.8,0.69c0.42,0.25 0.45,0.26 0.69,0.08c0.14,-0.1 0.26,-0.27 0.26,-0.37zm-14.77,-0.31l0.28,-0.08l-0.32,-0.13c-0.77,-0.31 -2.38,-1.16 -2.73,-1.44c-0.21,-0.17 -0.51,-0.37 -0.67,-0.45c-0.15,-0.08 -0.68,-0.5 -1.17,-0.94c-1.11,-1 -1.83,-1.54 -2.53,-1.93c-0.8,-0.43 -0.94,-0.52 -1.17,-0.72c-0.31,-0.28 -0.44,-0.23 -0.42,0.16c0.02,0.42 0.28,0.65 1.31,1.17c0.42,0.21 0.76,0.44 0.77,0.52c0.01,0.08 0.02,0.19 0.03,0.25c0.01,0.06 0.06,0.18 0.12,0.28c0.06,0.09 0.16,0.26 0.22,0.38c0.06,0.12 0.41,0.39 0.78,0.61c0.37,0.22 0.9,0.63 1.19,0.91c0.45,0.45 0.62,0.53 1.24,0.65c0.45,0.09 0.94,0.28 1.31,0.51c0.6,0.38 1.12,0.47 1.75,0.27zm18.42,-0.94c0.26,-0.14 0.27,-0.21 0.29,-1.24c0.02,-0.89 0.08,-1.25 0.32,-1.88c0.31,-0.81 0.33,-0.87 0.3,-1.19c-0.03,-0.33 -0.28,-0.21 -0.7,0.35c-0.29,0.37 -0.39,0.6 -0.35,0.77c0.04,0.13 0.01,0.24 -0.05,0.24c-0.2,0 -0.48,0.35 -0.42,0.52c0.03,0.08 -0.04,0.31 -0.16,0.51c-0.12,0.2 -0.22,0.44 -0.22,0.54c0,0.1 -0.08,0.21 -0.18,0.26c-0.25,0.1 -0.06,0.26 0.35,0.3c0.28,0.03 0.33,0.08 0.32,0.31c-0.01,0.15 -0.05,0.37 -0.1,0.47c-0.1,0.24 0.2,0.26 0.6,0.04zm-8.92,-0.79c0.16,-0.34 0.36,-0.65 0.45,-0.68c0.2,-0.08 0.48,0.16 0.48,0.41c0,0.2 0.31,0.39 0.43,0.27c0.03,-0.03 0.07,-0.57 0.08,-1.2c0.02,-0.91 0.07,-1.22 0.24,-1.54c0.13,-0.22 0.2,-0.43 0.16,-0.47c-0.03,-0.03 0.01,-0.15 0.1,-0.26c0.25,-0.3 0.55,-1.03 0.48,-1.15c-0.11,-0.18 -0.72,-0.12 -0.72,0.06c0,0.09 -0.15,0.24 -0.34,0.34c-0.18,0.1 -0.34,0.25 -0.34,0.34c-0.01,0.09 -0.03,0.21 -0.04,0.28c-0.02,0.06 -0.03,0.16 -0.04,0.21c-0.01,0.05 -0.15,0.26 -0.31,0.45c-0.16,0.2 -0.31,0.44 -0.31,0.54c-0.01,0.1 -0.18,0.35 -0.37,0.55c-0.19,0.21 -0.32,0.42 -0.29,0.48c0.03,0.06 0,0.17 -0.06,0.26c-0.15,0.18 -0.29,1.3 -0.19,1.55c0.12,0.31 0.29,0.18 0.58,-0.44zm-2.68,-1.59c0.03,-0.27 0.12,-0.55 0.18,-0.64c0.07,-0.08 0.1,-0.29 0.06,-0.45c-0.08,-0.38 0.51,-2.14 0.71,-2.14c0.05,0 0.1,-0.07 0.1,-0.16c0,-0.21 0.23,-0.28 0.54,-0.16c0.23,0.08 0.26,0.16 0.24,0.68c-0.01,0.32 -0.01,0.71 0,0.86c0.01,0.26 0.03,0.26 0.22,-0.11c0.12,-0.21 0.27,-0.72 0.35,-1.14c0.08,-0.41 0.17,-0.75 0.21,-0.75c0.11,0 0.56,-0.84 0.56,-1.07c0,-0.11 0.1,-0.33 0.22,-0.49c0.12,-0.15 0.22,-0.39 0.22,-0.52c0,-0.26 0.16,-0.4 0.48,-0.43c0.29,-0.02 0.45,0.36 0.37,0.91c-0.06,0.41 -0.03,0.5 0.16,0.6c0.26,0.14 0.31,0.11 0.38,-0.18c0.03,-0.12 0.1,-0.41 0.18,-0.65c0.07,-0.24 0.15,-0.64 0.18,-0.88c0.03,-0.24 0.25,-0.75 0.49,-1.14c0.23,-0.39 0.43,-0.78 0.43,-0.86c0,-0.09 0.17,-0.5 0.39,-0.9c0.21,-0.41 0.39,-0.82 0.39,-0.91c0,-0.08 0.18,-0.54 0.39,-1.01c0.22,-0.47 0.48,-1.03 0.58,-1.25c0.1,-0.21 0.27,-0.47 0.38,-0.58c0.31,-0.31 0.42,-0.95 0.34,-1.91c-0.06,-0.68 -0.12,-0.89 -0.25,-0.89c-0.09,0 -0.18,0.1 -0.2,0.22c-0.05,0.29 -0.34,0.92 -0.45,0.99c-0.05,0.03 -0.1,0.32 -0.1,0.64c-0.02,1.07 -0.13,1.42 -0.6,1.92c-0.17,0.18 -0.42,0.55 -0.55,0.8c-0.31,0.61 -1.09,0.9 -1.09,0.39c0,-0.24 -0.48,-0.65 -0.54,-0.45c-0.03,0.08 -0.12,0.23 -0.21,0.34c-0.16,0.18 -0.15,0.22 0.03,0.41c0.1,0.12 0.16,0.27 0.12,0.34c-0.04,0.07 -0.03,0.18 0.03,0.26c0.05,0.08 0.09,0.31 0.08,0.52c-0.02,0.31 -0.07,0.39 -0.26,0.42c-0.13,0.02 -0.24,-0.01 -0.24,-0.08c0,-0.16 -1.07,-0.49 -1.33,-0.41c-0.12,0.04 -0.22,0.14 -0.22,0.21c0,0.08 -0.1,0.23 -0.22,0.34c-0.12,0.11 -0.22,0.26 -0.22,0.34c0,0.18 -0.31,0.49 -0.49,0.49c-0.08,0 -0.23,-0.07 -0.35,-0.15c-0.18,-0.13 -0.19,-0.18 -0.06,-0.34c0.08,-0.1 0.1,-0.18 0.05,-0.18c-0.05,0 -0.03,-0.06 0.04,-0.13c0.08,-0.08 0.13,-0.42 0.13,-0.76c0,-0.34 0.05,-0.68 0.12,-0.74c0.16,-0.16 0.32,-0.91 0.21,-0.98c-0.14,-0.08 -0.57,-1.57 -0.54,-1.85c0.03,-0.28 -0.18,-0.75 -0.35,-0.75c-0.05,0 -0.16,0.13 -0.24,0.3c-0.13,0.26 -0.29,0.38 -0.98,0.7c-0.09,0.04 -0.21,0.27 -0.26,0.51c-0.05,0.24 -0.13,0.46 -0.17,0.49c-0.04,0.03 -0.07,0.62 -0.07,1.31c0,0.91 -0.04,1.28 -0.15,1.34c-0.08,0.05 -0.13,0.16 -0.11,0.23c0.02,0.08 -0.23,0.35 -0.55,0.6c-0.52,0.4 -0.57,0.5 -0.53,0.79c0.09,0.6 0.13,0.67 0.34,0.7c0.2,0.03 0.36,-0.16 0.55,-0.66c0.12,-0.31 0.7,-0.37 0.97,-0.11c0.22,0.22 0.22,0.22 -0.12,0.42c-0.31,0.18 -0.33,0.21 -0.17,0.39c0.09,0.1 0.16,0.33 0.15,0.51c-0.02,0.17 0.01,0.4 0.06,0.51c0.14,0.33 -0.02,1.1 -0.26,1.29c-0.12,0.1 -0.26,0.3 -0.29,0.46c-0.08,0.32 -0.69,0.7 -1.01,0.64c-0.12,-0.02 -0.23,-0.15 -0.24,-0.29c-0.05,-0.36 -0.33,-0.31 -1.09,0.18c-0.77,0.5 -1.09,0.84 -1.12,1.17c-0.01,0.13 -0.07,0.43 -0.13,0.66c-0.14,0.55 0.07,0.65 0.5,0.25c0.7,-0.65 0.98,-0.52 1.51,0.71c0.32,0.75 1.72,2.01 1.98,1.79c0.05,-0.04 0.11,-0.29 0.14,-0.56zm-6.12,-2.97c-0.02,-0.53 0,-1.02 0.05,-1.08c0.04,-0.07 0.09,-0.21 0.11,-0.33c0.02,-0.11 0.13,-0.33 0.25,-0.49c0.12,-0.16 0.22,-0.37 0.22,-0.49c0,-0.23 0.63,-0.67 0.89,-0.62c0.1,0.02 0.16,0.16 0.16,0.33c0,0.16 0.03,0.33 0.08,0.37c0.11,0.11 1.08,-0.49 1.28,-0.78c0.16,-0.23 0.14,-0.3 -0.13,-0.84c-0.16,-0.32 -0.33,-0.61 -0.38,-0.65c-0.05,-0.03 -0.11,-0.23 -0.15,-0.45c-0.05,-0.31 -0.01,-0.44 0.15,-0.58c0.12,-0.1 0.21,-0.25 0.21,-0.33c0,-0.08 0.18,-0.37 0.42,-0.63l0.42,-0.49l0,-1.14c0,-0.63 0.04,-1.15 0.09,-1.15c0.05,0 0.06,-0.1 0.02,-0.22c-0.09,-0.27 0.4,-0.94 0.85,-1.18c0.18,-0.09 0.31,-0.23 0.31,-0.32c0,-0.09 0.14,-0.25 0.31,-0.35c0.17,-0.1 0.36,-0.24 0.42,-0.31c0.06,-0.06 0.21,-0.17 0.33,-0.24c0.34,-0.19 0.34,-0.47 0.01,-0.6c-0.16,-0.06 -0.29,-0.16 -0.29,-0.23c0,-0.2 0.35,-0.67 0.5,-0.67c0.19,0 1.28,-0.9 1.22,-1.01c-0.03,-0.05 -0.34,0.04 -0.69,0.2c-0.62,0.27 -0.65,0.27 -0.97,0.09l-0.33,-0.19l-0.42,0.45c-0.31,0.34 -0.42,0.55 -0.42,0.83c0,0.21 -0.07,0.44 -0.16,0.51c-0.09,0.08 -0.24,0.42 -0.35,0.76c-0.37,1.2 -0.99,1.9 -1.35,1.54c-0.14,-0.14 -0.15,-0.27 -0.06,-0.73l0.11,-0.56l-0.31,0c-0.5,0 -0.66,-0.11 -0.66,-0.45c0,-0.17 -0.05,-0.35 -0.11,-0.39c-0.06,-0.04 -0.09,-0.16 -0.05,-0.27c0.03,-0.11 0.02,-0.23 -0.04,-0.27c-0.2,-0.12 -0.4,0.05 -0.62,0.52c-0.12,0.26 -0.28,0.53 -0.36,0.62c-0.08,0.08 -0.15,0.21 -0.15,0.29c0,0.44 -1.02,1.62 -1.39,1.62c-0.33,0 -0.54,-0.26 -0.41,-0.52c0.12,-0.23 0.26,-1.03 0.18,-1.03c-0.45,0 -1.82,1.64 -1.82,2.18c0,0.2 -0.53,0.62 -0.74,0.58c-0.12,-0.03 -0.27,-0.24 -0.39,-0.54c-0.16,-0.43 -0.23,-0.5 -0.5,-0.5c-0.24,0 -0.4,0.12 -0.71,0.52c-0.51,0.68 -0.75,1.3 -0.55,1.42c0.08,0.05 0.22,0.05 0.32,0c0.11,-0.06 0.26,-0.03 0.39,0.06c0.18,0.13 0.19,0.2 0.08,0.44c-0.1,0.23 -0.1,0.35 0.03,0.61c0.09,0.18 0.17,0.45 0.17,0.6c0,0.15 0.05,0.3 0.1,0.34c0.05,0.03 0.13,0.26 0.18,0.51c0.08,0.43 0.09,0.44 0.28,0.26c0.11,-0.1 0.22,-0.31 0.24,-0.48c0.03,-0.2 0.11,-0.3 0.26,-0.33c0.25,-0.03 0.83,0.43 0.83,0.67c0,0.08 0.07,0.25 0.16,0.37c0.09,0.12 0.16,0.28 0.16,0.36c0,0.08 0.11,0.37 0.23,0.65c0.13,0.28 0.2,0.53 0.17,0.57c-0.03,0.04 -0.01,0.13 0.05,0.21c0.06,0.08 0.14,0.33 0.17,0.55c0.03,0.23 0.13,0.52 0.21,0.64c0.09,0.13 0.16,0.37 0.16,0.53c0,0.16 0.1,0.42 0.22,0.57c0.12,0.16 0.22,0.34 0.22,0.4c0,0.15 1.04,1.24 1.18,1.24c0.06,0 0.1,-0.4 0.08,-0.96zm29.59,-4.47c0.08,-0.05 0.12,-0.15 0.08,-0.21c-0.2,-0.33 1.37,-2.58 1.8,-2.58c0.18,0 0.15,-0.47 -0.05,-0.76c-0.22,-0.31 -0.17,-1.07 0.13,-2.32c0.15,-0.61 0.17,-0.84 0.07,-0.94c-0.15,-0.15 -0.27,-0.06 -0.3,0.22c-0.05,0.5 -0.32,1.27 -0.46,1.33c-0.08,0.03 -0.15,0.15 -0.15,0.26c0,0.11 -0.05,0.23 -0.11,0.27c-0.06,0.04 -0.11,0.16 -0.11,0.27c0,0.11 -0.09,0.28 -0.2,0.38c-0.11,0.1 -0.26,0.34 -0.34,0.55c-0.08,0.2 -0.35,0.51 -0.6,0.7c-0.37,0.27 -0.47,0.43 -0.54,0.82c-0.05,0.26 -0.14,0.55 -0.21,0.63c-0.16,0.19 -0.07,0.47 0.34,1.04c0.35,0.48 0.4,0.51 0.65,0.36zm-1.46,-2.92c0.2,-0.22 0.61,-1.03 0.95,-1.86c0.06,-0.16 0.16,-0.37 0.22,-0.48c0.12,-0.23 0.02,-0.63 -0.15,-0.63c-0.06,0 -0.14,0.1 -0.17,0.21c-0.05,0.2 -0.29,0.36 -0.74,0.5c-0.13,0.05 -0.18,0.14 -0.15,0.28c0.04,0.14 -0.03,0.25 -0.21,0.33c-0.15,0.07 -0.26,0.16 -0.25,0.21c0.01,0.05 -0.01,0.21 -0.05,0.36c-0.04,0.15 -0.09,0.52 -0.12,0.81c-0.04,0.48 -0.03,0.53 0.2,0.53c0.13,0 0.35,-0.11 0.47,-0.25zm-9.82,-1.91c0.13,-0.16 0.28,-0.28 0.34,-0.28c0.13,0 1.64,-0.9 1.71,-1.02c0.07,-0.12 -0.21,-0.76 -0.33,-0.76c-0.22,0 -0.52,0.25 -0.52,0.43c0,0.17 -0.54,0.68 -0.73,0.68c-0.15,0 -1.16,0.93 -1.16,1.07c0,0.25 0.43,0.17 0.69,-0.13zm10,-1.64l0.77,-0.81l-0.33,-0.03c-0.23,-0.02 -0.47,0.07 -0.76,0.27c-0.49,0.35 -1.07,1.11 -0.97,1.27c0.17,0.28 0.57,0.06 1.3,-0.7zm-16.58,-2.58c0.1,-0.03 0.24,-0.16 0.32,-0.28c0.11,-0.18 0.11,-0.22 -0.03,-0.22c-0.25,0 -0.73,0.54 -0.72,0.81l0,0.24l0.12,-0.25c0.07,-0.13 0.2,-0.27 0.3,-0.3zm-11.07,-0.94c0.14,-0.05 0.55,-0.19 0.89,-0.3c0.47,-0.15 0.64,-0.25 0.64,-0.4c0,-0.11 -0.05,-0.2 -0.11,-0.2c-0.06,0 -0.11,-0.08 -0.11,-0.17c0,-0.1 0.3,-0.32 0.73,-0.53c1.14,-0.56 1.16,-0.57 1.16,-0.66c0,-0.36 -2.84,0.64 -3.54,1.24c-0.23,0.2 -0.24,0.25 -0.11,0.41c0.08,0.1 0.13,0.3 0.12,0.44c-0.04,0.29 -0.02,0.3 0.34,0.16zm35.51,-1.57c0,-0.37 -0.06,-0.57 -0.21,-0.7c-0.2,-0.18 -0.21,-0.17 -0.28,0.16c-0.04,0.19 -0.07,0.63 -0.07,0.97l0,0.62l0.28,-0.26c0.22,-0.21 0.28,-0.37 0.28,-0.78zm-45.91,-0.76c-0.22,-0.29 -0.48,-0.65 -0.59,-0.82c-0.2,-0.33 -0.36,-0.37 -0.67,-0.18c-0.16,0.1 -0.31,0.09 -0.67,-0.05c-0.55,-0.22 -0.57,-0.22 -0.57,-0.06c0,0.24 0.79,1.1 1.09,1.16c0.16,0.04 0.36,0.12 0.44,0.18c0.18,0.14 1.17,0.4 1.28,0.34c0.05,-0.03 -0.09,-0.28 -0.31,-0.57zm28.53,0.19c0.22,-0.13 0.39,-0.3 0.39,-0.39c0,-0.08 0.08,-0.16 0.16,-0.16c0.09,0 0.22,-0.11 0.3,-0.25c0.07,-0.13 0.19,-0.31 0.27,-0.39c0.08,-0.08 0.18,-0.38 0.22,-0.67c0.04,-0.29 0.16,-0.58 0.26,-0.65c0.1,-0.07 0.14,-0.17 0.09,-0.21c-0.12,-0.12 -0.75,0.51 -0.75,0.74c0,0.1 -0.08,0.25 -0.17,0.33c-0.09,0.08 -0.17,0.2 -0.17,0.29c0,0.08 -0.26,0.43 -0.58,0.78c-0.82,0.89 -0.83,1.06 -0.03,0.59zm-20.83,-0.31c0.03,-0.07 0.19,-0.12 0.37,-0.12c0.18,0 0.44,-0.07 0.57,-0.16c0.13,-0.09 0.44,-0.21 0.69,-0.27c0.38,-0.09 0.9,-0.26 1.33,-0.43c0.25,-0.1 0.63,-0.35 0.83,-0.55c0.11,-0.12 0.36,-0.34 0.56,-0.49c0.19,-0.15 0.46,-0.37 0.6,-0.49c0.24,-0.21 0.24,-0.21 -0.21,-0.13c-0.24,0.05 -0.49,0.12 -0.55,0.17c-0.13,0.1 -0.94,0.27 -1.14,0.24c-0.08,-0.01 -0.31,0.08 -0.52,0.21c-0.31,0.19 -0.48,0.22 -1.02,0.16c-0.88,-0.1 -0.97,-0.16 -0.75,-0.47c0.09,-0.13 0.26,-0.25 0.36,-0.25c0.21,0 0.69,-0.32 0.52,-0.34c-0.51,-0.04 -2.98,0 -3.24,0.06c-0.33,0.07 -1.25,-0.21 -1.25,-0.38c0,-0.13 0.54,-0.34 0.89,-0.34c0.36,0 1.22,-0.23 1.22,-0.34c0,-0.03 -0.31,-0.13 -0.7,-0.21c-0.38,-0.08 -0.79,-0.19 -0.91,-0.23c-0.12,-0.05 -0.52,-0.15 -0.89,-0.22c-0.37,-0.08 -0.78,-0.21 -0.91,-0.29c-0.13,-0.08 -0.35,-0.15 -0.47,-0.15c-0.19,0 -0.21,0.03 -0.12,0.21c0.06,0.11 0.08,0.24 0.04,0.28c-0.04,0.04 -0.01,0.07 0.06,0.07c0.07,0 0.13,0.16 0.13,0.37c0,0.52 -0.31,0.74 -1.03,0.75l-0.58,0l0.37,0.3c0.37,0.31 0.46,0.62 0.22,0.76c-0.08,0.05 -0.46,0.14 -0.86,0.2l-0.72,0.12l0.38,0.37c0.21,0.21 0.54,0.44 0.73,0.52c0.19,0.08 0.41,0.23 0.49,0.32c0.08,0.1 0.21,0.17 0.3,0.17c0.09,0 0.29,0.08 0.44,0.19c0.51,0.33 1.8,0.53 3.33,0.52c0.94,-0.01 1.44,-0.05 1.46,-0.14l0,0zm20.56,-2.48c0.47,-0.55 1.18,-1.84 1.28,-2.31c0.11,-0.54 0.26,-0.68 0.71,-0.65c0.65,0.03 0.68,0.01 0.68,-0.34c0,-0.53 0.43,-1.45 0.87,-1.88c0.76,-0.73 1.11,-1.23 1.29,-1.83c0.1,-0.34 0.23,-0.61 0.29,-0.61c0.07,0 0.25,-0.14 0.42,-0.31c0.16,-0.17 0.6,-0.55 0.99,-0.84c0.38,-0.29 0.69,-0.57 0.69,-0.62c0,-0.05 0.22,-0.26 0.5,-0.47c0.27,-0.21 0.52,-0.46 0.55,-0.57c0.07,-0.26 0.48,-0.25 0.57,0.03c0.04,0.12 0.02,0.31 -0.05,0.44c-0.06,0.12 -0.12,0.49 -0.12,0.81c0,0.32 -0.05,0.66 -0.1,0.75c-0.06,0.1 -0.06,0.22 0.02,0.31c0.06,0.08 0.15,0.31 0.19,0.5c0.06,0.31 0.14,0.37 0.61,0.51c0.63,0.18 0.91,0.09 1.48,-0.5c0.3,-0.31 0.43,-0.37 0.87,-0.37c0.53,0 0.89,0.18 1.51,0.76c0.36,0.33 0.66,0.28 1.15,-0.18c0.59,-0.56 0.85,-0.93 1.03,-1.45c0.09,-0.29 0.23,-0.59 0.31,-0.68c0.12,-0.14 0.12,-0.25 0,-0.58c-0.08,-0.22 -0.17,-0.44 -0.21,-0.49c-0.04,-0.04 -0.08,-0.15 -0.08,-0.23c0,-0.09 -0.32,-0.68 -0.72,-1.32c-0.39,-0.64 -0.72,-1.21 -0.72,-1.27c0,-0.06 -0.25,-0.37 -0.55,-0.7c-0.31,-0.32 -0.55,-0.64 -0.55,-0.7c0,-0.06 -0.08,-0.18 -0.17,-0.25c-0.09,-0.08 -0.17,-0.23 -0.17,-0.34c0,-0.1 -0.07,-0.25 -0.15,-0.32c-0.24,-0.19 -0.51,-1.15 -0.51,-1.77c0,-0.47 -0.05,-0.59 -0.29,-0.78c-0.33,-0.26 -0.88,-0.3 -1.14,-0.08c-0.1,0.08 -0.45,0.26 -0.79,0.39c-0.41,0.16 -0.86,0.48 -1.36,0.96c-0.68,0.65 -0.74,0.76 -0.74,1.16c0,0.34 -0.06,0.48 -0.23,0.57c-0.18,0.1 -0.22,0.22 -0.21,0.64c0.02,0.52 -0.03,0.99 -0.18,1.65c-0.11,0.52 -1.75,2.04 -2.19,2.04c-0.09,0 -0.38,0.2 -0.65,0.44c-0.26,0.24 -0.57,0.44 -0.67,0.44c-0.1,0 -0.22,0.05 -0.25,0.1c-0.04,0.06 -0.35,0.16 -0.7,0.23c-0.59,0.12 -0.67,0.11 -1.11,-0.12c-0.7,-0.37 -0.62,-0.78 0.19,-0.94c0.21,-0.04 0.7,-0.22 1.07,-0.4c0.38,-0.18 0.73,-0.33 0.78,-0.33c0.16,0 0.81,-0.63 0.73,-0.7c-0.04,-0.04 -0.18,-0.07 -0.3,-0.08c-0.13,0 -0.33,-0.08 -0.45,-0.17c-0.14,-0.1 -0.34,-0.14 -0.56,-0.1c-0.23,0.04 -0.54,-0.02 -0.97,-0.21c-0.35,-0.16 -0.66,-0.23 -0.7,-0.18c-0.08,0.13 -0.71,0.14 -0.71,0.01c0,-0.05 -0.15,-0.16 -0.33,-0.23c-0.18,-0.08 -0.39,-0.21 -0.45,-0.29c-0.17,-0.2 -0.03,-0.6 0.21,-0.6c0.1,0 0.24,-0.05 0.3,-0.1c0.07,-0.07 0.35,-0.07 0.77,0c1.32,0.22 2.16,0.25 2.36,0.08c0.1,-0.09 0.42,-0.23 0.69,-0.31c0.28,-0.08 0.72,-0.27 0.99,-0.42l0.5,-0.28l-0.26,-0.21c-0.14,-0.11 -0.35,-0.21 -0.47,-0.21c-0.38,0 -0.86,-0.36 -0.86,-0.64c0,-0.17 -0.09,-0.29 -0.29,-0.37c-0.34,-0.13 -0.49,-0.06 -0.49,0.22c0,0.27 -0.24,0.45 -0.68,0.51c-2.27,0.28 -2.46,0.31 -2.51,0.52c-0.03,0.11 -0.32,0.38 -0.65,0.59c-0.33,0.21 -0.6,0.43 -0.6,0.49c0,0.21 -0.75,0.57 -1.04,0.5c-0.34,-0.09 -0.38,-0.38 -0.06,-0.46c0.12,-0.03 0.22,-0.1 0.22,-0.15c0,-0.1 -0.64,-0.3 -1.11,-0.35c-0.33,-0.03 -0.63,-0.52 -0.42,-0.66c0.07,-0.05 0.47,-0.08 0.88,-0.08c0.42,0 0.75,-0.04 0.75,-0.09c0,-0.04 -0.07,-0.22 -0.16,-0.39c-0.15,-0.29 -0.15,-0.32 0.11,-0.49c0.15,-0.1 0.35,-0.15 0.45,-0.1c0.1,0.04 0.27,-0.01 0.38,-0.11c0.11,-0.1 0.4,-0.21 0.65,-0.24c0.25,-0.03 0.45,-0.1 0.45,-0.16c0,-0.05 0.1,-0.1 0.22,-0.1c0.12,0 0.22,-0.04 0.22,-0.09c0,-0.05 0.21,-0.19 0.47,-0.3c0.26,-0.11 0.65,-0.34 0.86,-0.51c0.36,-0.28 0.43,-0.29 0.84,-0.19c0.45,0.11 2.52,-0.01 2.67,-0.16c0.12,-0.12 -0.3,-0.63 -0.52,-0.63c-0.11,0 -0.24,-0.05 -0.28,-0.11c-0.04,-0.06 -0.16,-0.11 -0.28,-0.11c-0.11,0 -0.42,-0.11 -0.67,-0.24l-0.46,-0.24l-0.19,0.26c-0.11,0.15 -0.25,0.22 -0.33,0.18c-0.07,-0.05 -0.22,-0.01 -0.32,0.08c-0.1,0.1 -0.42,0.23 -0.72,0.3c-0.29,0.08 -0.55,0.18 -0.59,0.23c-0.03,0.05 -0.14,0.1 -0.23,0.1c-0.09,0 -0.33,0.13 -0.53,0.28c-0.2,0.16 -0.52,0.31 -0.72,0.35c-0.2,0.04 -0.39,0.14 -0.42,0.22c-0.03,0.08 -0.12,0.15 -0.2,0.15c-0.08,0 -0.22,0.09 -0.32,0.21c-0.1,0.11 -0.4,0.29 -0.65,0.4c-0.26,0.1 -0.73,0.31 -1.05,0.46c-0.32,0.15 -0.66,0.27 -0.76,0.27c-0.28,0 -0.32,-0.33 -0.06,-0.51c0.13,-0.09 0.23,-0.21 0.23,-0.27c0,-0.06 0.13,-0.31 0.28,-0.55c0.16,-0.24 0.28,-0.5 0.28,-0.58c0,-0.24 0.64,-1.17 0.8,-1.17c0.21,0.01 0.86,-0.28 0.86,-0.39c0,-0.05 0.09,-0.09 0.21,-0.09c0.11,0 0.31,-0.12 0.45,-0.26c0.14,-0.15 0.37,-0.3 0.52,-0.34c0.15,-0.03 0.31,-0.19 0.37,-0.34c0.07,-0.18 0.19,-0.28 0.36,-0.28c0.14,0 0.31,-0.09 0.39,-0.21c0.07,-0.12 0.29,-0.24 0.5,-0.27c1.13,-0.18 1.32,-0.23 1.49,-0.43c0.21,-0.23 0.71,-0.27 1.05,-0.09c0.23,0.12 1.88,0.37 2.32,0.35c0.15,-0.01 0.55,0.04 0.89,0.11c0.34,0.07 0.96,0.14 1.38,0.15c0.43,0.01 0.97,0.05 1.2,0.1c0.23,0.05 0.54,0.05 0.69,0.01c0.24,-0.06 0.27,-0.12 0.25,-0.6c-0.01,-0.39 -0.08,-0.58 -0.26,-0.72c-0.38,-0.31 -0.49,-1.97 -0.13,-1.97c0.06,0 0.22,0.13 0.35,0.29c0.13,0.16 0.35,0.4 0.47,0.53c0.63,0.65 1.49,2.14 1.49,2.57c0,0.14 0.1,0.44 0.23,0.66c0.29,0.49 0.58,0.51 1.04,0.08c0.18,-0.17 0.5,-0.41 0.7,-0.52c0.25,-0.15 0.34,-0.27 0.29,-0.38c-0.04,-0.1 -0.08,-0.38 -0.08,-0.64c-0.01,-0.26 -0.08,-0.53 -0.15,-0.6c-0.08,-0.08 -0.14,-0.25 -0.14,-0.38c0,-0.13 -0.08,-0.3 -0.17,-0.38c-0.09,-0.08 -0.16,-0.21 -0.16,-0.3c0,-0.09 -0.16,-0.44 -0.34,-0.78c-0.19,-0.34 -0.31,-0.68 -0.29,-0.76c0.03,-0.08 -0.02,-0.2 -0.1,-0.27c-0.09,-0.08 -0.16,-0.2 -0.16,-0.28c0,-0.28 -0.39,-0.92 -0.58,-0.97c-0.11,-0.03 -0.19,-0.16 -0.19,-0.28c0,-0.13 -0.17,-0.35 -0.39,-0.52c-0.23,-0.18 -0.42,-0.44 -0.46,-0.62c-0.03,-0.18 -0.09,-0.31 -0.13,-0.31c-0.04,0 -0.14,-0.16 -0.22,-0.36c-0.08,-0.2 -0.32,-0.73 -0.52,-1.17c-0.21,-0.44 -0.38,-0.9 -0.38,-1.02c0,-0.12 -0.05,-0.25 -0.11,-0.29c-0.06,-0.04 -0.09,-0.11 -0.06,-0.16c0.03,-0.05 -0.03,-0.21 -0.15,-0.36c-0.11,-0.14 -0.18,-0.32 -0.16,-0.39c0.06,-0.18 -0.6,-1.46 -0.98,-1.91c-0.18,-0.2 -0.29,-0.41 -0.26,-0.47c0.03,-0.05 -0.6,-0.77 -1.41,-1.59l-1.47,-1.49l-0.98,-0.14c-0.54,-0.08 -1.12,-0.11 -1.29,-0.08c-0.17,0.04 -0.44,-0.01 -0.61,-0.1c-0.33,-0.17 -1.12,-0.14 -1.47,0.05c-0.51,0.28 -1.7,0.67 -2.26,0.74c-0.34,0.05 -0.75,0.15 -0.91,0.23c-0.41,0.21 -0.98,0.19 -1.15,-0.03c-0.08,-0.12 -0.35,-0.2 -0.76,-0.23c-0.46,-0.04 -0.63,-0.1 -0.63,-0.22c0,-0.13 -0.08,-0.15 -0.42,-0.08c-0.54,0.1 -1.52,0.08 -2.04,-0.06c-0.54,-0.14 -2.98,-0.16 -3.81,-0.03c-1.01,0.16 -2.06,1.06 -1.1,0.95c0.57,-0.06 1.04,0.08 1.04,0.31c0,0.11 -0.04,0.23 -0.1,0.27c-0.05,0.03 -0.21,0.29 -0.34,0.57c-0.13,0.28 -0.31,0.54 -0.4,0.57c-0.09,0.03 -0.16,0.1 -0.16,0.15c0,0.05 -0.17,0.26 -0.39,0.47c-0.24,0.24 -0.39,0.5 -0.39,0.67c0,0.16 -0.05,0.31 -0.1,0.34c-0.05,0.03 -0.08,0.26 -0.04,0.49c0.03,0.26 -0.01,0.57 -0.11,0.81c-0.09,0.21 -0.19,0.62 -0.22,0.92c-0.03,0.29 -0.1,0.57 -0.15,0.61c-0.12,0.08 -0.13,0.3 -0.01,0.41c0.05,0.05 0.08,0.21 0.08,0.37c0,0.39 0.28,1.16 0.44,1.21c0.07,0.03 0.16,-0.06 0.19,-0.19c0.06,-0.23 0.4,-0.41 0.58,-0.3c0.19,0.12 0.23,0.79 0.08,1.29c-0.1,0.31 -0.12,0.57 -0.05,0.67c0.14,0.22 0.13,0.65 -0.02,0.65c-0.08,0 -0.1,0.09 -0.05,0.25c0.04,0.14 0.1,0.49 0.13,0.78c0.04,0.4 0.01,0.54 -0.12,0.59c-0.13,0.05 -0.14,0.11 -0.05,0.29c0.13,0.26 0.03,2.04 -0.13,2.14c-0.05,0.03 -0.06,0.23 -0.03,0.44c0.03,0.23 0.02,0.39 -0.05,0.39c-0.06,0 -0.14,0.32 -0.18,0.72c-0.08,0.72 -0.25,1.28 -0.41,1.28c-0.13,0 -0.36,0.64 -0.27,0.78c0.11,0.18 0.47,-0.17 0.62,-0.63c0.15,-0.44 0.57,-0.62 0.85,-0.34c0.16,0.16 0.16,0.21 0,0.54c-0.29,0.61 -0.29,0.92 0,0.96c0.2,0.03 0.3,-0.08 0.54,-0.59c0.16,-0.34 0.32,-0.84 0.36,-1.09c0.03,-0.26 0.18,-0.7 0.32,-0.99c0.14,-0.29 0.26,-0.58 0.26,-0.65c0,-0.22 0.36,-0.92 0.7,-1.36c0.52,-0.67 1.17,-0.48 0.82,0.23c-0.08,0.16 -0.13,0.46 -0.12,0.66c0.01,0.2 -0.02,0.36 -0.08,0.36c-0.05,0 -0.1,0.13 -0.1,0.3c0,0.16 -0.18,0.64 -0.39,1.05c-0.42,0.82 -0.46,1.04 -0.22,1.36c0.16,0.21 0.13,0.66 -0.08,0.91c-0.05,0.07 -0.07,0.21 -0.03,0.31c0.05,0.12 -0.01,0.21 -0.17,0.27c-0.22,0.08 -0.23,0.1 -0.07,0.23c0.18,0.15 0.25,0.57 0.09,0.57c-0.15,0 -0.47,0.68 -0.47,0.99c0,0.17 -0.08,0.34 -0.16,0.37c-0.11,0.05 -0.15,0.18 -0.11,0.44c0.03,0.28 0,0.4 -0.12,0.45c-0.13,0.05 -0.14,0.12 -0.05,0.27c0.08,0.15 0.05,0.37 -0.11,0.79c-0.26,0.67 -0.41,2.41 -0.33,3.67c0.01,0.15 0.02,0.81 0.02,1.47c0,1.13 -0.01,1.2 -0.23,1.2c-0.27,0 -0.29,0.1 -0.07,0.39c0.1,0.15 0.12,0.26 0.05,0.35c-0.06,0.08 -0.08,0.18 -0.04,0.25c0.14,0.22 0.5,0.11 0.89,-0.27c0.8,-0.8 1.3,-0.37 1.25,1.07c-0.02,0.45 -0.07,0.89 -0.12,0.96c-0.05,0.08 -0.03,0.21 0.05,0.31c0.12,0.14 0.18,0.13 0.5,-0.12c0.2,-0.15 0.47,-0.28 0.58,-0.28c0.28,0 0.57,0.45 0.57,0.88c0,0.49 0.18,0.52 0.85,0.16c0.47,-0.26 0.63,-0.29 0.79,-0.2c0.21,0.13 0.34,0.71 0.16,0.71c-0.07,0 -0.08,0.13 -0.01,0.36c0.06,0.2 0.1,0.49 0.1,0.65c0,0.17 0.08,0.32 0.18,0.36c0.12,0.05 0.15,0.13 0.1,0.26c-0.04,0.11 -0.1,0.25 -0.13,0.32c-0.03,0.07 0.13,0.26 0.35,0.43c0.39,0.29 0.41,0.3 0.81,0.13c0.89,-0.36 1.19,-0.42 1.58,-0.31c0.35,0.1 0.41,0.08 0.79,-0.29c0.35,-0.34 0.44,-0.38 0.64,-0.27c0.27,0.15 0.28,0.19 0.07,0.56c-0.09,0.16 -0.16,0.31 -0.16,0.36c0,0.13 0.39,0.1 0.72,-0.05c0.24,-0.11 0.32,-0.1 0.47,0.05c0.22,0.22 0.42,0.24 0.58,0.05zm4.67,-0.91c0,-0.09 0.09,-0.19 0.19,-0.22c0.11,-0.03 0.26,-0.22 0.35,-0.41c0.34,-0.78 1.43,-1.53 1.38,-0.96c-0.03,0.36 0.28,0.3 0.47,-0.08c0.1,-0.21 0.28,-0.41 0.39,-0.45c0.15,-0.05 0.2,-0.13 0.15,-0.28c-0.04,-0.14 0,-0.23 0.11,-0.28c0.1,-0.04 0.17,-0.13 0.17,-0.21c0,-0.08 0.05,-0.18 0.12,-0.22c0.14,-0.09 0.55,0.26 0.55,0.47c0,0.26 0.33,0.16 0.47,-0.13c0.13,-0.3 0.31,-0.34 0.64,-0.17c0.23,0.12 0.48,-0.08 0.42,-0.34c-0.03,-0.11 0.11,-0.15 0.55,-0.13c0.58,0.03 0.58,0.02 0.77,-0.41c0.12,-0.28 0.34,-0.52 0.61,-0.67c0.23,-0.13 0.42,-0.26 0.42,-0.28c0,-0.02 -0.22,-0.14 -0.49,-0.28c-0.47,-0.23 -0.52,-0.23 -1.16,-0.06c-0.37,0.1 -0.71,0.16 -0.76,0.16c-0.05,-0.01 -0.22,0.02 -0.39,0.06c-0.19,0.05 -0.73,-0.01 -1.46,-0.16c-1.19,-0.26 -1.75,-0.23 -1.75,0.06c0,0.09 -0.04,0.26 -0.1,0.36c-0.05,0.1 -0.14,0.34 -0.19,0.51c-0.05,0.18 -0.17,0.36 -0.26,0.4c-0.6,0.29 -0.98,0.43 -1.25,0.49c-0.17,0.04 -0.3,0.13 -0.3,0.2c0,0.07 -0.1,0.23 -0.21,0.36c-0.31,0.34 -0.39,0.69 -0.17,0.78c0.1,0.04 0.24,0.02 0.32,-0.05c0.16,-0.13 0.5,-0.03 0.5,0.15c0,0.07 -0.08,0.43 -0.16,0.79c-0.19,0.79 -0.21,1.17 -0.06,1.17c0.06,0 0.11,-0.07 0.11,-0.16zm11.66,-2.38c-0.08,-0.31 -0.24,-0.52 -0.56,-0.74c-0.24,-0.17 -0.47,-0.28 -0.51,-0.24c-0.04,0.04 0.08,0.26 0.25,0.49c0.18,0.23 0.33,0.55 0.34,0.7c0.01,0.15 0.08,0.39 0.16,0.53l0.14,0.26l0.15,-0.29c0.11,-0.21 0.12,-0.39 0.03,-0.71zm1.33,-0.29c0,-0.46 -0.19,-0.91 -0.42,-1c-0.09,-0.04 -0.19,-0.04 -0.22,-0.02c-0.04,0.04 0.09,0.5 0.36,1.26c0.1,0.28 0.28,0.13 0.28,-0.25zm-39.3,-0.15c1.38,-0.66 2.01,-1.3 2.28,-2.3c0.05,-0.18 0.08,-0.37 0.07,-0.43c-0.01,-0.05 0.11,-0.45 0.27,-0.89c0.16,-0.44 0.32,-0.89 0.36,-1.02c0.03,-0.12 0.21,-0.46 0.38,-0.75c0.22,-0.38 0.31,-0.68 0.31,-1.04c0,-0.73 -0.24,-1.93 -0.4,-2c-0.21,-0.08 -0.97,0.45 -1.15,0.81c-0.09,0.18 -0.29,0.5 -0.45,0.71c-0.28,0.37 -0.39,0.57 -0.91,1.61c-0.12,0.24 -0.38,0.69 -0.57,1c-0.19,0.31 -0.38,0.64 -0.42,0.75c-0.08,0.23 -0.44,0.26 -0.61,0.06c-0.24,-0.29 -0.37,-3.96 -0.15,-4.23c0.05,-0.07 0.13,-0.34 0.17,-0.61c0.09,-0.58 0.37,-1.1 0.65,-1.19c0.11,-0.03 0.2,-0.13 0.2,-0.22c0,-0.23 0.5,-0.98 0.83,-1.24c0.16,-0.12 0.29,-0.26 0.29,-0.32c0,-0.05 0.18,-0.21 0.39,-0.35c0.21,-0.14 0.37,-0.3 0.33,-0.35c-0.03,-0.05 0,-0.14 0.07,-0.18c0.21,-0.13 -0.32,-0.28 -0.55,-0.16c-0.47,0.26 -1.49,0.48 -1.67,0.37c-0.36,-0.22 -0.26,-0.53 0.38,-1.2c0.34,-0.37 0.62,-0.69 0.6,-0.72c-0.02,-0.03 0.07,-0.1 0.18,-0.16c0.22,-0.12 0.33,-0.21 0.99,-0.81c0.42,-0.39 0.43,-0.6 0.02,-0.5c-0.73,0.18 -3.07,2.13 -3.08,2.56c0,0.24 -0.57,1.01 -0.8,1.08c-0.12,0.04 -0.58,0.43 -1.02,0.86c-0.44,0.44 -1.16,1.02 -1.6,1.3c-0.64,0.41 -0.82,0.59 -0.98,0.97c-0.1,0.26 -0.26,0.53 -0.34,0.6c-0.23,0.2 -0.18,0.36 0.1,0.29c0.52,-0.14 0.88,0.64 0.44,0.95c-0.11,0.08 -0.24,0.26 -0.29,0.39c-0.05,0.14 -0.13,0.25 -0.18,0.25c-0.05,0 -0.1,0.09 -0.1,0.2c0,0.2 -0.38,0.98 -0.78,1.63c-0.23,0.37 -0.29,0.72 -0.12,0.72c0.13,0 0.89,-1.11 0.89,-1.29c0,-0.07 0.1,-0.15 0.22,-0.18c0.12,-0.03 0.32,-0.23 0.45,-0.46c0.13,-0.22 0.32,-0.4 0.44,-0.4c0.11,0 0.22,-0.05 0.24,-0.13c0.08,-0.23 0.53,0.02 0.59,0.33c0.03,0.16 0.13,0.55 0.23,0.86c0.09,0.31 0.19,1.26 0.22,2.11c0.05,1.45 0.08,1.57 0.37,1.99c0.23,0.34 0.41,0.47 0.78,0.56c0.26,0.06 0.52,0.18 0.56,0.26c0.23,0.38 1.02,0.34 1.9,-0.08zm-11.26,-0.17c0.03,-0.08 0.01,-0.36 -0.05,-0.62c-0.08,-0.35 -0.07,-0.57 0.05,-0.85c0.09,-0.21 0.16,-0.52 0.16,-0.69c0,-0.18 0.03,-0.35 0.07,-0.39c0.04,-0.04 0.18,-0.41 0.32,-0.82c0.14,-0.42 0.43,-1.07 0.65,-1.46c0.22,-0.39 0.39,-0.73 0.39,-0.77c0,-0.16 0.39,-0.91 0.47,-0.91c0.05,0 0.09,-0.06 0.09,-0.13c0,-0.13 0.37,-0.99 0.56,-1.31c0.05,-0.09 0.18,-0.32 0.28,-0.52c0.1,-0.19 0.32,-0.41 0.5,-0.48c0.18,-0.07 0.4,-0.23 0.51,-0.34c0.11,-0.12 0.26,-0.21 0.34,-0.21c0.08,0 0.15,-0.05 0.15,-0.1c0,-0.1 0.12,-0.18 0.97,-0.63c0.2,-0.1 0.36,-0.23 0.36,-0.27c0,-0.04 0.22,-0.21 0.5,-0.39c0.37,-0.23 0.47,-0.35 0.39,-0.45c-0.09,-0.1 -0.23,-0.1 -0.68,0.01c-0.82,0.22 -1.36,-0.08 -1.03,-0.58c0.16,-0.25 0.22,-0.7 0.09,-0.7c-0.04,0 -0.34,0.2 -0.66,0.44c-0.32,0.24 -0.65,0.44 -0.73,0.44c-0.08,0 -0.33,0.19 -0.57,0.42c-1.54,1.5 -2.41,2.42 -2.41,2.55c0,0.08 -0.05,0.12 -0.11,0.08c-0.06,-0.04 -0.11,0.01 -0.11,0.11c0,0.1 -0.13,0.3 -0.28,0.46c-0.16,0.15 -0.28,0.33 -0.28,0.39c0,0.06 -0.11,0.27 -0.25,0.47c-0.54,0.76 -0.89,1.7 -1.03,2.76c-0.03,0.29 -0.16,0.65 -0.29,0.8c-0.12,0.16 -0.21,0.42 -0.19,0.6c0.01,0.17 -0.02,0.38 -0.07,0.46c-0.2,0.32 -0.38,1.4 -0.26,1.48c0.07,0.04 0.19,-0.02 0.28,-0.14c0.27,-0.39 1.02,-0.14 1.02,0.35c0,0.22 0.55,1.1 0.69,1.1c0.05,0 0.12,-0.06 0.15,-0.15zm5.86,-0.89c0.21,-0.27 0.21,-0.31 0.05,-0.47c-0.16,-0.16 -0.19,-0.16 -0.35,0.01c-0.21,0.21 -0.26,0.88 -0.05,0.81c0.08,-0.03 0.23,-0.18 0.36,-0.34zm11.01,-2.41c0.17,-0.37 0.34,-0.66 0.39,-0.66c0.04,0 0.13,-0.21 0.21,-0.47c0.25,-0.81 0.64,-1.54 1.04,-1.92c0.55,-0.52 0.88,-1.03 0.81,-1.21c-0.03,-0.08 -0.23,-0.17 -0.43,-0.19c-0.34,-0.03 -0.37,-0.07 -0.4,-0.45c-0.04,-0.49 -0.13,-0.52 -0.52,-0.13c-0.21,0.2 -0.26,0.34 -0.19,0.47c0.15,0.3 0.08,1.41 -0.11,1.7c-0.1,0.14 -0.23,0.46 -0.31,0.7c-0.23,0.75 -0.56,1.49 -0.76,1.7c-0.17,0.18 -0.38,0.91 -0.3,1.04c0.12,0.2 0.25,0.07 0.55,-0.57zm-21.18,-2c0.13,-0.34 0.26,-0.79 0.31,-1.02c0.04,-0.22 0.14,-0.44 0.23,-0.47c0.21,-0.08 0.2,-0.29 -0.01,-0.29c-0.09,0 -0.25,0.16 -0.35,0.36c-0.1,0.2 -0.24,0.44 -0.32,0.52c-0.21,0.26 -0.42,1.17 -0.34,1.44c0.1,0.31 0.18,0.21 0.48,-0.55zm-2.28,-2.04c0.17,-0.07 0.29,-0.17 0.27,-0.22c-0.02,-0.05 0.14,-0.28 0.34,-0.5c0.21,-0.22 0.44,-0.57 0.52,-0.76c0.08,-0.2 0.2,-0.36 0.26,-0.36c0.06,0 0.15,-0.11 0.19,-0.25c0.04,-0.13 0.18,-0.4 0.31,-0.58c0.13,-0.18 0.32,-0.47 0.43,-0.64c0.11,-0.16 0.2,-0.37 0.2,-0.45c0,-0.09 0.19,-0.38 0.43,-0.64c0.54,-0.62 0.68,-0.99 0.37,-0.99c-0.3,0 -0.57,0.11 -0.57,0.24c0,0.06 -0.18,0.28 -0.39,0.49c-0.21,0.21 -0.39,0.42 -0.39,0.48c0,0.06 -0.19,0.28 -0.42,0.5c-1.62,1.53 -2.03,1.94 -2.03,2.05c0,0.07 -0.1,0.19 -0.22,0.28c-0.12,0.09 -0.19,0.18 -0.16,0.22c0.03,0.03 -0.04,0.26 -0.17,0.5c-0.21,0.41 -0.21,0.88 0,0.75c0.05,-0.03 0.13,0 0.17,0.06c0.07,0.12 0.31,0.08 0.86,-0.15zm-1.74,-4.01c0.35,-0.72 0.71,-1.25 1.15,-1.7c0.92,-0.94 1.27,-1.44 1.63,-2.31c0.18,-0.43 0.39,-0.84 0.47,-0.93c0.21,-0.22 0.17,-0.46 -0.09,-0.46c-0.17,0 -0.3,0.16 -0.51,0.61c-0.15,0.34 -0.32,0.64 -0.38,0.67c-0.05,0.04 -0.1,0.18 -0.11,0.31c0,0.13 -0.11,0.37 -0.25,0.53c-1.04,1.22 -1.57,1.98 -2.01,2.88c-0.45,0.91 -0.61,1.44 -0.46,1.44c0.03,0 0.28,-0.47 0.57,-1.04zm11.43,-2.82c0.3,-0.29 0.7,-0.64 0.9,-0.78c0.4,-0.28 0.48,-0.2 0.48,0.47c0,0.24 0.07,0.39 0.19,0.44c0.23,0.09 1.33,-0.46 1.4,-0.7c0.03,-0.1 0.28,-0.3 0.56,-0.45c0.29,-0.14 0.52,-0.3 0.52,-0.34c0,-0.14 0.56,-0.33 0.95,-0.33c0.44,0 0.67,0.3 0.56,0.73c-0.09,0.38 0.22,0.47 0.53,0.17c0.48,-0.47 0.93,-0.78 1.53,-1.05c0.33,-0.15 0.69,-0.37 0.79,-0.48c0.41,-0.46 0.85,-0.71 1.24,-0.71c0.15,0 0.33,-0.08 0.41,-0.17c0.08,-0.09 0.18,-0.16 0.23,-0.16c0.05,0 0.3,-0.2 0.55,-0.45c0.25,-0.25 0.49,-0.43 0.53,-0.4c0.05,0.03 0.18,-0.02 0.29,-0.11c0.12,-0.08 0.17,-0.16 0.12,-0.16c-0.05,0 0.01,-0.11 0.14,-0.25c0.13,-0.14 0.29,-0.38 0.35,-0.53c0.23,-0.53 0.84,-1.55 1.06,-1.76c0.12,-0.12 0.44,-0.5 0.71,-0.84c0.27,-0.34 0.53,-0.62 0.57,-0.62c0.05,0 0.12,-0.15 0.16,-0.34c0.04,-0.18 0.18,-0.41 0.31,-0.5c0.18,-0.13 0.21,-0.19 0.1,-0.3c-0.08,-0.08 -0.13,-0.39 -0.13,-0.72c0,-0.32 -0.05,-0.61 -0.11,-0.65c-0.06,-0.04 -0.08,-0.13 -0.04,-0.19c0.08,-0.12 0.15,-0.61 0.19,-1.31c0.02,-0.21 0.06,-0.46 0.09,-0.55c0.14,-0.37 0.31,-1.1 0.31,-1.32c0,-0.16 -0.09,-0.26 -0.27,-0.3c-0.31,-0.08 -0.51,0.01 -0.51,0.23c0,0.08 -0.15,0.2 -0.32,0.26c-0.18,0.06 -0.49,0.26 -0.68,0.45c-0.35,0.34 -0.8,0.45 -0.94,0.23c-0.04,-0.06 0.1,-0.37 0.32,-0.69c0.56,-0.82 0.68,-0.97 0.83,-0.97c0.07,0 0.17,-0.1 0.23,-0.21c0.06,-0.12 0.33,-0.35 0.6,-0.52c0.57,-0.36 0.56,-0.52 -0.03,-0.42c-0.36,0.07 -0.65,0.25 -1.36,0.86c-0.1,0.08 -0.25,0.15 -0.34,0.16c-0.08,0 -0.29,0.04 -0.44,0.08c-0.47,0.13 -0.6,-0.14 -0.37,-0.73c0.25,-0.63 0.68,-1.42 0.93,-1.7c0.11,-0.12 0.3,-0.43 0.43,-0.68c0.23,-0.47 0.95,-1.15 1.21,-1.15c0.25,0 0.87,-0.47 1.01,-0.76c0.13,-0.26 0.1,-0.31 -0.21,-0.6c-0.3,-0.26 -0.45,-0.31 -1.01,-0.31c-0.37,0 -0.8,0.08 -0.98,0.17c-0.22,0.11 -0.61,0.16 -1.24,0.15c-0.51,-0.01 -1.02,0.03 -1.15,0.1c-0.21,0.11 -0.52,0.18 -1.41,0.33c-0.23,0.03 -0.7,0.01 -1.06,-0.06c-0.54,-0.1 -0.76,-0.1 -1.41,0.07c-0.42,0.11 -0.9,0.29 -1.05,0.39c-0.16,0.11 -0.57,0.28 -0.92,0.37c-0.35,0.1 -0.64,0.22 -0.64,0.28c0,0.05 -0.25,0.1 -0.55,0.1c-0.3,0 -0.58,0.05 -0.62,0.11c-0.04,0.06 -0.19,0.11 -0.34,0.11c-0.15,0 -0.41,0.07 -0.57,0.15c-0.17,0.08 -0.63,0.21 -1.02,0.29c-0.8,0.16 -2.06,0.91 -3.04,1.83c-0.3,0.28 -0.59,0.5 -0.65,0.5c-0.05,0 -0.17,0.18 -0.26,0.39c-0.09,0.22 -0.23,0.42 -0.32,0.45c-0.08,0.03 -0.23,0.18 -0.34,0.34c-0.18,0.27 -0.18,0.28 0.08,0.2c0.14,-0.05 0.38,-0.19 0.54,-0.32c0.75,-0.66 1.48,-0.86 1.86,-0.5c0.23,0.21 0.23,0.24 0.07,0.49c-0.29,0.45 -1.24,1.34 -1.66,1.57c-0.52,0.28 -1.56,1.34 -2.27,2.32c-0.92,1.26 -0.99,1.55 -0.26,0.99c0.57,-0.44 2.14,-2.01 2.14,-2.15c0,-0.06 0.07,-0.11 0.15,-0.11c0.08,0 0.41,-0.13 0.73,-0.29c0.46,-0.23 0.64,-0.27 0.83,-0.18c0.23,0.1 0.39,0.58 0.19,0.58c-0.05,0 -0.3,0.36 -0.57,0.81c-0.26,0.44 -0.57,0.88 -0.7,0.97c-0.12,0.09 -0.39,0.33 -0.6,0.53c-0.21,0.2 -0.41,0.36 -0.44,0.36c-0.08,0 -0.89,0.86 -1.12,1.2c-0.12,0.16 -0.24,0.42 -0.27,0.57c-0.04,0.16 -0.1,0.4 -0.14,0.54c-0.07,0.23 -0.06,0.25 0.13,0.15c0.12,-0.06 0.41,-0.3 0.65,-0.52c0.23,-0.22 0.7,-0.53 1.02,-0.68c0.56,-0.26 0.61,-0.26 0.93,-0.09c0.38,0.2 0.41,0.12 -0.35,1.05c-0.72,0.89 -1.25,1.41 -1.72,1.7c-0.55,0.34 -0.66,0.49 -0.5,0.66c0.09,0.09 0.18,0.08 0.32,-0.05c0.22,-0.19 1.53,-0.76 1.74,-0.76c0.08,0 0.23,0.07 0.34,0.15c0.2,0.14 0.2,0.16 -0.03,0.49c-0.13,0.18 -0.24,0.4 -0.24,0.48c0,0.08 -0.08,0.23 -0.18,0.34c-0.1,0.11 -0.16,0.23 -0.12,0.27c0.12,0.12 0.46,-0.05 0.91,-0.45c0.24,-0.21 0.48,-0.39 0.53,-0.39c0.05,0 0.09,-0.08 0.09,-0.16c0,-0.09 0.08,-0.17 0.17,-0.17c0.1,0 0.92,-0.75 1.84,-1.67c0.92,-0.91 1.71,-1.67 1.76,-1.67c0.05,0 0.23,-0.13 0.41,-0.28c0.57,-0.5 0.61,-0.52 1.11,-0.67c0.54,-0.16 0.77,-0.12 0.93,0.18c0.09,0.16 0.03,0.27 -0.34,0.58c-0.24,0.21 -0.44,0.43 -0.44,0.48c0,0.05 -0.25,0.4 -0.56,0.76c-0.3,0.37 -0.55,0.7 -0.55,0.75c0,0.05 -0.2,0.18 -0.44,0.31c-0.31,0.16 -0.44,0.3 -0.44,0.47c0,0.22 -1.1,1.44 -1.41,1.54c-0.18,0.07 -1.3,1.04 -2.36,2.06c-0.74,0.71 -0.91,0.94 -0.81,1.04c0.1,0.1 0.3,-0.03 0.91,-0.6c0.81,-0.77 1.34,-1.01 2.04,-0.94c0.67,0.06 0.46,0.63 -0.68,1.83c-0.26,0.27 -0.47,0.59 -0.47,0.7c0,0.12 -0.06,0.25 -0.15,0.3c-0.22,0.13 -0.53,0.65 -0.44,0.73c0.16,0.16 0.34,0.06 0.88,-0.46zm15.29,-1.34c0.1,-0.23 0.19,-0.47 0.19,-0.52c0,-0.05 0.12,-0.27 0.27,-0.49c0.22,-0.32 0.29,-0.63 0.4,-1.75c0.08,-0.75 0.18,-1.36 0.23,-1.36c0.05,0 0.1,-0.1 0.1,-0.23c0,-0.13 0.11,-0.28 0.28,-0.35c0.15,-0.07 0.26,-0.18 0.24,-0.24c-0.05,-0.16 -0.63,-0.23 -0.63,-0.08c0,0.06 -0.11,0.22 -0.24,0.34c-0.21,0.2 -0.26,0.4 -0.33,1.49c-0.08,1.16 -0.12,1.34 -0.54,2.21c-0.44,0.93 -0.52,1.2 -0.38,1.34c0.14,0.14 0.22,0.07 0.41,-0.35zm-1.1,-2.04c0.19,-0.28 0.23,-0.6 0.07,-0.7c-0.09,-0.05 -0.56,0.69 -0.56,0.88c0,0.16 0.34,0.03 0.5,-0.18zm12.98,-17.43c-0.03,-0.05 0.02,-0.18 0.11,-0.29c0.15,-0.16 0.47,-0.19 2.42,-0.22c1.24,-0.01 2.29,-0.06 2.33,-0.11c0.11,-0.1 -0.1,-1.59 -0.24,-1.74c-0.34,-0.35 0.18,-0.63 0.63,-0.34c0.16,0.1 0.3,0.16 0.33,0.14c0.11,-0.11 -0.19,-0.64 -0.61,-1.1c-0.25,-0.26 -0.45,-0.55 -0.45,-0.62c0,-0.24 -0.75,-0.71 -1.57,-0.99c-0.44,-0.16 -0.93,-0.4 -1.09,-0.55c-0.16,-0.15 -0.43,-0.3 -0.59,-0.34c-0.16,-0.03 -0.32,-0.13 -0.36,-0.22c-0.03,-0.08 -0.14,-0.15 -0.24,-0.15c-0.1,0 -0.34,-0.07 -0.53,-0.16c-0.95,-0.42 -1.31,-0.5 -2.47,-0.53c-0.67,-0.02 -1.27,0 -1.33,0.05c-0.07,0.04 -0.55,0 -1.08,-0.09c-0.54,-0.09 -1.63,-0.17 -2.49,-0.17c-0.84,0 -1.97,-0.01 -2.51,-0.01c-0.72,-0.01 -1.01,0.03 -1.07,0.14c-0.05,0.08 -0.06,0.19 -0.01,0.23c0.11,0.12 1.89,0.64 2.17,0.65c0.13,0 0.33,0.08 0.44,0.16c0.26,0.2 0.62,0.73 0.62,0.91c0,0.18 -0.92,0.19 -1.23,0.02c-0.12,-0.07 -0.65,-0.16 -1.19,-0.21c-0.53,-0.05 -1.24,-0.17 -1.57,-0.27c-0.78,-0.23 -2.29,-0.24 -2.37,-0.02c-0.03,0.08 -0.27,0.22 -0.53,0.31l-0.47,0.16l0.65,0.47c0.36,0.26 0.93,0.55 1.27,0.64c0.88,0.24 1.13,0.37 1.08,0.52c-0.07,0.21 -2.17,0.15 -2.38,-0.06c-0.13,-0.13 -0.24,-0.13 -0.54,-0.05c-0.35,0.11 -0.37,0.13 -0.2,0.31c0.28,0.3 0.16,0.59 -0.26,0.63c-0.45,0.04 -0.45,0.15 0,0.52l0.36,0.29l-0.31,0.28c-0.2,0.17 -0.44,0.27 -0.68,0.27c-0.35,0 -1.41,0.37 -1.7,0.59c-0.25,0.18 -0.04,0.28 0.39,0.18c0.23,-0.05 0.58,-0.07 0.78,-0.03c0.21,0.04 0.43,0.01 0.52,-0.07c0.24,-0.2 0.88,-0.34 2.06,-0.44c0.58,-0.05 1.2,-0.13 1.37,-0.18c0.18,-0.04 0.57,-0.03 0.89,0.04c0.31,0.07 1.03,0.17 1.6,0.23c0.84,0.09 1.18,0.19 1.83,0.52c1.4,0.72 1.35,0.7 1.85,0.57c0.68,-0.18 0.59,-0.38 -0.36,-0.83c-0.75,-0.36 -0.63,-0.53 0.32,-0.5c0.71,0.03 2.06,0.37 2.32,0.58c0.26,0.22 1.03,0.4 1.28,0.31c0.33,-0.12 0.58,-0.03 1.21,0.41c0.28,0.2 0.68,0.46 0.9,0.58l0.39,0.22l0.18,-0.28c0.1,-0.16 0.16,-0.32 0.13,-0.38zm-22.71,-0.21c0.99,-0.26 1.17,-0.48 0.5,-0.59c-0.72,-0.12 -1.2,0 -1.66,0.43l-0.42,0.39l0.33,0c0.18,0 0.74,-0.11 1.25,-0.24zm30.94,-0.53c0.14,-0.23 -0.64,-1.67 -0.91,-1.67c-0.09,0 -0.14,0.18 -0.14,0.52c0,0.44 0.06,0.59 0.34,0.89c0.34,0.36 0.59,0.45 0.71,0.26z" fill="#ffffff" id="path19398" stroke-width="0.26"/>
 </g>
</svg>