<?xml version="1.0"?>
<svg width="100" height="100" xmlns="http://www.w3.org/2000/svg" xmlns:svg="http://www.w3.org/2000/svg" version="1.1" xml:space="preserve">

 <g class="layer">
  <title>Layer 1</title>
  <path d="m51.98,98.45c-0.67,-0.55 -1.21,-1.04 -2.39,-2.15c-1.59,-1.51 -2.98,-2.7 -3.77,-3.23c-0.26,-0.18 -1.11,-0.82 -1.9,-1.44c-1.84,-1.43 -2.61,-2 -3.54,-2.61c-1.45,-0.95 -1.87,-1.24 -1.96,-1.39c-0.05,-0.08 -0.28,-0.25 -0.51,-0.36c-0.22,-0.11 -0.6,-0.35 -0.83,-0.53c-0.23,-0.17 -0.76,-0.55 -1.17,-0.83c-0.41,-0.28 -1.01,-0.71 -1.33,-0.95c-0.32,-0.24 -1.3,-0.97 -2.18,-1.63c-0.88,-0.66 -2.41,-1.94 -3.4,-2.85c-1.83,-1.68 -3.34,-3.07 -4.61,-4.21c-0.39,-0.35 -1.15,-1.01 -1.7,-1.47c-1.34,-1.12 -2.38,-2.24 -2.31,-2.49c0.12,-0.4 1.35,-3.27 1.64,-3.85c0.17,-0.34 0.31,-0.66 0.31,-0.74c0,-0.07 0.14,-0.34 0.32,-0.61c0.18,-0.27 0.45,-0.7 0.6,-0.97c0.15,-0.26 0.55,-0.9 0.89,-1.42c0.7,-1.06 1.11,-2.28 1.05,-3.11c-0.05,-0.67 -0.22,-1.67 -0.31,-1.82c-0.04,-0.07 -0.11,-0.33 -0.15,-0.58c-0.16,-1.01 -0.22,-1.31 -0.39,-1.88c-0.09,-0.32 -0.22,-0.69 -0.28,-0.82c-0.06,-0.13 -0.21,-0.55 -0.33,-0.94c-0.42,-1.3 -0.61,-1.75 -1.48,-3.51c-0.84,-1.71 -1.42,-2.72 -1.91,-3.35c-0.8,-1.02 -2.14,-4.44 -2.42,-6.14c-0.04,-0.26 -0.12,-0.63 -0.18,-0.82c-0.09,-0.3 -0.3,-1.85 -0.51,-3.81c-0.04,-0.29 -0.1,-1.9 -0.14,-3.57c-0.1,-3.72 -0.09,-3.74 1.29,-8.38c0.09,-0.29 0.22,-0.77 0.3,-1.05c0.08,-0.29 0.2,-0.69 0.28,-0.88c0.07,-0.19 0.12,-0.42 0.09,-0.51c-0.02,-0.08 0.08,-0.47 0.21,-0.85c0.13,-0.38 0.24,-0.81 0.24,-0.95c0,-0.32 0.5,-2.01 0.89,-3c0.16,-0.4 0.26,-0.79 0.22,-0.85c-0.04,-0.06 0.04,-0.25 0.17,-0.42c0.13,-0.17 0.24,-0.4 0.24,-0.52c0,-0.12 0.05,-0.24 0.12,-0.28c0.06,-0.04 0.12,-0.19 0.12,-0.33c0,-0.3 0.25,-0.89 0.38,-0.89c0.04,0 0.12,-0.2 0.16,-0.44c0.04,-0.24 0.18,-0.53 0.3,-0.65c0.12,-0.12 0.22,-0.29 0.22,-0.39c0,-0.43 3.83,-4.73 4.21,-4.73c0.06,0 0.26,-0.12 0.43,-0.28c0.52,-0.47 0.74,-0.65 1.29,-1.07c0.29,-0.23 0.6,-0.47 0.68,-0.56c0.08,-0.08 0.4,-0.28 0.7,-0.44c0.3,-0.16 0.54,-0.35 0.54,-0.43c0,-0.08 0.15,-0.15 0.34,-0.15c0.19,0 0.41,-0.08 0.5,-0.19c0.08,-0.1 0.26,-0.23 0.39,-0.29c0.13,-0.06 0.5,-0.27 0.82,-0.46c0.32,-0.19 0.8,-0.46 1.05,-0.59c0.26,-0.13 0.55,-0.28 0.65,-0.34c0.46,-0.27 1.63,-0.71 1.87,-0.71c0.12,0 0.27,-0.08 0.35,-0.18c0.08,-0.1 0.31,-0.18 0.52,-0.18c0.2,0 0.42,-0.04 0.48,-0.1c0.14,-0.12 1.34,-0.53 2.05,-0.7c1.34,-0.32 1.82,-0.42 1.91,-0.39c0.06,0.02 0.16,-0.02 0.23,-0.07c0.08,-0.06 0.25,-0.11 0.39,-0.12c0.14,0 0.8,-0.12 1.47,-0.25c3.31,-0.64 3.9,-0.73 5.33,-0.83c1.89,-0.13 3.35,-0.05 4.44,0.24c0.71,0.19 1.2,0.22 3.7,0.2c3,-0.02 3.21,0 5.16,0.57c0.55,0.16 1.21,0.35 1.47,0.42c0.26,0.07 0.54,0.19 0.64,0.28c0.1,0.08 0.72,0.42 1.38,0.75c0.66,0.33 1.24,0.68 1.28,0.78c0.04,0.09 0.13,0.17 0.21,0.17c0.08,0 0.22,0.08 0.3,0.19c0.08,0.1 0.59,0.39 1.12,0.64c1.64,0.78 2.96,1.84 3.38,2.75c0.12,0.26 0.26,0.5 0.3,0.53c0.12,0.09 0.36,0.99 0.36,1.37c0,0.19 0.03,0.38 0.07,0.42c0.09,0.09 0.18,0.91 0.17,1.72c0,0.35 0.06,0.71 0.14,0.81c0.18,0.21 0.43,1.91 0.37,2.53c-0.03,0.26 -0.06,0.66 -0.08,0.89c-0.02,0.23 -0.07,0.47 -0.11,0.53c-0.04,0.06 -0.07,0.72 -0.08,1.46c-0.01,1.61 0.18,2.38 1.07,4.22c0.66,1.36 1.02,1.97 1.51,2.55c0.18,0.21 0.33,0.45 0.33,0.52c0,0.08 0.73,0.86 1.63,1.73c1.18,1.16 1.67,1.72 1.77,2.05c0.19,0.58 0.09,1.56 -0.24,2.25c-0.15,0.29 -0.27,0.75 -0.29,1.02c-0.03,0.46 0.24,1.25 0.42,1.25c0.14,0 0.34,0.7 0.34,1.18c0,0.35 -0.07,0.49 -0.34,0.69c-0.19,0.13 -0.39,0.24 -0.47,0.24c-0.07,0 -0.13,0.05 -0.13,0.1c0,0.2 0.62,1.49 0.95,1.98c0.19,0.27 0.37,0.63 0.41,0.78c0.04,0.16 0.19,0.32 0.32,0.37c0.34,0.11 2.81,2.59 3.05,3.06c0.11,0.21 0.19,0.45 0.19,0.55c0,0.1 0.1,0.35 0.23,0.57c0.3,0.51 0.4,2.02 0.15,2.22c-0.1,0.08 -0.14,0.26 -0.11,0.44c0.07,0.35 -0.01,0.52 -0.7,1.44c-0.58,0.78 -0.82,1.01 -1.57,1.39c-0.87,0.44 -1.25,0.79 -1.31,1.17c-0.06,0.42 -0.04,0.44 0.58,0.85c0.46,0.3 0.97,0.86 0.97,1.05c0,0.05 0.08,0.29 0.18,0.53c0.24,0.58 0.25,2.33 0.01,2.87c-0.25,0.55 -0.42,1.12 -0.36,1.18c0.11,0.11 -0.41,1.11 -0.77,1.5c-0.21,0.22 -0.54,0.61 -0.72,0.87c-0.19,0.25 -0.47,0.54 -0.62,0.64c-0.39,0.27 -0.94,0.93 -1.21,1.47c-0.31,0.62 -0.36,1.95 -0.09,2.37c0.11,0.16 0.17,0.39 0.14,0.5c-0.07,0.27 0.32,1.82 0.54,2.17c0.18,0.27 0.29,1.33 0.17,1.54c-0.04,0.06 -0.03,0.21 0.02,0.34c0.18,0.5 -0.35,1.86 -1.13,2.87c-1.09,1.44 -1.89,1.98 -3.51,2.41c-0.76,0.2 -3.17,0.64 -4.09,0.75c-0.84,0.1 -1.52,0.37 -1.68,0.68c-0.06,0.12 -0.34,0.37 -0.6,0.56c-0.65,0.45 -0.98,1.07 -1.29,2.42c-0.21,0.94 -0.23,1.21 -0.12,1.54c0.2,0.62 0.72,1.34 1.67,2.31c0.47,0.49 1,1.07 1.17,1.29c0.17,0.23 0.58,0.7 0.92,1.05c0.34,0.35 0.74,0.88 0.89,1.17c0.15,0.29 0.49,0.76 0.75,1.05c0.26,0.28 0.51,0.63 0.54,0.76c0.04,0.14 0.17,0.35 0.28,0.48c0.11,0.13 0.39,0.59 0.63,1.03c0.23,0.44 0.64,1.08 0.89,1.42c0.25,0.35 0.44,0.65 0.41,0.68c-0.03,0.03 0.39,0.48 0.94,0.99c1.12,1.05 1.21,1.31 0.67,1.83c-0.31,0.3 -1.97,0.97 -3.13,1.26c-0.32,0.08 -0.78,0.2 -1.02,0.27c-0.48,0.14 -0.89,-0.01 -1.54,-0.53c-1.46,-1.2 -2.43,-2.06 -2.68,-2.42c-0.17,-0.24 -0.74,-0.89 -1.95,-2.25c-2.12,-2.36 -2.76,-2.93 -3.59,-3.19c-1.02,-0.31 -3.38,0.13 -3.66,0.7c-0.07,0.15 -0.25,0.4 -0.4,0.55c-0.15,0.16 -0.28,0.44 -0.31,0.64c-0.02,0.19 -0.12,0.5 -0.21,0.68c-0.2,0.39 -0.54,1.88 -0.54,2.36c0,0.19 -0.06,0.38 -0.12,0.43c-0.07,0.04 -0.11,0.3 -0.1,0.57c0.02,0.27 -0.02,0.57 -0.08,0.66c-0.13,0.2 -0.31,0.69 -0.75,1.98c-0.54,1.6 -0.7,2.01 -0.95,2.36c-0.13,0.18 -0.21,0.38 -0.17,0.44c0.09,0.15 -0.82,0.92 -1.33,1.13c-0.65,0.27 -1.07,0.2 -1.66,-0.28z" fill="#ff0000" id="path19414" stroke-width="0.26"/>
  <path d="m56.18,87.53c0.12,-0.9 -0.05,-1.79 -0.47,-2.41c-0.26,-0.38 -0.81,-0.86 -1.79,-1.55c-0.44,-0.31 -1.33,-0.98 -1.52,-1.15c-0.08,-0.06 -0.37,-0.31 -0.66,-0.55c-0.29,-0.23 -0.82,-0.7 -1.17,-1.03c-0.66,-0.61 -1.61,-1.24 -1.72,-1.14c-0.12,0.12 0.2,0.53 0.86,1.08c0.37,0.31 0.77,0.65 0.87,0.75c0.19,0.18 0.69,0.57 1.28,1c0.18,0.13 0.89,0.73 1.59,1.33c0.7,0.6 1.34,1.13 1.42,1.16c0.08,0.03 0.12,0.11 0.08,0.17c-0.04,0.06 0.04,0.23 0.16,0.37c0.42,0.47 0.61,1.14 0.49,1.78c-0.08,0.46 -0.07,0.63 0.08,0.86c0.26,0.39 0.38,0.23 0.5,-0.67zm3.57,-4.36c0.61,-0.33 1.61,-1.69 2.4,-3.27c0.36,-0.73 1.23,-1.87 2.18,-2.87c0.53,-0.56 0.95,-1.3 0.78,-1.4c-0.06,-0.04 -0.43,-0.04 -0.82,0.01c-1.02,0.12 -1.15,-0.03 -0.72,-0.82c0.34,-0.62 0.57,-1.47 0.4,-1.49c-0.05,-0.01 -0.28,-0.04 -0.51,-0.06c-0.51,-0.06 -1.93,-0.73 -2.41,-1.13c-0.43,-0.36 -0.9,-1.28 -0.86,-1.64c0.04,-0.23 0.11,-0.26 0.62,-0.26c0.32,0 0.88,0.09 1.23,0.19c1.97,0.57 3.37,0.7 4.57,0.44c0.91,-0.19 2.59,-0.46 3.69,-0.58c0.58,-0.06 1.37,-0.17 1.76,-0.23c0.39,-0.06 1.13,-0.15 1.64,-0.18c1.83,-0.12 3.12,-0.92 3.29,-2.02c0.1,-0.66 -0.08,-1.46 -0.58,-2.49c-0.36,-0.77 -0.39,-1 -0.3,-2.43c0.06,-0.9 -0.16,-1.05 -0.66,-0.45c-0.43,0.5 -0.43,0.5 -1.97,0.41c-0.37,-0.02 -0.6,0.02 -0.66,0.12c-0.1,0.16 -0.8,0.09 -1.19,-0.12c-0.24,-0.13 -0.83,-1.15 -0.74,-1.29c0.04,-0.06 0.28,-0.23 0.56,-0.39c0.27,-0.16 0.56,-0.44 0.64,-0.63c0.36,-0.82 1.78,-1.24 3.19,-0.94c1.22,0.26 1.19,0.27 1.52,-0.71c0.16,-0.49 0.36,-1 0.44,-1.14c0.08,-0.14 0.14,-0.28 0.14,-0.32c0,-0.16 -0.47,-0.05 -0.98,0.23c-0.31,0.16 -0.61,0.29 -0.68,0.29c-0.07,0 -0.42,-0.14 -0.77,-0.31c-0.61,-0.3 -0.67,-0.31 -1.36,-0.17c-0.4,0.08 -0.77,0.19 -0.82,0.25c-0.06,0.06 -0.29,-0.01 -0.53,-0.16c-1.07,-0.65 -1.6,-0.7 -2.37,-0.21c-0.29,0.18 -0.58,0.35 -0.64,0.38c-0.31,0.14 -0.99,0.61 -0.99,0.69c0,0.05 -0.19,0.13 -0.43,0.17c-0.23,0.04 -0.62,0.18 -0.85,0.31c-0.35,0.19 -0.66,0.23 -1.69,0.23c-1.63,0 -2.13,-0.21 -2.25,-0.93c-0.11,-0.63 0.06,-0.88 1.2,-1.73c0.65,-0.49 0.92,-0.77 0.94,-0.97c0.08,-0.74 0.4,-1.48 0.75,-1.75c0.2,-0.16 0.45,-0.38 0.56,-0.48c0.86,-0.87 1.33,-1.43 1.69,-2c0.43,-0.68 0.5,-0.72 1.3,-0.86c0.25,-0.04 0.74,-0.23 1.08,-0.41c0.35,-0.18 0.8,-0.37 1.01,-0.42c0.21,-0.04 0.44,-0.13 0.52,-0.19c0.08,-0.06 0.2,-0.09 0.29,-0.07c0.15,0.03 0.16,-0.02 0.12,-0.42c-0.01,-0.09 -0.35,-0.31 -0.75,-0.49c-0.4,-0.18 -0.93,-0.46 -1.18,-0.63l-0.46,-0.3l-0.22,0.29c-0.12,0.16 -0.29,0.37 -0.38,0.47c-0.08,0.1 -0.31,0.39 -0.5,0.64c-0.31,0.43 -1.01,1.14 -2.16,2.21c-0.23,0.21 -0.66,0.56 -0.97,0.78c-0.31,0.22 -0.55,0.44 -0.55,0.49c0,0.05 -0.08,0.1 -0.16,0.1c-0.09,0 -0.22,0.08 -0.3,0.17c-0.16,0.2 -1.08,0.36 -1.38,0.24c-0.18,-0.07 -0.16,-0.12 0.16,-0.39c0.2,-0.17 0.43,-0.5 0.51,-0.72c0.08,-0.23 0.22,-0.57 0.3,-0.76c0.09,-0.21 0.13,-0.65 0.1,-1.07c-0.05,-0.81 -0.06,-0.8 1.71,-2.65c0.84,-0.88 0.89,-0.91 1.41,-0.91c0.66,0 0.85,-0.19 1.2,-1.21c0.45,-1.31 1.21,-2.14 2.66,-2.87c0.82,-0.42 1.19,-0.48 1.19,-0.2c0,0.1 -0.26,0.66 -0.57,1.26c-0.31,0.59 -0.61,1.28 -0.65,1.52c-0.07,0.41 -0.04,0.47 0.45,0.97c0.29,0.29 0.59,0.53 0.67,0.53c0.08,0 0.39,-0.16 0.69,-0.35c0.77,-0.49 1.32,-0.53 3.11,-0.19c1.44,0.27 1.54,0.31 1.9,0.71c0.21,0.23 0.39,0.52 0.39,0.66c0,0.32 0.31,0.43 0.56,0.2c0.17,-0.15 0.29,-0.16 0.77,-0.05l0.57,0.13l0.7,-0.76c0.85,-0.91 0.87,-0.95 0.97,-1.7c0.15,-1.1 -0.59,-2.71 -1.55,-3.37c-1,-0.69 -3.55,-3.68 -3.55,-4.16c0,-0.06 -0.11,-0.23 -0.24,-0.39c-0.14,-0.16 -0.37,-0.49 -0.52,-0.75c-0.15,-0.26 -0.52,-0.67 -0.82,-0.92c-0.3,-0.25 -0.7,-0.71 -0.89,-1.02c-0.19,-0.31 -0.39,-0.58 -0.45,-0.58c-0.05,0 -0.47,-0.29 -0.93,-0.64c-0.46,-0.35 -0.88,-0.65 -0.93,-0.65c-0.23,0 -0.93,0.43 -1.39,0.84c-0.27,0.25 -0.59,0.46 -0.7,0.47c-0.55,0.05 -0.82,0.09 -1.21,0.18c-0.39,0.1 -0.41,0.12 -0.41,0.61c0,0.48 0.03,0.53 0.58,0.89c0.32,0.21 0.74,0.52 0.93,0.7c0.33,0.31 0.34,0.32 0.12,0.48c-0.13,0.09 -0.35,0.27 -0.51,0.4c-0.26,0.23 -0.27,0.25 -0.07,0.47c0.2,0.22 0.19,0.24 -0.02,0.4c-0.12,0.1 -0.31,0.2 -0.41,0.23c-0.25,0.09 -0.39,0.41 -0.68,1.52c-0.35,1.32 -0.52,1.38 -1.93,0.66c-0.5,-0.25 -1.18,-0.52 -1.52,-0.6c-1.09,-0.25 -1.54,-0.4 -1.58,-0.54c-0.08,-0.26 1.04,-0.56 2.17,-0.58c0.6,-0.01 1.13,-0.07 1.19,-0.12c0.06,-0.06 0.05,-0.23 0,-0.39c-0.09,-0.25 -0.16,-0.27 -0.66,-0.2c-0.95,0.12 -1.45,0.07 -1.94,-0.18c-0.26,-0.13 -0.74,-0.31 -1.06,-0.39c-0.55,-0.15 -0.62,-0.14 -1.13,0.15c-0.3,0.16 -0.74,0.51 -0.98,0.76c-0.35,0.36 -0.51,0.45 -0.7,0.39c-0.14,-0.04 -0.58,-0.12 -0.96,-0.19c-0.88,-0.14 -1.31,-0.31 -1.4,-0.54c-0.11,-0.27 0.12,-0.47 0.66,-0.55c0.95,-0.16 1.55,-0.42 1.79,-0.79c0.12,-0.19 0.53,-0.51 0.89,-0.69c0.37,-0.19 0.9,-0.54 1.2,-0.78c1.26,-1.05 1.63,-1.2 3.01,-1.21c0.98,0 1.01,-0.01 1.2,-0.34c0.11,-0.19 0.2,-0.43 0.2,-0.53c0,-0.49 -2.37,-0.97 -3.19,-0.65c-0.21,0.08 -0.52,0.27 -0.68,0.41c-0.35,0.3 -1.3,0.58 -1.9,0.54c-0.23,-0.01 -0.47,0.04 -0.51,0.1c-0.04,0.07 -0.3,0.23 -0.56,0.37c-0.27,0.14 -0.53,0.31 -0.58,0.39c-0.04,0.08 -0.28,0.28 -0.53,0.44c-0.5,0.34 -1.93,0.57 -2.08,0.34c-0.08,-0.12 0.66,-0.95 0.84,-0.95c0.05,0 0.18,-0.1 0.28,-0.22c0.11,-0.12 0.28,-0.27 0.4,-0.34c0.13,-0.07 0.18,-0.19 0.13,-0.31c-0.07,-0.18 -0.09,-0.18 -0.26,-0.01c-0.1,0.1 -0.27,0.19 -0.37,0.19c-0.1,0 -0.27,0.08 -0.38,0.17c-0.29,0.27 -1.08,0.35 -1.35,0.14c-0.23,-0.17 -0.23,-0.18 -0.01,-0.42c0.12,-0.13 0.49,-0.42 0.82,-0.62c0.74,-0.47 0.86,-0.62 0.95,-1.17c0.07,-0.41 0.6,-1.03 0.89,-1.03c0.12,0 0.84,-0.48 0.9,-0.6c0.09,-0.19 0.7,-0.79 0.93,-0.91c0.14,-0.08 0.42,-0.13 0.62,-0.13c0.2,0 0.76,-0.16 1.24,-0.36c0.66,-0.27 0.95,-0.34 1.19,-0.27c0.18,0.05 0.43,0.11 0.55,0.12c0.86,0.12 1.36,0.27 1.69,0.51c0.58,0.41 3.52,1.88 3.77,1.88c0.12,0 0.33,-0.18 0.47,-0.41c0.3,-0.48 0.71,-0.54 1.03,-0.16c0.37,0.44 1.28,1.05 1.58,1.05c0.31,0 0.55,-0.23 0.77,-0.73c0.17,-0.4 0.39,-0.41 1.12,-0.04c0.55,0.27 0.58,0.28 0.96,0.08c0.72,-0.36 0.57,-1.1 -0.43,-2.21c-0.38,-0.41 -0.68,-0.82 -0.68,-0.9c0,-0.08 -0.25,-0.47 -0.56,-0.86c-0.51,-0.63 -1.31,-2.08 -1.31,-2.36c0,-0.06 -0.08,-0.18 -0.18,-0.26c-0.16,-0.13 -0.89,-1.58 -1.7,-3.34c-0.38,-0.83 -0.54,-0.97 -1.15,-1.06c-0.3,-0.04 -0.72,-0.2 -0.93,-0.36c-0.21,-0.16 -0.53,-0.31 -0.7,-0.35c-0.18,-0.03 -0.61,-0.16 -0.97,-0.28c-0.88,-0.31 -2.08,-0.48 -2.35,-0.34c-0.42,0.23 -0.88,0.12 -1.53,-0.35c-0.64,-0.46 -0.82,-0.48 -0.95,-0.1c-0.11,0.28 -0.72,0.27 -1.21,-0.04c-0.46,-0.28 -0.55,-0.18 -0.39,0.41c0.07,0.24 0.09,0.47 0.05,0.51c-0.08,0.08 -0.66,-0.1 -1.59,-0.5l-0.65,-0.28l-0.84,0.25l-0.84,0.25l-0.74,-0.32c-0.41,-0.18 -0.93,-0.42 -1.17,-0.54c-0.42,-0.23 -0.43,-0.23 -0.72,0.01c-0.23,0.18 -0.48,0.23 -1.16,0.23c-0.47,0 -0.97,0.07 -1.11,0.15c-1.12,0.65 -1.03,0.63 -2.13,0.48c-0.56,-0.08 -1.18,-0.19 -1.37,-0.24c-0.27,-0.08 -0.5,-0.04 -1,0.16l-0.65,0.27l0,0.61l0,0.61l0.53,0.19c0.83,0.29 0.85,0.31 0.79,1.03c-0.05,0.63 -0.05,0.64 0.38,0.86c0.64,0.33 0.68,0.43 0.58,1.41c-0.05,0.48 -0.06,0.95 -0.03,1.03c0.03,0.08 -0.07,0.3 -0.22,0.47c-0.5,0.55 -0.82,1.08 -0.67,1.08c0.08,0 0.3,-0.05 0.5,-0.11c1.01,-0.3 1.23,-0.33 1.43,-0.19c0.19,0.13 0.19,0.18 -0.06,0.72c-0.14,0.31 -0.31,0.66 -0.37,0.78c-0.06,0.11 -0.12,0.35 -0.12,0.53c-0.01,0.63 -0.29,0.92 -1.45,1.49c-0.52,0.26 -1.47,1.09 -1.47,1.29c0,0.07 -0.17,0.39 -0.38,0.71c-0.53,0.81 -0.78,1.67 -0.84,2.92c-0.02,0.4 -0.15,0.96 -0.31,1.32l-0.27,0.61l0.37,0.43c0.47,0.54 0.42,0.89 -0.27,1.81c-0.54,0.72 -0.97,1.53 -1.07,2.01c-0.09,0.47 -0.63,1.05 -0.93,1.01c-0.22,-0.03 -0.24,-0.1 -0.21,-0.56c0.02,-0.29 0.14,-0.72 0.26,-0.96c0.25,-0.49 0.29,-0.92 0.09,-0.92c-0.23,0 -0.85,0.44 -1.16,0.82c-0.39,0.47 -0.89,0.47 -1.72,0.01c-0.65,-0.37 -0.98,-0.44 -0.98,-0.23c0,0.2 0.62,1 0.93,1.22c0.37,0.25 1.06,1.14 1.06,1.36c0,0.23 -1.21,1.4 -1.45,1.4c-0.11,0 -0.29,0.05 -0.4,0.11c-0.53,0.27 -1.3,0.6 -1.39,0.6c-0.19,0 -0.62,0.55 -0.86,1.07c-0.38,0.83 -0.29,1.09 0.25,0.79c0.32,-0.17 0.73,-0.05 0.9,0.27c0.08,0.15 0.24,0.43 0.37,0.62c0.38,0.58 0.39,0.62 0.07,1c-0.39,0.46 -0.39,0.51 0.05,0.97c0.43,0.46 0.66,1.19 0.46,1.44c-0.18,0.22 -0.67,0.21 -1.21,-0.01c-0.48,-0.2 -1.72,-0.36 -2,-0.25c-0.16,0.06 -0.14,0.14 0.16,0.55c0.19,0.26 0.49,0.59 0.67,0.74c0.18,0.14 0.42,0.36 0.53,0.49c0.27,0.32 0.84,1.51 1.09,2.28c0.27,0.82 1.17,1.77 1.97,2.06c0.52,0.19 0.59,0.19 0.95,0.02c0.41,-0.19 0.77,-0.76 0.77,-1.2c0,-0.31 0.26,-0.55 0.5,-0.47c0.09,0.04 0.29,0.41 0.44,0.83c0.22,0.63 0.26,0.89 0.19,1.52c-0.09,0.91 -0.27,1.15 -1.13,1.53c-0.73,0.33 -1.19,0.31 -2.4,-0.1c-0.73,-0.25 -1.21,-0.59 -2.26,-1.6c-0.72,-0.7 -1.13,-0.93 -2.52,-1.4c-0.55,-0.19 -1.12,-0.41 -1.27,-0.49c-0.51,-0.27 -1.29,-0.96 -1.4,-1.24c-0.2,-0.53 -0.43,-0.33 -0.53,0.45c-0.04,0.4 -0.16,0.96 -0.25,1.24c-0.19,0.57 -1.21,2.11 -2.02,3.07c-0.92,1.08 -1.3,1.76 -1.3,2.3c0,0.27 0.07,0.56 0.15,0.66c0.29,0.35 1.33,1.13 1.85,1.39c0.29,0.15 0.99,0.58 1.56,0.96c0.56,0.38 1.62,0.99 2.34,1.36c0.72,0.36 1.54,0.81 1.81,0.99c0.27,0.18 0.54,0.33 0.6,0.33c0.06,0 0.31,0.16 0.56,0.36c0.85,0.67 1.04,0.82 1.98,1.48c0.52,0.36 1.06,0.73 1.22,0.81c0.16,0.08 0.95,0.6 1.76,1.16c0.82,0.55 1.89,1.26 2.38,1.56c1.37,0.84 2.89,1.93 3.76,2.68c0.43,0.38 1.21,1.05 1.74,1.5c0.53,0.45 2.18,2.02 3.67,3.48c4.15,4.08 4.27,4.17 5.33,4.19c0.28,0 0.62,-0.05 0.76,-0.12zm-13.51,-5.02c0.08,-0.16 0.09,-0.31 0,-0.46c-0.15,-0.28 -0.92,-0.89 -1.26,-1c-0.23,-0.08 -0.27,-0.04 -0.27,0.27c0,0.25 0.09,0.42 0.31,0.57c0.17,0.12 0.45,0.35 0.61,0.53c0.36,0.39 0.44,0.39 0.6,0.09zm-5.63,-4.78c-0.73,-0.7 -1.4,-1.31 -1.51,-1.37c-0.1,-0.06 -0.4,-0.28 -0.66,-0.5c-0.62,-0.53 -0.58,-0.5 -1.65,-1.2c-1.13,-0.75 -1.71,-1.02 -2.4,-1.13l-0.53,-0.08l0.35,0.37c0.19,0.2 0.59,0.63 0.89,0.95c0.29,0.31 0.57,0.58 0.61,0.58c0.04,0 0.43,0.27 0.87,0.6c0.44,0.33 0.97,0.68 1.17,0.78c0.21,0.1 0.38,0.23 0.38,0.28c0,0.05 0.16,0.17 0.36,0.27c0.2,0.1 0.45,0.28 0.57,0.4c0.66,0.65 1.87,1.26 2.58,1.29c0.22,0.01 0.02,-0.24 -1.04,-1.25zm37.72,-18.01c0.73,-0.47 0.9,-0.73 0.89,-1.37c0,-0.31 -0.04,-0.6 -0.07,-0.63c-0.15,-0.15 -0.41,0.1 -0.56,0.5c-0.09,0.24 -0.3,0.65 -0.47,0.91c-0.61,0.91 -0.55,1.08 0.21,0.6zm-3.89,-0.8c0.52,-0.35 0.64,-0.59 0.66,-1.28c0.01,-0.58 -0.13,-0.9 -0.34,-0.78c-0.05,0.04 -0.23,0.32 -0.38,0.63c-0.15,0.31 -0.43,0.78 -0.61,1.05c-0.18,0.27 -0.33,0.52 -0.33,0.56c0,0.16 0.67,0.04 1.01,-0.19zm-37.82,-0.78c0,-0.25 -0.27,-0.54 -1.2,-1.31c-0.7,-0.57 -1.05,-1.09 -1.25,-1.82c-0.07,-0.26 -0.38,-0.88 -0.69,-1.39c-1.21,-1.99 -1.36,-2.26 -1.57,-2.86c-0.12,-0.34 -0.21,-0.74 -0.21,-0.88c0.01,-0.15 0.03,-0.95 0.04,-1.79c0.04,-1.89 0.16,-2.23 1.04,-2.71c1.35,-0.74 1.95,-0.8 2.87,-0.27c0.34,0.19 0.62,0.39 0.62,0.44c0,0.2 0.91,0.58 1.56,0.65c0.84,0.09 0.93,-0.05 0.55,-0.87c-0.32,-0.69 -0.43,-0.79 -1.34,-1.28c-0.39,-0.21 -0.97,-0.53 -1.29,-0.71c-0.8,-0.46 -1.23,-0.44 -2.27,0.09c-1.01,0.52 -1.78,1.21 -1.97,1.79c-0.08,0.23 -0.22,0.65 -0.33,0.94c-0.16,0.41 -0.19,0.93 -0.19,2.4c0,1.09 0.06,1.92 0.13,1.98c0.06,0.07 0.12,0.28 0.12,0.49c0,0.24 0.16,0.59 0.47,1.02c0.26,0.36 0.47,0.71 0.47,0.78c0,0.07 0.07,0.16 0.16,0.21c0.19,0.11 0.78,1.24 0.78,1.49c0,0.09 0.05,0.19 0.12,0.21c0.07,0.02 0.15,0.16 0.17,0.31c0.03,0.16 0.28,0.57 0.56,0.93c0.27,0.36 0.58,0.78 0.68,0.92c0.17,0.27 1.73,1.44 1.9,1.44c0.05,0 0.09,-0.1 0.09,-0.22zm40.03,-0.13c0.12,-0.12 0.27,-0.22 0.34,-0.2c0.08,0.01 0.15,-0.21 0.17,-0.59c0.03,-0.48 0,-0.62 -0.14,-0.62c-0.23,0 -0.29,0.11 -0.54,0.95c-0.22,0.72 -0.17,0.85 0.18,0.46zm0.65,-5.14c0,-0.12 -0.17,-0.37 -0.38,-0.57c-0.31,-0.3 -0.51,-0.38 -1.14,-0.44c-0.67,-0.07 -0.79,-0.05 -1.03,0.17c-0.15,0.14 -0.24,0.29 -0.21,0.34c0.06,0.1 0.56,0.24 1.83,0.52c0.99,0.22 0.93,0.22 0.93,-0.02zm-41.61,-4.53c0,-0.93 -0.74,-1.39 -1.36,-0.84l-0.34,0.3l0.53,0.47c0.54,0.49 0.93,0.71 1.09,0.62c0.05,-0.03 0.09,-0.28 0.09,-0.56zm30.1,-7.92c0.08,-0.13 0.22,-0.23 0.31,-0.23c0.23,0 0.32,-0.31 0.14,-0.47c-0.08,-0.07 -0.56,-0.15 -1.05,-0.18c-0.71,-0.04 -0.91,-0.01 -0.97,0.12c-0.04,0.09 -0.13,0.17 -0.22,0.17c-0.2,0 -0.53,0.32 -0.53,0.53c0,0.12 0.21,0.17 0.74,0.2c0.4,0.02 0.89,0.05 1.09,0.06c0.24,0.02 0.4,-0.05 0.5,-0.21zm-22.42,-2.29c0.36,-0.77 0.72,-1.52 0.79,-1.66c0.25,-0.51 -0.03,-0.42 -0.62,0.18c-0.35,0.36 -0.74,0.93 -0.97,1.43c-0.35,0.76 -0.38,0.88 -0.27,1.35c0.15,0.64 0.16,0.62 1.06,-1.29zm33.33,-0.25c0.02,-0.14 -0.02,-0.47 -0.09,-0.73c-0.14,-0.51 -0.36,-0.61 -0.83,-0.36c-0.31,0.16 -0.29,0.27 0.16,0.88c0.4,0.55 0.71,0.63 0.77,0.21zm-35.66,0.02c0.04,-0.1 0.13,-0.18 0.2,-0.18c0.07,0 0.29,-0.24 0.48,-0.54c0.19,-0.29 0.45,-0.58 0.56,-0.64c0.12,-0.06 0.2,-0.17 0.2,-0.24c0,-0.07 0.19,-0.33 0.41,-0.58c0.86,-0.96 0.23,-1.14 -0.74,-0.21c-0.57,0.54 -1.12,1.48 -1.36,2.31c-0.08,0.29 0.14,0.37 0.25,0.09zm-4.82,-0.68c0.55,-0.61 1.46,-1.92 1.46,-2.1c0,-0.3 -0.89,0.23 -1.56,0.93c-0.43,0.45 -0.67,1 -0.67,1.53c0,0.39 0.16,0.32 0.77,-0.35zm-4.84,-2.48c0.79,-0.81 1.08,-1.24 0.85,-1.24c-0.11,0 -1.05,0.5 -1.11,0.58c-0.03,0.05 -0.18,0.15 -0.32,0.23c-0.15,0.08 -0.26,0.19 -0.26,0.25c0,0.06 -0.14,0.27 -0.3,0.45c-0.39,0.44 -0.7,1.02 -0.81,1.53l-0.09,0.41l0.57,-0.64c0.31,-0.35 0.98,-1.06 1.48,-1.58zm4.14,-0.52c1.02,-0.91 1.75,-1.78 1.5,-1.78c-0.18,0 -1.19,0.65 -1.75,1.13c-0.63,0.54 -1.36,1.68 -1.07,1.68c0.09,0 0.68,-0.47 1.32,-1.04zm6.2,-1.42c0.04,-0.06 0.37,-0.28 0.73,-0.49c0.36,-0.21 0.75,-0.45 0.85,-0.54c0.1,-0.09 0.54,-0.45 0.98,-0.82c0.43,-0.36 0.79,-0.73 0.79,-0.82c0,-0.31 -0.38,-0.31 -1.01,0.01c-0.71,0.36 -2.92,2.44 -2.8,2.64c0.09,0.15 0.38,0.16 0.47,0.01zm-10.31,-2.12c0.04,-0.13 0.14,-0.23 0.23,-0.23c0.08,0 0.22,-0.08 0.31,-0.19c0.09,-0.1 0.46,-0.39 0.83,-0.64c0.37,-0.25 0.91,-0.71 1.2,-1.01c0.44,-0.47 0.49,-0.57 0.33,-0.63c-0.28,-0.1 -0.93,0.28 -1.89,1.13c-0.78,0.68 -1.41,1.45 -1.41,1.7c0,0.21 0.34,0.11 0.41,-0.12zm-4.2,-1.78c0.19,-0.17 0.61,-0.51 0.93,-0.75c0.31,-0.24 0.6,-0.47 0.63,-0.52c0.09,-0.13 1.95,-1.19 2.81,-1.6c1.15,-0.54 2.67,-0.99 3.44,-1.01c0.66,-0.02 0.7,0 0.89,0.33c0.29,0.51 0.54,0.48 3.7,-0.43c0.94,-0.27 0.87,-0.44 -0.25,-0.54c-1.59,-0.16 -4.01,-0.08 -6.02,0.19c-0.68,0.09 -2.62,0.98 -3.7,1.7c-2.07,1.37 -3.31,2.4 -3.63,3.01c-0.12,0.23 -0.34,0.56 -0.49,0.74c-0.15,0.18 -0.27,0.44 -0.27,0.57c0,0.19 0.18,0.06 0.8,-0.57c0.44,-0.44 0.96,-0.94 1.16,-1.12zm11.05,1c0.29,-0.17 0.56,-0.35 0.6,-0.4c0.14,-0.21 1.64,-1.17 2.37,-1.52c0.43,-0.21 0.79,-0.42 0.79,-0.47c0,-0.38 -2.18,0.43 -2.87,1.06c-0.13,0.12 -0.4,0.3 -0.6,0.4c-0.2,0.1 -0.45,0.32 -0.56,0.48c-0.11,0.16 -0.27,0.3 -0.37,0.3c-0.1,0 -0.17,0.11 -0.17,0.23c0,0.31 0.16,0.29 0.81,-0.08zm4.64,-0.74c0.46,-0.17 1.58,-1.4 1.58,-1.72c0,-0.35 -0.04,-0.34 -0.67,0.12c-0.64,0.46 -0.96,0.75 -1.23,1.17c-0.35,0.54 -0.26,0.66 0.32,0.43zm-12.55,-5.73c1.43,-0.69 2.23,-1.01 3.59,-1.47c1.04,-0.35 1.46,-0.42 2.58,-0.47c1.4,-0.06 2.19,-0.16 2.39,-0.31c0.07,-0.04 0.42,-0.15 0.79,-0.23c0.37,-0.08 0.67,-0.18 0.67,-0.23c0,-0.09 -0.51,-0.23 -1.11,-0.31c-0.46,-0.06 -2.59,-0.07 -3.05,-0.02c-1.97,0.23 -4.39,0.72 -4.25,0.86c0.04,0.04 0.54,0.12 0.93,0.16c0.05,0 0.09,0.08 0.09,0.17c0,0.09 -0.38,0.3 -0.85,0.48c-0.47,0.18 -1.17,0.47 -1.56,0.66c-0.4,0.19 -0.78,0.34 -0.86,0.34c-0.32,0 -1.21,0.68 -1.11,0.85c0.11,0.18 0.71,0.01 1.74,-0.48zm30.94,-4.32c-0.46,-0.78 -0.85,-1.17 -1.95,-1.97c-0.98,-0.71 -2.44,-2.08 -2.67,-2.51c-0.17,-0.32 0.09,-0.45 1.05,-0.49c0.78,-0.03 1.29,0.07 1.29,0.25c0,0.05 0.12,0.14 0.27,0.18c0.14,0.05 0.47,0.31 0.71,0.6c0.24,0.28 0.52,0.51 0.62,0.51c0.27,0 1.05,0.43 1.47,0.82c0.42,0.38 0.81,0.47 0.81,0.18c0,-0.1 0.1,-0.24 0.23,-0.32c0.22,-0.13 0.22,-0.16 0.04,-0.46c-0.1,-0.17 -0.4,-0.41 -0.66,-0.53c-0.27,-0.12 -0.67,-0.39 -0.89,-0.62c-0.23,-0.23 -0.61,-0.56 -0.84,-0.74c-0.23,-0.18 -0.49,-0.39 -0.58,-0.47c-0.81,-0.82 -1.77,-1.16 -2.45,-0.88c-0.46,0.19 -2.21,0.17 -2.72,-0.02c-0.18,-0.07 -0.6,-0.12 -0.93,-0.12c-0.61,0 -1.22,-0.17 -2.14,-0.59c-0.52,-0.24 -1.33,-0.31 -1.33,-0.12c0,0.11 0.39,0.37 2.03,1.4c0.37,0.23 1.01,0.66 1.4,0.94c0.4,0.29 1.1,0.76 1.56,1.05c0.78,0.5 2.1,1.4 3.33,2.26c0.29,0.21 1,0.86 1.58,1.44c1.09,1.11 1.38,1.18 0.81,0.2zm-31.09,0.47c0.21,-0.18 0.74,-0.51 1.17,-0.73c0.44,-0.23 0.79,-0.45 0.79,-0.5c0,-0.05 0.07,-0.09 0.16,-0.09c0.08,0 0.36,-0.1 0.62,-0.21c0.25,-0.12 0.59,-0.27 0.75,-0.35c0.23,-0.1 0.25,-0.13 0.08,-0.14c-0.34,-0.01 -2.12,0.44 -2.68,0.68c-0.6,0.26 -1.38,0.99 -1.38,1.3c0,0.12 -0.06,0.24 -0.15,0.28c-0.09,0.04 -0.07,0.06 0.06,0.07c0.11,0 0.37,-0.14 0.58,-0.31zm20.04,-1.56c-0.29,-0.27 -2.38,-1.29 -2.62,-1.28c-0.23,0.01 -0.71,0.66 -0.66,0.9c0.03,0.17 0.3,0.23 1.56,0.39c2.15,0.27 2.03,0.27 1.72,-0.02zm5.02,-0.43c0,-0.15 -0.82,-0.65 -2.64,-1.61c-1.4,-0.74 -2.53,-1.4 -3.48,-2.01c-0.43,-0.28 -0.84,-0.51 -0.91,-0.51c-0.07,0 -0.38,-0.12 -0.68,-0.27c-0.99,-0.5 -3.31,-0.69 -3.98,-0.33c-0.14,0.08 -0.36,0.13 -0.5,0.13c-0.39,0 -1.52,0.35 -1.52,0.48c0,0.06 0.23,0.11 0.52,0.11c0.29,0 0.55,0.04 0.58,0.1c0.04,0.05 0.66,0.14 1.38,0.18c1.87,0.12 2.36,0.2 3.61,0.61c0.78,0.26 2.31,0.98 3.69,1.75c1.35,0.75 1.53,0.84 2.12,1.03c0.49,0.16 1.26,0.34 1.72,0.41c0.05,0 0.09,-0.03 0.09,-0.08zm15.4,-0.09c-0.04,-0.1 -0.01,-0.18 0.06,-0.18c0.09,0 0.09,-0.09 0.01,-0.31c-0.09,-0.23 -0.08,-0.34 0.03,-0.41c0.12,-0.07 0.12,-0.09 0,-0.1c-0.08,0 -0.15,-0.11 -0.15,-0.24c0,-0.32 -0.5,-1.29 -0.81,-1.57c-0.14,-0.12 -0.25,-0.28 -0.25,-0.35c0,-0.33 -2.58,-2.71 -3.66,-3.38c-0.44,-0.27 -0.86,-0.28 -0.47,-0.01c0.15,0.1 0.44,0.34 0.65,0.52c0.21,0.18 0.47,0.36 0.58,0.4c0.12,0.04 0.21,0.12 0.21,0.18c0,0.06 0.06,0.11 0.13,0.11c0.07,0 0.49,0.38 0.94,0.85c0.45,0.47 0.97,1.01 1.16,1.21c0.19,0.2 0.35,0.43 0.35,0.53c0,0.1 0.14,0.41 0.3,0.7c0.16,0.29 0.37,0.79 0.46,1.12c0.29,1.03 0.32,1.12 0.42,1.12c0.05,0 0.07,-0.08 0.03,-0.18zm-4.26,-0.1c0,-0.27 -0.43,-1.13 -0.78,-1.55c-0.35,-0.43 -0.44,-0.65 -0.51,-1.25c-0.09,-0.87 -0.13,-0.94 -0.89,-1.62c-0.69,-0.62 -1.51,-1.08 -2.53,-1.4c-0.41,-0.13 -1.01,-0.45 -1.38,-0.73c-1.08,-0.84 -1.83,-1.33 -2.35,-1.53c-1.03,-0.41 -1.13,-0.15 -0.16,0.41c0.37,0.21 0.98,0.6 1.36,0.86c0.38,0.26 0.86,0.59 1.07,0.73c0.21,0.14 0.74,0.6 1.19,1.02c0.44,0.43 0.84,0.77 0.88,0.77c0.04,0 0.49,0.39 1,0.88c0.51,0.48 0.96,0.88 1.01,0.88c0.04,0 0.16,0.15 0.26,0.32c0.09,0.18 0.3,0.47 0.46,0.66c0.16,0.18 0.49,0.62 0.73,0.97c0.37,0.53 0.63,0.78 0.63,0.59zm-28.6,-0.25c1.13,-0.04 2.24,-0.09 2.46,-0.14c0.23,-0.04 0.45,-0.07 0.5,-0.06c0.05,0.01 0.09,-0.01 0.09,-0.04c0,-0.12 -1.09,-0.53 -1.91,-0.71c-0.76,-0.17 -0.88,-0.17 -1.66,0.01c-0.46,0.11 -1.15,0.33 -1.53,0.48c-0.38,0.15 -0.75,0.28 -0.82,0.28c-0.07,0 -0.23,0.08 -0.36,0.18c-0.22,0.17 -0.18,0.18 0.47,0.12c0.39,-0.04 1.63,-0.1 2.76,-0.13zm30.47,-1.42c-0.24,-0.47 -0.58,-0.7 -0.58,-0.39c0,0.19 0.48,1.1 0.63,1.2c0.24,0.16 0.22,-0.28 -0.05,-0.8zm-37.67,0.43c0.61,-0.25 2.78,-0.7 3.34,-0.7c0.36,0 0.46,-0.16 0.15,-0.28c-0.39,-0.15 -2.18,-0.08 -2.61,0.11c-0.89,0.38 -1.39,0.68 -1.52,0.89c-0.17,0.28 -0.07,0.27 0.64,-0.01z" fill="#ffffff" id="path19416" stroke-width="0.26"/>
 </g>
</svg>