<?xml version="1.0"?>
<svg width="250" height="250" xmlns="http://www.w3.org/2000/svg" xmlns:svg="http://www.w3.org/2000/svg" version="1.0">

 <metadata id="metadata7">image/svg+xml2008-01-22Julio GarayMarx Engels Lenin</metadata>
 <g class="layer">
  <title>Layer 1</title>
  <g id="svg_1">
   <g id="g45759">
    <path d="m149.46,1.54c-1.38,0 -2.64,0.74 -3.26,1.38c-0.6,0.61 -0.82,1.1 -0.97,1.47c-0.65,-0.12 -1.21,-0.25 -2.1,-0.39c-1.47,-0.23 -3.23,-0.48 -4.96,-0.68c-3.34,-0.42 -7.02,-0.88 -8.02,-1.02c-1.77,-0.24 -5.15,-0.43 -8.71,-0.57c-3,-0.14 -4.76,-0.22 -6.51,-0.04c-1.76,0.17 -3.26,0.67 -4.82,1.28c-2.17,0.83 -5.72,1.48 -14.18,2.24c-7.67,0.68 -12.42,2.14 -20.45,6.23c-8.89,4.53 -11.94,5.85 -15.51,6.82c-2.09,0.57 -4.64,1.75 -6.23,3.89c-1.59,2.14 -2.37,4.46 -3.63,8.14c-2.32,6.7 -3.59,9.12 -5.53,11.32c-3.12,3.54 -6.91,8.85 -9.9,13.78c-1.56,2.58 -2.73,5.09 -3.26,8.01c-0.52,2.93 -0.48,6.03 -0.25,10.47c0.09,1.69 0.1,3.01 0.07,3.85c-0.04,0.83 -0.5,1.46 0.19,0.17c-0.73,1.37 -0.75,1.79 -1.19,3.06c-0.43,1.26 -0.92,2.81 -1.41,4.4c-2.09,6.9 -2.72,12.71 -1.25,17.85c1.1,3.84 2.17,7.46 3.04,10.3c0.87,2.85 1.37,4.54 1.95,5.92c0.57,1.36 1.12,2.02 1.88,3.09c0.76,1.06 1.66,2.25 2.59,3.39c0.92,1.15 1.85,2.26 2.69,3.18c0.42,0.47 0.81,0.88 1.21,1.26c0.4,0.39 0.59,0.69 1.64,1.26c1.54,0.83 2.46,0.98 3.81,1.22c-0.16,-0.03 1.33,0.51 2.59,1.37c1.27,0.86 2.56,2.03 3.14,2.73c1.38,1.7 3.02,4.06 4.34,6.15c1.33,2.09 2.4,4.35 2.38,4.26c0.94,2.94 1.85,6.21 2.48,8.8c0.31,1.3 0.55,2.43 0.7,3.22c0.05,0.32 0.08,0.52 0.1,0.69c-0.13,0.68 -0.52,2.58 -0.93,4.45c-0.8,3.67 -0.77,5.83 0.21,9.96c0.49,2.1 0.88,5.34 0.88,5.09c0,0.98 0.05,1.79 0.29,2.73c0.12,0.47 0.25,0.97 0.71,1.7c0.17,0.27 0.56,0.65 0.95,1.01c-0.15,1.06 -0.19,2.11 -0.4,3.06c-0.27,1.26 -0.52,2.49 -0.7,3.49c-0.1,0.5 -0.18,0.95 -0.24,1.35c-0.06,0.39 -0.13,0.48 -0.13,1.33c0,3.04 1.27,3.27 1.76,3.72c0.49,0.45 0.91,0.71 1.37,1.01c0.92,0.58 1.97,1.14 3.18,1.73c2.41,1.18 5.39,2.43 8.22,3.37c1.21,0.41 3.1,1.23 2.63,0.98c1.62,0.85 2.44,0.96 4.03,0.96c-0.49,0 0.25,0.04 1.12,0.26c0.88,0.21 2.08,0.55 3.5,0.99c2.84,0.87 6.55,2.13 10.63,3.6c8.15,2.94 17.8,6.73 25.2,10.01c4,1.76 11.6,4.66 17.38,6.64c5.6,1.92 12.3,4.32 14.51,5.19c3.53,1.39 23.06,9.69 26.63,11.31c0.93,0.44 3.3,1.46 5.46,2.39c1.17,0.5 2.31,0.95 3.3,1.29c0.48,0.17 0.93,0.32 1.39,0.44c0.46,0.12 0.41,0.44 2.26,0.21c1.59,-0.19 3.47,-1.93 3.94,-3c0.46,-1.08 0.49,-1.73 0.56,-2.5c0.14,-1.52 0.15,-3.44 0.15,-6.72l0,-5.62l0.49,-0.41c0.34,-0.29 0.32,-0.29 0.38,-0.37c-0.1,0.04 0.72,0.17 2.96,1.01c1.18,0.44 2.26,0.83 3.66,0.98c1.41,0.16 3.41,-0.17 4.85,-1.24c2.88,-2.16 3.13,-4.56 4.04,-7.72l1.31,-4.56a4.45,4.45 0 0 0 -1.23,-4.47l-2.59,-2.44c-4.35,-4.1 -8.79,-8.12 -12.38,-11.24c-1.8,-1.56 -3.38,-2.91 -4.68,-3.95c-1.29,-1.04 -1.89,-1.63 -3.31,-2.36c-1.22,-0.62 -2.28,-1.04 -3.7,-1.28c0.27,-0.57 0.47,-1.06 0.76,-1.68c1.29,-2.71 3.04,-5.97 3.16,-6.14c0.05,-0.07 2.08,-2.12 3.64,-3.15c2.09,-1.38 3.98,-2.78 5.26,-5c1.29,-2.21 1.74,-4.45 2.42,-7.75c0.69,-3.36 0.89,-6.46 0.72,-10.6c-0.07,-1.5 -0.14,-2.91 -0.22,-3.99c-0.03,-0.53 -0.07,-0.99 -0.11,-1.38c-0.02,-0.2 -0.04,-0.38 -0.08,-0.59c-0.01,-0.07 -0.03,-0.18 -0.05,-0.28c0,-0.06 0,-0.05 0,-0.15c0.01,-0.44 0.05,-1.19 0.12,-2.12c0.13,-1.86 0.38,-4.47 0.69,-7.43c0.62,-5.91 1.53,-13.2 2.4,-18.9c1.12,-7.34 -1.01,-17.19 -4.66,-24.82c-2.03,-4.23 -1.79,-3.14 -1.76,-6.36c0.01,-1.24 -0.07,-2.46 -0.2,-3.59c-0.14,-1.14 -0.17,-1.95 -0.8,-3.37c-0.79,-1.8 -1.23,-3.55 -1.34,-4.62c-0.05,-0.53 0.11,-0.75 0.11,-0.72c0.36,-0.39 0.76,-0.75 1.18,-1.24c0.74,-0.88 1.59,-1.92 2.44,-3c1.69,-2.16 3.21,-4.08 4.19,-5.78c4.64,-8.11 5.74,-17.84 3.42,-27.8c-1.05,-4.54 -4.27,-8.15 -9.56,-11.94c-6.04,-4.3 -13.96,-5.77 -26.58,-5.92c-0.33,-0.46 -0.66,-0.92 -1.05,-1.55c-0.53,-0.87 -1.06,-1.81 -1.43,-2.56c-0.38,-0.75 -0.57,-1.56 -0.48,-1.02c-0.31,-1.66 -0.99,-3.67 -2.55,-5.13c-1.56,-1.46 -3.34,-2 -5.1,-2.4l0,0c-2.32,-0.53 -2.48,-0.62 -4.45,-2.39c-2.51,-2.28 -4.31,-3.87 -5.59,-4.96c-0.64,-0.54 -1.15,-0.95 -1.62,-1.3c-0.24,-0.18 -0.47,-0.34 -0.8,-0.53c-0.35,-0.2 -0.43,-0.69 -2.45,-0.69l0.01,0.01z" fill="#bf0000" id="path45743" stroke-linecap="round" stroke-linejoin="round"/>
    <path d="m190.19,242.26c-2.16,-0.93 -4.57,-1.99 -5.38,-2.37c-3.92,-1.79 -22.94,-9.87 -26.85,-11.4c-2.43,-0.96 -9.05,-3.32 -14.7,-5.25c-5.64,-1.93 -13.3,-4.86 -17.01,-6.5c-15.09,-6.68 -38.81,-15.23 -42.26,-15.23c-0.6,-0.01 -1.48,-0.21 -1.96,-0.46c-0.47,-0.24 -1.94,-0.81 -3.29,-1.26c-5.19,-1.73 -11.49,-4.82 -11.49,-5.61c0,-0.44 0.44,-2.79 0.97,-5.23c1.14,-5.22 1.45,-12.11 0.59,-12.97c-0.33,-0.33 -0.61,-0.43 -0.64,-0.24c-0.04,0.19 -0.12,0.55 -0.19,0.83c-0.07,0.27 -0.15,1.59 -0.18,2.96c-0.08,2.9 -1.04,2.88 -1.04,-0.02c0,-1.04 -0.46,-3.79 -1.01,-6.12c-0.97,-4.09 -0.98,-4.36 -0.19,-7.99c0.46,-2.06 0.93,-4.31 1.05,-5.02c0.21,-1.1 -1.55,-8.33 -3.51,-14.45c-0.67,-2.09 -4.43,-8.05 -7.49,-11.84c-2,-2.48 -6.16,-5.28 -8.42,-5.69c-0.87,-0.15 -1.99,-0.49 -2.48,-0.75c-1.21,-0.65 -7.24,-8.16 -8.02,-10c-0.55,-1.29 -2.62,-8.07 -4.8,-15.7c-1.13,-3.95 -0.73,-8.89 1.22,-15.34c0.94,-3.09 1.96,-6.08 2.26,-6.63c0.37,-0.67 0.46,-2.83 0.27,-6.37c-0.47,-8.68 0,-11.19 2.87,-15.93c2.85,-4.71 6.61,-9.95 9.43,-13.14c2.42,-2.75 4.02,-5.94 6.39,-12.82c2.49,-7.23 3.22,-8.2 6.84,-9.19c3.94,-1.07 7.41,-2.58 16.35,-7.15c7.83,-4 11.47,-5.12 18.82,-5.77c8.56,-0.76 12.49,-1.41 15.38,-2.51c3,-1.15 3.58,-1.21 9.55,-0.95c3.49,0.16 7.23,0.41 8.3,0.54c1.08,0.15 4.71,0.6 8.07,1.02c3.36,0.42 6.88,0.96 7.82,1.22c0.95,0.25 2.24,0.46 2.87,0.46c1.03,0 1.13,-0.18 0.95,-1.7c-0.11,-0.95 -0.03,-1.71 0.19,-1.71c0.34,0 2.48,1.81 7.48,6.32c2.26,2.03 3.68,2.8 6.43,3.43c2.92,0.67 3.83,1.51 4.27,3.98c0.36,1.99 4.49,8.75 5.35,8.75c13.6,-0.01 20.73,1.41 25.99,5.15c4.97,3.54 7.04,6.02 7.81,9.31c2.1,9.06 1.08,17.53 -2.96,24.57c-1.1,1.92 -6.52,8.8 -7.71,9.78c-1.39,1.15 -0.99,5.25 0.92,9.6c0.37,0.81 0.63,3.09 0.61,5.13c-0.03,3.38 0.15,4.03 2.21,8.33c3.21,6.7 5.13,16.66 4.28,22.22c-1.77,11.6 -3.65,29.33 -3.2,30.07c0.09,0.15 0.26,2.68 0.39,5.63c0.16,3.92 -0.01,6.48 -0.64,9.52c-1.33,6.44 -1.84,7.33 -5.77,9.93c-1.99,1.31 -4.06,3.16 -4.88,4.35c-1.37,2.02 -5.97,11.74 -5.97,12.63c0,0.66 2.72,1.93 4.16,1.93c0.69,0 2.16,0.46 3.26,1.02c1.72,0.87 10.71,8.69 19.34,16.81l2.59,2.44l-1.31,4.56c-1.74,6.06 -2.48,6.61 -6.72,5.03c-4.96,-1.85 -5.38,-1.84 -7.74,0.11l-2.09,1.74l0,7.71c0,6.49 -0.12,7.73 -0.73,7.81c-0.41,0.05 -2.49,-0.67 -4.64,-1.59z" fill="#bf0000" id="path45745" stroke-linecap="round" stroke-linejoin="round" stroke-width="9"/>
   </g>
   <path d="m178.8,224.71c0.2,-3.71 -1.85,-17.78 -2.72,-18.6c-0.49,-0.48 -12.17,-4.24 -17.21,-5.54c-1.1,-0.29 -3.74,-1.38 -5.87,-2.41c-9.08,-4.42 -13.46,-6.15 -13.89,-5.43c-1.22,1.95 -1.53,17.27 -0.39,18.33c1.76,1.62 27.72,11.28 36.56,13.61c2.93,0.76 3.48,0.77 3.52,0.05zm29.87,-7.24c0.73,-1.12 0.62,-1.27 -5.44,-7.21c-10.04,-9.85 -10.19,-9.98 -11.06,-9.25c-1.19,0.99 -0.93,1.59 2.06,4.76c1.54,1.64 4.86,5.21 7.36,7.92c2.56,2.77 4.95,4.94 5.44,4.94c0.49,0 1.23,-0.51 1.64,-1.15zm-53.02,-192.18c0.78,-2.14 1.58,-4.83 1.78,-5.97c0.33,-1.96 0.27,-2.11 -1.04,-2.61c-1.63,-0.62 -10.59,-0.12 -10.15,0.57c0.15,0.25 1.53,1.31 3.07,2.35l2.8,1.9l0.61,3.66c0.55,3.29 0.96,4.53 1.36,4.14c0.08,-0.08 0.78,-1.89 1.57,-4.04zm3.19,2.3l1.82,-1.87l-0.63,-2.9c-0.36,-1.58 -0.86,-2.89 -1.12,-2.89c-0.52,0 -2.6,6.63 -2.65,8.43c-0.04,1.54 0.48,1.39 2.58,-0.77zm7.16,-2.45c-1.53,-2.87 -4.62,-6.36 -5.16,-5.83c-0.16,0.15 -0.14,1.58 0.05,3.19l0.33,2.91l3,1.77c1.65,0.98 3.07,1.56 3.16,1.32c0.09,-0.26 -0.53,-1.76 -1.38,-3.35zm-0.68,-5.32c0.36,-0.48 0.65,-0.99 0.66,-1.17c0.02,-0.28 -4.46,-2.38 -5.09,-2.38c-0.71,0 -0.12,1.1 1.45,2.67c1.99,1.99 2.1,2.02 2.97,0.87zm-10.92,-8.05c-1.93,-1.93 -3.63,-3.4 -3.78,-3.26c-0.33,0.33 1.14,5.35 1.8,6.17c0.28,0.35 1.59,0.61 3,0.61l2.5,0l-3.52,-3.52z" fill="#b50014" id="path45310" stroke-width="0.49"/>
   <path d="m185.94,228.52c-2.91,-14.86 -4.67,-21.67 -5.7,-22.02c-0.87,-0.29 -0.71,2.88 0.67,13.23c0.68,5.1 1.15,9.37 1.03,9.49c-0.49,0.48 -24.76,-8.07 -34.92,-12.31c-8.14,-3.4 -2.89,1.29 5.77,5.16c2.83,1.26 9.31,3.65 14.42,5.32c5.11,1.67 11.49,3.76 14.18,4.64c2.68,0.88 5.02,1.52 5.19,1.43c0.17,-0.09 -0.12,-2.32 -0.63,-4.95zm11.43,-4.07c1.12,-1.12 1.36,-1.64 0.95,-2.05c-0.42,-0.42 -0.93,-0.2 -2.03,0.85c-1.47,1.42 -1.92,2.69 -0.94,2.69c0.29,0 1.2,-0.67 2.02,-1.49zm11.9,-0.29c1.49,-1.61 1.75,-4.9 0.35,-4.33c-3.58,1.45 -3.36,1.5 -5.92,-1.3c-1.32,-1.43 -3.88,-4.36 -5.7,-6.52c-3.01,-3.54 -4.64,-4.9 -4.63,-3.82c0.01,1.74 12.69,17.27 14.09,17.27c0.34,0 1.16,-0.58 1.81,-1.3zm-76.02,-12.57c0,-1.51 -2.21,-7.05 -4.7,-11.8c-1.62,-3.09 -3.69,-7.13 -5.14,-10.04c-0.48,-0.95 -1.24,-3.7 -1.68,-6.11c-1.37,-7.32 -1.61,-8.05 -2.68,-8.05c-0.86,0 -0.93,0.24 -0.66,2.08c0.77,5.39 2.57,9.92 8.13,20.45c0.65,1.23 2.13,4.75 3.28,7.82c1.15,3.07 2.19,5.75 2.31,5.95c0.38,0.61 1.15,0.42 1.15,-0.3zm-3.69,-2.88c-0.18,-0.6 -0.77,-2.09 -1.33,-3.3c-1.4,-3.08 -1.71,-1.29 -0.33,1.92c1.06,2.45 2.29,3.48 1.65,1.38zm4.44,-2.16c-0.19,-0.99 -1.16,-3.24 -2.16,-5.01c-4.39,-7.79 -6.86,-13.84 -7.74,-18.98c-0.56,-3.3 -1.07,-5.02 -1.47,-5.02c-0.95,0 -0.77,3.09 0.41,7.3c1.02,3.63 3.34,8.69 6.21,13.56c0.8,1.36 1.61,2.98 1.81,3.63c0.2,0.64 0.79,2.33 1.32,3.74c1.11,2.99 2.14,3.47 1.63,0.77zm-8.52,-2.81c-1.53,-3.38 -3.14,-4.67 -1.73,-1.39c0.44,1.01 0.92,2.16 1.08,2.56c0.15,0.41 0.61,1.26 1.03,1.9c1.35,2.11 1.12,0.22 -0.38,-3.08zm-2.02,1.54c-0.01,-0.34 -0.45,-1.16 -0.97,-1.83c-0.8,-1.03 -0.96,-1.08 -0.97,-0.34c-0.01,1.14 0.86,2.78 1.47,2.78c0.26,0 0.47,-0.28 0.47,-0.61zm-3.9,-2.05c0,-0.12 -0.22,-0.35 -0.49,-0.51c-0.27,-0.17 -0.48,-0.07 -0.48,0.22c0,0.29 0.22,0.51 0.48,0.51c0.28,0 0.49,-0.1 0.49,-0.22zm15.15,0.01c0,-0.11 -1.17,-2.58 -2.6,-5.49c-3.16,-6.42 -3.36,-6.96 -4.99,-13.11c-0.71,-2.69 -1.51,-5.12 -1.8,-5.38c-0.88,-0.84 -0.08,4.7 1.21,8.36c1.89,5.39 6.89,15.83 7.56,15.83c0.35,0 0.62,-0.09 0.62,-0.21zm40.08,-1.32c0,-0.31 -0.82,-1.46 -1.82,-2.57c-1.31,-1.44 -2.57,-2.25 -4.5,-2.85c-1.47,-0.46 -2.77,-0.73 -2.89,-0.62c-0.11,0.12 0.07,0.87 0.41,1.69c0.62,1.5 1.44,1.98 1.5,0.87c0.02,-0.34 0.28,-0.12 0.56,0.48c0.56,1.17 1.37,1.48 1.37,0.53c0,-0.32 0.42,-0.18 0.97,0.33c0.75,0.67 0.98,0.72 0.99,0.2c0,-0.38 0.56,0.02 1.26,0.9c1.27,1.61 2.16,2.04 2.16,1.04zm1.46,-2.14c-1.51,-1.56 -2.93,-2.23 -2.93,-1.37c0,0.19 0.81,1.18 1.8,2.2c1.21,1.23 1.98,1.69 2.31,1.37c0.32,-0.33 -0.07,-1.06 -1.18,-2.2zm-50.34,0.73c0,-0.27 -0.55,-1.53 -1.23,-2.81c-0.67,-1.28 -2.02,-4.09 -3,-6.23c-0.98,-2.15 -1.87,-3.64 -1.99,-3.31c-0.26,0.72 5.23,12.84 5.81,12.84c0.22,0 0.41,-0.22 0.41,-0.48zm-17.36,-1.59c-1.45,-5.07 -9.53,-21.3 -14.16,-28.45c-3.17,-4.9 -2.47,-2.16 0.99,3.95c3.57,6.29 9.02,17.14 11.2,22.31c1.31,3.1 2.66,4.61 1.97,2.2zm24.53,-4.13c-1.22,-2.63 -2.58,-6.17 -3.05,-7.85c-0.91,-3.33 -2.02,-4.26 -1.45,-1.22c0.39,2.06 4.17,11.28 5.4,13.15c1.68,2.57 1.23,0.51 -0.9,-4.09zm-20.86,1.68c-1.73,-3.9 -5.93,-12.28 -6.41,-12.81c-1.07,-1.16 -0.18,1.1 3.28,8.25c2.04,4.24 3.83,7.56 3.99,7.4c0.16,-0.16 -0.22,-1.43 -0.85,-2.85zm8.82,-1.78c-0.82,-1.88 -1.63,-4.15 -1.8,-5.04c-0.17,-0.88 -0.83,-2.18 -1.47,-2.87c-1.17,-1.27 -3.4,-7.18 -4.55,-12.09c-0.56,-2.38 -1.55,-3.6 -2.31,-2.85c-0.16,0.16 0.31,1.89 1.04,3.85c0.73,1.96 2.05,5.53 2.91,7.96c2.05,5.69 7.29,16.38 7.52,15.3c0.09,-0.46 -0.5,-2.37 -1.34,-4.26zm44.2,2.24c-0.27,-1.43 -0.65,-1.86 -2.24,-2.49c-2.5,-1 -2.55,-0.99 -2.18,0.5c0.7,2.8 3.1,5.01 2.6,2.39c-0.32,-1.62 -0.07,-1.54 0.87,0.29c0.97,1.87 1.37,1.58 0.94,-0.69zm-71.6,0.28c0,-0.2 -0.84,-1.9 -1.87,-3.78c-1.04,-1.93 -2.35,-5.41 -2.98,-7.96c-0.61,-2.48 -1.3,-4.63 -1.52,-4.78c-0.52,-0.32 -3.39,-5.94 -3.39,-6.63c0,-0.29 -0.4,-1.11 -0.89,-1.82c-1.15,-1.67 -2.25,-4.43 -1.9,-4.77c0.14,-0.15 1.19,0.73 2.33,1.97c2.43,2.63 3.53,2.98 1.65,0.51c-0.72,-0.95 -1.01,-1.6 -0.64,-1.45c0.38,0.15 1.45,1.39 2.39,2.74c0.94,1.35 2.39,3.32 3.25,4.36c3.15,3.89 7.94,12.1 9.77,16.72c1.09,2.73 2.18,4.76 2.55,4.76c0.91,0.01 0.46,-1.65 -1.88,-6.99c-1.05,-2.38 -1.58,-4.05 -1.2,-3.73c0.39,0.32 0.7,0.76 0.7,0.97c0,0.87 4.47,9.76 4.91,9.76c0.26,0 0.48,-0.19 0.48,-0.42c0,-0.72 -12.02,-24.35 -13.07,-25.67c-2.1,-2.67 -1.49,-1.05 2.31,6.21c2.16,4.12 3.92,7.69 3.92,7.94c0,0.53 -6.37,-10.21 -9.15,-15.44l-1.95,-3.66l-3.37,-0.58c-4.1,-0.71 -7.85,-0.8 -8.22,-0.19c-0.46,0.72 0.55,2.79 2.33,4.78c3.31,3.7 5.89,8.15 8.4,14.47c3.1,7.83 3.56,8.88 5,11.21c1.01,1.65 2.1,2.42 2.08,1.46zm66.74,-2.01c-0.38,-1.72 -1.72,-3.14 -1.72,-1.81c0,1.02 1.44,3.88 1.79,3.53c0.14,-0.14 0.11,-0.91 -0.07,-1.72zm-63.82,-2.73c-1.67,-3.69 -10.21,-17.56 -10.59,-17.19c-0.27,0.28 2.42,5.39 6.21,11.8c1.43,2.41 2.93,5.06 3.33,5.86c0.8,1.62 2.11,3.28 2.38,3.02c0.1,-0.1 -0.5,-1.66 -1.33,-3.48zm58.51,1.56l-0.29,-1.58l0.75,1.39c0.93,1.7 1.38,1.41 0.94,-0.61c-0.27,-1.18 -0.8,-1.7 -2.58,-2.49c-1.76,-0.77 -2.34,-0.85 -2.64,-0.37c-0.29,0.46 -0.4,0.4 -0.41,-0.22c0,-0.57 -1.22,-1.41 -3.74,-2.57c-5.23,-2.4 -5.72,-2.29 -4.52,1.14c0.59,1.71 1.23,1.99 1.57,0.68c0.18,-0.7 0.23,-0.67 0.28,0.15c0.06,1.02 0.92,2.18 1.62,2.18c0.21,0 0.39,-0.67 0.39,-1.48l0,-1.48l1.46,1.09c0.81,0.59 1.47,1.39 1.47,1.76c0,0.37 0.25,1.14 0.54,1.7c0.54,1 0.57,1.01 1.23,0.12c0.63,-0.87 0.67,-0.87 0.67,-0.03c0,0.61 0.27,0.81 0.9,0.64c0.53,-0.14 1.13,0.13 1.46,0.68c0.86,1.37 1.21,1.1 0.88,-0.68zm-38.79,-3.4c-1.08,-2.23 -2.23,-4.93 -2.56,-6c-1.07,-3.48 -4.07,-9.54 -4.72,-9.54c-0.51,0 -0.5,0.35 0.03,1.84c0.91,2.52 7.59,16.84 8.21,17.61c1.26,1.53 0.83,-0.2 -0.96,-3.91zm19.12,3.17c-0.5,-2.22 -2.54,-6.48 -3.1,-6.48c-0.62,0 -0.69,1.31 -0.09,1.67c0.24,0.15 0.69,1.32 1.01,2.59c0.6,2.39 1.28,3.55 2.05,3.55c0.25,0 0.31,-0.6 0.13,-1.34zm-35.87,0.6c0,-0.72 -4.5,-9.74 -5.81,-11.65c-0.84,-1.22 -1.52,-2.36 -1.52,-2.52c0,-0.49 -5.52,-8.09 -5.73,-7.88c-0.1,0.11 0.31,1.04 0.9,2.08c0.59,1.04 2.01,3.54 3.14,5.55c1.14,2.02 2.97,5.21 4.09,7.1c1.11,1.88 2.49,4.35 3.09,5.49c0.91,1.77 1.85,2.7 1.85,1.83zm-11,-2.36c-1.18,-4.28 -2.68,-6.69 -2.68,-4.3c0,1.43 2.03,5.95 2.52,5.64c0.25,-0.16 0.32,-0.76 0.16,-1.34zm-3.87,-0.69c-0.18,-0.74 -1.13,-3 -2.12,-5.02c-1.44,-2.94 -1.83,-3.43 -1.98,-2.49c-0.3,1.94 0.33,4.16 1.86,6.57c1.63,2.57 2.73,3.04 2.24,0.94zm52.48,0.73c-0.01,-0.34 -0.77,-2.04 -1.68,-3.79c-1.09,-2.09 -1.67,-2.81 -1.69,-2.12c-0.03,1.66 2,6.52 2.74,6.52c0.37,0 0.65,-0.28 0.63,-0.61zm-25.58,-1.7c-0.49,-0.49 -0.91,0.25 -0.49,0.91c0.31,0.49 0.42,0.49 0.58,0c0.12,-0.34 0.07,-0.75 -0.09,-0.91zm-31.58,-1.05c0,-0.98 -2.55,-5.92 -2.93,-5.68c-0.79,0.48 1.46,6.11 2.45,6.11c0.27,0 0.48,-0.19 0.48,-0.43zm30.82,-0.73c-0.77,-2.02 -5.46,-10.79 -6.18,-11.53c-1.41,-1.46 -0.7,0.66 1.52,4.62c1.21,2.16 2.67,4.85 3.27,5.99c1.14,2.22 2.13,2.87 1.39,0.92zm27.09,0.7c0.35,-0.56 -1.71,-4.92 -2.34,-4.92c-0.48,0 -0.15,1.84 0.72,4.03c0.54,1.39 1.12,1.69 1.61,0.89zm2.89,-1.62c0.53,2.24 1.41,2.03 1.01,-0.24c-0.5,-2.98 -3.63,-4.95 -3.63,-2.31c0,0.69 0.38,1.95 0.83,2.81l0.84,1.56l0.29,-1.7l0.29,-1.71l0.38,1.58zm-23.41,-7.33c-0.51,-3.16 -1.88,-6.98 -2.42,-6.82c-0.63,0.19 -0.43,1.52 0.86,5.6c1.16,3.69 2.09,4.41 1.56,1.22zm-17.07,-3.68c-0.95,-1.62 -1.73,-3.11 -1.73,-3.3c0,-0.18 -0.49,-0.94 -1.1,-1.68c-0.6,-0.74 -1.51,-2.1 -2.02,-3.01c-0.51,-0.9 -1.02,-1.39 -1.14,-1.06c-0.12,0.33 0.96,2.47 2.39,4.77c2.78,4.47 3.23,5.2 4.29,7.11c0.38,0.67 0.76,0.97 0.86,0.67c0.11,-0.31 -0.59,-1.88 -1.54,-3.5zm2.39,0.71c-1.43,-3.01 -3.1,-4.98 -2.19,-2.55c0.71,1.85 3.02,5.74 3.28,5.48c0.11,-0.11 -0.38,-1.43 -1.09,-2.93zm82.39,0.96c0,-0.48 -1.27,-0.83 -4.35,-1.23c-2.39,-0.31 -5.28,-0.89 -6.41,-1.29c-2.55,-0.9 -2.92,-0.91 -2.92,-0.03c0,1.31 6.18,3.03 11.36,3.16c1.67,0.04 2.33,-0.13 2.33,-0.61zm-37.39,-0.81c0.17,-0.27 1.37,-1.03 2.66,-1.68c2.24,-1.14 3.59,-2.7 2.34,-2.7c-0.75,0 -6.71,4.02 -6.71,4.51c0,0.55 1.36,0.46 1.71,-0.13zm-40.33,-0.25c0,-0.76 -1.43,-3.49 -2.13,-4.08c-1.06,-0.88 -1.02,-0.52 0.27,2.13c0.92,1.88 1.86,2.87 1.86,1.95zm49.46,-2.26c1.83,-1.44 2.59,-3.25 1.15,-2.69c-1.2,0.47 -5.64,3.92 -5.64,4.39c0,0.78 2.59,-0.2 4.49,-1.7zm-10.34,-0.67c1.76,-1.3 2.8,-2.67 2.01,-2.67c-0.36,0 -3.43,2.33 -4.92,3.72c-0.11,0.1 0.12,0.19 0.51,0.19c0.4,0 1.47,-0.55 2.39,-1.24zm-3.77,-2.23c2.58,-1.4 3.51,-2.4 2.24,-2.4c-0.85,0 -6.3,3.02 -6.3,3.49c0,0.77 1.27,0.44 4.07,-1.09zm2.79,0.44c0.8,-0.58 1.45,-1.25 1.45,-1.47c0,-0.54 -2.59,0.81 -3.39,1.78c-0.96,1.16 0.22,0.97 1.94,-0.31zm4.38,0.58c0,-0.27 -0.1,-0.48 -0.22,-0.48c-0.12,0 -0.35,0.22 -0.51,0.48c-0.17,0.27 -0.07,0.48 0.22,0.48c0.28,0 0.51,-0.22 0.51,-0.48zm-11.49,-0.96c1.08,-0.51 2.49,-1.41 3.15,-1.97c1.8,-1.57 0.97,-2.8 -4.86,-7.16c-2.82,-2.11 -6.76,-5.39 -8.76,-7.31l-3.63,-3.46l2.38,-0.81c1.31,-0.45 2.94,-0.8 3.63,-0.78l1.26,0.03l-1.23,0.54l-1.22,0.53l1.71,0.35c1.06,0.21 1.3,0.37 0.63,0.41c-2.07,0.13 -1.7,1.04 0.44,1.09c1.16,0.03 2.65,0.21 3.33,0.41c1.21,0.36 1.2,0.37 -0.37,0.72c-2.32,0.53 -1.94,1.27 0.64,1.27c1.36,0 2.11,0.19 1.93,0.49c-0.18,0.29 0.36,0.48 1.31,0.49c2.3,0.01 3.32,0.75 1.53,1.11c-0.75,0.16 -1.82,0.62 -2.36,1.04c-0.96,0.73 -0.95,0.74 0.25,0.75c1.08,0.01 3.39,-0.51 7.32,-1.65c0.74,-0.21 0.37,0.18 -0.95,1c-1.2,0.73 -1.92,1.43 -1.6,1.53c0.32,0.11 2.68,-0.51 5.25,-1.38c2.56,-0.86 4.79,-1.44 4.94,-1.3c0.15,0.15 -1.44,1.28 -3.55,2.51c-3.06,1.79 -3.56,2.24 -2.51,2.24c0.71,0 1.88,-0.22 2.58,-0.49c0.85,-0.32 1.18,-0.32 0.98,0c-0.48,0.79 0.48,0.57 3.66,-0.81c2.9,-1.26 3.05,-1.27 4.69,-0.48c2.35,1.12 4.36,1.03 5.54,-0.25c1.19,-1.28 3.26,-7.24 2.66,-7.67c-0.51,-0.38 -0.55,-1.82 -0.06,-2.32c0.2,-0.19 0.11,-0.64 -0.19,-1.01c-0.4,-0.48 -0.4,-0.65 0,-0.65c0.31,0 0.55,-0.34 0.55,-0.73c0,-0.41 -0.28,-0.74 -0.61,-0.74c-0.48,-0.01 -0.47,-0.1 0.02,-0.42c0.7,-0.44 0.62,-1.57 -0.15,-2.14c-0.3,-0.22 -0.26,-0.36 0.12,-0.37c0.6,-0.01 0.58,-2.31 -0.04,-3.31c-0.17,-0.28 0.19,-0.64 0.79,-0.81c1.03,-0.29 1.04,-0.34 0.18,-0.84c-0.74,-0.44 -0.79,-0.62 -0.25,-0.97c0.56,-0.37 0.54,-0.51 -0.06,-0.91c-0.63,-0.42 -0.62,-0.48 0.1,-0.49c0.54,-0.01 0.74,-0.27 0.56,-0.74c-0.17,-0.43 0,-0.73 0.38,-0.74c0.44,-0.01 0.35,-0.27 -0.28,-0.73c-0.52,-0.4 -0.69,-0.72 -0.39,-0.72c0.65,0 0.22,-1.51 -0.58,-2.07c-0.33,-0.22 -0.22,-0.37 0.28,-0.37c0.44,-0.01 0.93,-0.34 1.08,-0.74c0.34,-0.86 -0.1,-2.2 -0.7,-2.2c-0.23,0 -0.29,-0.34 -0.14,-0.73c0.16,-0.41 0.05,-0.73 -0.25,-0.73c-0.29,0 -0.4,-0.34 -0.24,-0.73c0.19,-0.48 -0.03,-0.75 -0.63,-0.77c-0.85,-0.03 -0.85,-0.06 0.04,-0.41c0.71,-0.28 0.79,-0.47 0.32,-0.76c-0.51,-0.32 -0.5,-0.47 0.02,-0.79c0.48,-0.3 0.35,-0.52 -0.55,-0.88l-1.22,-0.48l1.35,-0.03c1.62,-0.04 1.79,-0.85 0.25,-1.16c-0.72,-0.14 -0.5,-0.23 0.63,-0.28c1.64,-0.06 2.91,-0.77 2.91,-1.62c0,-0.22 -0.36,-0.4 -0.79,-0.4c-0.65,0 -0.68,-0.13 -0.19,-0.73c0.49,-0.59 0.48,-0.73 -0.06,-0.74c-0.52,-0.01 -0.51,-0.11 0.06,-0.48c0.41,-0.27 0.51,-0.49 0.25,-0.51c-0.27,-0.02 0.06,-0.27 0.73,-0.55c1.17,-0.48 1.18,-0.52 0.25,-0.91c-0.94,-0.39 -0.94,-0.41 0.09,-0.44c1.04,-0.03 2.18,-1.01 1.18,-1.01c-0.89,0 -0.02,-1.37 1.09,-1.69c1.04,-0.32 1.04,-0.33 0.09,-0.75c-0.81,-0.35 -0.68,-0.43 0.73,-0.46c1.46,-0.03 1.9,-0.34 3.02,-2.12c0.72,-1.14 1.52,-2.64 1.79,-3.34c0.52,-1.38 4.15,-4.51 4.64,-4.02c0.16,0.17 -0.39,1.08 -1.23,2.04c-0.84,0.95 -1.94,2.66 -2.43,3.79c-1.81,4.09 -5.3,17.28 -5.3,20.01l0,1.82l3.39,-0.34c3.1,-0.31 3.43,-0.25 3.92,0.67c0.74,1.38 1.29,1.29 5.85,-1c3.85,-1.92 4.04,-1.97 5.22,-1.19c1.56,1.02 3.8,0.8 4.03,-0.4c0.29,-1.55 -0.41,-3.29 -1.47,-3.68c-0.56,-0.22 -1.28,-1.13 -1.57,-2.04c-0.74,-2.3 -3.26,-3.89 -6.11,-3.9c-2.54,0 -4.55,-1.09 -5.97,-3.25c-1.27,-1.92 -1.17,-2.26 0.54,-1.88c2.32,0.5 5.17,-0.2 7.14,-1.75c1.27,-1.01 2.34,-1.43 3.64,-1.43c2.4,0 4.38,-0.75 5.51,-2.11c0.82,-0.98 0.87,-0.99 0.55,-0.09c-1.05,2.96 -0.61,3.55 1.24,1.71c2.25,-2.26 1.09,-4.97 -5.57,-13.01c-5.54,-6.69 -7,-9.38 -7.86,-14.49c-0.34,-2.03 -0.66,-2.14 -3.83,-1.27c-1.49,0.42 -2.77,1.35 -4.71,3.43l-2.65,2.87l0.82,2.32c0.46,1.27 0.83,2.58 0.83,2.93c-0.01,0.79 -4.06,3.37 -5.96,3.79c-1.74,0.39 -3.34,-0.81 -3.34,-2.51c0,-1.32 -1.53,-2.51 -3.77,-2.93c-0.88,-0.17 -1.48,-0.48 -1.36,-0.69c0.13,-0.22 1.5,-0.09 3.05,0.28c3.9,0.93 6.92,0.91 7.29,-0.06c0.53,-1.4 -0.71,-3.05 -3.11,-4.11c-3.59,-1.59 -5.86,-1.73 -8.85,-0.54c-1.73,0.68 -3.68,1.02 -5.91,1.02c-3.13,0 -3.32,-0.06 -3.28,-1.1c0.03,-0.76 0.56,-1.34 1.75,-1.88c0.94,-0.44 2.8,-1.7 4.14,-2.81c3.69,-3.07 9.74,-4.35 14.31,-3.04c0.88,0.25 1.59,0.35 1.59,0.22c0,-0.73 -1.6,-3.09 -3.02,-4.43c-2.4,-2.31 -3.74,-2.63 -9.36,-2.32l-4.98,0.29l1.71,-1.48c1.52,-1.31 1.64,-1.58 1.1,-2.47c-0.56,-0.93 -0.5,-1.01 0.85,-1.01c0.81,0 1.47,-0.25 1.47,-0.55c0,-0.4 0.88,-0.47 2.96,-0.25c3.25,0.34 4.28,0.76 6.81,2.83c1.96,1.6 2.32,1.69 2.53,0.6c0.13,-0.6 0.82,-0.25 2.98,1.53c3.09,2.54 3.67,3.81 2.85,6.17c-0.3,0.85 -0.53,1.84 -0.53,2.21c0,0.84 1.93,0.84 5.14,0l2.43,-0.63l0,-2.29c0,-2.67 0.61,-2.74 1.87,-0.2c0.69,1.4 1.27,1.86 2.6,2.11c3.53,0.66 3.14,-0.43 -3.45,-9.42c-2.13,-2.91 -4.5,-6.21 -5.27,-7.35c-1.52,-2.23 -2.27,-2.54 -8.34,-3.58c-2.01,-0.35 -5.46,-0.46 -8.8,-0.28c-3.01,0.16 -7.9,0.43 -10.86,0.58c-4.56,0.25 -6.16,0.12 -10.51,-0.85c-4.69,-1.04 -11.36,-1.43 -12.08,-0.7c-0.3,0.29 1.15,2.69 2.09,3.47c1.28,1.06 1.2,3.11 -0.28,7.66c-0.81,2.51 -1.63,4.78 -1.83,5.05c-0.91,1.25 -4.09,3.12 -7.31,4.3c-5.35,1.97 -8.35,3.44 -8.63,4.26c-0.14,0.41 -0.81,2.28 -1.49,4.16c-1.77,4.85 -3.1,11.4 -3.49,17.23c-0.19,2.76 -0.54,5.01 -0.79,5.01c-0.25,0 -0.93,-0.25 -1.51,-0.56c-0.59,-0.32 -2.05,-0.82 -3.24,-1.13c-2.11,-0.53 -2.2,-0.64 -3.22,-3.67c-1.53,-4.59 -1.64,-4.55 -4.34,1.61c-1.73,3.94 -2.74,9.27 -2.74,14.49c0,2.43 -0.13,4.42 -0.28,4.42c-0.16,0 -1.24,-0.66 -2.41,-1.47l-2.14,-1.46l0.74,-2.18c1.34,-3.91 -0.24,-5.63 -1.9,-2.1c-0.99,2.11 -1.74,2.29 -3.16,0.73c-1.92,-2.11 -2.91,-5.59 -2.35,-8.19c0.29,-1.29 0.41,-1.36 1.73,-0.89c1.93,0.67 4.55,-0.23 5.27,-1.8c0.51,-1.14 0.47,-1.21 -0.89,-1.21c-0.79,0 -2.45,-0.35 -3.7,-0.77c-1.25,-0.43 -2.33,-0.69 -2.39,-0.61c-0.99,1.11 -2.85,6.02 -3.06,8.03c-0.44,4.22 2.08,8.47 7.16,12.14c2.25,1.62 2.39,1.99 1.07,2.69c-1.68,0.9 -3.88,-0.34 -6.21,-3.51c-1.19,-1.6 -2.16,-3.2 -2.16,-3.53c0,-0.34 -0.65,-2.62 -1.46,-5.07c-0.8,-2.44 -1.46,-4.99 -1.46,-5.64c0,-1.93 -0.51,-2.74 -1.73,-2.74c-0.63,0 -1.28,-0.23 -1.44,-0.49c-0.17,-0.27 -0.74,-0.48 -1.29,-0.48c-0.7,0 -0.91,-0.25 -0.74,-0.86c0.14,-0.47 0.4,-1.62 0.59,-2.56c0.33,-1.62 0.37,-1.65 0.77,-0.55c0.36,0.96 0.55,1.05 1.16,0.55c0.58,-0.48 0.72,-0.48 0.72,0.04c0,0.49 0.14,0.5 0.57,0.08c0.44,-0.44 0.7,-0.39 1.14,0.21c0.49,0.67 0.8,0.48 2.37,-1.43c1.59,-1.94 2.19,-2.29 5.22,-3.02c3.25,-0.79 3.48,-0.79 4.89,0.04c0.99,0.58 1.65,1.49 1.98,2.7c0.27,1.01 0.97,2.17 1.56,2.58c2.29,1.6 2.39,0.64 0.39,-3.41l-1.43,-2.93l1.07,-0.82c1.04,-0.8 1.14,-0.78 2.56,0.6c1.82,1.76 2.39,1.83 1.98,0.22c-0.17,-0.66 -0.1,-1.22 0.15,-1.22c0.25,0 0.34,-0.44 0.2,-0.98c-0.15,-0.53 -0.49,-0.98 -0.78,-0.98c-0.29,0 -1.05,-0.49 -1.69,-1.1c-0.97,-0.91 -1.72,-1.1 -4.43,-1.1c-1.79,0 -4.43,0.19 -5.88,0.43c-2.51,0.4 -2.6,0.38 -2.29,-0.61c0.32,-1.01 0.2,-1.03 -5.44,-1.09c-4.41,-0.04 -5.31,-0.15 -3.83,-0.47c1.08,-0.22 3.45,-0.42 5.28,-0.43c2.33,-0.02 3.23,-0.2 2.99,-0.57c-0.22,-0.37 -1.74,-0.48 -4.51,-0.33c-2.31,0.12 -3.76,0.05 -3.24,-0.16c0.51,-0.2 2.38,-0.4 4.13,-0.44c4.2,-0.08 6.96,-0.59 7.2,-1.35c0.16,-0.47 -1.2,-0.61 -5.7,-0.61c-8.29,0 -7.64,-0.91 0.77,-1.09c4.81,-0.09 6.74,-0.31 6.89,-0.74c0.15,-0.46 -0.95,-0.63 -4.36,-0.68c-4.54,-0.08 -4.36,-0.17 1.43,-0.7c4.84,-0.45 3.56,-1.18 -2.2,-1.25c-5.14,-0.07 -5.19,-0.08 -2.08,-0.48c1.75,-0.22 4.72,-0.38 6.6,-0.34c2.9,0.06 3.44,-0.07 3.59,-0.79c0.15,-0.79 -0.33,-0.84 -5.72,-0.69c-3.88,0.11 -5.73,0 -5.4,-0.32c0.27,-0.27 3.28,-0.6 6.69,-0.73c3.65,-0.15 6.21,-0.46 6.21,-0.74c0,-0.29 -2.6,-0.59 -6.35,-0.73c-4.16,-0.17 -6.05,-0.4 -5.46,-0.68c0.48,-0.23 3.62,-0.27 6.97,-0.08c5.13,0.29 6.08,0.24 6.08,-0.36c0,-0.9 -2.42,-1.32 -7.73,-1.33c-2.8,-0.01 -3.96,-0.17 -3.73,-0.53c0.23,-0.37 2.4,-0.43 7.12,-0.18c6.09,0.31 6.79,0.27 6.79,-0.45c0,-0.7 -0.92,-0.81 -7.33,-0.87c-4.04,-0.04 -7.59,-0.1 -7.92,-0.13c-0.64,-0.05 -8.7,10.3 -8.7,11.18c0,0.31 -0.68,1.48 -1.52,2.61c-0.83,1.14 -1.4,2.38 -1.25,2.75c0.15,0.38 -0.05,0.95 -0.44,1.28c-0.97,0.8 -0.89,1.91 0.15,2c0.47,0.03 3.25,0.01 6.18,-0.06c3.8,-0.09 5.22,0.03 4.98,0.43c-0.21,0.33 -1.94,0.54 -4.39,0.54c-5.73,0 -8.59,0.45 -8.59,1.36c0,0.62 0.67,0.69 4.52,0.42c3.1,-0.21 4.27,-0.16 3.7,0.18c-0.63,0.39 -4.1,0.81 -7.86,0.96c-0.21,0.01 -0.37,0.24 -0.37,0.5c0,0.27 1.1,0.49 2.44,0.49c3.66,0 2.94,0.91 -0.86,1.08c-2.54,0.11 -3.3,0.31 -3.3,0.87c0,0.54 0.68,0.77 2.6,0.88c2.21,0.13 2.51,0.26 2.02,0.86c-0.39,0.46 -1.52,0.7 -3.26,0.7c-3.55,0 -3.27,1.12 0.39,1.51l2.64,0.29l-2.99,0.08c-1.9,0.05 -3.21,0.33 -3.57,0.76c-0.8,0.97 0.08,1.43 3.38,1.8l2.69,0.31l-3.1,0.07c-2.24,0.05 -3.04,0.24 -2.89,0.68c0.11,0.34 0.95,0.74 1.87,0.91l1.67,0.31l-1.83,0.06c-1.01,0.04 -1.83,0.29 -1.83,0.55c0,0.46 1.1,0.62 4.47,0.7c0.72,0.02 1.45,0.19 1.65,0.38c0.47,0.47 -1.4,0.84 -4.91,1c-2.23,0.09 -2.93,0.3 -2.93,0.85c0,0.58 0.67,0.73 3.32,0.7c3.93,-0.05 3.71,0.69 -0.33,1.11c-4.56,0.48 -3.96,1.39 1.17,1.77c1.61,0.12 1.32,0.19 -1.11,0.25c-3.41,0.09 -4.5,0.85 -1.7,1.2c1.53,0.19 1.52,0.2 -0.29,0.28c-1.63,0.07 -1.84,0.21 -1.7,1.18c0.14,1.02 0.43,1.11 4.16,1.24l4.01,0.15l0.54,-2.1c0.29,-1.16 0.74,-2.74 1,-3.51c0.26,-0.78 0.48,-1.99 0.51,-2.69c0.07,-2.01 1.23,2.11 2.36,8.44c0.95,5.33 1.02,5.48 3.11,7.39c3.46,3.19 4.24,3.71 8.12,5.48c5.1,2.33 6.36,3.03 8.44,4.68c1.51,1.21 2.22,1.43 4.64,1.42c3.34,-0.01 6.16,-0.87 5.05,-1.55c-0.78,-0.48 -0.56,-0.61 2.1,-1.2c0.75,-0.17 1.49,-0.64 1.65,-1.05c0.36,-0.93 -2.9,-4.4 -4.51,-4.81c-1.41,-0.35 -1.81,-1.57 -1.92,-5.79c-0.08,-2.71 -0.3,-3.51 -1.24,-4.51c-1.07,-1.15 -1.08,-1.22 -0.19,-1.22c0.52,0 1.44,0.35 2.05,0.76c0.89,0.62 1.09,1.24 1.11,3.54c0.04,3.98 0.86,5.92 3.24,7.65c2.19,1.59 2.74,2.54 3.73,6.4c0.51,1.99 0.51,2.74 0.02,3.91c-0.34,0.79 -0.62,1.94 -0.63,2.55c-0.02,0.61 -1.13,3.96 -2.47,7.44c-3.01,7.79 -3.03,8.04 -0.6,7.66c1.58,-0.25 1.71,-0.2 0.98,0.36c-0.48,0.36 -0.86,0.81 -0.86,1.02c0,0.38 3.42,0.08 5.87,-0.5c1.17,-0.29 1.18,-0.27 0.28,0.47c-0.51,0.42 -1.67,0.9 -2.56,1.07c-0.89,0.17 -1.62,0.5 -1.62,0.74c0,0.62 1.05,0.53 3.43,-0.31c2.7,-0.95 3.05,-0.58 0.64,0.66c-1.53,0.79 -1.72,1.04 -1.03,1.31c0.48,0.19 1.79,-0.02 2.94,-0.46l2.08,-0.79l-1.36,1.03c-1.68,1.29 -1.33,1.99 0.71,1.41c1.86,-0.53 2.35,-0.27 0.91,0.49c-1.35,0.72 -0.8,1.57 0.75,1.19c0.88,-0.23 1.18,-0.12 1.07,0.37c-0.15,0.73 0.28,0.75 4.75,0.28c1.61,-0.18 2.66,-0.2 2.33,-0.05c-1.18,0.52 -0.62,1.28 0.73,0.99c1.27,-0.27 1.28,-0.25 0.24,0.27c-1.86,0.93 -1.22,1.41 1.6,1.17c1.48,-0.12 2.58,-0.03 2.43,0.21c-0.46,0.74 0.67,1.05 1.74,0.48c0.56,-0.31 1.15,-0.44 1.3,-0.29c0.15,0.15 -0.92,0.81 -2.37,1.46c-1.9,0.87 -2.32,1.22 -1.49,1.25c0.62,0.02 1.58,-0.21 2.14,-0.5c0.76,-0.41 1.1,-0.39 1.39,0.07c0.29,0.47 0.78,0.37 2.07,-0.44c1.68,-1.04 6.22,-1.51 6.22,-0.65c0,0.63 -2.54,2.84 -4.28,3.72c-3.02,1.52 -1.06,1.81 2.08,0.3l0,0.01zm14.91,-11.45c0,-0.11 0.34,-0.33 0.75,-0.48c0.44,-0.17 0.63,-0.09 0.47,0.19c-0.29,0.47 -1.22,0.69 -1.22,0.3zm-88.08,-46.09c0.36,-0.14 0.78,-0.13 0.94,0.04c0.16,0.16 -0.13,0.28 -0.64,0.26c-0.56,-0.03 -0.68,-0.14 -0.3,-0.3zm122.74,57.15c1.78,-1.01 1.93,-1.58 0.41,-1.59c-0.95,0 -0.88,-0.13 0.57,-1.02c1.16,-0.7 1.48,-1.13 1.06,-1.4c-0.46,-0.28 -0.4,-0.46 0.24,-0.7c0.46,-0.18 0.69,-0.47 0.52,-0.63c-0.18,-0.18 0.05,-0.88 0.49,-1.55c0.58,-0.89 0.64,-1.3 0.23,-1.43c-0.45,-0.15 -0.46,-0.36 -0.02,-0.88c0.44,-0.52 0.43,-0.68 -0.04,-0.68c-0.48,0 -0.48,-0.15 0,-0.73c0.34,-0.41 0.43,-0.73 0.21,-0.73c-0.22,0 0.03,-0.33 0.55,-0.72c0.82,-0.62 0.85,-0.79 0.22,-1.21c-0.62,-0.42 -0.59,-0.58 0.25,-1.22c0.84,-0.64 0.87,-0.81 0.24,-1.24c-0.6,-0.41 -0.54,-0.49 0.32,-0.49c1.46,-0.01 1.76,-1.2 0.65,-2.6c-1.16,-1.47 -2.85,-2.14 -6.46,-2.54c-3.1,-0.35 -3.34,-0.66 -3.15,-4.26c0.08,-1.72 0.2,-1.83 2.31,-2.35c1.51,-0.36 2.91,-0.38 4.34,-0.06c1.16,0.27 2.41,0.36 2.78,0.22c1.11,-0.43 0.77,-1.57 -0.55,-1.91c-0.67,-0.17 -1.67,-0.94 -2.23,-1.72c-0.55,-0.77 -1.33,-1.41 -1.71,-1.41c-0.38,0 -0.69,-0.23 -0.69,-0.49c0,-0.72 2.13,-0.59 3.69,0.22c1.5,0.78 2.39,0.55 1.98,-0.5c-0.34,-0.88 2.65,-0.96 3.51,-0.1c0.83,0.83 0.73,3.63 -0.19,5.03c-0.81,1.24 -0.59,2.21 0.5,2.21c1.03,0 1.81,-2.56 1.64,-5.42c-0.15,-2.59 -0.2,-2.67 -2.35,-3.79c-2.07,-1.07 -2.56,-1.12 -8.22,-0.84c-4.93,0.24 -6.58,0.52 -9.05,1.55c-1.66,0.69 -3.45,1.66 -4,2.16c-0.53,0.49 -1.55,1.12 -2.27,1.39c-1.13,0.43 -1.36,0.91 -1.84,3.82c-0.85,5.18 -2.35,9.83 -4.46,13.96c-1.06,2.09 -1.94,4.04 -1.94,4.33c0,0.34 0.68,0.46 1.84,0.3c1.26,-0.16 2.49,0.09 3.98,0.8c2.15,1.04 2.15,1.05 0.76,1.29c-0.76,0.14 -1.34,0.44 -1.27,0.66c0.08,0.22 -0.27,0.7 -0.75,1.07c-0.86,0.63 -0.85,0.69 0.09,1.64c0.79,0.8 1.71,1 4.98,1.1c3.63,0.1 3.96,0.19 3.54,0.97c-0.65,1.21 -0.59,1.39 0.64,1.88c1.95,0.78 7,0.57 8.63,-0.36zm8.79,-0.3c0.63,-0.76 2.49,-9.08 2.49,-11.15c0,-1.38 -0.86,-1.94 -1.17,-0.77c-0.09,0.34 -0.85,3.07 -1.69,6.08c-0.85,3 -1.53,5.7 -1.53,5.99c0,0.74 1.24,0.65 1.9,-0.14zm-36.95,-5c3,-1.88 3.3,-2.77 0.71,-2.18c-1.81,0.41 -6.7,3.01 -6.71,3.56c-0.02,1.02 3.43,0.22 6,-1.39zm-50.69,-2.1c-1.61,-2.2 -5.64,-5.93 -6.4,-5.93c-0.18,0 -0.88,0.45 -1.57,0.98c-0.68,0.53 -1.43,0.98 -1.66,0.98c-0.23,0 -2.48,-1.86 -5.01,-4.14c-4.02,-3.64 -4.64,-4.42 -5.15,-6.48c-0.86,-3.48 -5.21,-12.11 -6.69,-13.29c-1.89,-1.48 -2.4,-1.29 -3.49,1.31c-1.33,3.15 -1.5,4.03 -2.05,10.31c-0.27,2.99 -0.72,5.9 -1.03,6.45c-0.31,0.58 -0.41,1.81 -0.23,2.88l0.32,1.86l3.42,0.34c4.43,0.44 27.94,6.36 30.23,7.63c1.37,0.75 1.07,-0.5 -0.69,-2.9zm45.68,0.91c1.63,-0.84 2.59,-1.95 1.67,-1.95c-0.71,0 -4.14,2.04 -4.14,2.45c0,0.67 0.26,0.61 2.46,-0.5zm-1.49,-1.34c2.51,-1.26 3.36,-1.88 2.68,-1.97c-1.18,-0.18 -7.56,2.62 -7.56,3.32c0,0.84 1.11,0.53 4.88,-1.35zm-79.42,-7.74c0,-0.94 -0.25,-1.43 -0.73,-1.43c-0.8,0 -1.22,1.36 -0.77,2.51c0.46,1.21 1.5,0.46 1.5,-1.09zm122.45,-6.68c1.14,-2.49 1.2,-3.31 0.28,-3.31c-0.88,0 -2.73,2.95 -2.73,4.33c0,1.78 1.45,1.17 2.45,-1.03zm4.31,-16.28c0.75,-1.65 0.71,-3.24 -0.15,-5.46c-0.39,-1.01 -0.96,-2.83 -1.27,-4.04c-0.58,-2.28 -1.25,-3.42 -1.99,-3.42c-0.76,0 -0.47,2.81 0.59,5.63c1.01,2.69 1.1,5.73 0.23,7.69c-0.31,0.68 -0.14,0.85 0.81,0.85c0.81,0 1.39,-0.41 1.77,-1.25zm-24.97,-0.58c0.12,-0.39 -0.28,-0.61 -1.07,-0.61c-0.82,0 -1.26,0.27 -1.26,0.77c0,0.92 2.01,0.78 2.33,-0.16zm15.27,-1.94c0,-0.99 -0.14,-1.08 -0.95,-0.64c-1.25,0.66 -1.8,2.45 -0.94,3c0.84,0.53 1.89,-0.78 1.89,-2.36zm4.3,2.21c0.66,-0.65 0.8,-2.35 0.2,-2.35c-0.22,0 -0.64,0.25 -0.95,0.56c-0.42,0.42 -0.49,0.3 -0.29,-0.48c0.19,-0.7 0,-1.15 -0.54,-1.36c-1.02,-0.4 -1.6,0.18 -1.82,1.76c-0.13,0.96 0.08,1.26 0.94,1.39c0.6,0.08 1.1,0.36 1.1,0.6c0,0.63 0.67,0.57 1.37,-0.13zm-18.23,-1.86c-0.17,-0.27 -0.96,-0.48 -1.77,-0.48c-0.85,0 -1.34,0.21 -1.16,0.48c0.17,0.28 0.96,0.49 1.76,0.49c0.86,0 1.35,-0.21 1.17,-0.49zm-109.73,-5.8c0,-0.5 -3.75,-1.52 -5.56,-1.52c-1.32,0 -2.01,0.67 -1.52,1.46c0.38,0.6 7.09,0.65 7.09,0.06zm1.46,-1.73c0,-0.46 -0.85,-0.8 -2.56,-1.04c-3.07,-0.42 -2.99,-0.43 -3.2,0.2c-0.09,0.27 0.78,0.7 1.95,0.96c3.05,0.68 3.81,0.66 3.81,-0.11l0,-0.01zm-17.6,-0.07c0,-0.16 -0.25,-0.75 -0.55,-1.33c-0.56,-1.05 -0.55,-1.05 0.76,-0.19c0.72,0.48 1.65,0.8 2.06,0.71c0.44,-0.09 -0.82,-1.29 -3.09,-2.94c-2.89,-2.12 -4.41,-3.69 -6.26,-6.46c-1.35,-2.02 -2.63,-3.67 -2.87,-3.68c-0.88,-0.03 0.19,3.55 2,6.7c2.14,3.72 7.96,8.98 7.96,7.18zm17.48,-2.3c-0.28,-0.85 -3.15,-1.77 -5.66,-1.8c-2.76,-0.04 -2.5,0.95 0.45,1.74c3,0.8 5.47,0.83 5.22,0.06zm-15.2,-1.9c-1.01,-0.83 -1.71,-1.63 -1.56,-1.78c0.15,-0.15 0.76,0.18 1.37,0.71c1.43,1.3 2.81,1.77 2.81,0.98c0,-0.34 -0.66,-1 -1.47,-1.47c-0.8,-0.48 -2.79,-2.1 -4.41,-3.59c-3.28,-3.04 -4.31,-3.22 -1.86,-0.33c0.87,1.04 1.91,2.33 2.31,2.86c1.07,1.46 -3.85,-3.71 -5.62,-5.91c-0.84,-1.05 -1.69,-1.75 -1.89,-1.56c-1.12,1.07 6.08,9.32 9.68,11.1c2.64,1.31 2.93,0.86 0.66,-1.01zm148.76,-0.09c0,-0.37 -0.15,-0.8 -0.33,-0.98c-0.45,-0.44 -1.68,0.65 -1.36,1.2c0.42,0.67 1.68,0.5 1.68,-0.22zm-1.41,-1.28c0.81,-0.65 1,-1.1 0.65,-1.45c-0.63,-0.65 -2.67,0.64 -2.67,1.69c0,0.97 0.64,0.89 2.02,-0.24zm-6.03,-2.09c0.62,-0.61 0.81,-2.35 0.26,-2.35c-0.61,0 -2.12,1.62 -2.12,2.28c0,0.82 1.08,0.86 1.86,0.07zm2.45,-1.09c0.12,-0.96 -0.03,-1.3 -0.48,-1.15c-0.36,0.12 -0.72,0.83 -0.81,1.57c-0.11,0.96 0.03,1.3 0.49,1.15c0.36,-0.12 0.71,-0.82 0.8,-1.57zm4.51,0.2c0.85,-0.6 1.29,-1.28 1.12,-1.71c-0.39,-1.02 -1.02,-0.89 -2.39,0.48c-2.16,2.15 -1.26,3.02 1.27,1.23zm-150.17,-1.82c-0.96,-1.01 -2.88,-3.53 -4.27,-5.62c-2.26,-3.39 -3.47,-4.56 -3.47,-3.36c0,0.84 1.09,3.49 1.43,3.49c0.2,0 1.04,0.93 1.88,2.08c2.29,3.12 4.46,5.25 5.36,5.25c0.58,0 0.33,-0.51 -0.94,-1.84zm140.72,-0.6c0.68,-0.54 1.65,-0.98 2.16,-0.98c1.4,0 1.08,-1.41 -0.4,-1.78c-2.28,-0.56 -5.73,2.19 -4.07,3.26c0.96,0.61 0.88,0.62 2.31,-0.49zm-137.21,0.02c0,-0.69 -0.79,-1.04 -1.66,-0.7c-1.2,0.46 -0.92,1.17 0.45,1.17c0.67,0 1.22,-0.21 1.22,-0.47zm-0.77,-1.78c1.37,-0.52 0.29,-1.18 -1.94,-1.18c-2.03,0 -2.62,0.37 -1.85,1.14c0.41,0.42 2.76,0.43 3.79,0.04zm0.69,-2.7c2.25,-0.85 0.87,-1.65 -2.77,-1.62c-5.36,0.05 -4.6,-0.68 1.54,-1.49c1.49,-0.2 2.28,-0.52 2.14,-0.89c-0.11,-0.32 -0.61,-0.52 -1.13,-0.47c-0.5,0.06 -2.08,0.26 -3.48,0.44c-3.1,0.39 -3.4,-0.32 -0.61,-1.41c2.36,-0.93 2.68,-2.1 0.47,-1.65c-0.93,0.19 -1.38,0.12 -1.2,-0.19c0.17,-0.26 0.59,-0.48 0.95,-0.48c0.91,0 3.03,-1.8 2.61,-2.22c-0.19,-0.2 -1.24,0.01 -2.34,0.45c-1.09,0.44 -2.47,0.78 -3.07,0.77c-0.78,-0.02 -0.55,-0.22 0.77,-0.69c2.13,-0.75 2.59,-1.1 2.12,-1.57c-0.19,-0.19 -1.42,-0.06 -2.73,0.28c-2.06,0.52 -2.59,0.5 -3.78,-0.16l-1.39,-0.77l1.35,0.31c2.32,0.51 1.46,-0.55 -1.38,-1.74c-4.3,-1.78 -4.99,0.32 -0.88,2.72c1.43,0.85 2.23,1.69 2.41,2.55c0.46,2.21 2.03,5.26 3.67,7.15c1.47,1.67 1.71,1.77 3.58,1.45c1.1,-0.19 2.51,-0.52 3.14,-0.76zm-11.16,-1.43c0,-0.28 -0.38,-1.22 -0.84,-2.07c-0.76,-1.43 -0.85,-1.47 -1,-0.49c-0.1,0.59 0.07,1.52 0.37,2.08c0.56,1.06 1.47,1.36 1.47,0.48zm61.6,-2.92c0,-0.58 -1.39,-1.22 -1.78,-0.81c-0.44,0.43 0.3,1.32 1.07,1.32c0.39,0 0.71,-0.23 0.71,-0.5zm-8.81,-5.24c-0.01,-1.59 -0.96,-3.63 -1.83,-3.92c-0.76,-0.25 -0.8,1.62 -0.07,3.72c0.67,1.92 1.91,2.05 1.9,0.2zm1.96,-0.37c0,-0.41 -0.33,-0.74 -0.71,-0.74c-0.45,0 -0.61,0.29 -0.45,0.74c0.16,0.4 0.48,0.73 0.72,0.73c0.24,0 0.44,-0.34 0.44,-0.73zm-47.41,-4.04c0,-0.2 -1.02,-0.91 -2.26,-1.56c-1.25,-0.66 -3.22,-1.93 -4.37,-2.81c-1.16,-0.89 -2.45,-1.61 -2.88,-1.61c-0.7,0 -0.69,0.16 0.04,1.58c0.46,0.87 1.4,2.31 2.1,3.18c1.19,1.49 1.45,1.59 4.32,1.59c1.67,0 3.05,-0.17 3.05,-0.37zm0,-2.5c0,-0.66 -1.08,-1.42 -2.56,-1.78c-1.51,-0.39 -1.77,0.25 -0.57,1.44c0.81,0.81 3.14,1.06 3.14,0.34zm144.19,-3.21c0,-1.13 -2.01,-2.23 -4.06,-2.23c-2.57,0 -2.33,1.44 0.4,2.27c2.66,0.8 3.66,0.79 3.66,-0.04zm-147.7,-1.84c0.92,-0.92 0.7,-1.24 -1.01,-1.49c-2.84,-0.42 -3.86,0.63 -1.46,1.51c1.79,0.65 1.8,0.65 2.47,-0.02zm3.31,-2.3c-0.15,-0.24 0.06,-0.56 0.46,-0.71c1.49,-0.57 0.66,-1.3 -1.49,-1.3c-1.37,0 -2.11,0.2 -1.93,0.49c0.18,0.28 -0.24,0.48 -0.95,0.48c-1.3,0 -1.7,0.71 -0.63,1.15c1.07,0.43 4.83,0.34 4.55,-0.12zm142.93,-0.02c0,-1.5 -4.1,-2.58 -5.27,-1.4c-1.33,1.32 -0.64,1.85 2.35,1.85c1.61,0 2.93,-0.21 2.93,-0.46zm-140.98,-3.23c-0.99,-0.74 -5.38,-0.97 -7.58,-0.39c-1.11,0.3 -1.13,0.36 -0.24,0.69c0.51,0.21 2.7,0.39 4.86,0.4c3.54,0.02 3.82,-0.05 2.96,-0.7zm121.43,-0.92c0,-1.15 -2.36,-2.65 -4.72,-3.01c-1.7,-0.26 -2.61,-0.12 -4,0.61c-0.98,0.51 -1.73,1.15 -1.66,1.41c0.06,0.26 1.49,0.5 3.18,0.54c1.68,0.05 3.71,0.31 4.52,0.57c2.1,0.69 2.68,0.66 2.68,-0.13zm-113.54,-1.08c2.25,-0.56 1.18,-1.3 -1.43,-0.99c-1.42,0.17 -5.16,0.32 -8.31,0.32c-3.26,0 -5.74,0.2 -5.74,0.47c0,0.25 0.82,0.55 1.83,0.68c2.19,0.27 12.05,-0.08 13.66,-0.48zm-4.74,-1.59c0,-0.66 -1.88,-1.02 -5.47,-1.03c-3.04,-0.01 -4.63,0.56 -3.21,1.14c1.08,0.44 8.68,0.35 8.68,-0.11zm3.91,-2.01c0,-0.27 -1.27,-0.51 -2.81,-0.55c-1.54,-0.04 -2.26,-0.15 -1.58,-0.26c3.77,-0.57 4.39,-0.74 4.39,-1.15c0,-1.23 -11.19,-0.87 -11.61,0.37c-0.14,0.44 0.56,0.63 2.4,0.69c1.77,0.05 2.1,0.14 1.01,0.28c-0.88,0.11 -1.47,0.41 -1.32,0.65c0.39,0.62 9.51,0.59 9.51,-0.03zm70.06,-3.13c0.31,-0.8 -0.11,-1.37 -0.71,-0.99c-0.55,0.35 -0.54,1.67 0.01,1.67c0.25,0 0.55,-0.31 0.7,-0.68zm-71.64,-0.6c0.6,-0.16 1.1,-0.59 1.1,-0.97c0,-0.38 0.39,-0.68 0.85,-0.69c0.78,-0.01 0.77,-0.08 -0.09,-0.73c-1.08,-0.81 -6.91,-0.99 -8.09,-0.25c-0.63,0.4 -0.63,0.48 0,0.68c0.4,0.13 1.05,0.35 1.45,0.48c0.41,0.13 -0.3,0.26 -1.55,0.28c-2.19,0.04 -3.19,0.51 -2.5,1.2c0.4,0.4 7.35,0.4 8.83,0.01l0,-0.01zm70.51,-1.43c0.32,-0.96 0.48,-1.85 0.34,-1.98c-0.34,-0.35 -2.3,2.27 -2.3,3.06c0,1.38 1.41,0.6 1.96,-1.08zm-2.04,0.01c0.92,-2.04 0.61,-2.51 -0.67,-1.05c-1.35,1.53 -1.53,2.3 -0.55,2.3c0.37,0 0.91,-0.56 1.23,-1.25zm-30.7,-1.51c0.01,-0.23 -2.3,-0.63 -5.11,-0.91c-2.8,-0.27 -5.26,-0.65 -5.46,-0.85c-0.2,-0.2 1.38,-0.4 3.5,-0.43l3.87,-0.05l-2.69,-0.66l-2.68,-0.67l3.66,0.23c2.02,0.12 5.05,0.37 6.72,0.54c1.99,0.21 3.06,0.15 3.06,-0.19c0,-0.78 -1.15,-1.06 -7.94,-1.92l-6.32,-0.79l-2.64,2.77c-1.45,1.53 -2.65,2.97 -2.65,3.2c0,0.55 14.67,0.28 14.69,-0.27zm-29.34,-0.18c0,-0.27 -0.34,-0.48 -0.73,-0.48c-0.41,0 -0.73,0.22 -0.73,0.48c0,0.28 0.33,0.49 0.73,0.49c0.4,0 0.73,-0.22 0.73,-0.49zm-5.87,-0.93c0,-0.7 -2.75,-1.14 -4.9,-0.77c-3.1,0.52 -2.26,1.22 1.47,1.22c1.88,0 3.42,-0.2 3.42,-0.45zm12.22,-0.97c0,-0.67 -2.33,-1.1 -4.19,-0.74c-2.67,0.49 -1.95,1.18 1.25,1.18c1.61,0 2.94,-0.2 2.94,-0.44zm59.63,-0.53c0,-0.54 -0.2,-0.98 -0.44,-0.98c-0.54,0 -1.06,1.27 -0.67,1.66c0.59,0.58 1.11,0.27 1.11,-0.68zm-70.14,-0.49c-0.17,-0.27 -0.85,-0.48 -1.52,-0.48c-0.69,0 -1.09,0.21 -0.92,0.48c0.17,0.27 0.85,0.49 1.52,0.49c0.69,0 1.09,-0.22 0.92,-0.49zm-13.16,-0.51c4.04,-0.7 4.61,-0.95 3.38,-1.45c-1.82,-0.75 1.64,-0.52 7.58,0.5c3.09,0.53 6.48,0.97 7.55,0.97c3.22,0.01 1.34,-0.85 -3.16,-1.44c-2.29,-0.31 -5.74,-0.87 -7.68,-1.26c-4.28,-0.86 -8.4,-0.91 -10.25,-0.13c-1.36,0.58 -1.34,0.59 1.07,0.86l2.44,0.27l-3.07,0.63c-1.68,0.36 -2.94,0.85 -2.78,1.1c0.37,0.59 1.33,0.58 4.91,-0.05zm6.81,0.03c-0.17,-0.27 -0.62,-0.49 -1.01,-0.49c-0.39,0 -0.7,0.23 -0.7,0.49c0,0.27 0.46,0.48 1.01,0.48c0.55,0 0.87,-0.22 0.7,-0.48zm74.24,-0.77c0.46,-1.2 0.35,-5.1 -0.14,-5.1c-0.66,0 -1.03,1.32 -1.03,3.71c0,2.15 0.6,2.86 1.17,1.39zm-27.35,-0.15c0.67,-1.1 -1.51,-1.64 -7.9,-1.99c-3.7,-0.2 -6.83,-0.29 -6.94,-0.19c-0.56,0.46 0.8,0.81 4.7,1.22c2.37,0.24 5.4,0.62 6.75,0.85c1.34,0.24 2.59,0.45 2.78,0.48c0.18,0.03 0.46,-0.14 0.6,-0.38zm31.06,-1.52c0,-1.56 -0.67,-1.97 -1.17,-0.69c-0.49,1.31 -0.33,2.16 0.44,2.16c0.49,0 0.73,-0.48 0.73,-1.46zm-68.54,0.18c1.85,-0.49 1.23,-1.03 -1.65,-1.39c-1.51,-0.19 -3.75,-0.77 -4.97,-1.3c-1.72,-0.74 -3.12,-0.92 -6.14,-0.81c-5.5,0.2 -5.48,1.14 0.02,1.59c2.37,0.2 5.84,0.76 7.72,1.26c4.06,1.06 3.64,1.01 5.02,0.64zm6,-0.91c-0.02,-0.73 -2.1,-0.59 -2.35,0.16c-0.16,0.46 0.17,0.6 1.07,0.48c0.71,-0.09 1.29,-0.38 1.28,-0.64zm28.07,-0.7c-0.57,-0.56 -8.39,-1.65 -9.32,-1.3c-1.64,0.62 -0.4,1.24 2.87,1.39c1.95,0.1 4.3,0.22 5.24,0.27c1.04,0.06 1.5,-0.07 1.22,-0.36zm-31.77,-0.49c-0.7,-0.69 -6.43,-2.76 -9.65,-3.47c-2.21,-0.48 -2.96,-0.49 -3.41,-0.04c-0.82,0.82 0.35,1.51 2.57,1.53c0.94,0.01 3.15,0.54 4.89,1.19c3.28,1.19 6.45,1.64 5.6,0.79zm39.85,-0.66c0,-0.66 -4.78,-1.91 -5.54,-1.44c-0.56,0.33 3.06,1.99 4.44,2.04c0.6,0.02 1.1,-0.25 1.1,-0.59zm-35.19,-0.28c0,-0.24 -1.04,-0.9 -2.32,-1.48c-1.83,-0.83 -2.01,-1.01 -0.86,-0.82c3.3,0.53 7.58,0.85 7.58,0.56c0,-0.63 -2.68,-1.28 -8.21,-1.96c-3.15,-0.39 -7.03,-1.05 -8.63,-1.46c-3.92,-1.03 -10.04,-1.04 -10.04,-0.03c0,0.48 0.53,0.75 1.59,0.78c1.43,0.05 1.37,0.1 -0.58,0.48c-1.2,0.24 -2.51,0.78 -2.93,1.23c-0.7,0.73 -0.66,0.78 0.46,0.52c3.66,-0.82 8.04,-1.39 9.32,-1.2c1.09,0.16 1.41,0.04 1.23,-0.44c-0.31,-0.8 0.27,-0.82 2.71,-0.09c1.04,0.32 1.89,0.83 1.89,1.14c0,0.49 3.06,2.13 5.38,2.87c1.26,0.41 3.41,0.34 3.41,-0.11zm26.41,-0.4c-2.22,-0.96 -6.86,-1.46 -6.86,-0.73c0,0.29 0.71,0.64 1.58,0.79c3.43,0.55 4.09,0.63 5.5,0.65l1.46,0.03l-1.69,-0.74zm11.26,-0.66c1.71,-0.92 0.99,-1.29 -3.67,-1.86c-4.51,-0.55 -7.49,-1.33 -7.01,-1.82c0.14,-0.14 1.22,-0.02 2.39,0.25c2.66,0.61 4.83,0.65 4.83,0.09c0,-0.24 -1.1,-0.9 -2.44,-1.47c-3.52,-1.51 -3.01,-1.65 0.97,-0.27c4.03,1.41 5.03,1.49 4.81,0.4c-0.11,-0.51 -1.45,-1.22 -3.73,-1.96l-3.57,-1.16l-3.51,1.64c-3.76,1.75 -5.7,3.38 -4.73,3.99c0.31,0.2 2.69,0.53 5.28,0.76c2.6,0.22 5.71,0.73 6.93,1.13c1.21,0.41 2.27,0.74 2.36,0.76c0.08,0.02 0.57,-0.2 1.1,-0.48zm-42.17,-4.2c-1.31,-1.32 -12.12,-2.78 -12.12,-1.65c0,0.27 0.49,0.49 1.1,0.51c0.6,0.01 2.75,0.43 4.77,0.94c2.02,0.5 4.42,0.93 5.35,0.95c1.56,0.04 1.63,-0.02 0.9,-0.75zm55.58,-1.52c4.87,-1.92 14.73,-6.11 16.17,-6.87c0.93,-0.48 3.42,-1.47 12.67,-5.02c2.68,-1.03 6.64,-2.57 8.8,-3.41c2.15,-0.85 6.11,-2.09 8.8,-2.76c4.33,-1.07 5.68,-1.19 11.97,-1.02c6.43,0.17 7.37,0.31 10.26,1.54c1.74,0.75 3.84,1.6 4.64,1.91c0.81,0.31 2.43,1.28 3.62,2.16c3.23,2.4 3.68,2.22 1.8,-0.76c-1.58,-2.51 -4.97,-4.58 -10.51,-6.44c-4.01,-1.34 -5.29,-1.54 -10.03,-1.57c-6.85,-0.04 -13.62,1.07 -18.62,3.04c-0.53,0.22 -1.97,0.78 -3.18,1.26c-2.29,0.9 -4.58,1.87 -8.3,3.51c-1.22,0.53 -4.19,1.79 -6.6,2.8c-3.94,1.62 -7.03,2.95 -13.2,5.68c-1.07,0.48 -2.5,1.02 -3.18,1.22c-0.67,0.2 -2.76,1.07 -4.64,1.94c-1.88,0.88 -4.3,1.86 -5.37,2.18c-3.13,0.93 -5.19,1.98 -4.87,2.49c0.51,0.83 5.2,-0.07 9.76,-1.87zm-41.09,-0.12c2.73,-1.04 1.01,-1.4 -6.94,-1.44c-7.28,-0.05 -14.72,-0.75 -14.13,-1.34c0.12,-0.11 2.45,0.02 5.21,0.31c7.65,0.78 13.2,0.6 13.2,-0.44c0,-0.19 -3.25,-0.62 -7.2,-0.97c-8.83,-0.78 -8.1,-0.76 -14.18,-0.29c-3.48,0.27 -5.01,0.23 -5.01,-0.14c0,-0.92 1.76,-1.14 9.16,-1.18c5.22,-0.03 8.05,0.19 10.21,0.76c3.08,0.82 6.7,0.55 8.99,-0.67c1.79,-0.96 0.99,-1.12 -3.93,-0.79c-3.65,0.24 -5.85,0.12 -8.68,-0.48c-2.49,-0.52 -5.19,-0.71 -7.94,-0.56c-3.23,0.18 -3.8,0.12 -2.56,-0.26c1.77,-0.54 2.13,-1.33 0.59,-1.33c-1.6,0 -1.6,-1.16 -0.01,-3.86c0.82,-1.4 1.49,-2.72 1.49,-2.95c0,-0.63 3.31,-1.11 5.05,-0.73c0.85,0.18 2.37,0.74 3.36,1.25c1.83,0.93 5.76,1.27 5.76,0.5c0,-0.24 -0.71,-0.65 -1.58,-0.93c-3.5,-1.13 3.25,-0.62 8.18,0.6c4.98,1.24 9.53,1.6 9.53,0.76c0,-1.04 -15.6,-4.24 -23.22,-4.76c-2.96,-0.2 -4.82,-0.44 -4.16,-0.52c2.24,-0.3 2.61,-0.54 1.99,-1.3c-0.48,-0.57 -0.23,-0.65 1.53,-0.48c2.13,0.22 2.04,0.11 -1.08,-1.19l-1.22,-0.51l1.22,-0.01c0.67,-0.01 2.65,0.3 4.4,0.68c1.74,0.39 4.28,0.71 5.62,0.72c1.35,0.01 3.65,0.35 5.13,0.74c3.22,0.86 2.94,0.84 2.94,0.27c0,-0.67 -7.3,-2.88 -11.66,-3.53c-2.8,-0.42 -3.44,-0.64 -2.64,-0.94c1.45,-0.53 5.54,0.2 11.18,2c2.99,0.96 5.48,1.46 6.74,1.37l2,-0.15l-1.87,-0.95c-1.52,-0.79 -1.7,-1.02 -0.97,-1.28c0.66,-0.23 -0.14,-0.82 -3.18,-2.36l-4.06,-2.05l-6.51,0.49c-5.35,0.41 -6.84,0.69 -8.36,1.61c-3.28,1.97 -4.87,3.98 -6.33,7.99c-0.87,2.39 -3.01,6.25 -5.75,10.4c-2.39,3.62 -4.49,6.92 -4.64,7.31c-0.23,0.6 0.12,0.68 2.02,0.48c1.27,-0.15 2.67,-0.59 3.14,-1c0.73,-0.64 1.35,-0.65 4.99,-0.08c8.54,1.36 21.99,2.03 24.17,1.2zm29.12,-0.51c0,-0.28 -0.99,-0.93 -2.21,-1.45c-1.21,-0.51 -2.2,-1.05 -2.2,-1.18c0,-0.14 1.01,0.18 2.24,0.71c2.4,1.03 4.12,1.24 4.12,0.5c0,-0.25 -0.78,-0.7 -1.74,-1.02c-0.96,-0.32 -1.63,-0.69 -1.49,-0.83c0.14,-0.14 1.3,0.11 2.56,0.53c2.91,1 3.79,1.01 3.43,0.06c-0.21,-0.53 0.07,-0.73 1.04,-0.75l1.34,-0.01l-1.16,-0.97l-1.17,-0.97l1.17,0.13c1.78,0.2 1.43,-1.22 -0.45,-1.76c-1.84,-0.52 -2.47,-0.17 -1.58,0.9c0.72,0.87 0.52,0.92 -1.2,0.27c-0.97,-0.38 -1.99,-0.24 -4.31,0.54c-4.08,1.39 -6.21,2.39 -6.21,2.95c0,0.58 2.97,1.83 5.58,2.35c1.1,0.22 2.05,0.43 2.12,0.46c0.07,0.03 0.13,-0.18 0.13,-0.46zm-34.48,-6.29c0.95,-0.37 0.95,-0.4 -0.09,-0.94c-1.26,-0.68 -5.46,-0.74 -6.48,-0.1c-0.63,0.4 -0.63,0.48 0,0.7c2.07,0.7 5.22,0.87 6.58,0.34l-0.01,0zm2.43,-2.44c0.66,-1.08 -15.49,-1.75 -17.6,-0.74c-0.66,0.32 1.22,0.53 6.14,0.72c3.9,0.14 8.01,0.31 9.13,0.37c1.13,0.05 2.18,-0.1 2.33,-0.35zm11.51,-0.54c0,-1.21 -5.26,-1.97 -6.83,-0.98c-0.63,0.4 -0.63,0.48 0,0.69c2.26,0.78 6.83,0.97 6.83,0.29zm-11.47,-0.95c-0.51,-0.83 -3.82,-1.47 -7.57,-1.47c-4.78,0 -3.97,0.76 1.44,1.37c5.81,0.63 6.45,0.64 6.13,0.11zm-13.18,-2.03c0.47,-0.74 -0.74,-1.44 -2.23,-1.29c-0.7,0.07 -1.29,0.48 -1.38,0.98c-0.13,0.68 0.18,0.85 1.55,0.85c0.94,0 1.87,-0.24 2.05,-0.54zm20.74,0.11c-1.11,-0.62 -9.14,-2.11 -10.13,-1.87c-0.66,0.16 -0.53,0.34 0.59,0.8c2.54,1.04 11.22,2.01 9.54,1.07zm-19.55,-2.54c0,-0.25 -0.58,-0.44 -1.29,-0.44c-1.06,0 -1.18,0.12 -0.69,0.7c0.59,0.71 1.98,0.52 1.98,-0.27zm33.23,-0.9c-1.22,-0.7 -5.37,-1.18 -5.37,-0.6c0,0.64 1.15,0.94 3.91,0.99c1.47,0.03 1.96,-0.1 1.46,-0.39zm-9.78,-0.42c0,-0.53 -2.37,-1.31 -7.57,-2.45c-5.38,-1.19 -9.53,-1.65 -9.53,-1.08c0,0.55 4.12,1.71 8.8,2.47c2.01,0.33 4.1,0.77 4.64,0.99c1.29,0.51 3.66,0.56 3.66,0.07zm12.97,-1.11c0.52,-0.85 -0.12,-1.12 -3.21,-1.35c-2,-0.14 -2.92,-0.03 -2.92,0.36c0,1.24 5.43,2.11 6.13,0.99zm-4.44,-2.88c-0.63,-0.63 -6.57,-1.99 -6.57,-1.49c0,0.21 0.82,0.73 1.83,1.15c2.05,0.85 5.49,1.1 4.74,0.35zm9.31,-1.75c-0.81,-0.37 -1.8,-0.68 -2.2,-0.7c-0.41,-0.02 -3.81,-1.02 -7.56,-2.23c-7.5,-2.39 -7.98,-2.5 -7.15,-1.5c0.31,0.38 2.47,1.27 4.82,1.99c2.35,0.71 5.58,1.71 7.19,2.22c1.61,0.51 3.7,0.92 4.64,0.91l1.71,-0.01l-1.46,-0.67zm-10.26,-0.7c-0.16,-0.27 -2.33,-1.12 -4.8,-1.89c-2.48,-0.77 -5.43,-1.88 -6.56,-2.45c-1.12,-0.57 -2.65,-1.05 -3.39,-1.05l-1.35,0l1.11,0.78c1.71,1.2 6.81,3.2 10.59,4.16c4.05,1.02 4.8,1.1 4.4,0.46zm17.26,-2.32c-0.1,-0.49 -0.87,-1.01 -1.87,-1.26c-3.8,-0.93 -5.9,-1.61 -11.94,-3.86c-3.47,-1.3 -6.55,-2.35 -6.84,-2.34c-1.54,0.04 2.24,2 6.49,3.35c2.67,0.85 6.7,2.31 8.95,3.23c4.67,1.91 5.43,2.04 5.21,0.87zm-17.75,-2.06c-3.64,-1.67 -8.04,-3.16 -8.38,-2.81c-0.77,0.77 7.57,4.24 10.09,4.19c0.92,-0.01 0.48,-0.36 -1.71,-1.38zm30.89,-0.4c-0.75,-0.75 -0.82,-0.75 -0.82,-0.03c0,0.44 0.28,0.89 0.61,1.01c0.99,0.37 1.1,-0.1 0.21,-0.98zm-23.91,0.57c-0.48,-0.48 -12.34,-5.01 -12.56,-4.8c-0.51,0.48 1.26,1.46 5.7,3.15c4.23,1.61 7.64,2.42 6.86,1.65zm8.41,-1.21c-0.4,-0.25 -2.38,-1.04 -4.38,-1.75c-2.02,-0.72 -4.99,-1.85 -6.6,-2.51c-1.61,-0.66 -3.7,-1.32 -4.64,-1.44c-1.54,-0.22 -1.64,-0.17 -0.98,0.51c0.41,0.43 3.81,1.74 7.57,2.93c3.77,1.19 7.39,2.39 8.07,2.65c1.4,0.56 2.05,0.3 0.97,-0.39zm19.07,0.05c0,-0.52 -3.03,-2.48 -3.84,-2.48c-1.12,0 -0.47,0.76 1.54,1.8c2.5,1.29 2.3,1.23 2.3,0.68zm3.91,-1.26c-0.33,-0.41 -0.93,-0.73 -1.34,-0.73c-0.59,0 -0.62,0.14 -0.13,0.73c0.34,0.41 0.94,0.73 1.35,0.73c0.59,0 0.61,-0.14 0.12,-0.73zm3.65,-1.2c-1.31,-1.31 -4.8,-2.76 -4.51,-1.89c0.25,0.76 3.72,2.82 4.76,2.83c0.55,0.01 0.49,-0.22 -0.25,-0.94zm-25.64,0.23c0,-0.39 -3.53,-2.06 -5.76,-2.72c-1.16,-0.35 -1.87,-0.77 -1.59,-0.94c0.29,-0.18 -0.34,-1.11 -1.43,-2.14c-1.64,-1.56 -2.08,-1.76 -2.93,-1.31c-1.31,0.7 -1.27,0.83 0.59,1.97c1.51,0.92 1.53,0.97 0.4,0.97c-1.71,0 -0.73,0.69 2.41,1.7c1.48,0.48 3.13,1.09 3.65,1.37c1.82,0.94 4.66,1.61 4.66,1.1zm29.78,-2.49c-1.34,-1.43 -3.44,-2.64 -4.58,-2.64c-1.45,0 -0.73,0.97 1.81,2.42c3.24,1.86 4.39,1.95 2.77,0.22zm-11.41,0.03c-0.52,-0.39 -1.07,-0.59 -1.21,-0.45c-0.31,0.31 0.93,1.18 1.65,1.17c0.28,-0.01 0.07,-0.33 -0.45,-0.72zm5.92,-0.49c-1.2,-1.05 -3.76,-1.69 -3.76,-0.94c0,0.33 3.96,2.16 4.64,2.16c0.28,0 -0.12,-0.55 -0.88,-1.22zm-25.28,-0.75c-1.46,-1.14 -4.75,-2.22 -5.25,-1.71c-0.45,0.45 0.91,1.26 3.79,2.3c2.6,0.93 3.14,0.72 1.45,-0.58zm15.66,-2.82c0,-1.24 -6.09,-4.46 -8.43,-4.47c-1.03,0 -1.35,0.24 -1.35,0.99c0,1.11 0.25,1.24 5.13,2.73c3.96,1.21 4.65,1.32 4.65,0.75zm-2.44,-4.87c0,-0.22 -0.28,-0.77 -0.62,-1.24c-0.5,-0.7 -0.95,-0.77 -2.56,-0.41c-2.11,0.47 -2.15,0.42 1.23,1.68c1.11,0.42 1.96,0.41 1.96,-0.04z" fill="#ffffff" id="path45312" stroke-width="0.49"/>
  </g>
 </g>
</svg>